%TF.GenerationSoftware,KiCad,Pcbnew,6.0.5-2.fc34*%
%TF.CreationDate,2022-08-23T22:10:19+03:00*%
%TF.ProjectId,spartan3,73706172-7461-46e3-932e-6b696361645f,rev?*%
%TF.SameCoordinates,Original*%
%TF.FileFunction,Legend,Bot*%
%TF.FilePolarity,Positive*%
%FSLAX46Y46*%
G04 Gerber Fmt 4.6, Leading zero omitted, Abs format (unit mm)*
G04 Created by KiCad (PCBNEW 6.0.5-2.fc34) date 2022-08-23 22:10:19*
%MOMM*%
%LPD*%
G01*
G04 APERTURE LIST*
%ADD10C,0.200000*%
%ADD11C,0.300000*%
%ADD12C,0.150000*%
%ADD13C,0.120000*%
G04 APERTURE END LIST*
D10*
X13970000Y-20320000D02*
X62230000Y-20320000D01*
X62230000Y-20320000D02*
X62230000Y-5080000D01*
X62230000Y-5080000D02*
X13970000Y-5080000D01*
X13970000Y-5080000D02*
X13970000Y-20320000D01*
D11*
X59558571Y-7691428D02*
X59701428Y-7620000D01*
X59772857Y-7548571D01*
X59844285Y-7405714D01*
X59844285Y-7334285D01*
X59772857Y-7191428D01*
X59701428Y-7120000D01*
X59558571Y-7048571D01*
X59272857Y-7048571D01*
X59130000Y-7120000D01*
X59058571Y-7191428D01*
X58987142Y-7334285D01*
X58987142Y-7405714D01*
X59058571Y-7548571D01*
X59130000Y-7620000D01*
X59272857Y-7691428D01*
X59558571Y-7691428D01*
X59701428Y-7762857D01*
X59772857Y-7834285D01*
X59844285Y-7977142D01*
X59844285Y-8262857D01*
X59772857Y-8405714D01*
X59701428Y-8477142D01*
X59558571Y-8548571D01*
X59272857Y-8548571D01*
X59130000Y-8477142D01*
X59058571Y-8405714D01*
X58987142Y-8262857D01*
X58987142Y-7977142D01*
X59058571Y-7834285D01*
X59130000Y-7762857D01*
X59272857Y-7691428D01*
X58344285Y-7977142D02*
X57201428Y-7977142D01*
X56487142Y-8548571D02*
X56487142Y-7048571D01*
X56487142Y-7620000D02*
X56344285Y-7548571D01*
X56058571Y-7548571D01*
X55915714Y-7620000D01*
X55844285Y-7691428D01*
X55772857Y-7834285D01*
X55772857Y-8262857D01*
X55844285Y-8405714D01*
X55915714Y-8477142D01*
X56058571Y-8548571D01*
X56344285Y-8548571D01*
X56487142Y-8477142D01*
X55130000Y-8548571D02*
X55130000Y-7548571D01*
X55130000Y-7048571D02*
X55201428Y-7120000D01*
X55130000Y-7191428D01*
X55058571Y-7120000D01*
X55130000Y-7048571D01*
X55130000Y-7191428D01*
X54630000Y-7548571D02*
X54058571Y-7548571D01*
X54415714Y-7048571D02*
X54415714Y-8334285D01*
X54344285Y-8477142D01*
X54201428Y-8548571D01*
X54058571Y-8548571D01*
X51558571Y-8405714D02*
X51630000Y-8477142D01*
X51844285Y-8548571D01*
X51987142Y-8548571D01*
X52201428Y-8477142D01*
X52344285Y-8334285D01*
X52415714Y-8191428D01*
X52487142Y-7905714D01*
X52487142Y-7691428D01*
X52415714Y-7405714D01*
X52344285Y-7262857D01*
X52201428Y-7120000D01*
X51987142Y-7048571D01*
X51844285Y-7048571D01*
X51630000Y-7120000D01*
X51558571Y-7191428D01*
X50915714Y-8548571D02*
X50915714Y-7048571D01*
X50344285Y-7048571D01*
X50201428Y-7120000D01*
X50130000Y-7191428D01*
X50058571Y-7334285D01*
X50058571Y-7548571D01*
X50130000Y-7691428D01*
X50201428Y-7762857D01*
X50344285Y-7834285D01*
X50915714Y-7834285D01*
X49415714Y-7048571D02*
X49415714Y-8262857D01*
X49344285Y-8405714D01*
X49272857Y-8477142D01*
X49130000Y-8548571D01*
X48844285Y-8548571D01*
X48701428Y-8477142D01*
X48630000Y-8405714D01*
X48558571Y-8262857D01*
X48558571Y-7048571D01*
X46701428Y-8548571D02*
X46701428Y-7048571D01*
X46701428Y-7620000D02*
X46558571Y-7548571D01*
X46272857Y-7548571D01*
X46130000Y-7620000D01*
X46058571Y-7691428D01*
X45987142Y-7834285D01*
X45987142Y-8262857D01*
X46058571Y-8405714D01*
X46130000Y-8477142D01*
X46272857Y-8548571D01*
X46558571Y-8548571D01*
X46701428Y-8477142D01*
X44701428Y-8548571D02*
X44701428Y-7762857D01*
X44772857Y-7620000D01*
X44915714Y-7548571D01*
X45201428Y-7548571D01*
X45344285Y-7620000D01*
X44701428Y-8477142D02*
X44844285Y-8548571D01*
X45201428Y-8548571D01*
X45344285Y-8477142D01*
X45415714Y-8334285D01*
X45415714Y-8191428D01*
X45344285Y-8048571D01*
X45201428Y-7977142D01*
X44844285Y-7977142D01*
X44701428Y-7905714D01*
X44058571Y-8477142D02*
X43915714Y-8548571D01*
X43630000Y-8548571D01*
X43487142Y-8477142D01*
X43415714Y-8334285D01*
X43415714Y-8262857D01*
X43487142Y-8120000D01*
X43630000Y-8048571D01*
X43844285Y-8048571D01*
X43987142Y-7977142D01*
X44058571Y-7834285D01*
X44058571Y-7762857D01*
X43987142Y-7620000D01*
X43844285Y-7548571D01*
X43630000Y-7548571D01*
X43487142Y-7620000D01*
X42201428Y-8477142D02*
X42344285Y-8548571D01*
X42630000Y-8548571D01*
X42772857Y-8477142D01*
X42844285Y-8334285D01*
X42844285Y-7762857D01*
X42772857Y-7620000D01*
X42630000Y-7548571D01*
X42344285Y-7548571D01*
X42201428Y-7620000D01*
X42130000Y-7762857D01*
X42130000Y-7905714D01*
X42844285Y-8048571D01*
X40844285Y-8548571D02*
X40844285Y-7048571D01*
X40844285Y-8477142D02*
X40987142Y-8548571D01*
X41272857Y-8548571D01*
X41415714Y-8477142D01*
X41487142Y-8405714D01*
X41558571Y-8262857D01*
X41558571Y-7834285D01*
X41487142Y-7691428D01*
X41415714Y-7620000D01*
X41272857Y-7548571D01*
X40987142Y-7548571D01*
X40844285Y-7620000D01*
X38344285Y-8477142D02*
X38487142Y-8548571D01*
X38772857Y-8548571D01*
X38915714Y-8477142D01*
X38987142Y-8405714D01*
X39058571Y-8262857D01*
X39058571Y-7834285D01*
X38987142Y-7691428D01*
X38915714Y-7620000D01*
X38772857Y-7548571D01*
X38487142Y-7548571D01*
X38344285Y-7620000D01*
X37487142Y-8548571D02*
X37630000Y-8477142D01*
X37701428Y-8405714D01*
X37772857Y-8262857D01*
X37772857Y-7834285D01*
X37701428Y-7691428D01*
X37630000Y-7620000D01*
X37487142Y-7548571D01*
X37272857Y-7548571D01*
X37130000Y-7620000D01*
X37058571Y-7691428D01*
X36987142Y-7834285D01*
X36987142Y-8262857D01*
X37058571Y-8405714D01*
X37130000Y-8477142D01*
X37272857Y-8548571D01*
X37487142Y-8548571D01*
X36344285Y-8548571D02*
X36344285Y-7548571D01*
X36344285Y-7691428D02*
X36272857Y-7620000D01*
X36130000Y-7548571D01*
X35915714Y-7548571D01*
X35772857Y-7620000D01*
X35701428Y-7762857D01*
X35701428Y-8548571D01*
X35701428Y-7762857D02*
X35630000Y-7620000D01*
X35487142Y-7548571D01*
X35272857Y-7548571D01*
X35130000Y-7620000D01*
X35058571Y-7762857D01*
X35058571Y-8548571D01*
X34344285Y-7548571D02*
X34344285Y-9048571D01*
X34344285Y-7620000D02*
X34201428Y-7548571D01*
X33915714Y-7548571D01*
X33772857Y-7620000D01*
X33701428Y-7691428D01*
X33630000Y-7834285D01*
X33630000Y-8262857D01*
X33701428Y-8405714D01*
X33772857Y-8477142D01*
X33915714Y-8548571D01*
X34201428Y-8548571D01*
X34344285Y-8477142D01*
X32344285Y-7548571D02*
X32344285Y-8548571D01*
X32987142Y-7548571D02*
X32987142Y-8334285D01*
X32915714Y-8477142D01*
X32772857Y-8548571D01*
X32558571Y-8548571D01*
X32415714Y-8477142D01*
X32344285Y-8405714D01*
X31844285Y-7548571D02*
X31272857Y-7548571D01*
X31630000Y-7048571D02*
X31630000Y-8334285D01*
X31558571Y-8477142D01*
X31415714Y-8548571D01*
X31272857Y-8548571D01*
X30201428Y-8477142D02*
X30344285Y-8548571D01*
X30630000Y-8548571D01*
X30772857Y-8477142D01*
X30844285Y-8334285D01*
X30844285Y-7762857D01*
X30772857Y-7620000D01*
X30630000Y-7548571D01*
X30344285Y-7548571D01*
X30201428Y-7620000D01*
X30130000Y-7762857D01*
X30130000Y-7905714D01*
X30844285Y-8048571D01*
X29487142Y-8548571D02*
X29487142Y-7548571D01*
X29487142Y-7834285D02*
X29415714Y-7691428D01*
X29344285Y-7620000D01*
X29201428Y-7548571D01*
X29058571Y-7548571D01*
X59987142Y-11878571D02*
X59487142Y-13378571D01*
X58987142Y-11878571D01*
X57915714Y-13307142D02*
X58058571Y-13378571D01*
X58344285Y-13378571D01*
X58487142Y-13307142D01*
X58558571Y-13164285D01*
X58558571Y-12592857D01*
X58487142Y-12450000D01*
X58344285Y-12378571D01*
X58058571Y-12378571D01*
X57915714Y-12450000D01*
X57844285Y-12592857D01*
X57844285Y-12735714D01*
X58558571Y-12878571D01*
X57201428Y-13378571D02*
X57201428Y-12378571D01*
X57201428Y-12664285D02*
X57130000Y-12521428D01*
X57058571Y-12450000D01*
X56915714Y-12378571D01*
X56772857Y-12378571D01*
X56344285Y-13307142D02*
X56201428Y-13378571D01*
X55915714Y-13378571D01*
X55772857Y-13307142D01*
X55701428Y-13164285D01*
X55701428Y-13092857D01*
X55772857Y-12950000D01*
X55915714Y-12878571D01*
X56130000Y-12878571D01*
X56272857Y-12807142D01*
X56344285Y-12664285D01*
X56344285Y-12592857D01*
X56272857Y-12450000D01*
X56130000Y-12378571D01*
X55915714Y-12378571D01*
X55772857Y-12450000D01*
X55058571Y-13378571D02*
X55058571Y-12378571D01*
X55058571Y-11878571D02*
X55130000Y-11950000D01*
X55058571Y-12021428D01*
X54987142Y-11950000D01*
X55058571Y-11878571D01*
X55058571Y-12021428D01*
X54130000Y-13378571D02*
X54272857Y-13307142D01*
X54344285Y-13235714D01*
X54415714Y-13092857D01*
X54415714Y-12664285D01*
X54344285Y-12521428D01*
X54272857Y-12450000D01*
X54130000Y-12378571D01*
X53915714Y-12378571D01*
X53772857Y-12450000D01*
X53701428Y-12521428D01*
X53630000Y-12664285D01*
X53630000Y-13092857D01*
X53701428Y-13235714D01*
X53772857Y-13307142D01*
X53915714Y-13378571D01*
X54130000Y-13378571D01*
X52987142Y-12378571D02*
X52987142Y-13378571D01*
X52987142Y-12521428D02*
X52915714Y-12450000D01*
X52772857Y-12378571D01*
X52558571Y-12378571D01*
X52415714Y-12450000D01*
X52344285Y-12592857D01*
X52344285Y-13378571D01*
X51630000Y-13235714D02*
X51558571Y-13307142D01*
X51630000Y-13378571D01*
X51701428Y-13307142D01*
X51630000Y-13235714D01*
X51630000Y-13378571D01*
X51630000Y-12450000D02*
X51558571Y-12521428D01*
X51630000Y-12592857D01*
X51701428Y-12521428D01*
X51630000Y-12450000D01*
X51630000Y-12592857D01*
X49487142Y-11878571D02*
X49344285Y-11878571D01*
X49201428Y-11950000D01*
X49130000Y-12021428D01*
X49058571Y-12164285D01*
X48987142Y-12450000D01*
X48987142Y-12807142D01*
X49058571Y-13092857D01*
X49130000Y-13235714D01*
X49201428Y-13307142D01*
X49344285Y-13378571D01*
X49487142Y-13378571D01*
X49630000Y-13307142D01*
X49701428Y-13235714D01*
X49772857Y-13092857D01*
X49844285Y-12807142D01*
X49844285Y-12450000D01*
X49772857Y-12164285D01*
X49701428Y-12021428D01*
X49630000Y-11950000D01*
X49487142Y-11878571D01*
X48344285Y-13235714D02*
X48272857Y-13307142D01*
X48344285Y-13378571D01*
X48415714Y-13307142D01*
X48344285Y-13235714D01*
X48344285Y-13378571D01*
X47344285Y-11878571D02*
X47201428Y-11878571D01*
X47058571Y-11950000D01*
X46987142Y-12021428D01*
X46915714Y-12164285D01*
X46844285Y-12450000D01*
X46844285Y-12807142D01*
X46915714Y-13092857D01*
X46987142Y-13235714D01*
X47058571Y-13307142D01*
X47201428Y-13378571D01*
X47344285Y-13378571D01*
X47487142Y-13307142D01*
X47558571Y-13235714D01*
X47630000Y-13092857D01*
X47701428Y-12807142D01*
X47701428Y-12450000D01*
X47630000Y-12164285D01*
X47558571Y-12021428D01*
X47487142Y-11950000D01*
X47344285Y-11878571D01*
X46201428Y-13235714D02*
X46130000Y-13307142D01*
X46201428Y-13378571D01*
X46272857Y-13307142D01*
X46201428Y-13235714D01*
X46201428Y-13378571D01*
X44701428Y-13378571D02*
X45558571Y-13378571D01*
X45130000Y-13378571D02*
X45130000Y-11878571D01*
X45272857Y-12092857D01*
X45415714Y-12235714D01*
X45558571Y-12307142D01*
X44058571Y-13235714D02*
X43987142Y-13307142D01*
X44058571Y-13378571D01*
X44130000Y-13307142D01*
X44058571Y-13235714D01*
X44058571Y-13378571D01*
X43058571Y-11878571D02*
X42915714Y-11878571D01*
X42772857Y-11950000D01*
X42701428Y-12021428D01*
X42630000Y-12164285D01*
X42558571Y-12450000D01*
X42558571Y-12807142D01*
X42630000Y-13092857D01*
X42701428Y-13235714D01*
X42772857Y-13307142D01*
X42915714Y-13378571D01*
X43058571Y-13378571D01*
X43201428Y-13307142D01*
X43272857Y-13235714D01*
X43344285Y-13092857D01*
X43415714Y-12807142D01*
X43415714Y-12450000D01*
X43344285Y-12164285D01*
X43272857Y-12021428D01*
X43201428Y-11950000D01*
X43058571Y-11878571D01*
X59844285Y-15365000D02*
X59130000Y-15365000D01*
X59987142Y-15793571D02*
X59487142Y-14293571D01*
X58987142Y-15793571D01*
X57844285Y-14793571D02*
X57844285Y-15793571D01*
X58487142Y-14793571D02*
X58487142Y-15579285D01*
X58415714Y-15722142D01*
X58272857Y-15793571D01*
X58058571Y-15793571D01*
X57915714Y-15722142D01*
X57844285Y-15650714D01*
X57344285Y-14793571D02*
X56772857Y-14793571D01*
X57130000Y-14293571D02*
X57130000Y-15579285D01*
X57058571Y-15722142D01*
X56915714Y-15793571D01*
X56772857Y-15793571D01*
X56272857Y-15793571D02*
X56272857Y-14293571D01*
X55630000Y-15793571D02*
X55630000Y-15007857D01*
X55701428Y-14865000D01*
X55844285Y-14793571D01*
X56058571Y-14793571D01*
X56201428Y-14865000D01*
X56272857Y-14936428D01*
X54701428Y-15793571D02*
X54844285Y-15722142D01*
X54915714Y-15650714D01*
X54987142Y-15507857D01*
X54987142Y-15079285D01*
X54915714Y-14936428D01*
X54844285Y-14865000D01*
X54701428Y-14793571D01*
X54487142Y-14793571D01*
X54344285Y-14865000D01*
X54272857Y-14936428D01*
X54201428Y-15079285D01*
X54201428Y-15507857D01*
X54272857Y-15650714D01*
X54344285Y-15722142D01*
X54487142Y-15793571D01*
X54701428Y-15793571D01*
X53558571Y-15793571D02*
X53558571Y-14793571D01*
X53558571Y-15079285D02*
X53487142Y-14936428D01*
X53415714Y-14865000D01*
X53272857Y-14793571D01*
X53130000Y-14793571D01*
X52630000Y-15650714D02*
X52558571Y-15722142D01*
X52630000Y-15793571D01*
X52701428Y-15722142D01*
X52630000Y-15650714D01*
X52630000Y-15793571D01*
X52630000Y-14865000D02*
X52558571Y-14936428D01*
X52630000Y-15007857D01*
X52701428Y-14936428D01*
X52630000Y-14865000D01*
X52630000Y-15007857D01*
X49630000Y-15793571D02*
X49630000Y-14293571D01*
X48772857Y-15793571D01*
X48772857Y-14293571D01*
X48058571Y-15793571D02*
X48058571Y-14793571D01*
X48058571Y-14293571D02*
X48130000Y-14365000D01*
X48058571Y-14436428D01*
X47987142Y-14365000D01*
X48058571Y-14293571D01*
X48058571Y-14436428D01*
X47344285Y-15793571D02*
X47344285Y-14293571D01*
X47201428Y-15222142D02*
X46772857Y-15793571D01*
X46772857Y-14793571D02*
X47344285Y-15365000D01*
X46130000Y-15793571D02*
X46130000Y-14793571D01*
X46130000Y-14293571D02*
X46201428Y-14365000D01*
X46130000Y-14436428D01*
X46058571Y-14365000D01*
X46130000Y-14293571D01*
X46130000Y-14436428D01*
X45630000Y-14793571D02*
X45058571Y-14793571D01*
X45415714Y-14293571D02*
X45415714Y-15579285D01*
X45344285Y-15722142D01*
X45201428Y-15793571D01*
X45058571Y-15793571D01*
X44558571Y-15793571D02*
X44558571Y-14793571D01*
X44558571Y-14293571D02*
X44630000Y-14365000D01*
X44558571Y-14436428D01*
X44487142Y-14365000D01*
X44558571Y-14293571D01*
X44558571Y-14436428D01*
X43844285Y-14793571D02*
X43844285Y-15793571D01*
X43844285Y-14936428D02*
X43772857Y-14865000D01*
X43630000Y-14793571D01*
X43415714Y-14793571D01*
X43272857Y-14865000D01*
X43201428Y-15007857D01*
X43201428Y-15793571D01*
X40487142Y-15793571D02*
X40987142Y-15079285D01*
X41344285Y-15793571D02*
X41344285Y-14293571D01*
X40772857Y-14293571D01*
X40630000Y-14365000D01*
X40558571Y-14436428D01*
X40487142Y-14579285D01*
X40487142Y-14793571D01*
X40558571Y-14936428D01*
X40630000Y-15007857D01*
X40772857Y-15079285D01*
X41344285Y-15079285D01*
X39630000Y-15793571D02*
X39772857Y-15722142D01*
X39844285Y-15650714D01*
X39915714Y-15507857D01*
X39915714Y-15079285D01*
X39844285Y-14936428D01*
X39772857Y-14865000D01*
X39630000Y-14793571D01*
X39415714Y-14793571D01*
X39272857Y-14865000D01*
X39201428Y-14936428D01*
X39130000Y-15079285D01*
X39130000Y-15507857D01*
X39201428Y-15650714D01*
X39272857Y-15722142D01*
X39415714Y-15793571D01*
X39630000Y-15793571D01*
X38558571Y-15722142D02*
X38415714Y-15793571D01*
X38130000Y-15793571D01*
X37987142Y-15722142D01*
X37915714Y-15579285D01*
X37915714Y-15507857D01*
X37987142Y-15365000D01*
X38130000Y-15293571D01*
X38344285Y-15293571D01*
X38487142Y-15222142D01*
X38558571Y-15079285D01*
X38558571Y-15007857D01*
X38487142Y-14865000D01*
X38344285Y-14793571D01*
X38130000Y-14793571D01*
X37987142Y-14865000D01*
X37487142Y-14793571D02*
X36915714Y-14793571D01*
X37272857Y-14293571D02*
X37272857Y-15579285D01*
X37201428Y-15722142D01*
X37058571Y-15793571D01*
X36915714Y-15793571D01*
X36558571Y-14793571D02*
X36201428Y-15793571D01*
X35844285Y-14793571D02*
X36201428Y-15793571D01*
X36344285Y-16150714D01*
X36415714Y-16222142D01*
X36558571Y-16293571D01*
X35344285Y-15722142D02*
X35201428Y-15793571D01*
X34915714Y-15793571D01*
X34772857Y-15722142D01*
X34701428Y-15579285D01*
X34701428Y-15507857D01*
X34772857Y-15365000D01*
X34915714Y-15293571D01*
X35130000Y-15293571D01*
X35272857Y-15222142D01*
X35344285Y-15079285D01*
X35344285Y-15007857D01*
X35272857Y-14865000D01*
X35130000Y-14793571D01*
X34915714Y-14793571D01*
X34772857Y-14865000D01*
X33844285Y-15793571D02*
X33987142Y-15722142D01*
X34058571Y-15579285D01*
X34058571Y-14293571D01*
X32630000Y-15793571D02*
X32630000Y-15007857D01*
X32701428Y-14865000D01*
X32844285Y-14793571D01*
X33130000Y-14793571D01*
X33272857Y-14865000D01*
X32630000Y-15722142D02*
X32772857Y-15793571D01*
X33130000Y-15793571D01*
X33272857Y-15722142D01*
X33344285Y-15579285D01*
X33344285Y-15436428D01*
X33272857Y-15293571D01*
X33130000Y-15222142D01*
X32772857Y-15222142D01*
X32630000Y-15150714D01*
X32058571Y-14793571D02*
X31701428Y-15793571D01*
X31344285Y-14793571D01*
X29844285Y-14293571D02*
X29344285Y-15793571D01*
X28844285Y-14293571D01*
X27701428Y-15793571D02*
X27701428Y-15007857D01*
X27772857Y-14865000D01*
X27915714Y-14793571D01*
X28201428Y-14793571D01*
X28344285Y-14865000D01*
X27701428Y-15722142D02*
X27844285Y-15793571D01*
X28201428Y-15793571D01*
X28344285Y-15722142D01*
X28415714Y-15579285D01*
X28415714Y-15436428D01*
X28344285Y-15293571D01*
X28201428Y-15222142D01*
X27844285Y-15222142D01*
X27701428Y-15150714D01*
X26344285Y-15793571D02*
X26344285Y-14293571D01*
X26344285Y-15722142D02*
X26487142Y-15793571D01*
X26772857Y-15793571D01*
X26915714Y-15722142D01*
X26987142Y-15650714D01*
X27058571Y-15507857D01*
X27058571Y-15079285D01*
X26987142Y-14936428D01*
X26915714Y-14865000D01*
X26772857Y-14793571D01*
X26487142Y-14793571D01*
X26344285Y-14865000D01*
X25772857Y-14793571D02*
X25415714Y-15793571D01*
X25058571Y-14793571D02*
X25415714Y-15793571D01*
X25558571Y-16150714D01*
X25630000Y-16222142D01*
X25772857Y-16293571D01*
X24487142Y-15793571D02*
X24487142Y-14793571D01*
X24487142Y-14936428D02*
X24415714Y-14865000D01*
X24272857Y-14793571D01*
X24058571Y-14793571D01*
X23915714Y-14865000D01*
X23844285Y-15007857D01*
X23844285Y-15793571D01*
X23844285Y-15007857D02*
X23772857Y-14865000D01*
X23630000Y-14793571D01*
X23415714Y-14793571D01*
X23272857Y-14865000D01*
X23201428Y-15007857D01*
X23201428Y-15793571D01*
X22272857Y-15793571D02*
X22415714Y-15722142D01*
X22487142Y-15650714D01*
X22558571Y-15507857D01*
X22558571Y-15079285D01*
X22487142Y-14936428D01*
X22415714Y-14865000D01*
X22272857Y-14793571D01*
X22058571Y-14793571D01*
X21915714Y-14865000D01*
X21844285Y-14936428D01*
X21772857Y-15079285D01*
X21772857Y-15507857D01*
X21844285Y-15650714D01*
X21915714Y-15722142D01*
X22058571Y-15793571D01*
X22272857Y-15793571D01*
X21272857Y-14793571D02*
X20915714Y-15793571D01*
X20558571Y-14793571D01*
X20130000Y-14793571D02*
X19772857Y-15793571D01*
X19415714Y-14793571D02*
X19772857Y-15793571D01*
X19915714Y-16150714D01*
X19987142Y-16222142D01*
X20130000Y-16293571D01*
X18201428Y-15722142D02*
X18344285Y-15793571D01*
X18630000Y-15793571D01*
X18772857Y-15722142D01*
X18844285Y-15650714D01*
X18915714Y-15507857D01*
X18915714Y-15079285D01*
X18844285Y-14936428D01*
X18772857Y-14865000D01*
X18630000Y-14793571D01*
X18344285Y-14793571D01*
X18201428Y-14865000D01*
X17558571Y-15793571D02*
X17558571Y-14293571D01*
X16915714Y-15793571D02*
X16915714Y-15007857D01*
X16987142Y-14865000D01*
X17130000Y-14793571D01*
X17344285Y-14793571D01*
X17487142Y-14865000D01*
X17558571Y-14936428D01*
X59772857Y-18208571D02*
X59772857Y-16708571D01*
X59415714Y-16708571D01*
X59201428Y-16780000D01*
X59058571Y-16922857D01*
X58987142Y-17065714D01*
X58915714Y-17351428D01*
X58915714Y-17565714D01*
X58987142Y-17851428D01*
X59058571Y-17994285D01*
X59201428Y-18137142D01*
X59415714Y-18208571D01*
X59772857Y-18208571D01*
X57630000Y-18208571D02*
X57630000Y-17422857D01*
X57701428Y-17280000D01*
X57844285Y-17208571D01*
X58130000Y-17208571D01*
X58272857Y-17280000D01*
X57630000Y-18137142D02*
X57772857Y-18208571D01*
X58130000Y-18208571D01*
X58272857Y-18137142D01*
X58344285Y-17994285D01*
X58344285Y-17851428D01*
X58272857Y-17708571D01*
X58130000Y-17637142D01*
X57772857Y-17637142D01*
X57630000Y-17565714D01*
X57130000Y-17208571D02*
X56558571Y-17208571D01*
X56915714Y-16708571D02*
X56915714Y-17994285D01*
X56844285Y-18137142D01*
X56701428Y-18208571D01*
X56558571Y-18208571D01*
X55487142Y-18137142D02*
X55629999Y-18208571D01*
X55915714Y-18208571D01*
X56058571Y-18137142D01*
X56129999Y-17994285D01*
X56129999Y-17422857D01*
X56058571Y-17280000D01*
X55915714Y-17208571D01*
X55629999Y-17208571D01*
X55487142Y-17280000D01*
X55415714Y-17422857D01*
X55415714Y-17565714D01*
X56129999Y-17708571D01*
X54772857Y-18065714D02*
X54701428Y-18137142D01*
X54772857Y-18208571D01*
X54844285Y-18137142D01*
X54772857Y-18065714D01*
X54772857Y-18208571D01*
X54772857Y-17280000D02*
X54701428Y-17351428D01*
X54772857Y-17422857D01*
X54844285Y-17351428D01*
X54772857Y-17280000D01*
X54772857Y-17422857D01*
X48701428Y-18208571D02*
X49558571Y-18208571D01*
X49130000Y-18208571D02*
X49130000Y-16708571D01*
X49272857Y-16922857D01*
X49415714Y-17065714D01*
X49558571Y-17137142D01*
X47415714Y-16708571D02*
X47701428Y-16708571D01*
X47844285Y-16780000D01*
X47915714Y-16851428D01*
X48058571Y-17065714D01*
X48130000Y-17351428D01*
X48130000Y-17922857D01*
X48058571Y-18065714D01*
X47987142Y-18137142D01*
X47844285Y-18208571D01*
X47558571Y-18208571D01*
X47415714Y-18137142D01*
X47344285Y-18065714D01*
X47272857Y-17922857D01*
X47272857Y-17565714D01*
X47344285Y-17422857D01*
X47415714Y-17351428D01*
X47558571Y-17280000D01*
X47844285Y-17280000D01*
X47987142Y-17351428D01*
X48058571Y-17422857D01*
X48130000Y-17565714D01*
X46630000Y-17637142D02*
X45487142Y-17637142D01*
X44487142Y-16708571D02*
X44344285Y-16708571D01*
X44201428Y-16780000D01*
X44130000Y-16851428D01*
X44058571Y-16994285D01*
X43987142Y-17280000D01*
X43987142Y-17637142D01*
X44058571Y-17922857D01*
X44130000Y-18065714D01*
X44201428Y-18137142D01*
X44344285Y-18208571D01*
X44487142Y-18208571D01*
X44630000Y-18137142D01*
X44701428Y-18065714D01*
X44772857Y-17922857D01*
X44844285Y-17637142D01*
X44844285Y-17280000D01*
X44772857Y-16994285D01*
X44701428Y-16851428D01*
X44630000Y-16780000D01*
X44487142Y-16708571D01*
X43130000Y-17351428D02*
X43272857Y-17280000D01*
X43344285Y-17208571D01*
X43415714Y-17065714D01*
X43415714Y-16994285D01*
X43344285Y-16851428D01*
X43272857Y-16780000D01*
X43130000Y-16708571D01*
X42844285Y-16708571D01*
X42701428Y-16780000D01*
X42630000Y-16851428D01*
X42558571Y-16994285D01*
X42558571Y-17065714D01*
X42630000Y-17208571D01*
X42701428Y-17280000D01*
X42844285Y-17351428D01*
X43130000Y-17351428D01*
X43272857Y-17422857D01*
X43344285Y-17494285D01*
X43415714Y-17637142D01*
X43415714Y-17922857D01*
X43344285Y-18065714D01*
X43272857Y-18137142D01*
X43130000Y-18208571D01*
X42844285Y-18208571D01*
X42701428Y-18137142D01*
X42630000Y-18065714D01*
X42558571Y-17922857D01*
X42558571Y-17637142D01*
X42630000Y-17494285D01*
X42701428Y-17422857D01*
X42844285Y-17351428D01*
X41915714Y-17637142D02*
X40772857Y-17637142D01*
X40130000Y-16851428D02*
X40058571Y-16780000D01*
X39915714Y-16708571D01*
X39558571Y-16708571D01*
X39415714Y-16780000D01*
X39344285Y-16851428D01*
X39272857Y-16994285D01*
X39272857Y-17137142D01*
X39344285Y-17351428D01*
X40201428Y-18208571D01*
X39272857Y-18208571D01*
X38344285Y-16708571D02*
X38201428Y-16708571D01*
X38058571Y-16780000D01*
X37987142Y-16851428D01*
X37915714Y-16994285D01*
X37844285Y-17280000D01*
X37844285Y-17637142D01*
X37915714Y-17922857D01*
X37987142Y-18065714D01*
X38058571Y-18137142D01*
X38201428Y-18208571D01*
X38344285Y-18208571D01*
X38487142Y-18137142D01*
X38558571Y-18065714D01*
X38630000Y-17922857D01*
X38701428Y-17637142D01*
X38701428Y-17280000D01*
X38630000Y-16994285D01*
X38558571Y-16851428D01*
X38487142Y-16780000D01*
X38344285Y-16708571D01*
X37272857Y-16851428D02*
X37201428Y-16780000D01*
X37058571Y-16708571D01*
X36701428Y-16708571D01*
X36558571Y-16780000D01*
X36487142Y-16851428D01*
X36415714Y-16994285D01*
X36415714Y-17137142D01*
X36487142Y-17351428D01*
X37344285Y-18208571D01*
X36415714Y-18208571D01*
X35844285Y-16851428D02*
X35772857Y-16780000D01*
X35630000Y-16708571D01*
X35272857Y-16708571D01*
X35130000Y-16780000D01*
X35058571Y-16851428D01*
X34987142Y-16994285D01*
X34987142Y-17137142D01*
X35058571Y-17351428D01*
X35915714Y-18208571D01*
X34987142Y-18208571D01*
D12*
%TO.C,U_eeprom_0*%
X149041904Y-68032380D02*
X149041904Y-68841904D01*
X148994285Y-68937142D01*
X148946666Y-68984761D01*
X148851428Y-69032380D01*
X148660952Y-69032380D01*
X148565714Y-68984761D01*
X148518095Y-68937142D01*
X148470476Y-68841904D01*
X148470476Y-68032380D01*
X148232380Y-69127619D02*
X147470476Y-69127619D01*
X146851428Y-68984761D02*
X146946666Y-69032380D01*
X147137142Y-69032380D01*
X147232380Y-68984761D01*
X147280000Y-68889523D01*
X147280000Y-68508571D01*
X147232380Y-68413333D01*
X147137142Y-68365714D01*
X146946666Y-68365714D01*
X146851428Y-68413333D01*
X146803809Y-68508571D01*
X146803809Y-68603809D01*
X147280000Y-68699047D01*
X145994285Y-68984761D02*
X146089523Y-69032380D01*
X146280000Y-69032380D01*
X146375238Y-68984761D01*
X146422857Y-68889523D01*
X146422857Y-68508571D01*
X146375238Y-68413333D01*
X146280000Y-68365714D01*
X146089523Y-68365714D01*
X145994285Y-68413333D01*
X145946666Y-68508571D01*
X145946666Y-68603809D01*
X146422857Y-68699047D01*
X145518095Y-68365714D02*
X145518095Y-69365714D01*
X145518095Y-68413333D02*
X145422857Y-68365714D01*
X145232380Y-68365714D01*
X145137142Y-68413333D01*
X145089523Y-68460952D01*
X145041904Y-68556190D01*
X145041904Y-68841904D01*
X145089523Y-68937142D01*
X145137142Y-68984761D01*
X145232380Y-69032380D01*
X145422857Y-69032380D01*
X145518095Y-68984761D01*
X144613333Y-69032380D02*
X144613333Y-68365714D01*
X144613333Y-68556190D02*
X144565714Y-68460952D01*
X144518095Y-68413333D01*
X144422857Y-68365714D01*
X144327619Y-68365714D01*
X143851428Y-69032380D02*
X143946666Y-68984761D01*
X143994285Y-68937142D01*
X144041904Y-68841904D01*
X144041904Y-68556190D01*
X143994285Y-68460952D01*
X143946666Y-68413333D01*
X143851428Y-68365714D01*
X143708571Y-68365714D01*
X143613333Y-68413333D01*
X143565714Y-68460952D01*
X143518095Y-68556190D01*
X143518095Y-68841904D01*
X143565714Y-68937142D01*
X143613333Y-68984761D01*
X143708571Y-69032380D01*
X143851428Y-69032380D01*
X143089523Y-69032380D02*
X143089523Y-68365714D01*
X143089523Y-68460952D02*
X143041904Y-68413333D01*
X142946666Y-68365714D01*
X142803809Y-68365714D01*
X142708571Y-68413333D01*
X142660952Y-68508571D01*
X142660952Y-69032380D01*
X142660952Y-68508571D02*
X142613333Y-68413333D01*
X142518095Y-68365714D01*
X142375238Y-68365714D01*
X142280000Y-68413333D01*
X142232380Y-68508571D01*
X142232380Y-69032380D01*
X141994285Y-69127619D02*
X141232380Y-69127619D01*
X140803809Y-68032380D02*
X140708571Y-68032380D01*
X140613333Y-68080000D01*
X140565714Y-68127619D01*
X140518095Y-68222857D01*
X140470476Y-68413333D01*
X140470476Y-68651428D01*
X140518095Y-68841904D01*
X140565714Y-68937142D01*
X140613333Y-68984761D01*
X140708571Y-69032380D01*
X140803809Y-69032380D01*
X140899047Y-68984761D01*
X140946666Y-68937142D01*
X140994285Y-68841904D01*
X141041904Y-68651428D01*
X141041904Y-68413333D01*
X140994285Y-68222857D01*
X140946666Y-68127619D01*
X140899047Y-68080000D01*
X140803809Y-68032380D01*
%TO.C,C_clk_0*%
X204827142Y-55126190D02*
X204874761Y-55078571D01*
X204922380Y-54935714D01*
X204922380Y-54840476D01*
X204874761Y-54697619D01*
X204779523Y-54602380D01*
X204684285Y-54554761D01*
X204493809Y-54507142D01*
X204350952Y-54507142D01*
X204160476Y-54554761D01*
X204065238Y-54602380D01*
X203970000Y-54697619D01*
X203922380Y-54840476D01*
X203922380Y-54935714D01*
X203970000Y-55078571D01*
X204017619Y-55126190D01*
X205017619Y-55316666D02*
X205017619Y-56078571D01*
X204874761Y-56745238D02*
X204922380Y-56650000D01*
X204922380Y-56459523D01*
X204874761Y-56364285D01*
X204827142Y-56316666D01*
X204731904Y-56269047D01*
X204446190Y-56269047D01*
X204350952Y-56316666D01*
X204303333Y-56364285D01*
X204255714Y-56459523D01*
X204255714Y-56650000D01*
X204303333Y-56745238D01*
X204922380Y-57316666D02*
X204874761Y-57221428D01*
X204779523Y-57173809D01*
X203922380Y-57173809D01*
X204922380Y-57697619D02*
X203922380Y-57697619D01*
X204541428Y-57792857D02*
X204922380Y-58078571D01*
X204255714Y-58078571D02*
X204636666Y-57697619D01*
X205017619Y-58269047D02*
X205017619Y-59030952D01*
X203922380Y-59459523D02*
X203922380Y-59554761D01*
X203970000Y-59650000D01*
X204017619Y-59697619D01*
X204112857Y-59745238D01*
X204303333Y-59792857D01*
X204541428Y-59792857D01*
X204731904Y-59745238D01*
X204827142Y-59697619D01*
X204874761Y-59650000D01*
X204922380Y-59554761D01*
X204922380Y-59459523D01*
X204874761Y-59364285D01*
X204827142Y-59316666D01*
X204731904Y-59269047D01*
X204541428Y-59221428D01*
X204303333Y-59221428D01*
X204112857Y-59269047D01*
X204017619Y-59316666D01*
X203970000Y-59364285D01*
X203922380Y-59459523D01*
%TO.C,U_pwr_vcc_0*%
X207628571Y-34432380D02*
X207628571Y-35241904D01*
X207580952Y-35337142D01*
X207533333Y-35384761D01*
X207438095Y-35432380D01*
X207247619Y-35432380D01*
X207152380Y-35384761D01*
X207104761Y-35337142D01*
X207057142Y-35241904D01*
X207057142Y-34432380D01*
X206819047Y-35527619D02*
X206057142Y-35527619D01*
X205819047Y-34765714D02*
X205819047Y-35765714D01*
X205819047Y-34813333D02*
X205723809Y-34765714D01*
X205533333Y-34765714D01*
X205438095Y-34813333D01*
X205390476Y-34860952D01*
X205342857Y-34956190D01*
X205342857Y-35241904D01*
X205390476Y-35337142D01*
X205438095Y-35384761D01*
X205533333Y-35432380D01*
X205723809Y-35432380D01*
X205819047Y-35384761D01*
X205009523Y-34765714D02*
X204819047Y-35432380D01*
X204628571Y-34956190D01*
X204438095Y-35432380D01*
X204247619Y-34765714D01*
X203866666Y-35432380D02*
X203866666Y-34765714D01*
X203866666Y-34956190D02*
X203819047Y-34860952D01*
X203771428Y-34813333D01*
X203676190Y-34765714D01*
X203580952Y-34765714D01*
X203485714Y-35527619D02*
X202723809Y-35527619D01*
X202580952Y-34765714D02*
X202342857Y-35432380D01*
X202104761Y-34765714D01*
X201295238Y-35384761D02*
X201390476Y-35432380D01*
X201580952Y-35432380D01*
X201676190Y-35384761D01*
X201723809Y-35337142D01*
X201771428Y-35241904D01*
X201771428Y-34956190D01*
X201723809Y-34860952D01*
X201676190Y-34813333D01*
X201580952Y-34765714D01*
X201390476Y-34765714D01*
X201295238Y-34813333D01*
X200438095Y-35384761D02*
X200533333Y-35432380D01*
X200723809Y-35432380D01*
X200819047Y-35384761D01*
X200866666Y-35337142D01*
X200914285Y-35241904D01*
X200914285Y-34956190D01*
X200866666Y-34860952D01*
X200819047Y-34813333D01*
X200723809Y-34765714D01*
X200533333Y-34765714D01*
X200438095Y-34813333D01*
X200247619Y-35527619D02*
X199485714Y-35527619D01*
X199057142Y-34432380D02*
X198961904Y-34432380D01*
X198866666Y-34480000D01*
X198819047Y-34527619D01*
X198771428Y-34622857D01*
X198723809Y-34813333D01*
X198723809Y-35051428D01*
X198771428Y-35241904D01*
X198819047Y-35337142D01*
X198866666Y-35384761D01*
X198961904Y-35432380D01*
X199057142Y-35432380D01*
X199152380Y-35384761D01*
X199200000Y-35337142D01*
X199247619Y-35241904D01*
X199295238Y-35051428D01*
X199295238Y-34813333D01*
X199247619Y-34622857D01*
X199200000Y-34527619D01*
X199152380Y-34480000D01*
X199057142Y-34432380D01*
%TO.C,J_P128_0*%
X164552380Y-26186190D02*
X165266666Y-26186190D01*
X165409523Y-26138571D01*
X165504761Y-26043333D01*
X165552380Y-25900476D01*
X165552380Y-25805238D01*
X165647619Y-26424285D02*
X165647619Y-27186190D01*
X165552380Y-27424285D02*
X164552380Y-27424285D01*
X164552380Y-27805238D01*
X164600000Y-27900476D01*
X164647619Y-27948095D01*
X164742857Y-27995714D01*
X164885714Y-27995714D01*
X164980952Y-27948095D01*
X165028571Y-27900476D01*
X165076190Y-27805238D01*
X165076190Y-27424285D01*
X165552380Y-28948095D02*
X165552380Y-28376666D01*
X165552380Y-28662380D02*
X164552380Y-28662380D01*
X164695238Y-28567142D01*
X164790476Y-28471904D01*
X164838095Y-28376666D01*
X164647619Y-29329047D02*
X164600000Y-29376666D01*
X164552380Y-29471904D01*
X164552380Y-29710000D01*
X164600000Y-29805238D01*
X164647619Y-29852857D01*
X164742857Y-29900476D01*
X164838095Y-29900476D01*
X164980952Y-29852857D01*
X165552380Y-29281428D01*
X165552380Y-29900476D01*
X164980952Y-30471904D02*
X164933333Y-30376666D01*
X164885714Y-30329047D01*
X164790476Y-30281428D01*
X164742857Y-30281428D01*
X164647619Y-30329047D01*
X164600000Y-30376666D01*
X164552380Y-30471904D01*
X164552380Y-30662380D01*
X164600000Y-30757619D01*
X164647619Y-30805238D01*
X164742857Y-30852857D01*
X164790476Y-30852857D01*
X164885714Y-30805238D01*
X164933333Y-30757619D01*
X164980952Y-30662380D01*
X164980952Y-30471904D01*
X165028571Y-30376666D01*
X165076190Y-30329047D01*
X165171428Y-30281428D01*
X165361904Y-30281428D01*
X165457142Y-30329047D01*
X165504761Y-30376666D01*
X165552380Y-30471904D01*
X165552380Y-30662380D01*
X165504761Y-30757619D01*
X165457142Y-30805238D01*
X165361904Y-30852857D01*
X165171428Y-30852857D01*
X165076190Y-30805238D01*
X165028571Y-30757619D01*
X164980952Y-30662380D01*
X165647619Y-31043333D02*
X165647619Y-31805238D01*
X164552380Y-32233809D02*
X164552380Y-32329047D01*
X164600000Y-32424285D01*
X164647619Y-32471904D01*
X164742857Y-32519523D01*
X164933333Y-32567142D01*
X165171428Y-32567142D01*
X165361904Y-32519523D01*
X165457142Y-32471904D01*
X165504761Y-32424285D01*
X165552380Y-32329047D01*
X165552380Y-32233809D01*
X165504761Y-32138571D01*
X165457142Y-32090952D01*
X165361904Y-32043333D01*
X165171428Y-31995714D01*
X164933333Y-31995714D01*
X164742857Y-32043333D01*
X164647619Y-32090952D01*
X164600000Y-32138571D01*
X164552380Y-32233809D01*
%TO.C,R__eeprom_dq1_0*%
X150312380Y-65310476D02*
X149836190Y-64977142D01*
X150312380Y-64739047D02*
X149312380Y-64739047D01*
X149312380Y-65120000D01*
X149360000Y-65215238D01*
X149407619Y-65262857D01*
X149502857Y-65310476D01*
X149645714Y-65310476D01*
X149740952Y-65262857D01*
X149788571Y-65215238D01*
X149836190Y-65120000D01*
X149836190Y-64739047D01*
X150407619Y-65500952D02*
X150407619Y-66262857D01*
X150407619Y-66262857D02*
X150407619Y-67024761D01*
X150264761Y-67643809D02*
X150312380Y-67548571D01*
X150312380Y-67358095D01*
X150264761Y-67262857D01*
X150169523Y-67215238D01*
X149788571Y-67215238D01*
X149693333Y-67262857D01*
X149645714Y-67358095D01*
X149645714Y-67548571D01*
X149693333Y-67643809D01*
X149788571Y-67691428D01*
X149883809Y-67691428D01*
X149979047Y-67215238D01*
X150264761Y-68500952D02*
X150312380Y-68405714D01*
X150312380Y-68215238D01*
X150264761Y-68120000D01*
X150169523Y-68072380D01*
X149788571Y-68072380D01*
X149693333Y-68120000D01*
X149645714Y-68215238D01*
X149645714Y-68405714D01*
X149693333Y-68500952D01*
X149788571Y-68548571D01*
X149883809Y-68548571D01*
X149979047Y-68072380D01*
X149645714Y-68977142D02*
X150645714Y-68977142D01*
X149693333Y-68977142D02*
X149645714Y-69072380D01*
X149645714Y-69262857D01*
X149693333Y-69358095D01*
X149740952Y-69405714D01*
X149836190Y-69453333D01*
X150121904Y-69453333D01*
X150217142Y-69405714D01*
X150264761Y-69358095D01*
X150312380Y-69262857D01*
X150312380Y-69072380D01*
X150264761Y-68977142D01*
X150312380Y-69881904D02*
X149645714Y-69881904D01*
X149836190Y-69881904D02*
X149740952Y-69929523D01*
X149693333Y-69977142D01*
X149645714Y-70072380D01*
X149645714Y-70167619D01*
X150312380Y-70643809D02*
X150264761Y-70548571D01*
X150217142Y-70500952D01*
X150121904Y-70453333D01*
X149836190Y-70453333D01*
X149740952Y-70500952D01*
X149693333Y-70548571D01*
X149645714Y-70643809D01*
X149645714Y-70786666D01*
X149693333Y-70881904D01*
X149740952Y-70929523D01*
X149836190Y-70977142D01*
X150121904Y-70977142D01*
X150217142Y-70929523D01*
X150264761Y-70881904D01*
X150312380Y-70786666D01*
X150312380Y-70643809D01*
X150312380Y-71405714D02*
X149645714Y-71405714D01*
X149740952Y-71405714D02*
X149693333Y-71453333D01*
X149645714Y-71548571D01*
X149645714Y-71691428D01*
X149693333Y-71786666D01*
X149788571Y-71834285D01*
X150312380Y-71834285D01*
X149788571Y-71834285D02*
X149693333Y-71881904D01*
X149645714Y-71977142D01*
X149645714Y-72120000D01*
X149693333Y-72215238D01*
X149788571Y-72262857D01*
X150312380Y-72262857D01*
X150407619Y-72500952D02*
X150407619Y-73262857D01*
X150312380Y-73929523D02*
X149312380Y-73929523D01*
X150264761Y-73929523D02*
X150312380Y-73834285D01*
X150312380Y-73643809D01*
X150264761Y-73548571D01*
X150217142Y-73500952D01*
X150121904Y-73453333D01*
X149836190Y-73453333D01*
X149740952Y-73500952D01*
X149693333Y-73548571D01*
X149645714Y-73643809D01*
X149645714Y-73834285D01*
X149693333Y-73929523D01*
X149645714Y-74834285D02*
X150645714Y-74834285D01*
X150264761Y-74834285D02*
X150312380Y-74739047D01*
X150312380Y-74548571D01*
X150264761Y-74453333D01*
X150217142Y-74405714D01*
X150121904Y-74358095D01*
X149836190Y-74358095D01*
X149740952Y-74405714D01*
X149693333Y-74453333D01*
X149645714Y-74548571D01*
X149645714Y-74739047D01*
X149693333Y-74834285D01*
X150312380Y-75834285D02*
X150312380Y-75262857D01*
X150312380Y-75548571D02*
X149312380Y-75548571D01*
X149455238Y-75453333D01*
X149550476Y-75358095D01*
X149598095Y-75262857D01*
X150407619Y-76024761D02*
X150407619Y-76786666D01*
X149312380Y-77215238D02*
X149312380Y-77310476D01*
X149360000Y-77405714D01*
X149407619Y-77453333D01*
X149502857Y-77500952D01*
X149693333Y-77548571D01*
X149931428Y-77548571D01*
X150121904Y-77500952D01*
X150217142Y-77453333D01*
X150264761Y-77405714D01*
X150312380Y-77310476D01*
X150312380Y-77215238D01*
X150264761Y-77120000D01*
X150217142Y-77072380D01*
X150121904Y-77024761D01*
X149931428Y-76977142D01*
X149693333Y-76977142D01*
X149502857Y-77024761D01*
X149407619Y-77072380D01*
X149360000Y-77120000D01*
X149312380Y-77215238D01*
%TO.C,U_FPGA_0*%
X164670952Y-35012380D02*
X164670952Y-35821904D01*
X164623333Y-35917142D01*
X164575714Y-35964761D01*
X164480476Y-36012380D01*
X164290000Y-36012380D01*
X164194761Y-35964761D01*
X164147142Y-35917142D01*
X164099523Y-35821904D01*
X164099523Y-35012380D01*
X163861428Y-36107619D02*
X163099523Y-36107619D01*
X162528095Y-35488571D02*
X162861428Y-35488571D01*
X162861428Y-36012380D02*
X162861428Y-35012380D01*
X162385238Y-35012380D01*
X162004285Y-36012380D02*
X162004285Y-35012380D01*
X161623333Y-35012380D01*
X161528095Y-35060000D01*
X161480476Y-35107619D01*
X161432857Y-35202857D01*
X161432857Y-35345714D01*
X161480476Y-35440952D01*
X161528095Y-35488571D01*
X161623333Y-35536190D01*
X162004285Y-35536190D01*
X160480476Y-35060000D02*
X160575714Y-35012380D01*
X160718571Y-35012380D01*
X160861428Y-35060000D01*
X160956666Y-35155238D01*
X161004285Y-35250476D01*
X161051904Y-35440952D01*
X161051904Y-35583809D01*
X161004285Y-35774285D01*
X160956666Y-35869523D01*
X160861428Y-35964761D01*
X160718571Y-36012380D01*
X160623333Y-36012380D01*
X160480476Y-35964761D01*
X160432857Y-35917142D01*
X160432857Y-35583809D01*
X160623333Y-35583809D01*
X160051904Y-35726666D02*
X159575714Y-35726666D01*
X160147142Y-36012380D02*
X159813809Y-35012380D01*
X159480476Y-36012380D01*
X159385238Y-36107619D02*
X158623333Y-36107619D01*
X158194761Y-35012380D02*
X158099523Y-35012380D01*
X158004285Y-35060000D01*
X157956666Y-35107619D01*
X157909047Y-35202857D01*
X157861428Y-35393333D01*
X157861428Y-35631428D01*
X157909047Y-35821904D01*
X157956666Y-35917142D01*
X158004285Y-35964761D01*
X158099523Y-36012380D01*
X158194761Y-36012380D01*
X158290000Y-35964761D01*
X158337619Y-35917142D01*
X158385238Y-35821904D01*
X158432857Y-35631428D01*
X158432857Y-35393333D01*
X158385238Y-35202857D01*
X158337619Y-35107619D01*
X158290000Y-35060000D01*
X158194761Y-35012380D01*
%TO.C,R_M_0*%
X165552380Y-64540000D02*
X165076190Y-64206666D01*
X165552380Y-63968571D02*
X164552380Y-63968571D01*
X164552380Y-64349523D01*
X164600000Y-64444761D01*
X164647619Y-64492380D01*
X164742857Y-64540000D01*
X164885714Y-64540000D01*
X164980952Y-64492380D01*
X165028571Y-64444761D01*
X165076190Y-64349523D01*
X165076190Y-63968571D01*
X165647619Y-64730476D02*
X165647619Y-65492380D01*
X165552380Y-65730476D02*
X164552380Y-65730476D01*
X165266666Y-66063809D01*
X164552380Y-66397142D01*
X165552380Y-66397142D01*
X165647619Y-66635238D02*
X165647619Y-67397142D01*
X164552380Y-67825714D02*
X164552380Y-67920952D01*
X164600000Y-68016190D01*
X164647619Y-68063809D01*
X164742857Y-68111428D01*
X164933333Y-68159047D01*
X165171428Y-68159047D01*
X165361904Y-68111428D01*
X165457142Y-68063809D01*
X165504761Y-68016190D01*
X165552380Y-67920952D01*
X165552380Y-67825714D01*
X165504761Y-67730476D01*
X165457142Y-67682857D01*
X165361904Y-67635238D01*
X165171428Y-67587619D01*
X164933333Y-67587619D01*
X164742857Y-67635238D01*
X164647619Y-67682857D01*
X164600000Y-67730476D01*
X164552380Y-67825714D01*
%TO.C,C_clk_out_0*%
X198540238Y-55602142D02*
X198587857Y-55649761D01*
X198730714Y-55697380D01*
X198825952Y-55697380D01*
X198968809Y-55649761D01*
X199064047Y-55554523D01*
X199111666Y-55459285D01*
X199159285Y-55268809D01*
X199159285Y-55125952D01*
X199111666Y-54935476D01*
X199064047Y-54840238D01*
X198968809Y-54745000D01*
X198825952Y-54697380D01*
X198730714Y-54697380D01*
X198587857Y-54745000D01*
X198540238Y-54792619D01*
X198349761Y-55792619D02*
X197587857Y-55792619D01*
X196921190Y-55649761D02*
X197016428Y-55697380D01*
X197206904Y-55697380D01*
X197302142Y-55649761D01*
X197349761Y-55602142D01*
X197397380Y-55506904D01*
X197397380Y-55221190D01*
X197349761Y-55125952D01*
X197302142Y-55078333D01*
X197206904Y-55030714D01*
X197016428Y-55030714D01*
X196921190Y-55078333D01*
X196349761Y-55697380D02*
X196445000Y-55649761D01*
X196492619Y-55554523D01*
X196492619Y-54697380D01*
X195968809Y-55697380D02*
X195968809Y-54697380D01*
X195873571Y-55316428D02*
X195587857Y-55697380D01*
X195587857Y-55030714D02*
X195968809Y-55411666D01*
X195397380Y-55792619D02*
X194635476Y-55792619D01*
X194254523Y-55697380D02*
X194349761Y-55649761D01*
X194397380Y-55602142D01*
X194445000Y-55506904D01*
X194445000Y-55221190D01*
X194397380Y-55125952D01*
X194349761Y-55078333D01*
X194254523Y-55030714D01*
X194111666Y-55030714D01*
X194016428Y-55078333D01*
X193968809Y-55125952D01*
X193921190Y-55221190D01*
X193921190Y-55506904D01*
X193968809Y-55602142D01*
X194016428Y-55649761D01*
X194111666Y-55697380D01*
X194254523Y-55697380D01*
X193064047Y-55030714D02*
X193064047Y-55697380D01*
X193492619Y-55030714D02*
X193492619Y-55554523D01*
X193445000Y-55649761D01*
X193349761Y-55697380D01*
X193206904Y-55697380D01*
X193111666Y-55649761D01*
X193064047Y-55602142D01*
X192730714Y-55030714D02*
X192349761Y-55030714D01*
X192587857Y-54697380D02*
X192587857Y-55554523D01*
X192540238Y-55649761D01*
X192445000Y-55697380D01*
X192349761Y-55697380D01*
X192254523Y-55792619D02*
X191492619Y-55792619D01*
X191064047Y-54697380D02*
X190968809Y-54697380D01*
X190873571Y-54745000D01*
X190825952Y-54792619D01*
X190778333Y-54887857D01*
X190730714Y-55078333D01*
X190730714Y-55316428D01*
X190778333Y-55506904D01*
X190825952Y-55602142D01*
X190873571Y-55649761D01*
X190968809Y-55697380D01*
X191064047Y-55697380D01*
X191159285Y-55649761D01*
X191206904Y-55602142D01*
X191254523Y-55506904D01*
X191302142Y-55316428D01*
X191302142Y-55078333D01*
X191254523Y-54887857D01*
X191206904Y-54792619D01*
X191159285Y-54745000D01*
X191064047Y-54697380D01*
%TO.C,R_JTAG_TMS_0*%
X156828571Y-16962380D02*
X157161904Y-16486190D01*
X157400000Y-16962380D02*
X157400000Y-15962380D01*
X157019047Y-15962380D01*
X156923809Y-16010000D01*
X156876190Y-16057619D01*
X156828571Y-16152857D01*
X156828571Y-16295714D01*
X156876190Y-16390952D01*
X156923809Y-16438571D01*
X157019047Y-16486190D01*
X157400000Y-16486190D01*
X156638095Y-17057619D02*
X155876190Y-17057619D01*
X155352380Y-15962380D02*
X155352380Y-16676666D01*
X155400000Y-16819523D01*
X155495238Y-16914761D01*
X155638095Y-16962380D01*
X155733333Y-16962380D01*
X155019047Y-15962380D02*
X154447619Y-15962380D01*
X154733333Y-16962380D02*
X154733333Y-15962380D01*
X154161904Y-16676666D02*
X153685714Y-16676666D01*
X154257142Y-16962380D02*
X153923809Y-15962380D01*
X153590476Y-16962380D01*
X152733333Y-16010000D02*
X152828571Y-15962380D01*
X152971428Y-15962380D01*
X153114285Y-16010000D01*
X153209523Y-16105238D01*
X153257142Y-16200476D01*
X153304761Y-16390952D01*
X153304761Y-16533809D01*
X153257142Y-16724285D01*
X153209523Y-16819523D01*
X153114285Y-16914761D01*
X152971428Y-16962380D01*
X152876190Y-16962380D01*
X152733333Y-16914761D01*
X152685714Y-16867142D01*
X152685714Y-16533809D01*
X152876190Y-16533809D01*
X152495238Y-17057619D02*
X151733333Y-17057619D01*
X151638095Y-15962380D02*
X151066666Y-15962380D01*
X151352380Y-16962380D02*
X151352380Y-15962380D01*
X150733333Y-16962380D02*
X150733333Y-15962380D01*
X150400000Y-16676666D01*
X150066666Y-15962380D01*
X150066666Y-16962380D01*
X149638095Y-16914761D02*
X149495238Y-16962380D01*
X149257142Y-16962380D01*
X149161904Y-16914761D01*
X149114285Y-16867142D01*
X149066666Y-16771904D01*
X149066666Y-16676666D01*
X149114285Y-16581428D01*
X149161904Y-16533809D01*
X149257142Y-16486190D01*
X149447619Y-16438571D01*
X149542857Y-16390952D01*
X149590476Y-16343333D01*
X149638095Y-16248095D01*
X149638095Y-16152857D01*
X149590476Y-16057619D01*
X149542857Y-16010000D01*
X149447619Y-15962380D01*
X149209523Y-15962380D01*
X149066666Y-16010000D01*
X148876190Y-17057619D02*
X148114285Y-17057619D01*
X147685714Y-15962380D02*
X147590476Y-15962380D01*
X147495238Y-16010000D01*
X147447619Y-16057619D01*
X147400000Y-16152857D01*
X147352380Y-16343333D01*
X147352380Y-16581428D01*
X147400000Y-16771904D01*
X147447619Y-16867142D01*
X147495238Y-16914761D01*
X147590476Y-16962380D01*
X147685714Y-16962380D01*
X147780952Y-16914761D01*
X147828571Y-16867142D01*
X147876190Y-16771904D01*
X147923809Y-16581428D01*
X147923809Y-16343333D01*
X147876190Y-16152857D01*
X147828571Y-16057619D01*
X147780952Y-16010000D01*
X147685714Y-15962380D01*
%TO.C,J_TDO_0*%
X149566380Y-27980000D02*
X150280666Y-27980000D01*
X150423523Y-27932380D01*
X150518761Y-27837142D01*
X150566380Y-27694285D01*
X150566380Y-27599047D01*
X150661619Y-28218095D02*
X150661619Y-28980000D01*
X149566380Y-29075238D02*
X149566380Y-29646666D01*
X150566380Y-29360952D02*
X149566380Y-29360952D01*
X150566380Y-29980000D02*
X149566380Y-29980000D01*
X149566380Y-30218095D01*
X149614000Y-30360952D01*
X149709238Y-30456190D01*
X149804476Y-30503809D01*
X149994952Y-30551428D01*
X150137809Y-30551428D01*
X150328285Y-30503809D01*
X150423523Y-30456190D01*
X150518761Y-30360952D01*
X150566380Y-30218095D01*
X150566380Y-29980000D01*
X149566380Y-31170476D02*
X149566380Y-31360952D01*
X149614000Y-31456190D01*
X149709238Y-31551428D01*
X149899714Y-31599047D01*
X150233047Y-31599047D01*
X150423523Y-31551428D01*
X150518761Y-31456190D01*
X150566380Y-31360952D01*
X150566380Y-31170476D01*
X150518761Y-31075238D01*
X150423523Y-30980000D01*
X150233047Y-30932380D01*
X149899714Y-30932380D01*
X149709238Y-30980000D01*
X149614000Y-31075238D01*
X149566380Y-31170476D01*
X150661619Y-31789523D02*
X150661619Y-32551428D01*
X149566380Y-32980000D02*
X149566380Y-33075238D01*
X149614000Y-33170476D01*
X149661619Y-33218095D01*
X149756857Y-33265714D01*
X149947333Y-33313333D01*
X150185428Y-33313333D01*
X150375904Y-33265714D01*
X150471142Y-33218095D01*
X150518761Y-33170476D01*
X150566380Y-33075238D01*
X150566380Y-32980000D01*
X150518761Y-32884761D01*
X150471142Y-32837142D01*
X150375904Y-32789523D01*
X150185428Y-32741904D01*
X149947333Y-32741904D01*
X149756857Y-32789523D01*
X149661619Y-32837142D01*
X149614000Y-32884761D01*
X149566380Y-32980000D01*
%TO.C,J_P101_0*%
X149835809Y-42632380D02*
X149835809Y-43346666D01*
X149883428Y-43489523D01*
X149978666Y-43584761D01*
X150121523Y-43632380D01*
X150216761Y-43632380D01*
X149597714Y-43727619D02*
X148835809Y-43727619D01*
X148597714Y-43632380D02*
X148597714Y-42632380D01*
X148216761Y-42632380D01*
X148121523Y-42680000D01*
X148073904Y-42727619D01*
X148026285Y-42822857D01*
X148026285Y-42965714D01*
X148073904Y-43060952D01*
X148121523Y-43108571D01*
X148216761Y-43156190D01*
X148597714Y-43156190D01*
X147073904Y-43632380D02*
X147645333Y-43632380D01*
X147359619Y-43632380D02*
X147359619Y-42632380D01*
X147454857Y-42775238D01*
X147550095Y-42870476D01*
X147645333Y-42918095D01*
X146454857Y-42632380D02*
X146359619Y-42632380D01*
X146264380Y-42680000D01*
X146216761Y-42727619D01*
X146169142Y-42822857D01*
X146121523Y-43013333D01*
X146121523Y-43251428D01*
X146169142Y-43441904D01*
X146216761Y-43537142D01*
X146264380Y-43584761D01*
X146359619Y-43632380D01*
X146454857Y-43632380D01*
X146550095Y-43584761D01*
X146597714Y-43537142D01*
X146645333Y-43441904D01*
X146692952Y-43251428D01*
X146692952Y-43013333D01*
X146645333Y-42822857D01*
X146597714Y-42727619D01*
X146550095Y-42680000D01*
X146454857Y-42632380D01*
X145169142Y-43632380D02*
X145740571Y-43632380D01*
X145454857Y-43632380D02*
X145454857Y-42632380D01*
X145550095Y-42775238D01*
X145645333Y-42870476D01*
X145740571Y-42918095D01*
X144978666Y-43727619D02*
X144216761Y-43727619D01*
X143788190Y-42632380D02*
X143692952Y-42632380D01*
X143597714Y-42680000D01*
X143550095Y-42727619D01*
X143502476Y-42822857D01*
X143454857Y-43013333D01*
X143454857Y-43251428D01*
X143502476Y-43441904D01*
X143550095Y-43537142D01*
X143597714Y-43584761D01*
X143692952Y-43632380D01*
X143788190Y-43632380D01*
X143883428Y-43584761D01*
X143931047Y-43537142D01*
X143978666Y-43441904D01*
X144026285Y-43251428D01*
X144026285Y-43013333D01*
X143978666Y-42822857D01*
X143931047Y-42727619D01*
X143883428Y-42680000D01*
X143788190Y-42632380D01*
%TO.C,J_OUT_USART1_TX_0*%
X189808571Y-74382380D02*
X189808571Y-75096666D01*
X189856190Y-75239523D01*
X189951428Y-75334761D01*
X190094285Y-75382380D01*
X190189523Y-75382380D01*
X189570476Y-75477619D02*
X188808571Y-75477619D01*
X188380000Y-74382380D02*
X188189523Y-74382380D01*
X188094285Y-74430000D01*
X187999047Y-74525238D01*
X187951428Y-74715714D01*
X187951428Y-75049047D01*
X187999047Y-75239523D01*
X188094285Y-75334761D01*
X188189523Y-75382380D01*
X188380000Y-75382380D01*
X188475238Y-75334761D01*
X188570476Y-75239523D01*
X188618095Y-75049047D01*
X188618095Y-74715714D01*
X188570476Y-74525238D01*
X188475238Y-74430000D01*
X188380000Y-74382380D01*
X187522857Y-74382380D02*
X187522857Y-75191904D01*
X187475238Y-75287142D01*
X187427619Y-75334761D01*
X187332380Y-75382380D01*
X187141904Y-75382380D01*
X187046666Y-75334761D01*
X186999047Y-75287142D01*
X186951428Y-75191904D01*
X186951428Y-74382380D01*
X186618095Y-74382380D02*
X186046666Y-74382380D01*
X186332380Y-75382380D02*
X186332380Y-74382380D01*
X185951428Y-75477619D02*
X185189523Y-75477619D01*
X184951428Y-74382380D02*
X184951428Y-75191904D01*
X184903809Y-75287142D01*
X184856190Y-75334761D01*
X184760952Y-75382380D01*
X184570476Y-75382380D01*
X184475238Y-75334761D01*
X184427619Y-75287142D01*
X184380000Y-75191904D01*
X184380000Y-74382380D01*
X183951428Y-75334761D02*
X183808571Y-75382380D01*
X183570476Y-75382380D01*
X183475238Y-75334761D01*
X183427619Y-75287142D01*
X183380000Y-75191904D01*
X183380000Y-75096666D01*
X183427619Y-75001428D01*
X183475238Y-74953809D01*
X183570476Y-74906190D01*
X183760952Y-74858571D01*
X183856190Y-74810952D01*
X183903809Y-74763333D01*
X183951428Y-74668095D01*
X183951428Y-74572857D01*
X183903809Y-74477619D01*
X183856190Y-74430000D01*
X183760952Y-74382380D01*
X183522857Y-74382380D01*
X183380000Y-74430000D01*
X182999047Y-75096666D02*
X182522857Y-75096666D01*
X183094285Y-75382380D02*
X182760952Y-74382380D01*
X182427619Y-75382380D01*
X181522857Y-75382380D02*
X181856190Y-74906190D01*
X182094285Y-75382380D02*
X182094285Y-74382380D01*
X181713333Y-74382380D01*
X181618095Y-74430000D01*
X181570476Y-74477619D01*
X181522857Y-74572857D01*
X181522857Y-74715714D01*
X181570476Y-74810952D01*
X181618095Y-74858571D01*
X181713333Y-74906190D01*
X182094285Y-74906190D01*
X181237142Y-74382380D02*
X180665714Y-74382380D01*
X180951428Y-75382380D02*
X180951428Y-74382380D01*
X179808571Y-75382380D02*
X180380000Y-75382380D01*
X180094285Y-75382380D02*
X180094285Y-74382380D01*
X180189523Y-74525238D01*
X180284761Y-74620476D01*
X180380000Y-74668095D01*
X179618095Y-75477619D02*
X178856190Y-75477619D01*
X178760952Y-74382380D02*
X178189523Y-74382380D01*
X178475238Y-75382380D02*
X178475238Y-74382380D01*
X177951428Y-74382380D02*
X177284761Y-75382380D01*
X177284761Y-74382380D02*
X177951428Y-75382380D01*
X177141904Y-75477619D02*
X176380000Y-75477619D01*
X175951428Y-74382380D02*
X175856190Y-74382380D01*
X175760952Y-74430000D01*
X175713333Y-74477619D01*
X175665714Y-74572857D01*
X175618095Y-74763333D01*
X175618095Y-75001428D01*
X175665714Y-75191904D01*
X175713333Y-75287142D01*
X175760952Y-75334761D01*
X175856190Y-75382380D01*
X175951428Y-75382380D01*
X176046666Y-75334761D01*
X176094285Y-75287142D01*
X176141904Y-75191904D01*
X176189523Y-75001428D01*
X176189523Y-74763333D01*
X176141904Y-74572857D01*
X176094285Y-74477619D01*
X176046666Y-74430000D01*
X175951428Y-74382380D01*
%TO.C,R_VS_0*%
X157297380Y-69921666D02*
X156821190Y-69588333D01*
X157297380Y-69350238D02*
X156297380Y-69350238D01*
X156297380Y-69731190D01*
X156345000Y-69826428D01*
X156392619Y-69874047D01*
X156487857Y-69921666D01*
X156630714Y-69921666D01*
X156725952Y-69874047D01*
X156773571Y-69826428D01*
X156821190Y-69731190D01*
X156821190Y-69350238D01*
X157392619Y-70112142D02*
X157392619Y-70874047D01*
X156297380Y-70969285D02*
X157297380Y-71302619D01*
X156297380Y-71635952D01*
X157249761Y-71921666D02*
X157297380Y-72064523D01*
X157297380Y-72302619D01*
X157249761Y-72397857D01*
X157202142Y-72445476D01*
X157106904Y-72493095D01*
X157011666Y-72493095D01*
X156916428Y-72445476D01*
X156868809Y-72397857D01*
X156821190Y-72302619D01*
X156773571Y-72112142D01*
X156725952Y-72016904D01*
X156678333Y-71969285D01*
X156583095Y-71921666D01*
X156487857Y-71921666D01*
X156392619Y-71969285D01*
X156345000Y-72016904D01*
X156297380Y-72112142D01*
X156297380Y-72350238D01*
X156345000Y-72493095D01*
X157392619Y-72683571D02*
X157392619Y-73445476D01*
X156297380Y-73874047D02*
X156297380Y-73969285D01*
X156345000Y-74064523D01*
X156392619Y-74112142D01*
X156487857Y-74159761D01*
X156678333Y-74207380D01*
X156916428Y-74207380D01*
X157106904Y-74159761D01*
X157202142Y-74112142D01*
X157249761Y-74064523D01*
X157297380Y-73969285D01*
X157297380Y-73874047D01*
X157249761Y-73778809D01*
X157202142Y-73731190D01*
X157106904Y-73683571D01*
X156916428Y-73635952D01*
X156678333Y-73635952D01*
X156487857Y-73683571D01*
X156392619Y-73731190D01*
X156345000Y-73778809D01*
X156297380Y-73874047D01*
%TO.C,R_JTAG_TDI_0*%
X188269047Y-16962380D02*
X188602380Y-16486190D01*
X188840476Y-16962380D02*
X188840476Y-15962380D01*
X188459523Y-15962380D01*
X188364285Y-16010000D01*
X188316666Y-16057619D01*
X188269047Y-16152857D01*
X188269047Y-16295714D01*
X188316666Y-16390952D01*
X188364285Y-16438571D01*
X188459523Y-16486190D01*
X188840476Y-16486190D01*
X188078571Y-17057619D02*
X187316666Y-17057619D01*
X186792857Y-15962380D02*
X186792857Y-16676666D01*
X186840476Y-16819523D01*
X186935714Y-16914761D01*
X187078571Y-16962380D01*
X187173809Y-16962380D01*
X186459523Y-15962380D02*
X185888095Y-15962380D01*
X186173809Y-16962380D02*
X186173809Y-15962380D01*
X185602380Y-16676666D02*
X185126190Y-16676666D01*
X185697619Y-16962380D02*
X185364285Y-15962380D01*
X185030952Y-16962380D01*
X184173809Y-16010000D02*
X184269047Y-15962380D01*
X184411904Y-15962380D01*
X184554761Y-16010000D01*
X184650000Y-16105238D01*
X184697619Y-16200476D01*
X184745238Y-16390952D01*
X184745238Y-16533809D01*
X184697619Y-16724285D01*
X184650000Y-16819523D01*
X184554761Y-16914761D01*
X184411904Y-16962380D01*
X184316666Y-16962380D01*
X184173809Y-16914761D01*
X184126190Y-16867142D01*
X184126190Y-16533809D01*
X184316666Y-16533809D01*
X183935714Y-17057619D02*
X183173809Y-17057619D01*
X183078571Y-15962380D02*
X182507142Y-15962380D01*
X182792857Y-16962380D02*
X182792857Y-15962380D01*
X182173809Y-16962380D02*
X182173809Y-15962380D01*
X181935714Y-15962380D01*
X181792857Y-16010000D01*
X181697619Y-16105238D01*
X181650000Y-16200476D01*
X181602380Y-16390952D01*
X181602380Y-16533809D01*
X181650000Y-16724285D01*
X181697619Y-16819523D01*
X181792857Y-16914761D01*
X181935714Y-16962380D01*
X182173809Y-16962380D01*
X181173809Y-16962380D02*
X181173809Y-15962380D01*
X180935714Y-17057619D02*
X180173809Y-17057619D01*
X179745238Y-15962380D02*
X179650000Y-15962380D01*
X179554761Y-16010000D01*
X179507142Y-16057619D01*
X179459523Y-16152857D01*
X179411904Y-16343333D01*
X179411904Y-16581428D01*
X179459523Y-16771904D01*
X179507142Y-16867142D01*
X179554761Y-16914761D01*
X179650000Y-16962380D01*
X179745238Y-16962380D01*
X179840476Y-16914761D01*
X179888095Y-16867142D01*
X179935714Y-16771904D01*
X179983333Y-16581428D01*
X179983333Y-16343333D01*
X179935714Y-16152857D01*
X179888095Y-16057619D01*
X179840476Y-16010000D01*
X179745238Y-15962380D01*
%TO.C,J_P114_0*%
X157567380Y-25551190D02*
X158281666Y-25551190D01*
X158424523Y-25503571D01*
X158519761Y-25408333D01*
X158567380Y-25265476D01*
X158567380Y-25170238D01*
X158662619Y-25789285D02*
X158662619Y-26551190D01*
X158567380Y-26789285D02*
X157567380Y-26789285D01*
X157567380Y-27170238D01*
X157615000Y-27265476D01*
X157662619Y-27313095D01*
X157757857Y-27360714D01*
X157900714Y-27360714D01*
X157995952Y-27313095D01*
X158043571Y-27265476D01*
X158091190Y-27170238D01*
X158091190Y-26789285D01*
X158567380Y-28313095D02*
X158567380Y-27741666D01*
X158567380Y-28027380D02*
X157567380Y-28027380D01*
X157710238Y-27932142D01*
X157805476Y-27836904D01*
X157853095Y-27741666D01*
X158567380Y-29265476D02*
X158567380Y-28694047D01*
X158567380Y-28979761D02*
X157567380Y-28979761D01*
X157710238Y-28884523D01*
X157805476Y-28789285D01*
X157853095Y-28694047D01*
X157900714Y-30122619D02*
X158567380Y-30122619D01*
X157519761Y-29884523D02*
X158234047Y-29646428D01*
X158234047Y-30265476D01*
X158662619Y-30408333D02*
X158662619Y-31170238D01*
X157567380Y-31598809D02*
X157567380Y-31694047D01*
X157615000Y-31789285D01*
X157662619Y-31836904D01*
X157757857Y-31884523D01*
X157948333Y-31932142D01*
X158186428Y-31932142D01*
X158376904Y-31884523D01*
X158472142Y-31836904D01*
X158519761Y-31789285D01*
X158567380Y-31694047D01*
X158567380Y-31598809D01*
X158519761Y-31503571D01*
X158472142Y-31455952D01*
X158376904Y-31408333D01*
X158186428Y-31360714D01*
X157948333Y-31360714D01*
X157757857Y-31408333D01*
X157662619Y-31455952D01*
X157615000Y-31503571D01*
X157567380Y-31598809D01*
%TO.C,U_pwr_aux_0*%
X200747380Y-46300000D02*
X201556904Y-46300000D01*
X201652142Y-46347619D01*
X201699761Y-46395238D01*
X201747380Y-46490476D01*
X201747380Y-46680952D01*
X201699761Y-46776190D01*
X201652142Y-46823809D01*
X201556904Y-46871428D01*
X200747380Y-46871428D01*
X201842619Y-47109523D02*
X201842619Y-47871428D01*
X201080714Y-48109523D02*
X202080714Y-48109523D01*
X201128333Y-48109523D02*
X201080714Y-48204761D01*
X201080714Y-48395238D01*
X201128333Y-48490476D01*
X201175952Y-48538095D01*
X201271190Y-48585714D01*
X201556904Y-48585714D01*
X201652142Y-48538095D01*
X201699761Y-48490476D01*
X201747380Y-48395238D01*
X201747380Y-48204761D01*
X201699761Y-48109523D01*
X201080714Y-48919047D02*
X201747380Y-49109523D01*
X201271190Y-49300000D01*
X201747380Y-49490476D01*
X201080714Y-49680952D01*
X201747380Y-50061904D02*
X201080714Y-50061904D01*
X201271190Y-50061904D02*
X201175952Y-50109523D01*
X201128333Y-50157142D01*
X201080714Y-50252380D01*
X201080714Y-50347619D01*
X201842619Y-50442857D02*
X201842619Y-51204761D01*
X201747380Y-51871428D02*
X201223571Y-51871428D01*
X201128333Y-51823809D01*
X201080714Y-51728571D01*
X201080714Y-51538095D01*
X201128333Y-51442857D01*
X201699761Y-51871428D02*
X201747380Y-51776190D01*
X201747380Y-51538095D01*
X201699761Y-51442857D01*
X201604523Y-51395238D01*
X201509285Y-51395238D01*
X201414047Y-51442857D01*
X201366428Y-51538095D01*
X201366428Y-51776190D01*
X201318809Y-51871428D01*
X201080714Y-52776190D02*
X201747380Y-52776190D01*
X201080714Y-52347619D02*
X201604523Y-52347619D01*
X201699761Y-52395238D01*
X201747380Y-52490476D01*
X201747380Y-52633333D01*
X201699761Y-52728571D01*
X201652142Y-52776190D01*
X201747380Y-53157142D02*
X201080714Y-53680952D01*
X201080714Y-53157142D02*
X201747380Y-53680952D01*
X201842619Y-53823809D02*
X201842619Y-54585714D01*
X200747380Y-55014285D02*
X200747380Y-55109523D01*
X200795000Y-55204761D01*
X200842619Y-55252380D01*
X200937857Y-55300000D01*
X201128333Y-55347619D01*
X201366428Y-55347619D01*
X201556904Y-55300000D01*
X201652142Y-55252380D01*
X201699761Y-55204761D01*
X201747380Y-55109523D01*
X201747380Y-55014285D01*
X201699761Y-54919047D01*
X201652142Y-54871428D01*
X201556904Y-54823809D01*
X201366428Y-54776190D01*
X201128333Y-54776190D01*
X200937857Y-54823809D01*
X200842619Y-54871428D01*
X200795000Y-54919047D01*
X200747380Y-55014285D01*
%TO.C,R_VS_2*%
X161742380Y-64206666D02*
X161266190Y-63873333D01*
X161742380Y-63635238D02*
X160742380Y-63635238D01*
X160742380Y-64016190D01*
X160790000Y-64111428D01*
X160837619Y-64159047D01*
X160932857Y-64206666D01*
X161075714Y-64206666D01*
X161170952Y-64159047D01*
X161218571Y-64111428D01*
X161266190Y-64016190D01*
X161266190Y-63635238D01*
X161837619Y-64397142D02*
X161837619Y-65159047D01*
X160742380Y-65254285D02*
X161742380Y-65587619D01*
X160742380Y-65920952D01*
X161694761Y-66206666D02*
X161742380Y-66349523D01*
X161742380Y-66587619D01*
X161694761Y-66682857D01*
X161647142Y-66730476D01*
X161551904Y-66778095D01*
X161456666Y-66778095D01*
X161361428Y-66730476D01*
X161313809Y-66682857D01*
X161266190Y-66587619D01*
X161218571Y-66397142D01*
X161170952Y-66301904D01*
X161123333Y-66254285D01*
X161028095Y-66206666D01*
X160932857Y-66206666D01*
X160837619Y-66254285D01*
X160790000Y-66301904D01*
X160742380Y-66397142D01*
X160742380Y-66635238D01*
X160790000Y-66778095D01*
X161837619Y-66968571D02*
X161837619Y-67730476D01*
X160837619Y-67920952D02*
X160790000Y-67968571D01*
X160742380Y-68063809D01*
X160742380Y-68301904D01*
X160790000Y-68397142D01*
X160837619Y-68444761D01*
X160932857Y-68492380D01*
X161028095Y-68492380D01*
X161170952Y-68444761D01*
X161742380Y-67873333D01*
X161742380Y-68492380D01*
%TO.C,R_JTAG_TDO_0*%
X178394761Y-16962380D02*
X178728095Y-16486190D01*
X178966190Y-16962380D02*
X178966190Y-15962380D01*
X178585238Y-15962380D01*
X178490000Y-16010000D01*
X178442380Y-16057619D01*
X178394761Y-16152857D01*
X178394761Y-16295714D01*
X178442380Y-16390952D01*
X178490000Y-16438571D01*
X178585238Y-16486190D01*
X178966190Y-16486190D01*
X178204285Y-17057619D02*
X177442380Y-17057619D01*
X176918571Y-15962380D02*
X176918571Y-16676666D01*
X176966190Y-16819523D01*
X177061428Y-16914761D01*
X177204285Y-16962380D01*
X177299523Y-16962380D01*
X176585238Y-15962380D02*
X176013809Y-15962380D01*
X176299523Y-16962380D02*
X176299523Y-15962380D01*
X175728095Y-16676666D02*
X175251904Y-16676666D01*
X175823333Y-16962380D02*
X175490000Y-15962380D01*
X175156666Y-16962380D01*
X174299523Y-16010000D02*
X174394761Y-15962380D01*
X174537619Y-15962380D01*
X174680476Y-16010000D01*
X174775714Y-16105238D01*
X174823333Y-16200476D01*
X174870952Y-16390952D01*
X174870952Y-16533809D01*
X174823333Y-16724285D01*
X174775714Y-16819523D01*
X174680476Y-16914761D01*
X174537619Y-16962380D01*
X174442380Y-16962380D01*
X174299523Y-16914761D01*
X174251904Y-16867142D01*
X174251904Y-16533809D01*
X174442380Y-16533809D01*
X174061428Y-17057619D02*
X173299523Y-17057619D01*
X173204285Y-15962380D02*
X172632857Y-15962380D01*
X172918571Y-16962380D02*
X172918571Y-15962380D01*
X172299523Y-16962380D02*
X172299523Y-15962380D01*
X172061428Y-15962380D01*
X171918571Y-16010000D01*
X171823333Y-16105238D01*
X171775714Y-16200476D01*
X171728095Y-16390952D01*
X171728095Y-16533809D01*
X171775714Y-16724285D01*
X171823333Y-16819523D01*
X171918571Y-16914761D01*
X172061428Y-16962380D01*
X172299523Y-16962380D01*
X171109047Y-15962380D02*
X170918571Y-15962380D01*
X170823333Y-16010000D01*
X170728095Y-16105238D01*
X170680476Y-16295714D01*
X170680476Y-16629047D01*
X170728095Y-16819523D01*
X170823333Y-16914761D01*
X170918571Y-16962380D01*
X171109047Y-16962380D01*
X171204285Y-16914761D01*
X171299523Y-16819523D01*
X171347142Y-16629047D01*
X171347142Y-16295714D01*
X171299523Y-16105238D01*
X171204285Y-16010000D01*
X171109047Y-15962380D01*
X170490000Y-17057619D02*
X169728095Y-17057619D01*
X169299523Y-15962380D02*
X169204285Y-15962380D01*
X169109047Y-16010000D01*
X169061428Y-16057619D01*
X169013809Y-16152857D01*
X168966190Y-16343333D01*
X168966190Y-16581428D01*
X169013809Y-16771904D01*
X169061428Y-16867142D01*
X169109047Y-16914761D01*
X169204285Y-16962380D01*
X169299523Y-16962380D01*
X169394761Y-16914761D01*
X169442380Y-16867142D01*
X169490000Y-16771904D01*
X169537619Y-16581428D01*
X169537619Y-16343333D01*
X169490000Y-16152857D01*
X169442380Y-16057619D01*
X169394761Y-16010000D01*
X169299523Y-15962380D01*
%TO.C,J_P78_0*%
X151852380Y-47617380D02*
X152566666Y-47617380D01*
X152709523Y-47569761D01*
X152804761Y-47474523D01*
X152852380Y-47331666D01*
X152852380Y-47236428D01*
X152947619Y-47855476D02*
X152947619Y-48617380D01*
X152852380Y-48855476D02*
X151852380Y-48855476D01*
X151852380Y-49236428D01*
X151900000Y-49331666D01*
X151947619Y-49379285D01*
X152042857Y-49426904D01*
X152185714Y-49426904D01*
X152280952Y-49379285D01*
X152328571Y-49331666D01*
X152376190Y-49236428D01*
X152376190Y-48855476D01*
X151852380Y-49760238D02*
X151852380Y-50426904D01*
X152852380Y-49998333D01*
X152280952Y-50950714D02*
X152233333Y-50855476D01*
X152185714Y-50807857D01*
X152090476Y-50760238D01*
X152042857Y-50760238D01*
X151947619Y-50807857D01*
X151900000Y-50855476D01*
X151852380Y-50950714D01*
X151852380Y-51141190D01*
X151900000Y-51236428D01*
X151947619Y-51284047D01*
X152042857Y-51331666D01*
X152090476Y-51331666D01*
X152185714Y-51284047D01*
X152233333Y-51236428D01*
X152280952Y-51141190D01*
X152280952Y-50950714D01*
X152328571Y-50855476D01*
X152376190Y-50807857D01*
X152471428Y-50760238D01*
X152661904Y-50760238D01*
X152757142Y-50807857D01*
X152804761Y-50855476D01*
X152852380Y-50950714D01*
X152852380Y-51141190D01*
X152804761Y-51236428D01*
X152757142Y-51284047D01*
X152661904Y-51331666D01*
X152471428Y-51331666D01*
X152376190Y-51284047D01*
X152328571Y-51236428D01*
X152280952Y-51141190D01*
X152947619Y-51522142D02*
X152947619Y-52284047D01*
X151852380Y-52712619D02*
X151852380Y-52807857D01*
X151900000Y-52903095D01*
X151947619Y-52950714D01*
X152042857Y-52998333D01*
X152233333Y-53045952D01*
X152471428Y-53045952D01*
X152661904Y-52998333D01*
X152757142Y-52950714D01*
X152804761Y-52903095D01*
X152852380Y-52807857D01*
X152852380Y-52712619D01*
X152804761Y-52617380D01*
X152757142Y-52569761D01*
X152661904Y-52522142D01*
X152471428Y-52474523D01*
X152233333Y-52474523D01*
X152042857Y-52522142D01*
X151947619Y-52569761D01*
X151900000Y-52617380D01*
X151852380Y-52712619D01*
%TO.C,C_eeprom_vcc_0*%
X145932142Y-50594285D02*
X145979761Y-50546666D01*
X146027380Y-50403809D01*
X146027380Y-50308571D01*
X145979761Y-50165714D01*
X145884523Y-50070476D01*
X145789285Y-50022857D01*
X145598809Y-49975238D01*
X145455952Y-49975238D01*
X145265476Y-50022857D01*
X145170238Y-50070476D01*
X145075000Y-50165714D01*
X145027380Y-50308571D01*
X145027380Y-50403809D01*
X145075000Y-50546666D01*
X145122619Y-50594285D01*
X146122619Y-50784761D02*
X146122619Y-51546666D01*
X145979761Y-52165714D02*
X146027380Y-52070476D01*
X146027380Y-51880000D01*
X145979761Y-51784761D01*
X145884523Y-51737142D01*
X145503571Y-51737142D01*
X145408333Y-51784761D01*
X145360714Y-51880000D01*
X145360714Y-52070476D01*
X145408333Y-52165714D01*
X145503571Y-52213333D01*
X145598809Y-52213333D01*
X145694047Y-51737142D01*
X145979761Y-53022857D02*
X146027380Y-52927619D01*
X146027380Y-52737142D01*
X145979761Y-52641904D01*
X145884523Y-52594285D01*
X145503571Y-52594285D01*
X145408333Y-52641904D01*
X145360714Y-52737142D01*
X145360714Y-52927619D01*
X145408333Y-53022857D01*
X145503571Y-53070476D01*
X145598809Y-53070476D01*
X145694047Y-52594285D01*
X145360714Y-53499047D02*
X146360714Y-53499047D01*
X145408333Y-53499047D02*
X145360714Y-53594285D01*
X145360714Y-53784761D01*
X145408333Y-53880000D01*
X145455952Y-53927619D01*
X145551190Y-53975238D01*
X145836904Y-53975238D01*
X145932142Y-53927619D01*
X145979761Y-53880000D01*
X146027380Y-53784761D01*
X146027380Y-53594285D01*
X145979761Y-53499047D01*
X146027380Y-54403809D02*
X145360714Y-54403809D01*
X145551190Y-54403809D02*
X145455952Y-54451428D01*
X145408333Y-54499047D01*
X145360714Y-54594285D01*
X145360714Y-54689523D01*
X146027380Y-55165714D02*
X145979761Y-55070476D01*
X145932142Y-55022857D01*
X145836904Y-54975238D01*
X145551190Y-54975238D01*
X145455952Y-55022857D01*
X145408333Y-55070476D01*
X145360714Y-55165714D01*
X145360714Y-55308571D01*
X145408333Y-55403809D01*
X145455952Y-55451428D01*
X145551190Y-55499047D01*
X145836904Y-55499047D01*
X145932142Y-55451428D01*
X145979761Y-55403809D01*
X146027380Y-55308571D01*
X146027380Y-55165714D01*
X146027380Y-55927619D02*
X145360714Y-55927619D01*
X145455952Y-55927619D02*
X145408333Y-55975238D01*
X145360714Y-56070476D01*
X145360714Y-56213333D01*
X145408333Y-56308571D01*
X145503571Y-56356190D01*
X146027380Y-56356190D01*
X145503571Y-56356190D02*
X145408333Y-56403809D01*
X145360714Y-56499047D01*
X145360714Y-56641904D01*
X145408333Y-56737142D01*
X145503571Y-56784761D01*
X146027380Y-56784761D01*
X146122619Y-57022857D02*
X146122619Y-57784761D01*
X145360714Y-57927619D02*
X146027380Y-58165714D01*
X145360714Y-58403809D01*
X145979761Y-59213333D02*
X146027380Y-59118095D01*
X146027380Y-58927619D01*
X145979761Y-58832380D01*
X145932142Y-58784761D01*
X145836904Y-58737142D01*
X145551190Y-58737142D01*
X145455952Y-58784761D01*
X145408333Y-58832380D01*
X145360714Y-58927619D01*
X145360714Y-59118095D01*
X145408333Y-59213333D01*
X145979761Y-60070476D02*
X146027380Y-59975238D01*
X146027380Y-59784761D01*
X145979761Y-59689523D01*
X145932142Y-59641904D01*
X145836904Y-59594285D01*
X145551190Y-59594285D01*
X145455952Y-59641904D01*
X145408333Y-59689523D01*
X145360714Y-59784761D01*
X145360714Y-59975238D01*
X145408333Y-60070476D01*
X146122619Y-60260952D02*
X146122619Y-61022857D01*
X145027380Y-61451428D02*
X145027380Y-61546666D01*
X145075000Y-61641904D01*
X145122619Y-61689523D01*
X145217857Y-61737142D01*
X145408333Y-61784761D01*
X145646428Y-61784761D01*
X145836904Y-61737142D01*
X145932142Y-61689523D01*
X145979761Y-61641904D01*
X146027380Y-61546666D01*
X146027380Y-61451428D01*
X145979761Y-61356190D01*
X145932142Y-61308571D01*
X145836904Y-61260952D01*
X145646428Y-61213333D01*
X145408333Y-61213333D01*
X145217857Y-61260952D01*
X145122619Y-61308571D01*
X145075000Y-61356190D01*
X145027380Y-61451428D01*
%TO.C,C_clk_1*%
X210542142Y-58301190D02*
X210589761Y-58253571D01*
X210637380Y-58110714D01*
X210637380Y-58015476D01*
X210589761Y-57872619D01*
X210494523Y-57777380D01*
X210399285Y-57729761D01*
X210208809Y-57682142D01*
X210065952Y-57682142D01*
X209875476Y-57729761D01*
X209780238Y-57777380D01*
X209685000Y-57872619D01*
X209637380Y-58015476D01*
X209637380Y-58110714D01*
X209685000Y-58253571D01*
X209732619Y-58301190D01*
X210732619Y-58491666D02*
X210732619Y-59253571D01*
X210589761Y-59920238D02*
X210637380Y-59825000D01*
X210637380Y-59634523D01*
X210589761Y-59539285D01*
X210542142Y-59491666D01*
X210446904Y-59444047D01*
X210161190Y-59444047D01*
X210065952Y-59491666D01*
X210018333Y-59539285D01*
X209970714Y-59634523D01*
X209970714Y-59825000D01*
X210018333Y-59920238D01*
X210637380Y-60491666D02*
X210589761Y-60396428D01*
X210494523Y-60348809D01*
X209637380Y-60348809D01*
X210637380Y-60872619D02*
X209637380Y-60872619D01*
X210256428Y-60967857D02*
X210637380Y-61253571D01*
X209970714Y-61253571D02*
X210351666Y-60872619D01*
X210732619Y-61444047D02*
X210732619Y-62205952D01*
X210637380Y-62967857D02*
X210637380Y-62396428D01*
X210637380Y-62682142D02*
X209637380Y-62682142D01*
X209780238Y-62586904D01*
X209875476Y-62491666D01*
X209923095Y-62396428D01*
%TO.C,J_VCC_aux_0*%
X214082380Y-49125714D02*
X214796666Y-49125714D01*
X214939523Y-49078095D01*
X215034761Y-48982857D01*
X215082380Y-48840000D01*
X215082380Y-48744761D01*
X215177619Y-49363809D02*
X215177619Y-50125714D01*
X214082380Y-50220952D02*
X215082380Y-50554285D01*
X214082380Y-50887619D01*
X214987142Y-51792380D02*
X215034761Y-51744761D01*
X215082380Y-51601904D01*
X215082380Y-51506666D01*
X215034761Y-51363809D01*
X214939523Y-51268571D01*
X214844285Y-51220952D01*
X214653809Y-51173333D01*
X214510952Y-51173333D01*
X214320476Y-51220952D01*
X214225238Y-51268571D01*
X214130000Y-51363809D01*
X214082380Y-51506666D01*
X214082380Y-51601904D01*
X214130000Y-51744761D01*
X214177619Y-51792380D01*
X214987142Y-52792380D02*
X215034761Y-52744761D01*
X215082380Y-52601904D01*
X215082380Y-52506666D01*
X215034761Y-52363809D01*
X214939523Y-52268571D01*
X214844285Y-52220952D01*
X214653809Y-52173333D01*
X214510952Y-52173333D01*
X214320476Y-52220952D01*
X214225238Y-52268571D01*
X214130000Y-52363809D01*
X214082380Y-52506666D01*
X214082380Y-52601904D01*
X214130000Y-52744761D01*
X214177619Y-52792380D01*
X215177619Y-52982857D02*
X215177619Y-53744761D01*
X215082380Y-54411428D02*
X214558571Y-54411428D01*
X214463333Y-54363809D01*
X214415714Y-54268571D01*
X214415714Y-54078095D01*
X214463333Y-53982857D01*
X215034761Y-54411428D02*
X215082380Y-54316190D01*
X215082380Y-54078095D01*
X215034761Y-53982857D01*
X214939523Y-53935238D01*
X214844285Y-53935238D01*
X214749047Y-53982857D01*
X214701428Y-54078095D01*
X214701428Y-54316190D01*
X214653809Y-54411428D01*
X214415714Y-55316190D02*
X215082380Y-55316190D01*
X214415714Y-54887619D02*
X214939523Y-54887619D01*
X215034761Y-54935238D01*
X215082380Y-55030476D01*
X215082380Y-55173333D01*
X215034761Y-55268571D01*
X214987142Y-55316190D01*
X215082380Y-55697142D02*
X214415714Y-56220952D01*
X214415714Y-55697142D02*
X215082380Y-56220952D01*
X215177619Y-56363809D02*
X215177619Y-57125714D01*
X214082380Y-57554285D02*
X214082380Y-57649523D01*
X214130000Y-57744761D01*
X214177619Y-57792380D01*
X214272857Y-57840000D01*
X214463333Y-57887619D01*
X214701428Y-57887619D01*
X214891904Y-57840000D01*
X214987142Y-57792380D01*
X215034761Y-57744761D01*
X215082380Y-57649523D01*
X215082380Y-57554285D01*
X215034761Y-57459047D01*
X214987142Y-57411428D01*
X214891904Y-57363809D01*
X214701428Y-57316190D01*
X214463333Y-57316190D01*
X214272857Y-57363809D01*
X214177619Y-57411428D01*
X214130000Y-57459047D01*
X214082380Y-57554285D01*
%TO.C,J_VCC_0*%
X212812380Y-30496190D02*
X213526666Y-30496190D01*
X213669523Y-30448571D01*
X213764761Y-30353333D01*
X213812380Y-30210476D01*
X213812380Y-30115238D01*
X213907619Y-30734285D02*
X213907619Y-31496190D01*
X212812380Y-31591428D02*
X213812380Y-31924761D01*
X212812380Y-32258095D01*
X213717142Y-33162857D02*
X213764761Y-33115238D01*
X213812380Y-32972380D01*
X213812380Y-32877142D01*
X213764761Y-32734285D01*
X213669523Y-32639047D01*
X213574285Y-32591428D01*
X213383809Y-32543809D01*
X213240952Y-32543809D01*
X213050476Y-32591428D01*
X212955238Y-32639047D01*
X212860000Y-32734285D01*
X212812380Y-32877142D01*
X212812380Y-32972380D01*
X212860000Y-33115238D01*
X212907619Y-33162857D01*
X213717142Y-34162857D02*
X213764761Y-34115238D01*
X213812380Y-33972380D01*
X213812380Y-33877142D01*
X213764761Y-33734285D01*
X213669523Y-33639047D01*
X213574285Y-33591428D01*
X213383809Y-33543809D01*
X213240952Y-33543809D01*
X213050476Y-33591428D01*
X212955238Y-33639047D01*
X212860000Y-33734285D01*
X212812380Y-33877142D01*
X212812380Y-33972380D01*
X212860000Y-34115238D01*
X212907619Y-34162857D01*
X213907619Y-34353333D02*
X213907619Y-35115238D01*
X212812380Y-35543809D02*
X212812380Y-35639047D01*
X212860000Y-35734285D01*
X212907619Y-35781904D01*
X213002857Y-35829523D01*
X213193333Y-35877142D01*
X213431428Y-35877142D01*
X213621904Y-35829523D01*
X213717142Y-35781904D01*
X213764761Y-35734285D01*
X213812380Y-35639047D01*
X213812380Y-35543809D01*
X213764761Y-35448571D01*
X213717142Y-35400952D01*
X213621904Y-35353333D01*
X213431428Y-35305714D01*
X213193333Y-35305714D01*
X213002857Y-35353333D01*
X212907619Y-35400952D01*
X212860000Y-35448571D01*
X212812380Y-35543809D01*
%TO.C,JP_SPI_Direct_PRG_0*%
X199031904Y-27392380D02*
X199031904Y-28106666D01*
X199079523Y-28249523D01*
X199174761Y-28344761D01*
X199317619Y-28392380D01*
X199412857Y-28392380D01*
X198555714Y-28392380D02*
X198555714Y-27392380D01*
X198174761Y-27392380D01*
X198079523Y-27440000D01*
X198031904Y-27487619D01*
X197984285Y-27582857D01*
X197984285Y-27725714D01*
X198031904Y-27820952D01*
X198079523Y-27868571D01*
X198174761Y-27916190D01*
X198555714Y-27916190D01*
X197793809Y-28487619D02*
X197031904Y-28487619D01*
X196841428Y-28344761D02*
X196698571Y-28392380D01*
X196460476Y-28392380D01*
X196365238Y-28344761D01*
X196317619Y-28297142D01*
X196270000Y-28201904D01*
X196270000Y-28106666D01*
X196317619Y-28011428D01*
X196365238Y-27963809D01*
X196460476Y-27916190D01*
X196650952Y-27868571D01*
X196746190Y-27820952D01*
X196793809Y-27773333D01*
X196841428Y-27678095D01*
X196841428Y-27582857D01*
X196793809Y-27487619D01*
X196746190Y-27440000D01*
X196650952Y-27392380D01*
X196412857Y-27392380D01*
X196270000Y-27440000D01*
X195841428Y-28392380D02*
X195841428Y-27392380D01*
X195460476Y-27392380D01*
X195365238Y-27440000D01*
X195317619Y-27487619D01*
X195270000Y-27582857D01*
X195270000Y-27725714D01*
X195317619Y-27820952D01*
X195365238Y-27868571D01*
X195460476Y-27916190D01*
X195841428Y-27916190D01*
X194841428Y-28392380D02*
X194841428Y-27392380D01*
X194603333Y-28487619D02*
X193841428Y-28487619D01*
X193603333Y-28392380D02*
X193603333Y-27392380D01*
X193365238Y-27392380D01*
X193222380Y-27440000D01*
X193127142Y-27535238D01*
X193079523Y-27630476D01*
X193031904Y-27820952D01*
X193031904Y-27963809D01*
X193079523Y-28154285D01*
X193127142Y-28249523D01*
X193222380Y-28344761D01*
X193365238Y-28392380D01*
X193603333Y-28392380D01*
X192603333Y-28392380D02*
X192603333Y-27725714D01*
X192603333Y-27392380D02*
X192650952Y-27440000D01*
X192603333Y-27487619D01*
X192555714Y-27440000D01*
X192603333Y-27392380D01*
X192603333Y-27487619D01*
X192127142Y-28392380D02*
X192127142Y-27725714D01*
X192127142Y-27916190D02*
X192079523Y-27820952D01*
X192031904Y-27773333D01*
X191936666Y-27725714D01*
X191841428Y-27725714D01*
X191127142Y-28344761D02*
X191222380Y-28392380D01*
X191412857Y-28392380D01*
X191508095Y-28344761D01*
X191555714Y-28249523D01*
X191555714Y-27868571D01*
X191508095Y-27773333D01*
X191412857Y-27725714D01*
X191222380Y-27725714D01*
X191127142Y-27773333D01*
X191079523Y-27868571D01*
X191079523Y-27963809D01*
X191555714Y-28059047D01*
X190222380Y-28344761D02*
X190317619Y-28392380D01*
X190508095Y-28392380D01*
X190603333Y-28344761D01*
X190650952Y-28297142D01*
X190698571Y-28201904D01*
X190698571Y-27916190D01*
X190650952Y-27820952D01*
X190603333Y-27773333D01*
X190508095Y-27725714D01*
X190317619Y-27725714D01*
X190222380Y-27773333D01*
X189936666Y-27725714D02*
X189555714Y-27725714D01*
X189793809Y-27392380D02*
X189793809Y-28249523D01*
X189746190Y-28344761D01*
X189650952Y-28392380D01*
X189555714Y-28392380D01*
X189460476Y-28487619D02*
X188698571Y-28487619D01*
X188460476Y-28392380D02*
X188460476Y-27392380D01*
X188079523Y-27392380D01*
X187984285Y-27440000D01*
X187936666Y-27487619D01*
X187889047Y-27582857D01*
X187889047Y-27725714D01*
X187936666Y-27820952D01*
X187984285Y-27868571D01*
X188079523Y-27916190D01*
X188460476Y-27916190D01*
X186889047Y-28392380D02*
X187222380Y-27916190D01*
X187460476Y-28392380D02*
X187460476Y-27392380D01*
X187079523Y-27392380D01*
X186984285Y-27440000D01*
X186936666Y-27487619D01*
X186889047Y-27582857D01*
X186889047Y-27725714D01*
X186936666Y-27820952D01*
X186984285Y-27868571D01*
X187079523Y-27916190D01*
X187460476Y-27916190D01*
X185936666Y-27440000D02*
X186031904Y-27392380D01*
X186174761Y-27392380D01*
X186317619Y-27440000D01*
X186412857Y-27535238D01*
X186460476Y-27630476D01*
X186508095Y-27820952D01*
X186508095Y-27963809D01*
X186460476Y-28154285D01*
X186412857Y-28249523D01*
X186317619Y-28344761D01*
X186174761Y-28392380D01*
X186079523Y-28392380D01*
X185936666Y-28344761D01*
X185889047Y-28297142D01*
X185889047Y-27963809D01*
X186079523Y-27963809D01*
X185698571Y-28487619D02*
X184936666Y-28487619D01*
X184508095Y-27392380D02*
X184412857Y-27392380D01*
X184317619Y-27440000D01*
X184270000Y-27487619D01*
X184222380Y-27582857D01*
X184174761Y-27773333D01*
X184174761Y-28011428D01*
X184222380Y-28201904D01*
X184270000Y-28297142D01*
X184317619Y-28344761D01*
X184412857Y-28392380D01*
X184508095Y-28392380D01*
X184603333Y-28344761D01*
X184650952Y-28297142D01*
X184698571Y-28201904D01*
X184746190Y-28011428D01*
X184746190Y-27773333D01*
X184698571Y-27582857D01*
X184650952Y-27487619D01*
X184603333Y-27440000D01*
X184508095Y-27392380D01*
%TO.C,R_eeprom_w_0*%
X154122380Y-69088571D02*
X153646190Y-68755238D01*
X154122380Y-68517142D02*
X153122380Y-68517142D01*
X153122380Y-68898095D01*
X153170000Y-68993333D01*
X153217619Y-69040952D01*
X153312857Y-69088571D01*
X153455714Y-69088571D01*
X153550952Y-69040952D01*
X153598571Y-68993333D01*
X153646190Y-68898095D01*
X153646190Y-68517142D01*
X154217619Y-69279047D02*
X154217619Y-70040952D01*
X154074761Y-70660000D02*
X154122380Y-70564761D01*
X154122380Y-70374285D01*
X154074761Y-70279047D01*
X153979523Y-70231428D01*
X153598571Y-70231428D01*
X153503333Y-70279047D01*
X153455714Y-70374285D01*
X153455714Y-70564761D01*
X153503333Y-70660000D01*
X153598571Y-70707619D01*
X153693809Y-70707619D01*
X153789047Y-70231428D01*
X154074761Y-71517142D02*
X154122380Y-71421904D01*
X154122380Y-71231428D01*
X154074761Y-71136190D01*
X153979523Y-71088571D01*
X153598571Y-71088571D01*
X153503333Y-71136190D01*
X153455714Y-71231428D01*
X153455714Y-71421904D01*
X153503333Y-71517142D01*
X153598571Y-71564761D01*
X153693809Y-71564761D01*
X153789047Y-71088571D01*
X153455714Y-71993333D02*
X154455714Y-71993333D01*
X153503333Y-71993333D02*
X153455714Y-72088571D01*
X153455714Y-72279047D01*
X153503333Y-72374285D01*
X153550952Y-72421904D01*
X153646190Y-72469523D01*
X153931904Y-72469523D01*
X154027142Y-72421904D01*
X154074761Y-72374285D01*
X154122380Y-72279047D01*
X154122380Y-72088571D01*
X154074761Y-71993333D01*
X154122380Y-72898095D02*
X153455714Y-72898095D01*
X153646190Y-72898095D02*
X153550952Y-72945714D01*
X153503333Y-72993333D01*
X153455714Y-73088571D01*
X153455714Y-73183809D01*
X154122380Y-73660000D02*
X154074761Y-73564761D01*
X154027142Y-73517142D01*
X153931904Y-73469523D01*
X153646190Y-73469523D01*
X153550952Y-73517142D01*
X153503333Y-73564761D01*
X153455714Y-73660000D01*
X153455714Y-73802857D01*
X153503333Y-73898095D01*
X153550952Y-73945714D01*
X153646190Y-73993333D01*
X153931904Y-73993333D01*
X154027142Y-73945714D01*
X154074761Y-73898095D01*
X154122380Y-73802857D01*
X154122380Y-73660000D01*
X154122380Y-74421904D02*
X153455714Y-74421904D01*
X153550952Y-74421904D02*
X153503333Y-74469523D01*
X153455714Y-74564761D01*
X153455714Y-74707619D01*
X153503333Y-74802857D01*
X153598571Y-74850476D01*
X154122380Y-74850476D01*
X153598571Y-74850476D02*
X153503333Y-74898095D01*
X153455714Y-74993333D01*
X153455714Y-75136190D01*
X153503333Y-75231428D01*
X153598571Y-75279047D01*
X154122380Y-75279047D01*
X154217619Y-75517142D02*
X154217619Y-76279047D01*
X153455714Y-76421904D02*
X154122380Y-76612380D01*
X153646190Y-76802857D01*
X154122380Y-76993333D01*
X153455714Y-77183809D01*
X154217619Y-77326666D02*
X154217619Y-78088571D01*
X153122380Y-78517142D02*
X153122380Y-78612380D01*
X153170000Y-78707619D01*
X153217619Y-78755238D01*
X153312857Y-78802857D01*
X153503333Y-78850476D01*
X153741428Y-78850476D01*
X153931904Y-78802857D01*
X154027142Y-78755238D01*
X154074761Y-78707619D01*
X154122380Y-78612380D01*
X154122380Y-78517142D01*
X154074761Y-78421904D01*
X154027142Y-78374285D01*
X153931904Y-78326666D01*
X153741428Y-78279047D01*
X153503333Y-78279047D01*
X153312857Y-78326666D01*
X153217619Y-78374285D01*
X153170000Y-78421904D01*
X153122380Y-78517142D01*
%TO.C,F_pwr_0*%
X201770952Y-8438571D02*
X202104285Y-8438571D01*
X202104285Y-8962380D02*
X202104285Y-7962380D01*
X201628095Y-7962380D01*
X201485238Y-9057619D02*
X200723333Y-9057619D01*
X200485238Y-8295714D02*
X200485238Y-9295714D01*
X200485238Y-8343333D02*
X200390000Y-8295714D01*
X200199523Y-8295714D01*
X200104285Y-8343333D01*
X200056666Y-8390952D01*
X200009047Y-8486190D01*
X200009047Y-8771904D01*
X200056666Y-8867142D01*
X200104285Y-8914761D01*
X200199523Y-8962380D01*
X200390000Y-8962380D01*
X200485238Y-8914761D01*
X199675714Y-8295714D02*
X199485238Y-8962380D01*
X199294761Y-8486190D01*
X199104285Y-8962380D01*
X198913809Y-8295714D01*
X198532857Y-8962380D02*
X198532857Y-8295714D01*
X198532857Y-8486190D02*
X198485238Y-8390952D01*
X198437619Y-8343333D01*
X198342380Y-8295714D01*
X198247142Y-8295714D01*
X198151904Y-9057619D02*
X197390000Y-9057619D01*
X196961428Y-7962380D02*
X196866190Y-7962380D01*
X196770952Y-8010000D01*
X196723333Y-8057619D01*
X196675714Y-8152857D01*
X196628095Y-8343333D01*
X196628095Y-8581428D01*
X196675714Y-8771904D01*
X196723333Y-8867142D01*
X196770952Y-8914761D01*
X196866190Y-8962380D01*
X196961428Y-8962380D01*
X197056666Y-8914761D01*
X197104285Y-8867142D01*
X197151904Y-8771904D01*
X197199523Y-8581428D01*
X197199523Y-8343333D01*
X197151904Y-8152857D01*
X197104285Y-8057619D01*
X197056666Y-8010000D01*
X196961428Y-7962380D01*
%TO.C,J_GND_0*%
X209629047Y-24852380D02*
X209629047Y-25566666D01*
X209676666Y-25709523D01*
X209771904Y-25804761D01*
X209914761Y-25852380D01*
X210010000Y-25852380D01*
X209390952Y-25947619D02*
X208629047Y-25947619D01*
X207867142Y-24900000D02*
X207962380Y-24852380D01*
X208105238Y-24852380D01*
X208248095Y-24900000D01*
X208343333Y-24995238D01*
X208390952Y-25090476D01*
X208438571Y-25280952D01*
X208438571Y-25423809D01*
X208390952Y-25614285D01*
X208343333Y-25709523D01*
X208248095Y-25804761D01*
X208105238Y-25852380D01*
X208010000Y-25852380D01*
X207867142Y-25804761D01*
X207819523Y-25757142D01*
X207819523Y-25423809D01*
X208010000Y-25423809D01*
X207390952Y-25852380D02*
X207390952Y-24852380D01*
X206819523Y-25852380D01*
X206819523Y-24852380D01*
X206343333Y-25852380D02*
X206343333Y-24852380D01*
X206105238Y-24852380D01*
X205962380Y-24900000D01*
X205867142Y-24995238D01*
X205819523Y-25090476D01*
X205771904Y-25280952D01*
X205771904Y-25423809D01*
X205819523Y-25614285D01*
X205867142Y-25709523D01*
X205962380Y-25804761D01*
X206105238Y-25852380D01*
X206343333Y-25852380D01*
X205581428Y-25947619D02*
X204819523Y-25947619D01*
X204390952Y-24852380D02*
X204295714Y-24852380D01*
X204200476Y-24900000D01*
X204152857Y-24947619D01*
X204105238Y-25042857D01*
X204057619Y-25233333D01*
X204057619Y-25471428D01*
X204105238Y-25661904D01*
X204152857Y-25757142D01*
X204200476Y-25804761D01*
X204295714Y-25852380D01*
X204390952Y-25852380D01*
X204486190Y-25804761D01*
X204533809Y-25757142D01*
X204581428Y-25661904D01*
X204629047Y-25471428D01*
X204629047Y-25233333D01*
X204581428Y-25042857D01*
X204533809Y-24947619D01*
X204486190Y-24900000D01*
X204390952Y-24852380D01*
%TO.C,P_JTAG_FLASH_0*%
X164583333Y-112212380D02*
X164583333Y-111212380D01*
X164202380Y-111212380D01*
X164107142Y-111260000D01*
X164059523Y-111307619D01*
X164011904Y-111402857D01*
X164011904Y-111545714D01*
X164059523Y-111640952D01*
X164107142Y-111688571D01*
X164202380Y-111736190D01*
X164583333Y-111736190D01*
X163821428Y-112307619D02*
X163059523Y-112307619D01*
X162535714Y-111212380D02*
X162535714Y-111926666D01*
X162583333Y-112069523D01*
X162678571Y-112164761D01*
X162821428Y-112212380D01*
X162916666Y-112212380D01*
X162202380Y-111212380D02*
X161630952Y-111212380D01*
X161916666Y-112212380D02*
X161916666Y-111212380D01*
X161345238Y-111926666D02*
X160869047Y-111926666D01*
X161440476Y-112212380D02*
X161107142Y-111212380D01*
X160773809Y-112212380D01*
X159916666Y-111260000D02*
X160011904Y-111212380D01*
X160154761Y-111212380D01*
X160297619Y-111260000D01*
X160392857Y-111355238D01*
X160440476Y-111450476D01*
X160488095Y-111640952D01*
X160488095Y-111783809D01*
X160440476Y-111974285D01*
X160392857Y-112069523D01*
X160297619Y-112164761D01*
X160154761Y-112212380D01*
X160059523Y-112212380D01*
X159916666Y-112164761D01*
X159869047Y-112117142D01*
X159869047Y-111783809D01*
X160059523Y-111783809D01*
X159678571Y-112307619D02*
X158916666Y-112307619D01*
X158345238Y-111688571D02*
X158678571Y-111688571D01*
X158678571Y-112212380D02*
X158678571Y-111212380D01*
X158202380Y-111212380D01*
X157345238Y-112212380D02*
X157821428Y-112212380D01*
X157821428Y-111212380D01*
X157059523Y-111926666D02*
X156583333Y-111926666D01*
X157154761Y-112212380D02*
X156821428Y-111212380D01*
X156488095Y-112212380D01*
X156202380Y-112164761D02*
X156059523Y-112212380D01*
X155821428Y-112212380D01*
X155726190Y-112164761D01*
X155678571Y-112117142D01*
X155630952Y-112021904D01*
X155630952Y-111926666D01*
X155678571Y-111831428D01*
X155726190Y-111783809D01*
X155821428Y-111736190D01*
X156011904Y-111688571D01*
X156107142Y-111640952D01*
X156154761Y-111593333D01*
X156202380Y-111498095D01*
X156202380Y-111402857D01*
X156154761Y-111307619D01*
X156107142Y-111260000D01*
X156011904Y-111212380D01*
X155773809Y-111212380D01*
X155630952Y-111260000D01*
X155202380Y-112212380D02*
X155202380Y-111212380D01*
X155202380Y-111688571D02*
X154630952Y-111688571D01*
X154630952Y-112212380D02*
X154630952Y-111212380D01*
X154392857Y-112307619D02*
X153630952Y-112307619D01*
X153202380Y-111212380D02*
X153107142Y-111212380D01*
X153011904Y-111260000D01*
X152964285Y-111307619D01*
X152916666Y-111402857D01*
X152869047Y-111593333D01*
X152869047Y-111831428D01*
X152916666Y-112021904D01*
X152964285Y-112117142D01*
X153011904Y-112164761D01*
X153107142Y-112212380D01*
X153202380Y-112212380D01*
X153297619Y-112164761D01*
X153345238Y-112117142D01*
X153392857Y-112021904D01*
X153440476Y-111831428D01*
X153440476Y-111593333D01*
X153392857Y-111402857D01*
X153345238Y-111307619D01*
X153297619Y-111260000D01*
X153202380Y-111212380D01*
%TO.C,J_P111_0*%
X154392380Y-26186190D02*
X155106666Y-26186190D01*
X155249523Y-26138571D01*
X155344761Y-26043333D01*
X155392380Y-25900476D01*
X155392380Y-25805238D01*
X155487619Y-26424285D02*
X155487619Y-27186190D01*
X155392380Y-27424285D02*
X154392380Y-27424285D01*
X154392380Y-27805238D01*
X154440000Y-27900476D01*
X154487619Y-27948095D01*
X154582857Y-27995714D01*
X154725714Y-27995714D01*
X154820952Y-27948095D01*
X154868571Y-27900476D01*
X154916190Y-27805238D01*
X154916190Y-27424285D01*
X155392380Y-28948095D02*
X155392380Y-28376666D01*
X155392380Y-28662380D02*
X154392380Y-28662380D01*
X154535238Y-28567142D01*
X154630476Y-28471904D01*
X154678095Y-28376666D01*
X155392380Y-29900476D02*
X155392380Y-29329047D01*
X155392380Y-29614761D02*
X154392380Y-29614761D01*
X154535238Y-29519523D01*
X154630476Y-29424285D01*
X154678095Y-29329047D01*
X155392380Y-30852857D02*
X155392380Y-30281428D01*
X155392380Y-30567142D02*
X154392380Y-30567142D01*
X154535238Y-30471904D01*
X154630476Y-30376666D01*
X154678095Y-30281428D01*
X155487619Y-31043333D02*
X155487619Y-31805238D01*
X154392380Y-32233809D02*
X154392380Y-32329047D01*
X154440000Y-32424285D01*
X154487619Y-32471904D01*
X154582857Y-32519523D01*
X154773333Y-32567142D01*
X155011428Y-32567142D01*
X155201904Y-32519523D01*
X155297142Y-32471904D01*
X155344761Y-32424285D01*
X155392380Y-32329047D01*
X155392380Y-32233809D01*
X155344761Y-32138571D01*
X155297142Y-32090952D01*
X155201904Y-32043333D01*
X155011428Y-31995714D01*
X154773333Y-31995714D01*
X154582857Y-32043333D01*
X154487619Y-32090952D01*
X154440000Y-32138571D01*
X154392380Y-32233809D01*
%TO.C,J_INIT_B_0*%
X170743142Y-114260380D02*
X170743142Y-114974666D01*
X170790761Y-115117523D01*
X170886000Y-115212761D01*
X171028857Y-115260380D01*
X171124095Y-115260380D01*
X170505047Y-115355619D02*
X169743142Y-115355619D01*
X169505047Y-115260380D02*
X169505047Y-114260380D01*
X169028857Y-115260380D02*
X169028857Y-114260380D01*
X168457428Y-115260380D01*
X168457428Y-114260380D01*
X167981238Y-115260380D02*
X167981238Y-114260380D01*
X167647904Y-114260380D02*
X167076476Y-114260380D01*
X167362190Y-115260380D02*
X167362190Y-114260380D01*
X166981238Y-115355619D02*
X166219333Y-115355619D01*
X165647904Y-114736571D02*
X165505047Y-114784190D01*
X165457428Y-114831809D01*
X165409809Y-114927047D01*
X165409809Y-115069904D01*
X165457428Y-115165142D01*
X165505047Y-115212761D01*
X165600285Y-115260380D01*
X165981238Y-115260380D01*
X165981238Y-114260380D01*
X165647904Y-114260380D01*
X165552666Y-114308000D01*
X165505047Y-114355619D01*
X165457428Y-114450857D01*
X165457428Y-114546095D01*
X165505047Y-114641333D01*
X165552666Y-114688952D01*
X165647904Y-114736571D01*
X165981238Y-114736571D01*
X165219333Y-115355619D02*
X164457428Y-115355619D01*
X164028857Y-114260380D02*
X163933619Y-114260380D01*
X163838380Y-114308000D01*
X163790761Y-114355619D01*
X163743142Y-114450857D01*
X163695523Y-114641333D01*
X163695523Y-114879428D01*
X163743142Y-115069904D01*
X163790761Y-115165142D01*
X163838380Y-115212761D01*
X163933619Y-115260380D01*
X164028857Y-115260380D01*
X164124095Y-115212761D01*
X164171714Y-115165142D01*
X164219333Y-115069904D01*
X164266952Y-114879428D01*
X164266952Y-114641333D01*
X164219333Y-114450857D01*
X164171714Y-114355619D01*
X164124095Y-114308000D01*
X164028857Y-114260380D01*
%TO.C,R_JTAG_TCK_0*%
X168210952Y-16962380D02*
X168544285Y-16486190D01*
X168782380Y-16962380D02*
X168782380Y-15962380D01*
X168401428Y-15962380D01*
X168306190Y-16010000D01*
X168258571Y-16057619D01*
X168210952Y-16152857D01*
X168210952Y-16295714D01*
X168258571Y-16390952D01*
X168306190Y-16438571D01*
X168401428Y-16486190D01*
X168782380Y-16486190D01*
X168020476Y-17057619D02*
X167258571Y-17057619D01*
X166734761Y-15962380D02*
X166734761Y-16676666D01*
X166782380Y-16819523D01*
X166877619Y-16914761D01*
X167020476Y-16962380D01*
X167115714Y-16962380D01*
X166401428Y-15962380D02*
X165830000Y-15962380D01*
X166115714Y-16962380D02*
X166115714Y-15962380D01*
X165544285Y-16676666D02*
X165068095Y-16676666D01*
X165639523Y-16962380D02*
X165306190Y-15962380D01*
X164972857Y-16962380D01*
X164115714Y-16010000D02*
X164210952Y-15962380D01*
X164353809Y-15962380D01*
X164496666Y-16010000D01*
X164591904Y-16105238D01*
X164639523Y-16200476D01*
X164687142Y-16390952D01*
X164687142Y-16533809D01*
X164639523Y-16724285D01*
X164591904Y-16819523D01*
X164496666Y-16914761D01*
X164353809Y-16962380D01*
X164258571Y-16962380D01*
X164115714Y-16914761D01*
X164068095Y-16867142D01*
X164068095Y-16533809D01*
X164258571Y-16533809D01*
X163877619Y-17057619D02*
X163115714Y-17057619D01*
X163020476Y-15962380D02*
X162449047Y-15962380D01*
X162734761Y-16962380D02*
X162734761Y-15962380D01*
X161544285Y-16867142D02*
X161591904Y-16914761D01*
X161734761Y-16962380D01*
X161830000Y-16962380D01*
X161972857Y-16914761D01*
X162068095Y-16819523D01*
X162115714Y-16724285D01*
X162163333Y-16533809D01*
X162163333Y-16390952D01*
X162115714Y-16200476D01*
X162068095Y-16105238D01*
X161972857Y-16010000D01*
X161830000Y-15962380D01*
X161734761Y-15962380D01*
X161591904Y-16010000D01*
X161544285Y-16057619D01*
X161115714Y-16962380D02*
X161115714Y-15962380D01*
X160544285Y-16962380D02*
X160972857Y-16390952D01*
X160544285Y-15962380D02*
X161115714Y-16533809D01*
X160353809Y-17057619D02*
X159591904Y-17057619D01*
X159163333Y-15962380D02*
X159068095Y-15962380D01*
X158972857Y-16010000D01*
X158925238Y-16057619D01*
X158877619Y-16152857D01*
X158830000Y-16343333D01*
X158830000Y-16581428D01*
X158877619Y-16771904D01*
X158925238Y-16867142D01*
X158972857Y-16914761D01*
X159068095Y-16962380D01*
X159163333Y-16962380D01*
X159258571Y-16914761D01*
X159306190Y-16867142D01*
X159353809Y-16771904D01*
X159401428Y-16581428D01*
X159401428Y-16343333D01*
X159353809Y-16152857D01*
X159306190Y-16057619D01*
X159258571Y-16010000D01*
X159163333Y-15962380D01*
%TO.C,R_HSWAP_EN_0*%
X173172380Y-25694285D02*
X172696190Y-25360952D01*
X173172380Y-25122857D02*
X172172380Y-25122857D01*
X172172380Y-25503809D01*
X172220000Y-25599047D01*
X172267619Y-25646666D01*
X172362857Y-25694285D01*
X172505714Y-25694285D01*
X172600952Y-25646666D01*
X172648571Y-25599047D01*
X172696190Y-25503809D01*
X172696190Y-25122857D01*
X173267619Y-25884761D02*
X173267619Y-26646666D01*
X173172380Y-26884761D02*
X172172380Y-26884761D01*
X172648571Y-26884761D02*
X172648571Y-27456190D01*
X173172380Y-27456190D02*
X172172380Y-27456190D01*
X173124761Y-27884761D02*
X173172380Y-28027619D01*
X173172380Y-28265714D01*
X173124761Y-28360952D01*
X173077142Y-28408571D01*
X172981904Y-28456190D01*
X172886666Y-28456190D01*
X172791428Y-28408571D01*
X172743809Y-28360952D01*
X172696190Y-28265714D01*
X172648571Y-28075238D01*
X172600952Y-27980000D01*
X172553333Y-27932380D01*
X172458095Y-27884761D01*
X172362857Y-27884761D01*
X172267619Y-27932380D01*
X172220000Y-27980000D01*
X172172380Y-28075238D01*
X172172380Y-28313333D01*
X172220000Y-28456190D01*
X172172380Y-28789523D02*
X173172380Y-29027619D01*
X172458095Y-29218095D01*
X173172380Y-29408571D01*
X172172380Y-29646666D01*
X172886666Y-29980000D02*
X172886666Y-30456190D01*
X173172380Y-29884761D02*
X172172380Y-30218095D01*
X173172380Y-30551428D01*
X173172380Y-30884761D02*
X172172380Y-30884761D01*
X172172380Y-31265714D01*
X172220000Y-31360952D01*
X172267619Y-31408571D01*
X172362857Y-31456190D01*
X172505714Y-31456190D01*
X172600952Y-31408571D01*
X172648571Y-31360952D01*
X172696190Y-31265714D01*
X172696190Y-30884761D01*
X173267619Y-31646666D02*
X173267619Y-32408571D01*
X172648571Y-32646666D02*
X172648571Y-32980000D01*
X173172380Y-33122857D02*
X173172380Y-32646666D01*
X172172380Y-32646666D01*
X172172380Y-33122857D01*
X173172380Y-33551428D02*
X172172380Y-33551428D01*
X173172380Y-34122857D01*
X172172380Y-34122857D01*
X173267619Y-34360952D02*
X173267619Y-35122857D01*
X172172380Y-35551428D02*
X172172380Y-35646666D01*
X172220000Y-35741904D01*
X172267619Y-35789523D01*
X172362857Y-35837142D01*
X172553333Y-35884761D01*
X172791428Y-35884761D01*
X172981904Y-35837142D01*
X173077142Y-35789523D01*
X173124761Y-35741904D01*
X173172380Y-35646666D01*
X173172380Y-35551428D01*
X173124761Y-35456190D01*
X173077142Y-35408571D01*
X172981904Y-35360952D01*
X172791428Y-35313333D01*
X172553333Y-35313333D01*
X172362857Y-35360952D01*
X172267619Y-35408571D01*
X172220000Y-35456190D01*
X172172380Y-35551428D01*
%TO.C,R_eeprom_spi_clk_pullup_0*%
X137603333Y-64842380D02*
X137936666Y-64366190D01*
X138174761Y-64842380D02*
X138174761Y-63842380D01*
X137793809Y-63842380D01*
X137698571Y-63890000D01*
X137650952Y-63937619D01*
X137603333Y-64032857D01*
X137603333Y-64175714D01*
X137650952Y-64270952D01*
X137698571Y-64318571D01*
X137793809Y-64366190D01*
X138174761Y-64366190D01*
X137412857Y-64937619D02*
X136650952Y-64937619D01*
X136031904Y-64794761D02*
X136127142Y-64842380D01*
X136317619Y-64842380D01*
X136412857Y-64794761D01*
X136460476Y-64699523D01*
X136460476Y-64318571D01*
X136412857Y-64223333D01*
X136317619Y-64175714D01*
X136127142Y-64175714D01*
X136031904Y-64223333D01*
X135984285Y-64318571D01*
X135984285Y-64413809D01*
X136460476Y-64509047D01*
X135174761Y-64794761D02*
X135270000Y-64842380D01*
X135460476Y-64842380D01*
X135555714Y-64794761D01*
X135603333Y-64699523D01*
X135603333Y-64318571D01*
X135555714Y-64223333D01*
X135460476Y-64175714D01*
X135270000Y-64175714D01*
X135174761Y-64223333D01*
X135127142Y-64318571D01*
X135127142Y-64413809D01*
X135603333Y-64509047D01*
X134698571Y-64175714D02*
X134698571Y-65175714D01*
X134698571Y-64223333D02*
X134603333Y-64175714D01*
X134412857Y-64175714D01*
X134317619Y-64223333D01*
X134270000Y-64270952D01*
X134222380Y-64366190D01*
X134222380Y-64651904D01*
X134270000Y-64747142D01*
X134317619Y-64794761D01*
X134412857Y-64842380D01*
X134603333Y-64842380D01*
X134698571Y-64794761D01*
X133793809Y-64842380D02*
X133793809Y-64175714D01*
X133793809Y-64366190D02*
X133746190Y-64270952D01*
X133698571Y-64223333D01*
X133603333Y-64175714D01*
X133508095Y-64175714D01*
X133031904Y-64842380D02*
X133127142Y-64794761D01*
X133174761Y-64747142D01*
X133222380Y-64651904D01*
X133222380Y-64366190D01*
X133174761Y-64270952D01*
X133127142Y-64223333D01*
X133031904Y-64175714D01*
X132889047Y-64175714D01*
X132793809Y-64223333D01*
X132746190Y-64270952D01*
X132698571Y-64366190D01*
X132698571Y-64651904D01*
X132746190Y-64747142D01*
X132793809Y-64794761D01*
X132889047Y-64842380D01*
X133031904Y-64842380D01*
X132270000Y-64842380D02*
X132270000Y-64175714D01*
X132270000Y-64270952D02*
X132222380Y-64223333D01*
X132127142Y-64175714D01*
X131984285Y-64175714D01*
X131889047Y-64223333D01*
X131841428Y-64318571D01*
X131841428Y-64842380D01*
X131841428Y-64318571D02*
X131793809Y-64223333D01*
X131698571Y-64175714D01*
X131555714Y-64175714D01*
X131460476Y-64223333D01*
X131412857Y-64318571D01*
X131412857Y-64842380D01*
X131174761Y-64937619D02*
X130412857Y-64937619D01*
X130222380Y-64794761D02*
X130127142Y-64842380D01*
X129936666Y-64842380D01*
X129841428Y-64794761D01*
X129793809Y-64699523D01*
X129793809Y-64651904D01*
X129841428Y-64556666D01*
X129936666Y-64509047D01*
X130079523Y-64509047D01*
X130174761Y-64461428D01*
X130222380Y-64366190D01*
X130222380Y-64318571D01*
X130174761Y-64223333D01*
X130079523Y-64175714D01*
X129936666Y-64175714D01*
X129841428Y-64223333D01*
X129365238Y-64175714D02*
X129365238Y-65175714D01*
X129365238Y-64223333D02*
X129270000Y-64175714D01*
X129079523Y-64175714D01*
X128984285Y-64223333D01*
X128936666Y-64270952D01*
X128889047Y-64366190D01*
X128889047Y-64651904D01*
X128936666Y-64747142D01*
X128984285Y-64794761D01*
X129079523Y-64842380D01*
X129270000Y-64842380D01*
X129365238Y-64794761D01*
X128460476Y-64842380D02*
X128460476Y-64175714D01*
X128460476Y-63842380D02*
X128508095Y-63890000D01*
X128460476Y-63937619D01*
X128412857Y-63890000D01*
X128460476Y-63842380D01*
X128460476Y-63937619D01*
X128222380Y-64937619D02*
X127460476Y-64937619D01*
X126793809Y-64794761D02*
X126889047Y-64842380D01*
X127079523Y-64842380D01*
X127174761Y-64794761D01*
X127222380Y-64747142D01*
X127270000Y-64651904D01*
X127270000Y-64366190D01*
X127222380Y-64270952D01*
X127174761Y-64223333D01*
X127079523Y-64175714D01*
X126889047Y-64175714D01*
X126793809Y-64223333D01*
X126222380Y-64842380D02*
X126317619Y-64794761D01*
X126365238Y-64699523D01*
X126365238Y-63842380D01*
X125841428Y-64842380D02*
X125841428Y-63842380D01*
X125746190Y-64461428D02*
X125460476Y-64842380D01*
X125460476Y-64175714D02*
X125841428Y-64556666D01*
X125270000Y-64937619D02*
X124508095Y-64937619D01*
X124270000Y-64175714D02*
X124270000Y-65175714D01*
X124270000Y-64223333D02*
X124174761Y-64175714D01*
X123984285Y-64175714D01*
X123889047Y-64223333D01*
X123841428Y-64270952D01*
X123793809Y-64366190D01*
X123793809Y-64651904D01*
X123841428Y-64747142D01*
X123889047Y-64794761D01*
X123984285Y-64842380D01*
X124174761Y-64842380D01*
X124270000Y-64794761D01*
X122936666Y-64175714D02*
X122936666Y-64842380D01*
X123365238Y-64175714D02*
X123365238Y-64699523D01*
X123317619Y-64794761D01*
X123222380Y-64842380D01*
X123079523Y-64842380D01*
X122984285Y-64794761D01*
X122936666Y-64747142D01*
X122317619Y-64842380D02*
X122412857Y-64794761D01*
X122460476Y-64699523D01*
X122460476Y-63842380D01*
X121793809Y-64842380D02*
X121889047Y-64794761D01*
X121936666Y-64699523D01*
X121936666Y-63842380D01*
X120984285Y-64175714D02*
X120984285Y-64842380D01*
X121412857Y-64175714D02*
X121412857Y-64699523D01*
X121365238Y-64794761D01*
X121270000Y-64842380D01*
X121127142Y-64842380D01*
X121031904Y-64794761D01*
X120984285Y-64747142D01*
X120508095Y-64175714D02*
X120508095Y-65175714D01*
X120508095Y-64223333D02*
X120412857Y-64175714D01*
X120222380Y-64175714D01*
X120127142Y-64223333D01*
X120079523Y-64270952D01*
X120031904Y-64366190D01*
X120031904Y-64651904D01*
X120079523Y-64747142D01*
X120127142Y-64794761D01*
X120222380Y-64842380D01*
X120412857Y-64842380D01*
X120508095Y-64794761D01*
X119841428Y-64937619D02*
X119079523Y-64937619D01*
X118650952Y-63842380D02*
X118555714Y-63842380D01*
X118460476Y-63890000D01*
X118412857Y-63937619D01*
X118365238Y-64032857D01*
X118317619Y-64223333D01*
X118317619Y-64461428D01*
X118365238Y-64651904D01*
X118412857Y-64747142D01*
X118460476Y-64794761D01*
X118555714Y-64842380D01*
X118650952Y-64842380D01*
X118746190Y-64794761D01*
X118793809Y-64747142D01*
X118841428Y-64651904D01*
X118889047Y-64461428D01*
X118889047Y-64223333D01*
X118841428Y-64032857D01*
X118793809Y-63937619D01*
X118746190Y-63890000D01*
X118650952Y-63842380D01*
%TO.C,J_clk_0*%
X189515476Y-59142380D02*
X189515476Y-59856666D01*
X189563095Y-59999523D01*
X189658333Y-60094761D01*
X189801190Y-60142380D01*
X189896428Y-60142380D01*
X189277380Y-60237619D02*
X188515476Y-60237619D01*
X187848809Y-60094761D02*
X187944047Y-60142380D01*
X188134523Y-60142380D01*
X188229761Y-60094761D01*
X188277380Y-60047142D01*
X188325000Y-59951904D01*
X188325000Y-59666190D01*
X188277380Y-59570952D01*
X188229761Y-59523333D01*
X188134523Y-59475714D01*
X187944047Y-59475714D01*
X187848809Y-59523333D01*
X187277380Y-60142380D02*
X187372619Y-60094761D01*
X187420238Y-59999523D01*
X187420238Y-59142380D01*
X186896428Y-60142380D02*
X186896428Y-59142380D01*
X186801190Y-59761428D02*
X186515476Y-60142380D01*
X186515476Y-59475714D02*
X186896428Y-59856666D01*
X186325000Y-60237619D02*
X185563095Y-60237619D01*
X185134523Y-59142380D02*
X185039285Y-59142380D01*
X184944047Y-59190000D01*
X184896428Y-59237619D01*
X184848809Y-59332857D01*
X184801190Y-59523333D01*
X184801190Y-59761428D01*
X184848809Y-59951904D01*
X184896428Y-60047142D01*
X184944047Y-60094761D01*
X185039285Y-60142380D01*
X185134523Y-60142380D01*
X185229761Y-60094761D01*
X185277380Y-60047142D01*
X185325000Y-59951904D01*
X185372619Y-59761428D01*
X185372619Y-59523333D01*
X185325000Y-59332857D01*
X185277380Y-59237619D01*
X185229761Y-59190000D01*
X185134523Y-59142380D01*
%TO.C,R_eeprom_hold_0*%
X140152380Y-50213333D02*
X139676190Y-49880000D01*
X140152380Y-49641904D02*
X139152380Y-49641904D01*
X139152380Y-50022857D01*
X139200000Y-50118095D01*
X139247619Y-50165714D01*
X139342857Y-50213333D01*
X139485714Y-50213333D01*
X139580952Y-50165714D01*
X139628571Y-50118095D01*
X139676190Y-50022857D01*
X139676190Y-49641904D01*
X140247619Y-50403809D02*
X140247619Y-51165714D01*
X140104761Y-51784761D02*
X140152380Y-51689523D01*
X140152380Y-51499047D01*
X140104761Y-51403809D01*
X140009523Y-51356190D01*
X139628571Y-51356190D01*
X139533333Y-51403809D01*
X139485714Y-51499047D01*
X139485714Y-51689523D01*
X139533333Y-51784761D01*
X139628571Y-51832380D01*
X139723809Y-51832380D01*
X139819047Y-51356190D01*
X140104761Y-52641904D02*
X140152380Y-52546666D01*
X140152380Y-52356190D01*
X140104761Y-52260952D01*
X140009523Y-52213333D01*
X139628571Y-52213333D01*
X139533333Y-52260952D01*
X139485714Y-52356190D01*
X139485714Y-52546666D01*
X139533333Y-52641904D01*
X139628571Y-52689523D01*
X139723809Y-52689523D01*
X139819047Y-52213333D01*
X139485714Y-53118095D02*
X140485714Y-53118095D01*
X139533333Y-53118095D02*
X139485714Y-53213333D01*
X139485714Y-53403809D01*
X139533333Y-53499047D01*
X139580952Y-53546666D01*
X139676190Y-53594285D01*
X139961904Y-53594285D01*
X140057142Y-53546666D01*
X140104761Y-53499047D01*
X140152380Y-53403809D01*
X140152380Y-53213333D01*
X140104761Y-53118095D01*
X140152380Y-54022857D02*
X139485714Y-54022857D01*
X139676190Y-54022857D02*
X139580952Y-54070476D01*
X139533333Y-54118095D01*
X139485714Y-54213333D01*
X139485714Y-54308571D01*
X140152380Y-54784761D02*
X140104761Y-54689523D01*
X140057142Y-54641904D01*
X139961904Y-54594285D01*
X139676190Y-54594285D01*
X139580952Y-54641904D01*
X139533333Y-54689523D01*
X139485714Y-54784761D01*
X139485714Y-54927619D01*
X139533333Y-55022857D01*
X139580952Y-55070476D01*
X139676190Y-55118095D01*
X139961904Y-55118095D01*
X140057142Y-55070476D01*
X140104761Y-55022857D01*
X140152380Y-54927619D01*
X140152380Y-54784761D01*
X140152380Y-55546666D02*
X139485714Y-55546666D01*
X139580952Y-55546666D02*
X139533333Y-55594285D01*
X139485714Y-55689523D01*
X139485714Y-55832380D01*
X139533333Y-55927619D01*
X139628571Y-55975238D01*
X140152380Y-55975238D01*
X139628571Y-55975238D02*
X139533333Y-56022857D01*
X139485714Y-56118095D01*
X139485714Y-56260952D01*
X139533333Y-56356190D01*
X139628571Y-56403809D01*
X140152380Y-56403809D01*
X140247619Y-56641904D02*
X140247619Y-57403809D01*
X140152380Y-57641904D02*
X139152380Y-57641904D01*
X140152380Y-58070476D02*
X139628571Y-58070476D01*
X139533333Y-58022857D01*
X139485714Y-57927619D01*
X139485714Y-57784761D01*
X139533333Y-57689523D01*
X139580952Y-57641904D01*
X140152380Y-58689523D02*
X140104761Y-58594285D01*
X140057142Y-58546666D01*
X139961904Y-58499047D01*
X139676190Y-58499047D01*
X139580952Y-58546666D01*
X139533333Y-58594285D01*
X139485714Y-58689523D01*
X139485714Y-58832380D01*
X139533333Y-58927619D01*
X139580952Y-58975238D01*
X139676190Y-59022857D01*
X139961904Y-59022857D01*
X140057142Y-58975238D01*
X140104761Y-58927619D01*
X140152380Y-58832380D01*
X140152380Y-58689523D01*
X140152380Y-59594285D02*
X140104761Y-59499047D01*
X140009523Y-59451428D01*
X139152380Y-59451428D01*
X140152380Y-60403809D02*
X139152380Y-60403809D01*
X140104761Y-60403809D02*
X140152380Y-60308571D01*
X140152380Y-60118095D01*
X140104761Y-60022857D01*
X140057142Y-59975238D01*
X139961904Y-59927619D01*
X139676190Y-59927619D01*
X139580952Y-59975238D01*
X139533333Y-60022857D01*
X139485714Y-60118095D01*
X139485714Y-60308571D01*
X139533333Y-60403809D01*
X140247619Y-60641904D02*
X140247619Y-61403809D01*
X139152380Y-61832380D02*
X139152380Y-61927619D01*
X139200000Y-62022857D01*
X139247619Y-62070476D01*
X139342857Y-62118095D01*
X139533333Y-62165714D01*
X139771428Y-62165714D01*
X139961904Y-62118095D01*
X140057142Y-62070476D01*
X140104761Y-62022857D01*
X140152380Y-61927619D01*
X140152380Y-61832380D01*
X140104761Y-61737142D01*
X140057142Y-61689523D01*
X139961904Y-61641904D01*
X139771428Y-61594285D01*
X139533333Y-61594285D01*
X139342857Y-61641904D01*
X139247619Y-61689523D01*
X139200000Y-61737142D01*
X139152380Y-61832380D01*
%TO.C,R_clk_oe_0*%
X212835714Y-65222380D02*
X213169047Y-64746190D01*
X213407142Y-65222380D02*
X213407142Y-64222380D01*
X213026190Y-64222380D01*
X212930952Y-64270000D01*
X212883333Y-64317619D01*
X212835714Y-64412857D01*
X212835714Y-64555714D01*
X212883333Y-64650952D01*
X212930952Y-64698571D01*
X213026190Y-64746190D01*
X213407142Y-64746190D01*
X212645238Y-65317619D02*
X211883333Y-65317619D01*
X211216666Y-65174761D02*
X211311904Y-65222380D01*
X211502380Y-65222380D01*
X211597619Y-65174761D01*
X211645238Y-65127142D01*
X211692857Y-65031904D01*
X211692857Y-64746190D01*
X211645238Y-64650952D01*
X211597619Y-64603333D01*
X211502380Y-64555714D01*
X211311904Y-64555714D01*
X211216666Y-64603333D01*
X210645238Y-65222380D02*
X210740476Y-65174761D01*
X210788095Y-65079523D01*
X210788095Y-64222380D01*
X210264285Y-65222380D02*
X210264285Y-64222380D01*
X210169047Y-64841428D02*
X209883333Y-65222380D01*
X209883333Y-64555714D02*
X210264285Y-64936666D01*
X209692857Y-65317619D02*
X208930952Y-65317619D01*
X208550000Y-65222380D02*
X208645238Y-65174761D01*
X208692857Y-65127142D01*
X208740476Y-65031904D01*
X208740476Y-64746190D01*
X208692857Y-64650952D01*
X208645238Y-64603333D01*
X208550000Y-64555714D01*
X208407142Y-64555714D01*
X208311904Y-64603333D01*
X208264285Y-64650952D01*
X208216666Y-64746190D01*
X208216666Y-65031904D01*
X208264285Y-65127142D01*
X208311904Y-65174761D01*
X208407142Y-65222380D01*
X208550000Y-65222380D01*
X207407142Y-65174761D02*
X207502380Y-65222380D01*
X207692857Y-65222380D01*
X207788095Y-65174761D01*
X207835714Y-65079523D01*
X207835714Y-64698571D01*
X207788095Y-64603333D01*
X207692857Y-64555714D01*
X207502380Y-64555714D01*
X207407142Y-64603333D01*
X207359523Y-64698571D01*
X207359523Y-64793809D01*
X207835714Y-64889047D01*
X207169047Y-65317619D02*
X206407142Y-65317619D01*
X205978571Y-64222380D02*
X205883333Y-64222380D01*
X205788095Y-64270000D01*
X205740476Y-64317619D01*
X205692857Y-64412857D01*
X205645238Y-64603333D01*
X205645238Y-64841428D01*
X205692857Y-65031904D01*
X205740476Y-65127142D01*
X205788095Y-65174761D01*
X205883333Y-65222380D01*
X205978571Y-65222380D01*
X206073809Y-65174761D01*
X206121428Y-65127142D01*
X206169047Y-65031904D01*
X206216666Y-64841428D01*
X206216666Y-64603333D01*
X206169047Y-64412857D01*
X206121428Y-64317619D01*
X206073809Y-64270000D01*
X205978571Y-64222380D01*
%TO.C,J_VCC_core_0*%
X214708809Y-45807380D02*
X214708809Y-46521666D01*
X214756428Y-46664523D01*
X214851666Y-46759761D01*
X214994523Y-46807380D01*
X215089761Y-46807380D01*
X214470714Y-46902619D02*
X213708809Y-46902619D01*
X213613571Y-45807380D02*
X213280238Y-46807380D01*
X212946904Y-45807380D01*
X212042142Y-46712142D02*
X212089761Y-46759761D01*
X212232619Y-46807380D01*
X212327857Y-46807380D01*
X212470714Y-46759761D01*
X212565952Y-46664523D01*
X212613571Y-46569285D01*
X212661190Y-46378809D01*
X212661190Y-46235952D01*
X212613571Y-46045476D01*
X212565952Y-45950238D01*
X212470714Y-45855000D01*
X212327857Y-45807380D01*
X212232619Y-45807380D01*
X212089761Y-45855000D01*
X212042142Y-45902619D01*
X211042142Y-46712142D02*
X211089761Y-46759761D01*
X211232619Y-46807380D01*
X211327857Y-46807380D01*
X211470714Y-46759761D01*
X211565952Y-46664523D01*
X211613571Y-46569285D01*
X211661190Y-46378809D01*
X211661190Y-46235952D01*
X211613571Y-46045476D01*
X211565952Y-45950238D01*
X211470714Y-45855000D01*
X211327857Y-45807380D01*
X211232619Y-45807380D01*
X211089761Y-45855000D01*
X211042142Y-45902619D01*
X210851666Y-46902619D02*
X210089761Y-46902619D01*
X209423095Y-46759761D02*
X209518333Y-46807380D01*
X209708809Y-46807380D01*
X209804047Y-46759761D01*
X209851666Y-46712142D01*
X209899285Y-46616904D01*
X209899285Y-46331190D01*
X209851666Y-46235952D01*
X209804047Y-46188333D01*
X209708809Y-46140714D01*
X209518333Y-46140714D01*
X209423095Y-46188333D01*
X208851666Y-46807380D02*
X208946904Y-46759761D01*
X208994523Y-46712142D01*
X209042142Y-46616904D01*
X209042142Y-46331190D01*
X208994523Y-46235952D01*
X208946904Y-46188333D01*
X208851666Y-46140714D01*
X208708809Y-46140714D01*
X208613571Y-46188333D01*
X208565952Y-46235952D01*
X208518333Y-46331190D01*
X208518333Y-46616904D01*
X208565952Y-46712142D01*
X208613571Y-46759761D01*
X208708809Y-46807380D01*
X208851666Y-46807380D01*
X208089761Y-46807380D02*
X208089761Y-46140714D01*
X208089761Y-46331190D02*
X208042142Y-46235952D01*
X207994523Y-46188333D01*
X207899285Y-46140714D01*
X207804047Y-46140714D01*
X207089761Y-46759761D02*
X207185000Y-46807380D01*
X207375476Y-46807380D01*
X207470714Y-46759761D01*
X207518333Y-46664523D01*
X207518333Y-46283571D01*
X207470714Y-46188333D01*
X207375476Y-46140714D01*
X207185000Y-46140714D01*
X207089761Y-46188333D01*
X207042142Y-46283571D01*
X207042142Y-46378809D01*
X207518333Y-46474047D01*
X206851666Y-46902619D02*
X206089761Y-46902619D01*
X205661190Y-45807380D02*
X205565952Y-45807380D01*
X205470714Y-45855000D01*
X205423095Y-45902619D01*
X205375476Y-45997857D01*
X205327857Y-46188333D01*
X205327857Y-46426428D01*
X205375476Y-46616904D01*
X205423095Y-46712142D01*
X205470714Y-46759761D01*
X205565952Y-46807380D01*
X205661190Y-46807380D01*
X205756428Y-46759761D01*
X205804047Y-46712142D01*
X205851666Y-46616904D01*
X205899285Y-46426428D01*
X205899285Y-46188333D01*
X205851666Y-45997857D01*
X205804047Y-45902619D01*
X205756428Y-45855000D01*
X205661190Y-45807380D01*
%TO.C,X_clk_0*%
X198246666Y-64222380D02*
X197580000Y-65222380D01*
X197580000Y-64222380D02*
X198246666Y-65222380D01*
X197437142Y-65317619D02*
X196675238Y-65317619D01*
X196008571Y-65174761D02*
X196103809Y-65222380D01*
X196294285Y-65222380D01*
X196389523Y-65174761D01*
X196437142Y-65127142D01*
X196484761Y-65031904D01*
X196484761Y-64746190D01*
X196437142Y-64650952D01*
X196389523Y-64603333D01*
X196294285Y-64555714D01*
X196103809Y-64555714D01*
X196008571Y-64603333D01*
X195437142Y-65222380D02*
X195532380Y-65174761D01*
X195580000Y-65079523D01*
X195580000Y-64222380D01*
X195056190Y-65222380D02*
X195056190Y-64222380D01*
X194960952Y-64841428D02*
X194675238Y-65222380D01*
X194675238Y-64555714D02*
X195056190Y-64936666D01*
X194484761Y-65317619D02*
X193722857Y-65317619D01*
X193294285Y-64222380D02*
X193199047Y-64222380D01*
X193103809Y-64270000D01*
X193056190Y-64317619D01*
X193008571Y-64412857D01*
X192960952Y-64603333D01*
X192960952Y-64841428D01*
X193008571Y-65031904D01*
X193056190Y-65127142D01*
X193103809Y-65174761D01*
X193199047Y-65222380D01*
X193294285Y-65222380D01*
X193389523Y-65174761D01*
X193437142Y-65127142D01*
X193484761Y-65031904D01*
X193532380Y-64841428D01*
X193532380Y-64603333D01*
X193484761Y-64412857D01*
X193437142Y-64317619D01*
X193389523Y-64270000D01*
X193294285Y-64222380D01*
%TO.C,J_TCK_0*%
X146137380Y-29273809D02*
X146851666Y-29273809D01*
X146994523Y-29226190D01*
X147089761Y-29130952D01*
X147137380Y-28988095D01*
X147137380Y-28892857D01*
X147232619Y-29511904D02*
X147232619Y-30273809D01*
X146137380Y-30369047D02*
X146137380Y-30940476D01*
X147137380Y-30654761D02*
X146137380Y-30654761D01*
X147042142Y-31845238D02*
X147089761Y-31797619D01*
X147137380Y-31654761D01*
X147137380Y-31559523D01*
X147089761Y-31416666D01*
X146994523Y-31321428D01*
X146899285Y-31273809D01*
X146708809Y-31226190D01*
X146565952Y-31226190D01*
X146375476Y-31273809D01*
X146280238Y-31321428D01*
X146185000Y-31416666D01*
X146137380Y-31559523D01*
X146137380Y-31654761D01*
X146185000Y-31797619D01*
X146232619Y-31845238D01*
X147137380Y-32273809D02*
X146137380Y-32273809D01*
X147137380Y-32845238D02*
X146565952Y-32416666D01*
X146137380Y-32845238D02*
X146708809Y-32273809D01*
X147232619Y-33035714D02*
X147232619Y-33797619D01*
X146137380Y-34226190D02*
X146137380Y-34321428D01*
X146185000Y-34416666D01*
X146232619Y-34464285D01*
X146327857Y-34511904D01*
X146518333Y-34559523D01*
X146756428Y-34559523D01*
X146946904Y-34511904D01*
X147042142Y-34464285D01*
X147089761Y-34416666D01*
X147137380Y-34321428D01*
X147137380Y-34226190D01*
X147089761Y-34130952D01*
X147042142Y-34083333D01*
X146946904Y-34035714D01*
X146756428Y-33988095D01*
X146518333Y-33988095D01*
X146327857Y-34035714D01*
X146232619Y-34083333D01*
X146185000Y-34130952D01*
X146137380Y-34226190D01*
%TO.C,P_JTAG_FPGA_0*%
X174338571Y-1722380D02*
X174338571Y-722380D01*
X173957619Y-722380D01*
X173862380Y-770000D01*
X173814761Y-817619D01*
X173767142Y-912857D01*
X173767142Y-1055714D01*
X173814761Y-1150952D01*
X173862380Y-1198571D01*
X173957619Y-1246190D01*
X174338571Y-1246190D01*
X173576666Y-1817619D02*
X172814761Y-1817619D01*
X172290952Y-722380D02*
X172290952Y-1436666D01*
X172338571Y-1579523D01*
X172433809Y-1674761D01*
X172576666Y-1722380D01*
X172671904Y-1722380D01*
X171957619Y-722380D02*
X171386190Y-722380D01*
X171671904Y-1722380D02*
X171671904Y-722380D01*
X171100476Y-1436666D02*
X170624285Y-1436666D01*
X171195714Y-1722380D02*
X170862380Y-722380D01*
X170529047Y-1722380D01*
X169671904Y-770000D02*
X169767142Y-722380D01*
X169910000Y-722380D01*
X170052857Y-770000D01*
X170148095Y-865238D01*
X170195714Y-960476D01*
X170243333Y-1150952D01*
X170243333Y-1293809D01*
X170195714Y-1484285D01*
X170148095Y-1579523D01*
X170052857Y-1674761D01*
X169910000Y-1722380D01*
X169814761Y-1722380D01*
X169671904Y-1674761D01*
X169624285Y-1627142D01*
X169624285Y-1293809D01*
X169814761Y-1293809D01*
X169433809Y-1817619D02*
X168671904Y-1817619D01*
X168100476Y-1198571D02*
X168433809Y-1198571D01*
X168433809Y-1722380D02*
X168433809Y-722380D01*
X167957619Y-722380D01*
X167576666Y-1722380D02*
X167576666Y-722380D01*
X167195714Y-722380D01*
X167100476Y-770000D01*
X167052857Y-817619D01*
X167005238Y-912857D01*
X167005238Y-1055714D01*
X167052857Y-1150952D01*
X167100476Y-1198571D01*
X167195714Y-1246190D01*
X167576666Y-1246190D01*
X166052857Y-770000D02*
X166148095Y-722380D01*
X166290952Y-722380D01*
X166433809Y-770000D01*
X166529047Y-865238D01*
X166576666Y-960476D01*
X166624285Y-1150952D01*
X166624285Y-1293809D01*
X166576666Y-1484285D01*
X166529047Y-1579523D01*
X166433809Y-1674761D01*
X166290952Y-1722380D01*
X166195714Y-1722380D01*
X166052857Y-1674761D01*
X166005238Y-1627142D01*
X166005238Y-1293809D01*
X166195714Y-1293809D01*
X165624285Y-1436666D02*
X165148095Y-1436666D01*
X165719523Y-1722380D02*
X165386190Y-722380D01*
X165052857Y-1722380D01*
X164957619Y-1817619D02*
X164195714Y-1817619D01*
X163767142Y-722380D02*
X163671904Y-722380D01*
X163576666Y-770000D01*
X163529047Y-817619D01*
X163481428Y-912857D01*
X163433809Y-1103333D01*
X163433809Y-1341428D01*
X163481428Y-1531904D01*
X163529047Y-1627142D01*
X163576666Y-1674761D01*
X163671904Y-1722380D01*
X163767142Y-1722380D01*
X163862380Y-1674761D01*
X163910000Y-1627142D01*
X163957619Y-1531904D01*
X164005238Y-1341428D01*
X164005238Y-1103333D01*
X163957619Y-912857D01*
X163910000Y-817619D01*
X163862380Y-770000D01*
X163767142Y-722380D01*
%TO.C,R_eeprom_s_0*%
X158122380Y-61412380D02*
X158455714Y-60936190D01*
X158693809Y-61412380D02*
X158693809Y-60412380D01*
X158312857Y-60412380D01*
X158217619Y-60460000D01*
X158170000Y-60507619D01*
X158122380Y-60602857D01*
X158122380Y-60745714D01*
X158170000Y-60840952D01*
X158217619Y-60888571D01*
X158312857Y-60936190D01*
X158693809Y-60936190D01*
X157931904Y-61507619D02*
X157170000Y-61507619D01*
X156550952Y-61364761D02*
X156646190Y-61412380D01*
X156836666Y-61412380D01*
X156931904Y-61364761D01*
X156979523Y-61269523D01*
X156979523Y-60888571D01*
X156931904Y-60793333D01*
X156836666Y-60745714D01*
X156646190Y-60745714D01*
X156550952Y-60793333D01*
X156503333Y-60888571D01*
X156503333Y-60983809D01*
X156979523Y-61079047D01*
X155693809Y-61364761D02*
X155789047Y-61412380D01*
X155979523Y-61412380D01*
X156074761Y-61364761D01*
X156122380Y-61269523D01*
X156122380Y-60888571D01*
X156074761Y-60793333D01*
X155979523Y-60745714D01*
X155789047Y-60745714D01*
X155693809Y-60793333D01*
X155646190Y-60888571D01*
X155646190Y-60983809D01*
X156122380Y-61079047D01*
X155217619Y-60745714D02*
X155217619Y-61745714D01*
X155217619Y-60793333D02*
X155122380Y-60745714D01*
X154931904Y-60745714D01*
X154836666Y-60793333D01*
X154789047Y-60840952D01*
X154741428Y-60936190D01*
X154741428Y-61221904D01*
X154789047Y-61317142D01*
X154836666Y-61364761D01*
X154931904Y-61412380D01*
X155122380Y-61412380D01*
X155217619Y-61364761D01*
X154312857Y-61412380D02*
X154312857Y-60745714D01*
X154312857Y-60936190D02*
X154265238Y-60840952D01*
X154217619Y-60793333D01*
X154122380Y-60745714D01*
X154027142Y-60745714D01*
X153550952Y-61412380D02*
X153646190Y-61364761D01*
X153693809Y-61317142D01*
X153741428Y-61221904D01*
X153741428Y-60936190D01*
X153693809Y-60840952D01*
X153646190Y-60793333D01*
X153550952Y-60745714D01*
X153408095Y-60745714D01*
X153312857Y-60793333D01*
X153265238Y-60840952D01*
X153217619Y-60936190D01*
X153217619Y-61221904D01*
X153265238Y-61317142D01*
X153312857Y-61364761D01*
X153408095Y-61412380D01*
X153550952Y-61412380D01*
X152789047Y-61412380D02*
X152789047Y-60745714D01*
X152789047Y-60840952D02*
X152741428Y-60793333D01*
X152646190Y-60745714D01*
X152503333Y-60745714D01*
X152408095Y-60793333D01*
X152360476Y-60888571D01*
X152360476Y-61412380D01*
X152360476Y-60888571D02*
X152312857Y-60793333D01*
X152217619Y-60745714D01*
X152074761Y-60745714D01*
X151979523Y-60793333D01*
X151931904Y-60888571D01*
X151931904Y-61412380D01*
X151693809Y-61507619D02*
X150931904Y-61507619D01*
X150741428Y-61364761D02*
X150646190Y-61412380D01*
X150455714Y-61412380D01*
X150360476Y-61364761D01*
X150312857Y-61269523D01*
X150312857Y-61221904D01*
X150360476Y-61126666D01*
X150455714Y-61079047D01*
X150598571Y-61079047D01*
X150693809Y-61031428D01*
X150741428Y-60936190D01*
X150741428Y-60888571D01*
X150693809Y-60793333D01*
X150598571Y-60745714D01*
X150455714Y-60745714D01*
X150360476Y-60793333D01*
X150122380Y-61507619D02*
X149360476Y-61507619D01*
X148931904Y-60412380D02*
X148836666Y-60412380D01*
X148741428Y-60460000D01*
X148693809Y-60507619D01*
X148646190Y-60602857D01*
X148598571Y-60793333D01*
X148598571Y-61031428D01*
X148646190Y-61221904D01*
X148693809Y-61317142D01*
X148741428Y-61364761D01*
X148836666Y-61412380D01*
X148931904Y-61412380D01*
X149027142Y-61364761D01*
X149074761Y-61317142D01*
X149122380Y-61221904D01*
X149170000Y-61031428D01*
X149170000Y-60793333D01*
X149122380Y-60602857D01*
X149074761Y-60507619D01*
X149027142Y-60460000D01*
X148931904Y-60412380D01*
%TO.C,U_pwr_vcc_core_0*%
X210390571Y-43902380D02*
X210390571Y-44711904D01*
X210342952Y-44807142D01*
X210295333Y-44854761D01*
X210200095Y-44902380D01*
X210009619Y-44902380D01*
X209914380Y-44854761D01*
X209866761Y-44807142D01*
X209819142Y-44711904D01*
X209819142Y-43902380D01*
X209581047Y-44997619D02*
X208819142Y-44997619D01*
X208581047Y-44235714D02*
X208581047Y-45235714D01*
X208581047Y-44283333D02*
X208485809Y-44235714D01*
X208295333Y-44235714D01*
X208200095Y-44283333D01*
X208152476Y-44330952D01*
X208104857Y-44426190D01*
X208104857Y-44711904D01*
X208152476Y-44807142D01*
X208200095Y-44854761D01*
X208295333Y-44902380D01*
X208485809Y-44902380D01*
X208581047Y-44854761D01*
X207771523Y-44235714D02*
X207581047Y-44902380D01*
X207390571Y-44426190D01*
X207200095Y-44902380D01*
X207009619Y-44235714D01*
X206628666Y-44902380D02*
X206628666Y-44235714D01*
X206628666Y-44426190D02*
X206581047Y-44330952D01*
X206533428Y-44283333D01*
X206438190Y-44235714D01*
X206342952Y-44235714D01*
X206247714Y-44997619D02*
X205485809Y-44997619D01*
X205342952Y-44235714D02*
X205104857Y-44902380D01*
X204866761Y-44235714D01*
X204057238Y-44854761D02*
X204152476Y-44902380D01*
X204342952Y-44902380D01*
X204438190Y-44854761D01*
X204485809Y-44807142D01*
X204533428Y-44711904D01*
X204533428Y-44426190D01*
X204485809Y-44330952D01*
X204438190Y-44283333D01*
X204342952Y-44235714D01*
X204152476Y-44235714D01*
X204057238Y-44283333D01*
X203200095Y-44854761D02*
X203295333Y-44902380D01*
X203485809Y-44902380D01*
X203581047Y-44854761D01*
X203628666Y-44807142D01*
X203676285Y-44711904D01*
X203676285Y-44426190D01*
X203628666Y-44330952D01*
X203581047Y-44283333D01*
X203485809Y-44235714D01*
X203295333Y-44235714D01*
X203200095Y-44283333D01*
X203009619Y-44997619D02*
X202247714Y-44997619D01*
X201581047Y-44854761D02*
X201676285Y-44902380D01*
X201866761Y-44902380D01*
X201962000Y-44854761D01*
X202009619Y-44807142D01*
X202057238Y-44711904D01*
X202057238Y-44426190D01*
X202009619Y-44330952D01*
X201962000Y-44283333D01*
X201866761Y-44235714D01*
X201676285Y-44235714D01*
X201581047Y-44283333D01*
X201009619Y-44902380D02*
X201104857Y-44854761D01*
X201152476Y-44807142D01*
X201200095Y-44711904D01*
X201200095Y-44426190D01*
X201152476Y-44330952D01*
X201104857Y-44283333D01*
X201009619Y-44235714D01*
X200866761Y-44235714D01*
X200771523Y-44283333D01*
X200723904Y-44330952D01*
X200676285Y-44426190D01*
X200676285Y-44711904D01*
X200723904Y-44807142D01*
X200771523Y-44854761D01*
X200866761Y-44902380D01*
X201009619Y-44902380D01*
X200247714Y-44902380D02*
X200247714Y-44235714D01*
X200247714Y-44426190D02*
X200200095Y-44330952D01*
X200152476Y-44283333D01*
X200057238Y-44235714D01*
X199962000Y-44235714D01*
X199247714Y-44854761D02*
X199342952Y-44902380D01*
X199533428Y-44902380D01*
X199628666Y-44854761D01*
X199676285Y-44759523D01*
X199676285Y-44378571D01*
X199628666Y-44283333D01*
X199533428Y-44235714D01*
X199342952Y-44235714D01*
X199247714Y-44283333D01*
X199200095Y-44378571D01*
X199200095Y-44473809D01*
X199676285Y-44569047D01*
X199009619Y-44997619D02*
X198247714Y-44997619D01*
X197819142Y-43902380D02*
X197723904Y-43902380D01*
X197628666Y-43950000D01*
X197581047Y-43997619D01*
X197533428Y-44092857D01*
X197485809Y-44283333D01*
X197485809Y-44521428D01*
X197533428Y-44711904D01*
X197581047Y-44807142D01*
X197628666Y-44854761D01*
X197723904Y-44902380D01*
X197819142Y-44902380D01*
X197914380Y-44854761D01*
X197962000Y-44807142D01*
X198009619Y-44711904D01*
X198057238Y-44521428D01*
X198057238Y-44283333D01*
X198009619Y-44092857D01*
X197962000Y-43997619D01*
X197914380Y-43950000D01*
X197819142Y-43902380D01*
%TO.C,J_P84_0*%
X147407380Y-47617380D02*
X148121666Y-47617380D01*
X148264523Y-47569761D01*
X148359761Y-47474523D01*
X148407380Y-47331666D01*
X148407380Y-47236428D01*
X148502619Y-47855476D02*
X148502619Y-48617380D01*
X148407380Y-48855476D02*
X147407380Y-48855476D01*
X147407380Y-49236428D01*
X147455000Y-49331666D01*
X147502619Y-49379285D01*
X147597857Y-49426904D01*
X147740714Y-49426904D01*
X147835952Y-49379285D01*
X147883571Y-49331666D01*
X147931190Y-49236428D01*
X147931190Y-48855476D01*
X147835952Y-49998333D02*
X147788333Y-49903095D01*
X147740714Y-49855476D01*
X147645476Y-49807857D01*
X147597857Y-49807857D01*
X147502619Y-49855476D01*
X147455000Y-49903095D01*
X147407380Y-49998333D01*
X147407380Y-50188809D01*
X147455000Y-50284047D01*
X147502619Y-50331666D01*
X147597857Y-50379285D01*
X147645476Y-50379285D01*
X147740714Y-50331666D01*
X147788333Y-50284047D01*
X147835952Y-50188809D01*
X147835952Y-49998333D01*
X147883571Y-49903095D01*
X147931190Y-49855476D01*
X148026428Y-49807857D01*
X148216904Y-49807857D01*
X148312142Y-49855476D01*
X148359761Y-49903095D01*
X148407380Y-49998333D01*
X148407380Y-50188809D01*
X148359761Y-50284047D01*
X148312142Y-50331666D01*
X148216904Y-50379285D01*
X148026428Y-50379285D01*
X147931190Y-50331666D01*
X147883571Y-50284047D01*
X147835952Y-50188809D01*
X147740714Y-51236428D02*
X148407380Y-51236428D01*
X147359761Y-50998333D02*
X148074047Y-50760238D01*
X148074047Y-51379285D01*
X148502619Y-51522142D02*
X148502619Y-52284047D01*
X147407380Y-52712619D02*
X147407380Y-52807857D01*
X147455000Y-52903095D01*
X147502619Y-52950714D01*
X147597857Y-52998333D01*
X147788333Y-53045952D01*
X148026428Y-53045952D01*
X148216904Y-52998333D01*
X148312142Y-52950714D01*
X148359761Y-52903095D01*
X148407380Y-52807857D01*
X148407380Y-52712619D01*
X148359761Y-52617380D01*
X148312142Y-52569761D01*
X148216904Y-52522142D01*
X148026428Y-52474523D01*
X147788333Y-52474523D01*
X147597857Y-52522142D01*
X147502619Y-52569761D01*
X147455000Y-52617380D01*
X147407380Y-52712619D01*
%TO.C,R_VS_1*%
X159837380Y-73096666D02*
X159361190Y-72763333D01*
X159837380Y-72525238D02*
X158837380Y-72525238D01*
X158837380Y-72906190D01*
X158885000Y-73001428D01*
X158932619Y-73049047D01*
X159027857Y-73096666D01*
X159170714Y-73096666D01*
X159265952Y-73049047D01*
X159313571Y-73001428D01*
X159361190Y-72906190D01*
X159361190Y-72525238D01*
X159932619Y-73287142D02*
X159932619Y-74049047D01*
X158837380Y-74144285D02*
X159837380Y-74477619D01*
X158837380Y-74810952D01*
X159789761Y-75096666D02*
X159837380Y-75239523D01*
X159837380Y-75477619D01*
X159789761Y-75572857D01*
X159742142Y-75620476D01*
X159646904Y-75668095D01*
X159551666Y-75668095D01*
X159456428Y-75620476D01*
X159408809Y-75572857D01*
X159361190Y-75477619D01*
X159313571Y-75287142D01*
X159265952Y-75191904D01*
X159218333Y-75144285D01*
X159123095Y-75096666D01*
X159027857Y-75096666D01*
X158932619Y-75144285D01*
X158885000Y-75191904D01*
X158837380Y-75287142D01*
X158837380Y-75525238D01*
X158885000Y-75668095D01*
X159932619Y-75858571D02*
X159932619Y-76620476D01*
X159837380Y-77382380D02*
X159837380Y-76810952D01*
X159837380Y-77096666D02*
X158837380Y-77096666D01*
X158980238Y-77001428D01*
X159075476Y-76906190D01*
X159123095Y-76810952D01*
%TO.C,J_P29_0*%
X181062380Y-46347380D02*
X181776666Y-46347380D01*
X181919523Y-46299761D01*
X182014761Y-46204523D01*
X182062380Y-46061666D01*
X182062380Y-45966428D01*
X182157619Y-46585476D02*
X182157619Y-47347380D01*
X182062380Y-47585476D02*
X181062380Y-47585476D01*
X181062380Y-47966428D01*
X181110000Y-48061666D01*
X181157619Y-48109285D01*
X181252857Y-48156904D01*
X181395714Y-48156904D01*
X181490952Y-48109285D01*
X181538571Y-48061666D01*
X181586190Y-47966428D01*
X181586190Y-47585476D01*
X181157619Y-48537857D02*
X181110000Y-48585476D01*
X181062380Y-48680714D01*
X181062380Y-48918809D01*
X181110000Y-49014047D01*
X181157619Y-49061666D01*
X181252857Y-49109285D01*
X181348095Y-49109285D01*
X181490952Y-49061666D01*
X182062380Y-48490238D01*
X182062380Y-49109285D01*
X182062380Y-49585476D02*
X182062380Y-49775952D01*
X182014761Y-49871190D01*
X181967142Y-49918809D01*
X181824285Y-50014047D01*
X181633809Y-50061666D01*
X181252857Y-50061666D01*
X181157619Y-50014047D01*
X181110000Y-49966428D01*
X181062380Y-49871190D01*
X181062380Y-49680714D01*
X181110000Y-49585476D01*
X181157619Y-49537857D01*
X181252857Y-49490238D01*
X181490952Y-49490238D01*
X181586190Y-49537857D01*
X181633809Y-49585476D01*
X181681428Y-49680714D01*
X181681428Y-49871190D01*
X181633809Y-49966428D01*
X181586190Y-50014047D01*
X181490952Y-50061666D01*
X182157619Y-50252142D02*
X182157619Y-51014047D01*
X181062380Y-51442619D02*
X181062380Y-51537857D01*
X181110000Y-51633095D01*
X181157619Y-51680714D01*
X181252857Y-51728333D01*
X181443333Y-51775952D01*
X181681428Y-51775952D01*
X181871904Y-51728333D01*
X181967142Y-51680714D01*
X182014761Y-51633095D01*
X182062380Y-51537857D01*
X182062380Y-51442619D01*
X182014761Y-51347380D01*
X181967142Y-51299761D01*
X181871904Y-51252142D01*
X181681428Y-51204523D01*
X181443333Y-51204523D01*
X181252857Y-51252142D01*
X181157619Y-51299761D01*
X181110000Y-51347380D01*
X181062380Y-51442619D01*
%TO.C,J_pwr_0*%
X208755952Y-21897380D02*
X208755952Y-22611666D01*
X208803571Y-22754523D01*
X208898809Y-22849761D01*
X209041666Y-22897380D01*
X209136904Y-22897380D01*
X208517857Y-22992619D02*
X207755952Y-22992619D01*
X207517857Y-22230714D02*
X207517857Y-23230714D01*
X207517857Y-22278333D02*
X207422619Y-22230714D01*
X207232142Y-22230714D01*
X207136904Y-22278333D01*
X207089285Y-22325952D01*
X207041666Y-22421190D01*
X207041666Y-22706904D01*
X207089285Y-22802142D01*
X207136904Y-22849761D01*
X207232142Y-22897380D01*
X207422619Y-22897380D01*
X207517857Y-22849761D01*
X206708333Y-22230714D02*
X206517857Y-22897380D01*
X206327380Y-22421190D01*
X206136904Y-22897380D01*
X205946428Y-22230714D01*
X205565476Y-22897380D02*
X205565476Y-22230714D01*
X205565476Y-22421190D02*
X205517857Y-22325952D01*
X205470238Y-22278333D01*
X205375000Y-22230714D01*
X205279761Y-22230714D01*
X205184523Y-22992619D02*
X204422619Y-22992619D01*
X203994047Y-21897380D02*
X203898809Y-21897380D01*
X203803571Y-21945000D01*
X203755952Y-21992619D01*
X203708333Y-22087857D01*
X203660714Y-22278333D01*
X203660714Y-22516428D01*
X203708333Y-22706904D01*
X203755952Y-22802142D01*
X203803571Y-22849761D01*
X203898809Y-22897380D01*
X203994047Y-22897380D01*
X204089285Y-22849761D01*
X204136904Y-22802142D01*
X204184523Y-22706904D01*
X204232142Y-22516428D01*
X204232142Y-22278333D01*
X204184523Y-22087857D01*
X204136904Y-21992619D01*
X204089285Y-21945000D01*
X203994047Y-21897380D01*
%TO.C,J_P107_0*%
X153518809Y-40092380D02*
X153518809Y-40806666D01*
X153566428Y-40949523D01*
X153661666Y-41044761D01*
X153804523Y-41092380D01*
X153899761Y-41092380D01*
X153280714Y-41187619D02*
X152518809Y-41187619D01*
X152280714Y-41092380D02*
X152280714Y-40092380D01*
X151899761Y-40092380D01*
X151804523Y-40140000D01*
X151756904Y-40187619D01*
X151709285Y-40282857D01*
X151709285Y-40425714D01*
X151756904Y-40520952D01*
X151804523Y-40568571D01*
X151899761Y-40616190D01*
X152280714Y-40616190D01*
X150756904Y-41092380D02*
X151328333Y-41092380D01*
X151042619Y-41092380D02*
X151042619Y-40092380D01*
X151137857Y-40235238D01*
X151233095Y-40330476D01*
X151328333Y-40378095D01*
X150137857Y-40092380D02*
X150042619Y-40092380D01*
X149947380Y-40140000D01*
X149899761Y-40187619D01*
X149852142Y-40282857D01*
X149804523Y-40473333D01*
X149804523Y-40711428D01*
X149852142Y-40901904D01*
X149899761Y-40997142D01*
X149947380Y-41044761D01*
X150042619Y-41092380D01*
X150137857Y-41092380D01*
X150233095Y-41044761D01*
X150280714Y-40997142D01*
X150328333Y-40901904D01*
X150375952Y-40711428D01*
X150375952Y-40473333D01*
X150328333Y-40282857D01*
X150280714Y-40187619D01*
X150233095Y-40140000D01*
X150137857Y-40092380D01*
X149471190Y-40092380D02*
X148804523Y-40092380D01*
X149233095Y-41092380D01*
X148661666Y-41187619D02*
X147899761Y-41187619D01*
X147471190Y-40092380D02*
X147375952Y-40092380D01*
X147280714Y-40140000D01*
X147233095Y-40187619D01*
X147185476Y-40282857D01*
X147137857Y-40473333D01*
X147137857Y-40711428D01*
X147185476Y-40901904D01*
X147233095Y-40997142D01*
X147280714Y-41044761D01*
X147375952Y-41092380D01*
X147471190Y-41092380D01*
X147566428Y-41044761D01*
X147614047Y-40997142D01*
X147661666Y-40901904D01*
X147709285Y-40711428D01*
X147709285Y-40473333D01*
X147661666Y-40282857D01*
X147614047Y-40187619D01*
X147566428Y-40140000D01*
X147471190Y-40092380D01*
%TO.C,J_DONE_0*%
X153971238Y-56348380D02*
X153971238Y-57062666D01*
X154018857Y-57205523D01*
X154114095Y-57300761D01*
X154256952Y-57348380D01*
X154352190Y-57348380D01*
X153733142Y-57443619D02*
X152971238Y-57443619D01*
X152733142Y-57348380D02*
X152733142Y-56348380D01*
X152495047Y-56348380D01*
X152352190Y-56396000D01*
X152256952Y-56491238D01*
X152209333Y-56586476D01*
X152161714Y-56776952D01*
X152161714Y-56919809D01*
X152209333Y-57110285D01*
X152256952Y-57205523D01*
X152352190Y-57300761D01*
X152495047Y-57348380D01*
X152733142Y-57348380D01*
X151542666Y-56348380D02*
X151352190Y-56348380D01*
X151256952Y-56396000D01*
X151161714Y-56491238D01*
X151114095Y-56681714D01*
X151114095Y-57015047D01*
X151161714Y-57205523D01*
X151256952Y-57300761D01*
X151352190Y-57348380D01*
X151542666Y-57348380D01*
X151637904Y-57300761D01*
X151733142Y-57205523D01*
X151780761Y-57015047D01*
X151780761Y-56681714D01*
X151733142Y-56491238D01*
X151637904Y-56396000D01*
X151542666Y-56348380D01*
X150685523Y-57348380D02*
X150685523Y-56348380D01*
X150114095Y-57348380D01*
X150114095Y-56348380D01*
X149637904Y-56824571D02*
X149304571Y-56824571D01*
X149161714Y-57348380D02*
X149637904Y-57348380D01*
X149637904Y-56348380D01*
X149161714Y-56348380D01*
X148971238Y-57443619D02*
X148209333Y-57443619D01*
X147780761Y-56348380D02*
X147685523Y-56348380D01*
X147590285Y-56396000D01*
X147542666Y-56443619D01*
X147495047Y-56538857D01*
X147447428Y-56729333D01*
X147447428Y-56967428D01*
X147495047Y-57157904D01*
X147542666Y-57253142D01*
X147590285Y-57300761D01*
X147685523Y-57348380D01*
X147780761Y-57348380D01*
X147876000Y-57300761D01*
X147923619Y-57253142D01*
X147971238Y-57157904D01*
X148018857Y-56967428D01*
X148018857Y-56729333D01*
X147971238Y-56538857D01*
X147923619Y-56443619D01*
X147876000Y-56396000D01*
X147780761Y-56348380D01*
%TO.C,R_clk_out_0*%
X192825238Y-52142380D02*
X193158571Y-51666190D01*
X193396666Y-52142380D02*
X193396666Y-51142380D01*
X193015714Y-51142380D01*
X192920476Y-51190000D01*
X192872857Y-51237619D01*
X192825238Y-51332857D01*
X192825238Y-51475714D01*
X192872857Y-51570952D01*
X192920476Y-51618571D01*
X193015714Y-51666190D01*
X193396666Y-51666190D01*
X192634761Y-52237619D02*
X191872857Y-52237619D01*
X191206190Y-52094761D02*
X191301428Y-52142380D01*
X191491904Y-52142380D01*
X191587142Y-52094761D01*
X191634761Y-52047142D01*
X191682380Y-51951904D01*
X191682380Y-51666190D01*
X191634761Y-51570952D01*
X191587142Y-51523333D01*
X191491904Y-51475714D01*
X191301428Y-51475714D01*
X191206190Y-51523333D01*
X190634761Y-52142380D02*
X190730000Y-52094761D01*
X190777619Y-51999523D01*
X190777619Y-51142380D01*
X190253809Y-52142380D02*
X190253809Y-51142380D01*
X190158571Y-51761428D02*
X189872857Y-52142380D01*
X189872857Y-51475714D02*
X190253809Y-51856666D01*
X189682380Y-52237619D02*
X188920476Y-52237619D01*
X188539523Y-52142380D02*
X188634761Y-52094761D01*
X188682380Y-52047142D01*
X188730000Y-51951904D01*
X188730000Y-51666190D01*
X188682380Y-51570952D01*
X188634761Y-51523333D01*
X188539523Y-51475714D01*
X188396666Y-51475714D01*
X188301428Y-51523333D01*
X188253809Y-51570952D01*
X188206190Y-51666190D01*
X188206190Y-51951904D01*
X188253809Y-52047142D01*
X188301428Y-52094761D01*
X188396666Y-52142380D01*
X188539523Y-52142380D01*
X187349047Y-51475714D02*
X187349047Y-52142380D01*
X187777619Y-51475714D02*
X187777619Y-51999523D01*
X187730000Y-52094761D01*
X187634761Y-52142380D01*
X187491904Y-52142380D01*
X187396666Y-52094761D01*
X187349047Y-52047142D01*
X187015714Y-51475714D02*
X186634761Y-51475714D01*
X186872857Y-51142380D02*
X186872857Y-51999523D01*
X186825238Y-52094761D01*
X186730000Y-52142380D01*
X186634761Y-52142380D01*
X186539523Y-52237619D02*
X185777619Y-52237619D01*
X185349047Y-51142380D02*
X185253809Y-51142380D01*
X185158571Y-51190000D01*
X185110952Y-51237619D01*
X185063333Y-51332857D01*
X185015714Y-51523333D01*
X185015714Y-51761428D01*
X185063333Y-51951904D01*
X185110952Y-52047142D01*
X185158571Y-52094761D01*
X185253809Y-52142380D01*
X185349047Y-52142380D01*
X185444285Y-52094761D01*
X185491904Y-52047142D01*
X185539523Y-51951904D01*
X185587142Y-51761428D01*
X185587142Y-51523333D01*
X185539523Y-51332857D01*
X185491904Y-51237619D01*
X185444285Y-51190000D01*
X185349047Y-51142380D01*
%TO.C,J_PROG_B_0*%
X183070000Y-35012380D02*
X183070000Y-35726666D01*
X183117619Y-35869523D01*
X183212857Y-35964761D01*
X183355714Y-36012380D01*
X183450952Y-36012380D01*
X182831904Y-36107619D02*
X182070000Y-36107619D01*
X181831904Y-36012380D02*
X181831904Y-35012380D01*
X181450952Y-35012380D01*
X181355714Y-35060000D01*
X181308095Y-35107619D01*
X181260476Y-35202857D01*
X181260476Y-35345714D01*
X181308095Y-35440952D01*
X181355714Y-35488571D01*
X181450952Y-35536190D01*
X181831904Y-35536190D01*
X180260476Y-36012380D02*
X180593809Y-35536190D01*
X180831904Y-36012380D02*
X180831904Y-35012380D01*
X180450952Y-35012380D01*
X180355714Y-35060000D01*
X180308095Y-35107619D01*
X180260476Y-35202857D01*
X180260476Y-35345714D01*
X180308095Y-35440952D01*
X180355714Y-35488571D01*
X180450952Y-35536190D01*
X180831904Y-35536190D01*
X179641428Y-35012380D02*
X179450952Y-35012380D01*
X179355714Y-35060000D01*
X179260476Y-35155238D01*
X179212857Y-35345714D01*
X179212857Y-35679047D01*
X179260476Y-35869523D01*
X179355714Y-35964761D01*
X179450952Y-36012380D01*
X179641428Y-36012380D01*
X179736666Y-35964761D01*
X179831904Y-35869523D01*
X179879523Y-35679047D01*
X179879523Y-35345714D01*
X179831904Y-35155238D01*
X179736666Y-35060000D01*
X179641428Y-35012380D01*
X178260476Y-35060000D02*
X178355714Y-35012380D01*
X178498571Y-35012380D01*
X178641428Y-35060000D01*
X178736666Y-35155238D01*
X178784285Y-35250476D01*
X178831904Y-35440952D01*
X178831904Y-35583809D01*
X178784285Y-35774285D01*
X178736666Y-35869523D01*
X178641428Y-35964761D01*
X178498571Y-36012380D01*
X178403333Y-36012380D01*
X178260476Y-35964761D01*
X178212857Y-35917142D01*
X178212857Y-35583809D01*
X178403333Y-35583809D01*
X178022380Y-36107619D02*
X177260476Y-36107619D01*
X176689047Y-35488571D02*
X176546190Y-35536190D01*
X176498571Y-35583809D01*
X176450952Y-35679047D01*
X176450952Y-35821904D01*
X176498571Y-35917142D01*
X176546190Y-35964761D01*
X176641428Y-36012380D01*
X177022380Y-36012380D01*
X177022380Y-35012380D01*
X176689047Y-35012380D01*
X176593809Y-35060000D01*
X176546190Y-35107619D01*
X176498571Y-35202857D01*
X176498571Y-35298095D01*
X176546190Y-35393333D01*
X176593809Y-35440952D01*
X176689047Y-35488571D01*
X177022380Y-35488571D01*
X176260476Y-36107619D02*
X175498571Y-36107619D01*
X175070000Y-35012380D02*
X174974761Y-35012380D01*
X174879523Y-35060000D01*
X174831904Y-35107619D01*
X174784285Y-35202857D01*
X174736666Y-35393333D01*
X174736666Y-35631428D01*
X174784285Y-35821904D01*
X174831904Y-35917142D01*
X174879523Y-35964761D01*
X174974761Y-36012380D01*
X175070000Y-36012380D01*
X175165238Y-35964761D01*
X175212857Y-35917142D01*
X175260476Y-35821904D01*
X175308095Y-35631428D01*
X175308095Y-35393333D01*
X175260476Y-35202857D01*
X175212857Y-35107619D01*
X175165238Y-35060000D01*
X175070000Y-35012380D01*
%TO.C,R_PROG_B_0*%
X180363333Y-22042380D02*
X180696666Y-21566190D01*
X180934761Y-22042380D02*
X180934761Y-21042380D01*
X180553809Y-21042380D01*
X180458571Y-21090000D01*
X180410952Y-21137619D01*
X180363333Y-21232857D01*
X180363333Y-21375714D01*
X180410952Y-21470952D01*
X180458571Y-21518571D01*
X180553809Y-21566190D01*
X180934761Y-21566190D01*
X180172857Y-22137619D02*
X179410952Y-22137619D01*
X179172857Y-22042380D02*
X179172857Y-21042380D01*
X178791904Y-21042380D01*
X178696666Y-21090000D01*
X178649047Y-21137619D01*
X178601428Y-21232857D01*
X178601428Y-21375714D01*
X178649047Y-21470952D01*
X178696666Y-21518571D01*
X178791904Y-21566190D01*
X179172857Y-21566190D01*
X177601428Y-22042380D02*
X177934761Y-21566190D01*
X178172857Y-22042380D02*
X178172857Y-21042380D01*
X177791904Y-21042380D01*
X177696666Y-21090000D01*
X177649047Y-21137619D01*
X177601428Y-21232857D01*
X177601428Y-21375714D01*
X177649047Y-21470952D01*
X177696666Y-21518571D01*
X177791904Y-21566190D01*
X178172857Y-21566190D01*
X176982380Y-21042380D02*
X176791904Y-21042380D01*
X176696666Y-21090000D01*
X176601428Y-21185238D01*
X176553809Y-21375714D01*
X176553809Y-21709047D01*
X176601428Y-21899523D01*
X176696666Y-21994761D01*
X176791904Y-22042380D01*
X176982380Y-22042380D01*
X177077619Y-21994761D01*
X177172857Y-21899523D01*
X177220476Y-21709047D01*
X177220476Y-21375714D01*
X177172857Y-21185238D01*
X177077619Y-21090000D01*
X176982380Y-21042380D01*
X175601428Y-21090000D02*
X175696666Y-21042380D01*
X175839523Y-21042380D01*
X175982380Y-21090000D01*
X176077619Y-21185238D01*
X176125238Y-21280476D01*
X176172857Y-21470952D01*
X176172857Y-21613809D01*
X176125238Y-21804285D01*
X176077619Y-21899523D01*
X175982380Y-21994761D01*
X175839523Y-22042380D01*
X175744285Y-22042380D01*
X175601428Y-21994761D01*
X175553809Y-21947142D01*
X175553809Y-21613809D01*
X175744285Y-21613809D01*
X175363333Y-22137619D02*
X174601428Y-22137619D01*
X174030000Y-21518571D02*
X173887142Y-21566190D01*
X173839523Y-21613809D01*
X173791904Y-21709047D01*
X173791904Y-21851904D01*
X173839523Y-21947142D01*
X173887142Y-21994761D01*
X173982380Y-22042380D01*
X174363333Y-22042380D01*
X174363333Y-21042380D01*
X174030000Y-21042380D01*
X173934761Y-21090000D01*
X173887142Y-21137619D01*
X173839523Y-21232857D01*
X173839523Y-21328095D01*
X173887142Y-21423333D01*
X173934761Y-21470952D01*
X174030000Y-21518571D01*
X174363333Y-21518571D01*
X173601428Y-22137619D02*
X172839523Y-22137619D01*
X172410952Y-21042380D02*
X172315714Y-21042380D01*
X172220476Y-21090000D01*
X172172857Y-21137619D01*
X172125238Y-21232857D01*
X172077619Y-21423333D01*
X172077619Y-21661428D01*
X172125238Y-21851904D01*
X172172857Y-21947142D01*
X172220476Y-21994761D01*
X172315714Y-22042380D01*
X172410952Y-22042380D01*
X172506190Y-21994761D01*
X172553809Y-21947142D01*
X172601428Y-21851904D01*
X172649047Y-21661428D01*
X172649047Y-21423333D01*
X172601428Y-21232857D01*
X172553809Y-21137619D01*
X172506190Y-21090000D01*
X172410952Y-21042380D01*
%TO.C,J_P48_0*%
X168870380Y-64254380D02*
X169584666Y-64254380D01*
X169727523Y-64206761D01*
X169822761Y-64111523D01*
X169870380Y-63968666D01*
X169870380Y-63873428D01*
X169965619Y-64492476D02*
X169965619Y-65254380D01*
X169870380Y-65492476D02*
X168870380Y-65492476D01*
X168870380Y-65873428D01*
X168918000Y-65968666D01*
X168965619Y-66016285D01*
X169060857Y-66063904D01*
X169203714Y-66063904D01*
X169298952Y-66016285D01*
X169346571Y-65968666D01*
X169394190Y-65873428D01*
X169394190Y-65492476D01*
X169203714Y-66921047D02*
X169870380Y-66921047D01*
X168822761Y-66682952D02*
X169537047Y-66444857D01*
X169537047Y-67063904D01*
X169298952Y-67587714D02*
X169251333Y-67492476D01*
X169203714Y-67444857D01*
X169108476Y-67397238D01*
X169060857Y-67397238D01*
X168965619Y-67444857D01*
X168918000Y-67492476D01*
X168870380Y-67587714D01*
X168870380Y-67778190D01*
X168918000Y-67873428D01*
X168965619Y-67921047D01*
X169060857Y-67968666D01*
X169108476Y-67968666D01*
X169203714Y-67921047D01*
X169251333Y-67873428D01*
X169298952Y-67778190D01*
X169298952Y-67587714D01*
X169346571Y-67492476D01*
X169394190Y-67444857D01*
X169489428Y-67397238D01*
X169679904Y-67397238D01*
X169775142Y-67444857D01*
X169822761Y-67492476D01*
X169870380Y-67587714D01*
X169870380Y-67778190D01*
X169822761Y-67873428D01*
X169775142Y-67921047D01*
X169679904Y-67968666D01*
X169489428Y-67968666D01*
X169394190Y-67921047D01*
X169346571Y-67873428D01*
X169298952Y-67778190D01*
X169965619Y-68159142D02*
X169965619Y-68921047D01*
X168870380Y-69349619D02*
X168870380Y-69444857D01*
X168918000Y-69540095D01*
X168965619Y-69587714D01*
X169060857Y-69635333D01*
X169251333Y-69682952D01*
X169489428Y-69682952D01*
X169679904Y-69635333D01*
X169775142Y-69587714D01*
X169822761Y-69540095D01*
X169870380Y-69444857D01*
X169870380Y-69349619D01*
X169822761Y-69254380D01*
X169775142Y-69206761D01*
X169679904Y-69159142D01*
X169489428Y-69111523D01*
X169251333Y-69111523D01*
X169060857Y-69159142D01*
X168965619Y-69206761D01*
X168918000Y-69254380D01*
X168870380Y-69349619D01*
%TO.C,J_P129_0*%
X168997380Y-29361190D02*
X169711666Y-29361190D01*
X169854523Y-29313571D01*
X169949761Y-29218333D01*
X169997380Y-29075476D01*
X169997380Y-28980238D01*
X170092619Y-29599285D02*
X170092619Y-30361190D01*
X169997380Y-30599285D02*
X168997380Y-30599285D01*
X168997380Y-30980238D01*
X169045000Y-31075476D01*
X169092619Y-31123095D01*
X169187857Y-31170714D01*
X169330714Y-31170714D01*
X169425952Y-31123095D01*
X169473571Y-31075476D01*
X169521190Y-30980238D01*
X169521190Y-30599285D01*
X169997380Y-32123095D02*
X169997380Y-31551666D01*
X169997380Y-31837380D02*
X168997380Y-31837380D01*
X169140238Y-31742142D01*
X169235476Y-31646904D01*
X169283095Y-31551666D01*
X169092619Y-32504047D02*
X169045000Y-32551666D01*
X168997380Y-32646904D01*
X168997380Y-32885000D01*
X169045000Y-32980238D01*
X169092619Y-33027857D01*
X169187857Y-33075476D01*
X169283095Y-33075476D01*
X169425952Y-33027857D01*
X169997380Y-32456428D01*
X169997380Y-33075476D01*
X169997380Y-33551666D02*
X169997380Y-33742142D01*
X169949761Y-33837380D01*
X169902142Y-33885000D01*
X169759285Y-33980238D01*
X169568809Y-34027857D01*
X169187857Y-34027857D01*
X169092619Y-33980238D01*
X169045000Y-33932619D01*
X168997380Y-33837380D01*
X168997380Y-33646904D01*
X169045000Y-33551666D01*
X169092619Y-33504047D01*
X169187857Y-33456428D01*
X169425952Y-33456428D01*
X169521190Y-33504047D01*
X169568809Y-33551666D01*
X169616428Y-33646904D01*
X169616428Y-33837380D01*
X169568809Y-33932619D01*
X169521190Y-33980238D01*
X169425952Y-34027857D01*
X170092619Y-34218333D02*
X170092619Y-34980238D01*
X168997380Y-35408809D02*
X168997380Y-35504047D01*
X169045000Y-35599285D01*
X169092619Y-35646904D01*
X169187857Y-35694523D01*
X169378333Y-35742142D01*
X169616428Y-35742142D01*
X169806904Y-35694523D01*
X169902142Y-35646904D01*
X169949761Y-35599285D01*
X169997380Y-35504047D01*
X169997380Y-35408809D01*
X169949761Y-35313571D01*
X169902142Y-35265952D01*
X169806904Y-35218333D01*
X169616428Y-35170714D01*
X169378333Y-35170714D01*
X169187857Y-35218333D01*
X169092619Y-35265952D01*
X169045000Y-35313571D01*
X168997380Y-35408809D01*
%TO.C,J_P36_0*%
X179792380Y-59682380D02*
X180506666Y-59682380D01*
X180649523Y-59634761D01*
X180744761Y-59539523D01*
X180792380Y-59396666D01*
X180792380Y-59301428D01*
X180887619Y-59920476D02*
X180887619Y-60682380D01*
X180792380Y-60920476D02*
X179792380Y-60920476D01*
X179792380Y-61301428D01*
X179840000Y-61396666D01*
X179887619Y-61444285D01*
X179982857Y-61491904D01*
X180125714Y-61491904D01*
X180220952Y-61444285D01*
X180268571Y-61396666D01*
X180316190Y-61301428D01*
X180316190Y-60920476D01*
X179792380Y-61825238D02*
X179792380Y-62444285D01*
X180173333Y-62110952D01*
X180173333Y-62253809D01*
X180220952Y-62349047D01*
X180268571Y-62396666D01*
X180363809Y-62444285D01*
X180601904Y-62444285D01*
X180697142Y-62396666D01*
X180744761Y-62349047D01*
X180792380Y-62253809D01*
X180792380Y-61968095D01*
X180744761Y-61872857D01*
X180697142Y-61825238D01*
X179792380Y-63301428D02*
X179792380Y-63110952D01*
X179840000Y-63015714D01*
X179887619Y-62968095D01*
X180030476Y-62872857D01*
X180220952Y-62825238D01*
X180601904Y-62825238D01*
X180697142Y-62872857D01*
X180744761Y-62920476D01*
X180792380Y-63015714D01*
X180792380Y-63206190D01*
X180744761Y-63301428D01*
X180697142Y-63349047D01*
X180601904Y-63396666D01*
X180363809Y-63396666D01*
X180268571Y-63349047D01*
X180220952Y-63301428D01*
X180173333Y-63206190D01*
X180173333Y-63015714D01*
X180220952Y-62920476D01*
X180268571Y-62872857D01*
X180363809Y-62825238D01*
X180887619Y-63587142D02*
X180887619Y-64349047D01*
X179792380Y-64777619D02*
X179792380Y-64872857D01*
X179840000Y-64968095D01*
X179887619Y-65015714D01*
X179982857Y-65063333D01*
X180173333Y-65110952D01*
X180411428Y-65110952D01*
X180601904Y-65063333D01*
X180697142Y-65015714D01*
X180744761Y-64968095D01*
X180792380Y-64872857D01*
X180792380Y-64777619D01*
X180744761Y-64682380D01*
X180697142Y-64634761D01*
X180601904Y-64587142D01*
X180411428Y-64539523D01*
X180173333Y-64539523D01*
X179982857Y-64587142D01*
X179887619Y-64634761D01*
X179840000Y-64682380D01*
X179792380Y-64777619D01*
%TO.C,R_eeprom_spi_clk_pulldown_0*%
X137309523Y-70302380D02*
X137642857Y-69826190D01*
X137880952Y-70302380D02*
X137880952Y-69302380D01*
X137500000Y-69302380D01*
X137404761Y-69350000D01*
X137357142Y-69397619D01*
X137309523Y-69492857D01*
X137309523Y-69635714D01*
X137357142Y-69730952D01*
X137404761Y-69778571D01*
X137500000Y-69826190D01*
X137880952Y-69826190D01*
X137119047Y-70397619D02*
X136357142Y-70397619D01*
X135738095Y-70254761D02*
X135833333Y-70302380D01*
X136023809Y-70302380D01*
X136119047Y-70254761D01*
X136166666Y-70159523D01*
X136166666Y-69778571D01*
X136119047Y-69683333D01*
X136023809Y-69635714D01*
X135833333Y-69635714D01*
X135738095Y-69683333D01*
X135690476Y-69778571D01*
X135690476Y-69873809D01*
X136166666Y-69969047D01*
X134880952Y-70254761D02*
X134976190Y-70302380D01*
X135166666Y-70302380D01*
X135261904Y-70254761D01*
X135309523Y-70159523D01*
X135309523Y-69778571D01*
X135261904Y-69683333D01*
X135166666Y-69635714D01*
X134976190Y-69635714D01*
X134880952Y-69683333D01*
X134833333Y-69778571D01*
X134833333Y-69873809D01*
X135309523Y-69969047D01*
X134404761Y-69635714D02*
X134404761Y-70635714D01*
X134404761Y-69683333D02*
X134309523Y-69635714D01*
X134119047Y-69635714D01*
X134023809Y-69683333D01*
X133976190Y-69730952D01*
X133928571Y-69826190D01*
X133928571Y-70111904D01*
X133976190Y-70207142D01*
X134023809Y-70254761D01*
X134119047Y-70302380D01*
X134309523Y-70302380D01*
X134404761Y-70254761D01*
X133500000Y-70302380D02*
X133500000Y-69635714D01*
X133500000Y-69826190D02*
X133452380Y-69730952D01*
X133404761Y-69683333D01*
X133309523Y-69635714D01*
X133214285Y-69635714D01*
X132738095Y-70302380D02*
X132833333Y-70254761D01*
X132880952Y-70207142D01*
X132928571Y-70111904D01*
X132928571Y-69826190D01*
X132880952Y-69730952D01*
X132833333Y-69683333D01*
X132738095Y-69635714D01*
X132595238Y-69635714D01*
X132500000Y-69683333D01*
X132452380Y-69730952D01*
X132404761Y-69826190D01*
X132404761Y-70111904D01*
X132452380Y-70207142D01*
X132500000Y-70254761D01*
X132595238Y-70302380D01*
X132738095Y-70302380D01*
X131976190Y-70302380D02*
X131976190Y-69635714D01*
X131976190Y-69730952D02*
X131928571Y-69683333D01*
X131833333Y-69635714D01*
X131690476Y-69635714D01*
X131595238Y-69683333D01*
X131547619Y-69778571D01*
X131547619Y-70302380D01*
X131547619Y-69778571D02*
X131500000Y-69683333D01*
X131404761Y-69635714D01*
X131261904Y-69635714D01*
X131166666Y-69683333D01*
X131119047Y-69778571D01*
X131119047Y-70302380D01*
X130880952Y-70397619D02*
X130119047Y-70397619D01*
X129928571Y-70254761D02*
X129833333Y-70302380D01*
X129642857Y-70302380D01*
X129547619Y-70254761D01*
X129500000Y-70159523D01*
X129500000Y-70111904D01*
X129547619Y-70016666D01*
X129642857Y-69969047D01*
X129785714Y-69969047D01*
X129880952Y-69921428D01*
X129928571Y-69826190D01*
X129928571Y-69778571D01*
X129880952Y-69683333D01*
X129785714Y-69635714D01*
X129642857Y-69635714D01*
X129547619Y-69683333D01*
X129071428Y-69635714D02*
X129071428Y-70635714D01*
X129071428Y-69683333D02*
X128976190Y-69635714D01*
X128785714Y-69635714D01*
X128690476Y-69683333D01*
X128642857Y-69730952D01*
X128595238Y-69826190D01*
X128595238Y-70111904D01*
X128642857Y-70207142D01*
X128690476Y-70254761D01*
X128785714Y-70302380D01*
X128976190Y-70302380D01*
X129071428Y-70254761D01*
X128166666Y-70302380D02*
X128166666Y-69635714D01*
X128166666Y-69302380D02*
X128214285Y-69350000D01*
X128166666Y-69397619D01*
X128119047Y-69350000D01*
X128166666Y-69302380D01*
X128166666Y-69397619D01*
X127928571Y-70397619D02*
X127166666Y-70397619D01*
X126500000Y-70254761D02*
X126595238Y-70302380D01*
X126785714Y-70302380D01*
X126880952Y-70254761D01*
X126928571Y-70207142D01*
X126976190Y-70111904D01*
X126976190Y-69826190D01*
X126928571Y-69730952D01*
X126880952Y-69683333D01*
X126785714Y-69635714D01*
X126595238Y-69635714D01*
X126500000Y-69683333D01*
X125928571Y-70302380D02*
X126023809Y-70254761D01*
X126071428Y-70159523D01*
X126071428Y-69302380D01*
X125547619Y-70302380D02*
X125547619Y-69302380D01*
X125452380Y-69921428D02*
X125166666Y-70302380D01*
X125166666Y-69635714D02*
X125547619Y-70016666D01*
X124976190Y-70397619D02*
X124214285Y-70397619D01*
X123976190Y-69635714D02*
X123976190Y-70635714D01*
X123976190Y-69683333D02*
X123880952Y-69635714D01*
X123690476Y-69635714D01*
X123595238Y-69683333D01*
X123547619Y-69730952D01*
X123500000Y-69826190D01*
X123500000Y-70111904D01*
X123547619Y-70207142D01*
X123595238Y-70254761D01*
X123690476Y-70302380D01*
X123880952Y-70302380D01*
X123976190Y-70254761D01*
X122642857Y-69635714D02*
X122642857Y-70302380D01*
X123071428Y-69635714D02*
X123071428Y-70159523D01*
X123023809Y-70254761D01*
X122928571Y-70302380D01*
X122785714Y-70302380D01*
X122690476Y-70254761D01*
X122642857Y-70207142D01*
X122023809Y-70302380D02*
X122119047Y-70254761D01*
X122166666Y-70159523D01*
X122166666Y-69302380D01*
X121500000Y-70302380D02*
X121595238Y-70254761D01*
X121642857Y-70159523D01*
X121642857Y-69302380D01*
X120690476Y-70302380D02*
X120690476Y-69302380D01*
X120690476Y-70254761D02*
X120785714Y-70302380D01*
X120976190Y-70302380D01*
X121071428Y-70254761D01*
X121119047Y-70207142D01*
X121166666Y-70111904D01*
X121166666Y-69826190D01*
X121119047Y-69730952D01*
X121071428Y-69683333D01*
X120976190Y-69635714D01*
X120785714Y-69635714D01*
X120690476Y-69683333D01*
X120071428Y-70302380D02*
X120166666Y-70254761D01*
X120214285Y-70207142D01*
X120261904Y-70111904D01*
X120261904Y-69826190D01*
X120214285Y-69730952D01*
X120166666Y-69683333D01*
X120071428Y-69635714D01*
X119928571Y-69635714D01*
X119833333Y-69683333D01*
X119785714Y-69730952D01*
X119738095Y-69826190D01*
X119738095Y-70111904D01*
X119785714Y-70207142D01*
X119833333Y-70254761D01*
X119928571Y-70302380D01*
X120071428Y-70302380D01*
X119404761Y-69635714D02*
X119214285Y-70302380D01*
X119023809Y-69826190D01*
X118833333Y-70302380D01*
X118642857Y-69635714D01*
X118261904Y-69635714D02*
X118261904Y-70302380D01*
X118261904Y-69730952D02*
X118214285Y-69683333D01*
X118119047Y-69635714D01*
X117976190Y-69635714D01*
X117880952Y-69683333D01*
X117833333Y-69778571D01*
X117833333Y-70302380D01*
X117595238Y-70397619D02*
X116833333Y-70397619D01*
X116404761Y-69302380D02*
X116309523Y-69302380D01*
X116214285Y-69350000D01*
X116166666Y-69397619D01*
X116119047Y-69492857D01*
X116071428Y-69683333D01*
X116071428Y-69921428D01*
X116119047Y-70111904D01*
X116166666Y-70207142D01*
X116214285Y-70254761D01*
X116309523Y-70302380D01*
X116404761Y-70302380D01*
X116500000Y-70254761D01*
X116547619Y-70207142D01*
X116595238Y-70111904D01*
X116642857Y-69921428D01*
X116642857Y-69683333D01*
X116595238Y-69492857D01*
X116547619Y-69397619D01*
X116500000Y-69350000D01*
X116404761Y-69302380D01*
%TO.C,J_DOUT_BUSY_0*%
X162233333Y-96012380D02*
X162233333Y-96726666D01*
X162280952Y-96869523D01*
X162376190Y-96964761D01*
X162519047Y-97012380D01*
X162614285Y-97012380D01*
X161995238Y-97107619D02*
X161233333Y-97107619D01*
X160995238Y-97012380D02*
X160995238Y-96012380D01*
X160757142Y-96012380D01*
X160614285Y-96060000D01*
X160519047Y-96155238D01*
X160471428Y-96250476D01*
X160423809Y-96440952D01*
X160423809Y-96583809D01*
X160471428Y-96774285D01*
X160519047Y-96869523D01*
X160614285Y-96964761D01*
X160757142Y-97012380D01*
X160995238Y-97012380D01*
X159804761Y-96012380D02*
X159614285Y-96012380D01*
X159519047Y-96060000D01*
X159423809Y-96155238D01*
X159376190Y-96345714D01*
X159376190Y-96679047D01*
X159423809Y-96869523D01*
X159519047Y-96964761D01*
X159614285Y-97012380D01*
X159804761Y-97012380D01*
X159900000Y-96964761D01*
X159995238Y-96869523D01*
X160042857Y-96679047D01*
X160042857Y-96345714D01*
X159995238Y-96155238D01*
X159900000Y-96060000D01*
X159804761Y-96012380D01*
X158947619Y-96012380D02*
X158947619Y-96821904D01*
X158900000Y-96917142D01*
X158852380Y-96964761D01*
X158757142Y-97012380D01*
X158566666Y-97012380D01*
X158471428Y-96964761D01*
X158423809Y-96917142D01*
X158376190Y-96821904D01*
X158376190Y-96012380D01*
X158042857Y-96012380D02*
X157471428Y-96012380D01*
X157757142Y-97012380D02*
X157757142Y-96012380D01*
X157376190Y-97107619D02*
X156614285Y-97107619D01*
X156042857Y-96488571D02*
X155900000Y-96536190D01*
X155852380Y-96583809D01*
X155804761Y-96679047D01*
X155804761Y-96821904D01*
X155852380Y-96917142D01*
X155900000Y-96964761D01*
X155995238Y-97012380D01*
X156376190Y-97012380D01*
X156376190Y-96012380D01*
X156042857Y-96012380D01*
X155947619Y-96060000D01*
X155900000Y-96107619D01*
X155852380Y-96202857D01*
X155852380Y-96298095D01*
X155900000Y-96393333D01*
X155947619Y-96440952D01*
X156042857Y-96488571D01*
X156376190Y-96488571D01*
X155376190Y-96012380D02*
X155376190Y-96821904D01*
X155328571Y-96917142D01*
X155280952Y-96964761D01*
X155185714Y-97012380D01*
X154995238Y-97012380D01*
X154900000Y-96964761D01*
X154852380Y-96917142D01*
X154804761Y-96821904D01*
X154804761Y-96012380D01*
X154376190Y-96964761D02*
X154233333Y-97012380D01*
X153995238Y-97012380D01*
X153900000Y-96964761D01*
X153852380Y-96917142D01*
X153804761Y-96821904D01*
X153804761Y-96726666D01*
X153852380Y-96631428D01*
X153900000Y-96583809D01*
X153995238Y-96536190D01*
X154185714Y-96488571D01*
X154280952Y-96440952D01*
X154328571Y-96393333D01*
X154376190Y-96298095D01*
X154376190Y-96202857D01*
X154328571Y-96107619D01*
X154280952Y-96060000D01*
X154185714Y-96012380D01*
X153947619Y-96012380D01*
X153804761Y-96060000D01*
X153185714Y-96536190D02*
X153185714Y-97012380D01*
X153519047Y-96012380D02*
X153185714Y-96536190D01*
X152852380Y-96012380D01*
X152757142Y-97107619D02*
X151995238Y-97107619D01*
X151566666Y-96012380D02*
X151471428Y-96012380D01*
X151376190Y-96060000D01*
X151328571Y-96107619D01*
X151280952Y-96202857D01*
X151233333Y-96393333D01*
X151233333Y-96631428D01*
X151280952Y-96821904D01*
X151328571Y-96917142D01*
X151376190Y-96964761D01*
X151471428Y-97012380D01*
X151566666Y-97012380D01*
X151661904Y-96964761D01*
X151709523Y-96917142D01*
X151757142Y-96821904D01*
X151804761Y-96631428D01*
X151804761Y-96393333D01*
X151757142Y-96202857D01*
X151709523Y-96107619D01*
X151661904Y-96060000D01*
X151566666Y-96012380D01*
%TO.C,J_TMS_0*%
X143239809Y-39584380D02*
X143239809Y-40298666D01*
X143287428Y-40441523D01*
X143382666Y-40536761D01*
X143525523Y-40584380D01*
X143620761Y-40584380D01*
X143001714Y-40679619D02*
X142239809Y-40679619D01*
X142144571Y-39584380D02*
X141573142Y-39584380D01*
X141858857Y-40584380D02*
X141858857Y-39584380D01*
X141239809Y-40584380D02*
X141239809Y-39584380D01*
X140906476Y-40298666D01*
X140573142Y-39584380D01*
X140573142Y-40584380D01*
X140144571Y-40536761D02*
X140001714Y-40584380D01*
X139763619Y-40584380D01*
X139668380Y-40536761D01*
X139620761Y-40489142D01*
X139573142Y-40393904D01*
X139573142Y-40298666D01*
X139620761Y-40203428D01*
X139668380Y-40155809D01*
X139763619Y-40108190D01*
X139954095Y-40060571D01*
X140049333Y-40012952D01*
X140096952Y-39965333D01*
X140144571Y-39870095D01*
X140144571Y-39774857D01*
X140096952Y-39679619D01*
X140049333Y-39632000D01*
X139954095Y-39584380D01*
X139716000Y-39584380D01*
X139573142Y-39632000D01*
X139382666Y-40679619D02*
X138620761Y-40679619D01*
X138192190Y-39584380D02*
X138096952Y-39584380D01*
X138001714Y-39632000D01*
X137954095Y-39679619D01*
X137906476Y-39774857D01*
X137858857Y-39965333D01*
X137858857Y-40203428D01*
X137906476Y-40393904D01*
X137954095Y-40489142D01*
X138001714Y-40536761D01*
X138096952Y-40584380D01*
X138192190Y-40584380D01*
X138287428Y-40536761D01*
X138335047Y-40489142D01*
X138382666Y-40393904D01*
X138430285Y-40203428D01*
X138430285Y-39965333D01*
X138382666Y-39774857D01*
X138335047Y-39679619D01*
X138287428Y-39632000D01*
X138192190Y-39584380D01*
%TO.C,J_TDI_0*%
X181284285Y-31964380D02*
X181284285Y-32678666D01*
X181331904Y-32821523D01*
X181427142Y-32916761D01*
X181570000Y-32964380D01*
X181665238Y-32964380D01*
X181046190Y-33059619D02*
X180284285Y-33059619D01*
X180189047Y-31964380D02*
X179617619Y-31964380D01*
X179903333Y-32964380D02*
X179903333Y-31964380D01*
X179284285Y-32964380D02*
X179284285Y-31964380D01*
X179046190Y-31964380D01*
X178903333Y-32012000D01*
X178808095Y-32107238D01*
X178760476Y-32202476D01*
X178712857Y-32392952D01*
X178712857Y-32535809D01*
X178760476Y-32726285D01*
X178808095Y-32821523D01*
X178903333Y-32916761D01*
X179046190Y-32964380D01*
X179284285Y-32964380D01*
X178284285Y-32964380D02*
X178284285Y-31964380D01*
X178046190Y-33059619D02*
X177284285Y-33059619D01*
X176855714Y-31964380D02*
X176760476Y-31964380D01*
X176665238Y-32012000D01*
X176617619Y-32059619D01*
X176570000Y-32154857D01*
X176522380Y-32345333D01*
X176522380Y-32583428D01*
X176570000Y-32773904D01*
X176617619Y-32869142D01*
X176665238Y-32916761D01*
X176760476Y-32964380D01*
X176855714Y-32964380D01*
X176950952Y-32916761D01*
X176998571Y-32869142D01*
X177046190Y-32773904D01*
X177093809Y-32583428D01*
X177093809Y-32345333D01*
X177046190Y-32154857D01*
X176998571Y-32059619D01*
X176950952Y-32012000D01*
X176855714Y-31964380D01*
%TO.C,J_P31_0*%
X178522380Y-47617380D02*
X179236666Y-47617380D01*
X179379523Y-47569761D01*
X179474761Y-47474523D01*
X179522380Y-47331666D01*
X179522380Y-47236428D01*
X179617619Y-47855476D02*
X179617619Y-48617380D01*
X179522380Y-48855476D02*
X178522380Y-48855476D01*
X178522380Y-49236428D01*
X178570000Y-49331666D01*
X178617619Y-49379285D01*
X178712857Y-49426904D01*
X178855714Y-49426904D01*
X178950952Y-49379285D01*
X178998571Y-49331666D01*
X179046190Y-49236428D01*
X179046190Y-48855476D01*
X178522380Y-49760238D02*
X178522380Y-50379285D01*
X178903333Y-50045952D01*
X178903333Y-50188809D01*
X178950952Y-50284047D01*
X178998571Y-50331666D01*
X179093809Y-50379285D01*
X179331904Y-50379285D01*
X179427142Y-50331666D01*
X179474761Y-50284047D01*
X179522380Y-50188809D01*
X179522380Y-49903095D01*
X179474761Y-49807857D01*
X179427142Y-49760238D01*
X179522380Y-51331666D02*
X179522380Y-50760238D01*
X179522380Y-51045952D02*
X178522380Y-51045952D01*
X178665238Y-50950714D01*
X178760476Y-50855476D01*
X178808095Y-50760238D01*
X179617619Y-51522142D02*
X179617619Y-52284047D01*
X178522380Y-52712619D02*
X178522380Y-52807857D01*
X178570000Y-52903095D01*
X178617619Y-52950714D01*
X178712857Y-52998333D01*
X178903333Y-53045952D01*
X179141428Y-53045952D01*
X179331904Y-52998333D01*
X179427142Y-52950714D01*
X179474761Y-52903095D01*
X179522380Y-52807857D01*
X179522380Y-52712619D01*
X179474761Y-52617380D01*
X179427142Y-52569761D01*
X179331904Y-52522142D01*
X179141428Y-52474523D01*
X178903333Y-52474523D01*
X178712857Y-52522142D01*
X178617619Y-52569761D01*
X178570000Y-52617380D01*
X178522380Y-52712619D01*
D13*
%TO.C,U_eeprom_0*%
X144715000Y-67330000D02*
X146665000Y-67330000D01*
X144715000Y-67330000D02*
X142765000Y-67330000D01*
X144715000Y-62210000D02*
X148165000Y-62210000D01*
X144715000Y-62210000D02*
X142765000Y-62210000D01*
%TO.C,C_clk_0*%
X206981248Y-55145000D02*
X207503752Y-55145000D01*
X206981248Y-56615000D02*
X207503752Y-56615000D01*
%TO.C,U_pwr_vcc_0*%
X202910000Y-33890000D02*
X208920000Y-33890000D01*
X208920000Y-33890000D02*
X208920000Y-32630000D01*
X208920000Y-27070000D02*
X208920000Y-28330000D01*
X205160000Y-27070000D02*
X208920000Y-27070000D01*
%TO.C,R__eeprom_dq1_0*%
X152562064Y-64035000D02*
X152107936Y-64035000D01*
X152562064Y-65505000D02*
X152107936Y-65505000D01*
%TO.C,U_FPGA_0*%
X156260000Y-38150000D02*
X156260000Y-39100000D01*
X156260000Y-58370000D02*
X156260000Y-57420000D01*
X157210000Y-38150000D02*
X156260000Y-38150000D01*
X175530000Y-38150000D02*
X176480000Y-38150000D01*
X175530000Y-58370000D02*
X176480000Y-58370000D01*
X176480000Y-39100000D02*
X177770000Y-39100000D01*
X157210000Y-58370000D02*
X156260000Y-58370000D01*
X176480000Y-38150000D02*
X176480000Y-39100000D01*
X176480000Y-58370000D02*
X176480000Y-57420000D01*
%TO.C,R_M_0*%
X162460000Y-64542936D02*
X162460000Y-64997064D01*
X163930000Y-64542936D02*
X163930000Y-64997064D01*
%TO.C,C_clk_out_0*%
X194429748Y-54075000D02*
X194952252Y-54075000D01*
X194429748Y-52605000D02*
X194952252Y-52605000D01*
%TO.C,R_JTAG_TMS_0*%
X155167064Y-14705000D02*
X154712936Y-14705000D01*
X155167064Y-13235000D02*
X154712936Y-13235000D01*
%TO.C,J_OUT_USART1_TX_0*%
X179130000Y-73720000D02*
X176470000Y-73720000D01*
X179130000Y-72390000D02*
X179130000Y-71060000D01*
X179130000Y-71060000D02*
X177800000Y-71060000D01*
X176470000Y-73660000D02*
X176470000Y-73720000D01*
X179130000Y-73660000D02*
X179130000Y-73720000D01*
X179130000Y-73660000D02*
X176470000Y-73660000D01*
%TO.C,R_VS_0*%
X156110000Y-67082936D02*
X156110000Y-67537064D01*
X157580000Y-67082936D02*
X157580000Y-67537064D01*
%TO.C,R_JTAG_TDI_0*%
X184377064Y-13235000D02*
X183922936Y-13235000D01*
X184377064Y-14705000D02*
X183922936Y-14705000D01*
%TO.C,U_pwr_aux_0*%
X208920000Y-54210000D02*
X208920000Y-52950000D01*
X205160000Y-47390000D02*
X208920000Y-47390000D01*
X208920000Y-47390000D02*
X208920000Y-48650000D01*
X202910000Y-54210000D02*
X208920000Y-54210000D01*
%TO.C,R_VS_2*%
X159285000Y-64542936D02*
X159285000Y-64997064D01*
X160755000Y-64542936D02*
X160755000Y-64997064D01*
%TO.C,R_JTAG_TDO_0*%
X175487064Y-14705000D02*
X175032936Y-14705000D01*
X175487064Y-13235000D02*
X175032936Y-13235000D01*
%TO.C,C_eeprom_vcc_0*%
X147990000Y-59428748D02*
X147990000Y-59951252D01*
X146520000Y-59428748D02*
X146520000Y-59951252D01*
%TO.C,C_clk_1*%
X207503752Y-59155000D02*
X206981248Y-59155000D01*
X207503752Y-57685000D02*
X206981248Y-57685000D01*
%TO.C,JP_SPI_Direct_PRG_0*%
X179070000Y-26610000D02*
X177740000Y-26610000D01*
X182940000Y-26610000D02*
X182940000Y-29270000D01*
X180340000Y-26610000D02*
X180340000Y-29270000D01*
X177740000Y-26610000D02*
X177740000Y-27940000D01*
X180340000Y-29270000D02*
X182940000Y-29270000D01*
X180340000Y-26610000D02*
X182940000Y-26610000D01*
%TO.C,R_eeprom_w_0*%
X152562064Y-68045000D02*
X152107936Y-68045000D01*
X152562064Y-66575000D02*
X152107936Y-66575000D01*
%TO.C,F_pwr_0*%
X199651252Y-9450000D02*
X199128748Y-9450000D01*
X199651252Y-10870000D02*
X199128748Y-10870000D01*
%TO.C,J_GND_0*%
X214055000Y-25460000D02*
X211395000Y-25460000D01*
X214055000Y-25400000D02*
X214055000Y-25460000D01*
X214055000Y-22800000D02*
X212725000Y-22800000D01*
X211395000Y-25400000D02*
X211395000Y-25460000D01*
X214055000Y-25400000D02*
X211395000Y-25400000D01*
X214055000Y-24130000D02*
X214055000Y-22800000D01*
%TO.C,P_JTAG_FLASH_0*%
X148440000Y-102520000D02*
X148440000Y-109020000D01*
X172800000Y-110330000D02*
X172800000Y-101210000D01*
X157920000Y-102520000D02*
X148440000Y-102520000D01*
X162020000Y-102520000D02*
X162020000Y-102520000D01*
X172800000Y-101210000D02*
X147140000Y-101210000D01*
X162020000Y-102520000D02*
X162020000Y-101210000D01*
X147140000Y-110330000D02*
X172800000Y-110330000D01*
X152850000Y-99820000D02*
X152350000Y-100820000D01*
X147140000Y-101210000D02*
X147140000Y-110330000D01*
X171500000Y-102520000D02*
X162020000Y-102520000D01*
X157920000Y-101210000D02*
X157920000Y-102520000D01*
X152350000Y-100820000D02*
X151850000Y-99820000D01*
X171500000Y-109020000D02*
X171500000Y-102520000D01*
X151850000Y-99820000D02*
X152850000Y-99820000D01*
X148440000Y-109020000D02*
X171500000Y-109020000D01*
%TO.C,R_JTAG_TCK_0*%
X165327064Y-14705000D02*
X164872936Y-14705000D01*
X165327064Y-13235000D02*
X164872936Y-13235000D01*
%TO.C,R_HSWAP_EN_0*%
X174525000Y-28167064D02*
X174525000Y-27712936D01*
X175995000Y-28167064D02*
X175995000Y-27712936D01*
%TO.C,R_eeprom_spi_clk_pullup_0*%
X135482064Y-65305000D02*
X135027936Y-65305000D01*
X135482064Y-66775000D02*
X135027936Y-66775000D01*
%TO.C,J_clk_0*%
X189544000Y-57150000D02*
X189544000Y-55820000D01*
X186884000Y-58420000D02*
X186884000Y-58480000D01*
X189544000Y-58420000D02*
X186884000Y-58420000D01*
X189544000Y-55820000D02*
X188214000Y-55820000D01*
X189544000Y-58480000D02*
X186884000Y-58480000D01*
X189544000Y-58420000D02*
X189544000Y-58480000D01*
%TO.C,R_eeprom_hold_0*%
X141440000Y-59462936D02*
X141440000Y-59917064D01*
X142910000Y-59462936D02*
X142910000Y-59917064D01*
%TO.C,R_clk_oe_0*%
X207237064Y-62765000D02*
X206782936Y-62765000D01*
X207237064Y-64235000D02*
X206782936Y-64235000D01*
%TO.C,X_clk_0*%
X200780000Y-60590000D02*
X199280000Y-60590000D01*
X191880000Y-58790000D02*
X191880000Y-60590000D01*
X196880000Y-56990000D02*
X194280000Y-56990000D01*
X194280000Y-62390000D02*
X196880000Y-62390000D01*
X196880000Y-62390000D02*
X196880000Y-62990000D01*
X199280000Y-60590000D02*
X199280000Y-58790000D01*
%TO.C,P_JTAG_FPGA_0*%
X166860000Y-4370000D02*
X157380000Y-4370000D01*
X156080000Y-3060000D02*
X156080000Y-12180000D01*
X161790000Y-1670000D02*
X161290000Y-2670000D01*
X157380000Y-10870000D02*
X180440000Y-10870000D01*
X180440000Y-4370000D02*
X170960000Y-4370000D01*
X181740000Y-3060000D02*
X156080000Y-3060000D01*
X170960000Y-4370000D02*
X170960000Y-4370000D01*
X157380000Y-4370000D02*
X157380000Y-10870000D01*
X180440000Y-10870000D02*
X180440000Y-4370000D01*
X160790000Y-1670000D02*
X161790000Y-1670000D01*
X166860000Y-3060000D02*
X166860000Y-4370000D01*
X156080000Y-12180000D02*
X181740000Y-12180000D01*
X170960000Y-4370000D02*
X170960000Y-3060000D01*
X161290000Y-2670000D02*
X160790000Y-1670000D01*
X181740000Y-12180000D02*
X181740000Y-3060000D01*
%TO.C,R_eeprom_s_0*%
X152562064Y-61495000D02*
X152107936Y-61495000D01*
X152562064Y-62965000D02*
X152107936Y-62965000D01*
%TO.C,U_pwr_vcc_core_0*%
X205160000Y-37230000D02*
X208920000Y-37230000D01*
X202910000Y-44050000D02*
X208920000Y-44050000D01*
X208920000Y-44050000D02*
X208920000Y-42790000D01*
X208920000Y-37230000D02*
X208920000Y-38490000D01*
%TO.C,R_VS_1*%
X158777000Y-70003936D02*
X158777000Y-70458064D01*
X160247000Y-70003936D02*
X160247000Y-70458064D01*
%TO.C,J_pwr_0*%
X199675000Y-20295000D02*
X199675000Y-17695000D01*
X213075000Y-20295000D02*
X208125000Y-20295000D01*
X199675000Y-20295000D02*
X204625000Y-20295000D01*
X213075000Y-20295000D02*
X213075000Y-17695000D01*
X213075000Y-14295000D02*
X199675000Y-14295000D01*
%TO.C,R_clk_out_0*%
X189457064Y-54075000D02*
X189002936Y-54075000D01*
X189457064Y-52605000D02*
X189002936Y-52605000D01*
%TO.C,R_PROG_B_0*%
X176302936Y-24865000D02*
X176757064Y-24865000D01*
X176302936Y-23395000D02*
X176757064Y-23395000D01*
%TO.C,R_eeprom_spi_clk_pulldown_0*%
X135482064Y-67845000D02*
X135027936Y-67845000D01*
X135482064Y-69315000D02*
X135027936Y-69315000D01*
%TD*%
M02*
