M48
; DRILL file {KiCad 6.0.5-2.fc34} date Mon 15 Aug 2022 03:45:38 AM EEST
; FORMAT={-:-/ absolute / inch / decimal}
; #@! TF.CreationDate,2022-08-15T03:45:38+03:00
; #@! TF.GenerationSoftware,Kicad,Pcbnew,6.0.5-2.fc34
; #@! TF.FileFunction,Plated,1,2,PTH
FMAT,2
INCH
; #@! TA.AperFunction,Plated,PTH,ViaDrill
T1C0.0157
; #@! TA.AperFunction,Plated,PTH,ComponentDrill
T2C0.0197
; #@! TA.AperFunction,Plated,PTH,ComponentDrill
T3C0.0300
; #@! TA.AperFunction,Plated,PTH,ComponentDrill
T4C0.0354
; #@! TA.AperFunction,Plated,PTH,ComponentDrill
T5C0.0394
; #@! TA.AperFunction,Plated,PTH,ComponentDrill
T6C0.0433
; #@! TA.AperFunction,Plated,PTH,ComponentDrill
T7C0.0512
; #@! TA.AperFunction,Plated,PTH,ComponentDrill
T8C0.1059
%
G90
G05
T1
X0.85Y-1.2
X0.85Y-5.15
X0.9Y-3.4
X1.15Y-4.4
X1.15Y-4.7
X1.2Y-5.15
X1.45Y-4.4
X1.45Y-4.7
X1.55Y-5.75
X1.75Y-4.4
X1.75Y-4.7
X2.05Y-4.4
X2.05Y-4.7
X2.35Y-4.7
X2.65Y-4.7
X3.05Y-4.7
X3.15Y-5.7
X3.15Y-5.9
X3.15Y-6.1
X3.35Y-1.2
X3.45Y-4.4
X3.45Y-4.7
X3.45Y-5.7
X3.75Y-4.4
X3.75Y-4.7
X3.75Y-5.7
X3.85Y-1.2
X4.05Y-4.4
X4.05Y-4.7
X4.05Y-5.7
X4.35Y-4.4
X4.35Y-4.7
X4.35Y-5.7
X4.65Y-5.7
X5.05Y-5.7
X5.25Y-2.9
X5.5Y-2.65
X5.55Y-3.0
X5.55Y-4.6
X5.675Y-2.8
X5.6974Y-2.35
X5.6974Y-2.65
X5.7Y-1.5
X5.85Y-1.45
X5.9Y-2.45
X5.92Y-2.13
X5.95Y-0.55
X5.95Y-3.0
X5.95Y-4.6
X5.95Y-5.7
X6.0Y-1.4
X6.015Y-2.345
X6.0974Y-2.55
X6.1Y-2.7
X6.1Y-2.8
X6.165Y-2.345
X6.2Y-1.6
X6.202Y-2.028
X6.25Y-1.6
X6.25Y-1.7
X6.25Y-2.1
X6.25Y-2.95
X6.3Y-2.2
X6.3Y-2.65
X6.35Y-0.55
X6.35Y-2.1
X6.35Y-4.6
X6.365Y-2.685
X6.4417Y-1.5832
X6.45Y-1.9
X6.45Y-2.7
X6.45Y-3.0
X6.5008Y-2.2508
X6.55Y-2.25
X6.55Y-5.7
X6.6Y-2.65
X6.65Y-1.9
X6.65Y-2.1
X6.7Y-1.55
X6.75Y-0.55
X6.75Y-1.6
X6.75Y-2.1
X6.75Y-2.2
X6.75Y-4.6
X6.8Y-2.45
X6.85Y-1.7
X6.85Y-3.0
X6.8677Y-1.7917
X6.8677Y-2.1
X6.9Y-2.15
X6.95Y-1.3
X7.0Y-2.35
X7.0Y-2.42
X7.05Y-2.7
X7.1Y-0.55
X7.1Y-1.25
X7.1Y-2.35
X7.1Y-2.5
X7.15Y-4.6
X7.15Y-5.7
X7.25Y-2.05
X7.25Y-2.85
X7.25Y-3.0
X7.3Y-1.7
X7.35Y-2.0
X7.35Y-2.1
X7.35Y-2.35
X7.4093Y-1.2407
X7.55Y-0.5
X7.55Y-2.0
X7.55Y-4.6
X7.65Y-1.2
X7.65Y-2.85
X7.65Y-3.0
X7.75Y-5.7
X7.8Y-1.6
X7.85Y-1.3
X7.85Y-1.7
X7.85Y-2.1
X7.9375Y-2.0125
X7.95Y-4.6
X8.0Y-0.95
X8.05Y-2.85
X8.05Y-3.0
X8.1406Y-1.1094
X8.15Y-1.3
X8.15Y-1.5
X8.15Y-1.7
X8.25Y-1.75
X8.25Y-4.5
X8.35Y-2.35
X8.45Y-2.9
T3
X0.25Y-3.1
X0.25Y-3.2
X0.25Y-3.3
X0.45Y-3.1
X0.45Y-3.2
X0.45Y-3.3
X2.0Y-5.3547
X2.0Y-5.4531
X2.0Y-5.5516
X2.0Y-5.65
X2.0Y-5.7484
X2.0Y-5.8469
X2.0Y-5.9453
X2.15Y-3.5
X2.15Y-3.6
X2.15Y-3.7
X2.35Y-3.5
X2.35Y-3.6
X2.35Y-3.7
X2.75Y-1.1
X2.75Y-1.2
X2.75Y-1.3
X2.75Y-3.1
X2.75Y-3.2
X2.75Y-3.3
X2.95Y-1.1
X2.95Y-1.2
X2.95Y-1.3
X2.95Y-3.1
X2.95Y-3.2
X2.95Y-3.3
X3.25Y-1.8
X3.25Y-1.9
X3.25Y-2.0
X3.25Y-2.2
X3.25Y-2.3
X3.25Y-2.4
X3.25Y-2.6
X3.25Y-2.7
X3.25Y-2.8
X3.25Y-3.0
X3.25Y-3.1
X3.25Y-3.2
X3.25Y-3.4
X3.25Y-3.5
X3.25Y-3.6
X3.45Y-1.8
X3.45Y-1.9
X3.45Y-2.0
X3.45Y-2.2
X3.45Y-2.3
X3.45Y-2.4
X3.45Y-2.6
X3.45Y-2.7
X3.45Y-2.8
X3.45Y-3.0
X3.45Y-3.1
X3.45Y-3.2
X3.45Y-3.4
X3.45Y-3.5
X3.45Y-3.6
X4.25Y-1.8
X4.25Y-1.9
X4.25Y-2.0
X4.25Y-2.2
X4.25Y-2.3
X4.25Y-2.4
X4.25Y-2.6
X4.25Y-2.7
X4.25Y-2.8
X4.25Y-3.0
X4.25Y-3.1
X4.25Y-3.2
X4.25Y-3.4
X4.25Y-3.5
X4.25Y-3.6
X4.45Y-1.8
X4.45Y-1.9
X4.45Y-2.0
X4.45Y-2.2
X4.45Y-2.3
X4.45Y-2.4
X4.45Y-2.6
X4.45Y-2.7
X4.45Y-2.8
X4.45Y-3.0
X4.45Y-3.1
X4.45Y-3.2
X4.45Y-3.4
X4.45Y-3.5
X4.45Y-3.6
X4.75Y-1.1
X4.75Y-1.2
X4.75Y-1.3
X4.95Y-1.1
X4.95Y-1.2
X4.95Y-1.3
T4
X7.9872Y-0.6061
X8.0856Y-0.6061
X8.1644Y-0.6061
X8.2628Y-0.6061
T5
X6.35Y-0.25
X6.35Y-0.35
X6.45Y-0.25
X6.45Y-0.35
X6.55Y-0.25
X6.55Y-0.35
X6.65Y-0.25
X6.65Y-0.35
X6.75Y-0.25
X6.75Y-0.35
X6.85Y-0.25
X6.85Y-0.35
X6.95Y-0.25
X6.95Y-0.35
X7.0Y-2.85
X7.41Y-2.25
X8.375Y-0.95
T6
X0.2349Y-3.772
X0.2349Y-4.028
X0.4121Y-3.772
X0.4121Y-4.028
T8
X5.998Y-0.2902
X7.302Y-0.2902
T2
G00X1.3281Y-2.0138
M15
G01X1.3353Y-1.9872
M16
G05
G00X1.3353Y-2.238
M15
G01X1.3281Y-2.2114
M16
G05
G00X1.434Y-1.8161
M15
G01X1.4535Y-1.7966
M16
G05
G00X1.4535Y-2.4286
M15
G01X1.434Y-2.4091
M16
G05
G00X1.6246Y-1.6979
M15
G01X1.6512Y-1.6907
M16
G05
G00X1.6512Y-2.5345
M15
G01X1.6246Y-2.5273
M16
G05
G00X1.6483Y-1.9914
M15
G01X1.6288Y-2.0109
M16
G05
G00X1.8488Y-1.6907
M15
G01X1.8754Y-1.6979
M16
G05
G00X1.8754Y-2.5273
M15
G01X1.8488Y-2.5345
M16
G05
G00X2.0465Y-1.7966
M15
G01X2.066Y-1.8161
M16
G05
G00X2.066Y-2.4091
M15
G01X2.0465Y-2.4286
M16
G05
G00X2.1647Y-1.9872
M15
G01X2.1719Y-2.0138
M16
G05
G00X2.1719Y-2.2114
M15
G01X2.1647Y-2.238
M16
G05
T3
G00X0.8Y-5.6961
M15
G01X0.8Y-5.8039
M16
G05
G00X1.0Y-5.6961
M15
G01X1.0Y-5.8039
M16
G05
G00X5.3296Y-3.1882
M15
G01X5.3468Y-3.1882
M16
G05
G00X5.3296Y-3.2882
M15
G01X5.3468Y-3.2882
M16
G05
G00X5.3296Y-3.3882
M15
G01X5.3468Y-3.3882
M16
G05
G00X5.7296Y-3.1882
M15
G01X5.7468Y-3.1882
M16
G05
G00X5.7296Y-3.2882
M15
G01X5.7468Y-3.2882
M16
G05
G00X5.7296Y-3.3882
M15
G01X5.7468Y-3.3882
M16
G05
G00X6.1296Y-3.1882
M15
G01X6.1468Y-3.1882
M16
G05
G00X6.1296Y-3.2882
M15
G01X6.1468Y-3.2882
M16
G05
G00X6.1296Y-3.3882
M15
G01X6.1468Y-3.3882
M16
G05
G00X6.5296Y-3.1882
M15
G01X6.5468Y-3.1882
M16
G05
G00X6.5296Y-3.2882
M15
G01X6.5468Y-3.2882
M16
G05
G00X6.5296Y-3.3882
M15
G01X6.5468Y-3.3882
M16
G05
G00X6.9296Y-3.1882
M15
G01X6.9468Y-3.1882
M16
G05
G00X6.9296Y-3.2882
M15
G01X6.9468Y-3.2882
M16
G05
G00X6.9296Y-3.3882
M15
G01X6.9468Y-3.3882
M16
G05
G00X7.3296Y-3.1882
M15
G01X7.3468Y-3.1882
M16
G05
G00X7.3296Y-3.2882
M15
G01X7.3468Y-3.2882
M16
G05
G00X7.3296Y-3.3882
M15
G01X7.3468Y-3.3882
M16
G05
G00X7.7296Y-3.1882
M15
G01X7.7468Y-3.1882
M16
G05
G00X7.7296Y-3.2882
M15
G01X7.7468Y-3.2882
M16
G05
G00X7.7296Y-3.3882
M15
G01X7.7468Y-3.3882
M16
G05
G00X8.1296Y-3.1882
M15
G01X8.1468Y-3.1882
M16
G05
G00X8.1296Y-3.2882
M15
G01X8.1468Y-3.2882
M16
G05
G00X8.1296Y-3.3882
M15
G01X8.1468Y-3.3882
M16
G05
T7
G00X7.8663Y-0.6494
M15
G01X7.8663Y-0.61
M16
G05
G00X8.1447Y-0.7943
M15
G01X8.1053Y-0.7943
M16
G05
G00X8.3837Y-0.61
M15
G01X8.3837Y-0.6494
M16
G05
T0
M30
