%TF.GenerationSoftware,KiCad,Pcbnew,6.0.5-2.fc34*%
%TF.CreationDate,2022-08-15T03:45:26+03:00*%
%TF.ProjectId,spartan3,73706172-7461-46e3-932e-6b696361645f,rev?*%
%TF.SameCoordinates,Original*%
%TF.FileFunction,Copper,L2,Bot*%
%TF.FilePolarity,Positive*%
%FSLAX46Y46*%
G04 Gerber Fmt 4.6, Leading zero omitted, Abs format (unit mm)*
G04 Created by KiCad (PCBNEW 6.0.5-2.fc34) date 2022-08-15 03:45:26*
%MOMM*%
%LPD*%
G01*
G04 APERTURE LIST*
G04 Aperture macros list*
%AMRoundRect*
0 Rectangle with rounded corners*
0 $1 Rounding radius*
0 $2 $3 $4 $5 $6 $7 $8 $9 X,Y pos of 4 corners*
0 Add a 4 corners polygon primitive as box body*
4,1,4,$2,$3,$4,$5,$6,$7,$8,$9,$2,$3,0*
0 Add four circle primitives for the rounded corners*
1,1,$1+$1,$2,$3*
1,1,$1+$1,$4,$5*
1,1,$1+$1,$6,$7*
1,1,$1+$1,$8,$9*
0 Add four rect primitives between the rounded corners*
20,1,$1+$1,$2,$3,$4,$5,0*
20,1,$1+$1,$4,$5,$6,$7,0*
20,1,$1+$1,$6,$7,$8,$9,0*
20,1,$1+$1,$8,$9,$2,$3,0*%
%AMRotRect*
0 Rectangle, with rotation*
0 The origin of the aperture is its center*
0 $1 length*
0 $2 width*
0 $3 Rotation angle, in degrees counterclockwise*
0 Add horizontal line*
21,1,$1,$2,0,0,$3*%
G04 Aperture macros list end*
%TA.AperFunction,ComponentPad*%
%ADD10RotRect,1.524000X1.524000X75.000000*%
%TD*%
%TA.AperFunction,ComponentPad*%
%ADD11RotRect,1.524000X1.524000X45.000000*%
%TD*%
%TA.AperFunction,ComponentPad*%
%ADD12RotRect,1.524000X1.524000X15.000000*%
%TD*%
%TA.AperFunction,ComponentPad*%
%ADD13RotRect,1.524000X1.524000X345.000000*%
%TD*%
%TA.AperFunction,ComponentPad*%
%ADD14RotRect,1.524000X1.524000X315.000000*%
%TD*%
%TA.AperFunction,ComponentPad*%
%ADD15RotRect,1.524000X1.524000X285.000000*%
%TD*%
%TA.AperFunction,ComponentPad*%
%ADD16RotRect,1.524000X1.524000X255.000000*%
%TD*%
%TA.AperFunction,ComponentPad*%
%ADD17RotRect,1.524000X1.524000X225.000000*%
%TD*%
%TA.AperFunction,ComponentPad*%
%ADD18RotRect,1.524000X1.524000X195.000000*%
%TD*%
%TA.AperFunction,ComponentPad*%
%ADD19RotRect,1.524000X1.524000X165.000000*%
%TD*%
%TA.AperFunction,ComponentPad*%
%ADD20RotRect,1.524000X1.524000X135.000000*%
%TD*%
%TA.AperFunction,ComponentPad*%
%ADD21RotRect,1.524000X1.524000X105.000000*%
%TD*%
%TA.AperFunction,ComponentPad*%
%ADD22C,1.524000*%
%TD*%
%TA.AperFunction,ComponentPad*%
%ADD23R,1.524000X1.524000*%
%TD*%
%TA.AperFunction,ComponentPad*%
%ADD24C,2.000000*%
%TD*%
%TA.AperFunction,ComponentPad*%
%ADD25R,1.500000X4.000000*%
%TD*%
%TA.AperFunction,ComponentPad*%
%ADD26R,1.524000X4.000000*%
%TD*%
%TA.AperFunction,SMDPad,CuDef*%
%ADD27RoundRect,0.150000X0.825000X0.150000X-0.825000X0.150000X-0.825000X-0.150000X0.825000X-0.150000X0*%
%TD*%
%TA.AperFunction,SMDPad,CuDef*%
%ADD28R,2.290000X3.000000*%
%TD*%
%TA.AperFunction,SMDPad,CuDef*%
%ADD29RoundRect,0.250000X-0.337500X-0.475000X0.337500X-0.475000X0.337500X0.475000X-0.337500X0.475000X0*%
%TD*%
%TA.AperFunction,SMDPad,CuDef*%
%ADD30R,2.000000X1.500000*%
%TD*%
%TA.AperFunction,SMDPad,CuDef*%
%ADD31R,2.000000X3.800000*%
%TD*%
%TA.AperFunction,SMDPad,CuDef*%
%ADD32RoundRect,0.250000X0.250000X0.750000X-0.250000X0.750000X-0.250000X-0.750000X0.250000X-0.750000X0*%
%TD*%
%TA.AperFunction,SMDPad,CuDef*%
%ADD33RoundRect,0.250000X0.350000X0.450000X-0.350000X0.450000X-0.350000X-0.450000X0.350000X-0.450000X0*%
%TD*%
%TA.AperFunction,SMDPad,CuDef*%
%ADD34RoundRect,0.075000X0.662500X0.075000X-0.662500X0.075000X-0.662500X-0.075000X0.662500X-0.075000X0*%
%TD*%
%TA.AperFunction,SMDPad,CuDef*%
%ADD35RoundRect,0.075000X0.075000X0.662500X-0.075000X0.662500X-0.075000X-0.662500X0.075000X-0.662500X0*%
%TD*%
%TA.AperFunction,SMDPad,CuDef*%
%ADD36RoundRect,0.250000X-0.450000X0.350000X-0.450000X-0.350000X0.450000X-0.350000X0.450000X0.350000X0*%
%TD*%
%TA.AperFunction,SMDPad,CuDef*%
%ADD37RoundRect,0.250000X-0.750000X0.250000X-0.750000X-0.250000X0.750000X-0.250000X0.750000X0.250000X0*%
%TD*%
%TA.AperFunction,ComponentPad*%
%ADD38R,1.700000X1.700000*%
%TD*%
%TA.AperFunction,SMDPad,CuDef*%
%ADD39RoundRect,0.250000X0.750000X-0.250000X0.750000X0.250000X-0.750000X0.250000X-0.750000X-0.250000X0*%
%TD*%
%TA.AperFunction,SMDPad,CuDef*%
%ADD40RoundRect,0.250000X-0.475000X0.337500X-0.475000X-0.337500X0.475000X-0.337500X0.475000X0.337500X0*%
%TD*%
%TA.AperFunction,SMDPad,CuDef*%
%ADD41RoundRect,0.250000X0.337500X0.475000X-0.337500X0.475000X-0.337500X-0.475000X0.337500X-0.475000X0*%
%TD*%
%TA.AperFunction,SMDPad,CuDef*%
%ADD42RoundRect,0.250000X0.325000X0.450000X-0.325000X0.450000X-0.325000X-0.450000X0.325000X-0.450000X0*%
%TD*%
%TA.AperFunction,SMDPad,CuDef*%
%ADD43RoundRect,0.250000X0.450000X-0.350000X0.450000X0.350000X-0.450000X0.350000X-0.450000X-0.350000X0*%
%TD*%
%TA.AperFunction,SMDPad,CuDef*%
%ADD44R,3.500000X2.000000*%
%TD*%
%TA.AperFunction,ComponentPad*%
%ADD45RoundRect,0.250000X-0.600000X0.600000X-0.600000X-0.600000X0.600000X-0.600000X0.600000X0.600000X0*%
%TD*%
%TA.AperFunction,ComponentPad*%
%ADD46C,1.700000*%
%TD*%
%TA.AperFunction,ComponentPad*%
%ADD47C,8.000000*%
%TD*%
%TA.AperFunction,SMDPad,CuDef*%
%ADD48RoundRect,0.250000X-0.250000X-0.750000X0.250000X-0.750000X0.250000X0.750000X-0.250000X0.750000X0*%
%TD*%
%TA.AperFunction,ComponentPad*%
%ADD49R,1.300000X1.300000*%
%TD*%
%TA.AperFunction,ComponentPad*%
%ADD50C,1.300000*%
%TD*%
%TA.AperFunction,ComponentPad*%
%ADD51O,2.900000X1.900000*%
%TD*%
%TA.AperFunction,ComponentPad*%
%ADD52O,1.900000X2.900000*%
%TD*%
%TA.AperFunction,ViaPad*%
%ADD53C,0.800000*%
%TD*%
%TA.AperFunction,Conductor*%
%ADD54C,0.250000*%
%TD*%
G04 APERTURE END LIST*
D10*
%TO.P,SW_read_register_0,1,1*%
%TO.N,P7*%
X33824816Y-50812991D03*
D11*
%TO.P,SW_read_register_0,2,2*%
%TO.N,unconnected-(SW_read_register_0-Pad2)*%
X36671826Y-45881826D03*
D12*
%TO.P,SW_read_register_0,3,3*%
%TO.N,unconnected-(SW_read_register_0-Pad3)*%
X41602990Y-43034816D03*
D13*
%TO.P,SW_read_register_0,4,4*%
%TO.N,Net-(D_in_none_r_0-Pad1)*%
X47297009Y-43034816D03*
D14*
%TO.P,SW_read_register_0,5,5*%
%TO.N,P18*%
X52228174Y-45881826D03*
D15*
%TO.P,SW_read_register_0,6,6*%
%TO.N,P17*%
X55075184Y-50812990D03*
D16*
%TO.P,SW_read_register_0,7,7*%
%TO.N,P16*%
X55075184Y-56507009D03*
D17*
%TO.P,SW_read_register_0,8,8*%
%TO.N,P15*%
X52228174Y-61438174D03*
D18*
%TO.P,SW_read_register_0,9,9*%
%TO.N,P14*%
X47297010Y-64285184D03*
D19*
%TO.P,SW_read_register_0,10,10*%
%TO.N,P12*%
X41602991Y-64285184D03*
D20*
%TO.P,SW_read_register_0,11,11*%
%TO.N,P10*%
X36671826Y-61438174D03*
D21*
%TO.P,SW_read_register_0,12,12*%
%TO.N,P8*%
X33824816Y-56507010D03*
D17*
%TO.P,SW_read_register_0,13,13*%
%TO.N,GND*%
X41620000Y-50830000D03*
%TD*%
D22*
%TO.P,SW_in_manual_input_o_1,1,A*%
%TO.N,GND*%
X196550000Y-86060000D03*
%TO.P,SW_in_manual_input_o_1,2,B*%
%TO.N,P41*%
X196550000Y-83520000D03*
%TO.P,SW_in_manual_input_o_1,3,C*%
%TO.N,unconnected-(SW_in_manual_input_o_1-Pad3)*%
X196550000Y-80980000D03*
%TD*%
%TO.P,SW_in_manual_input_o_2,1,A*%
%TO.N,GND*%
X186390000Y-86060000D03*
%TO.P,SW_in_manual_input_o_2,2,B*%
%TO.N,P47*%
X186390000Y-83520000D03*
%TO.P,SW_in_manual_input_o_2,3,C*%
%TO.N,unconnected-(SW_in_manual_input_o_2-Pad3)*%
X186390000Y-80980000D03*
%TD*%
D23*
%TO.P,SW_in_bus1_0,1,A*%
%TO.N,GND*%
X54610000Y-93980000D03*
D22*
%TO.P,SW_in_bus1_0,2,B*%
%TO.N,P4*%
X54610000Y-91440000D03*
%TO.P,SW_in_bus1_0,3,C*%
%TO.N,VCC*%
X54610000Y-88900000D03*
%TO.P,SW_in_bus1_0,4*%
%TO.N,N/C*%
X59690000Y-93980000D03*
%TO.P,SW_in_bus1_0,5*%
X59690000Y-91440000D03*
%TO.P,SW_in_bus1_0,6*%
X59690000Y-88900000D03*
%TD*%
D23*
%TO.P,SW_in_is_bus1_w_0,1,A*%
%TO.N,GND*%
X69850000Y-83820000D03*
D22*
%TO.P,SW_in_is_bus1_w_0,2,B*%
%TO.N,P6*%
X69850000Y-81280000D03*
%TO.P,SW_in_is_bus1_w_0,3,C*%
%TO.N,unconnected-(SW_in_is_bus1_w_0-Pad3)*%
X69850000Y-78740000D03*
%TO.P,SW_in_is_bus1_w_0,4*%
%TO.N,N/C*%
X74930000Y-83820000D03*
%TO.P,SW_in_is_bus1_w_0,5*%
X74930000Y-81280000D03*
%TO.P,SW_in_is_bus1_w_0,6*%
X74930000Y-78740000D03*
%TD*%
%TO.P,SW_in_manual_input_o_0,1,A*%
%TO.N,GND*%
X206710000Y-86060000D03*
%TO.P,SW_in_manual_input_o_0,2,B*%
%TO.N,P38*%
X206710000Y-83520000D03*
%TO.P,SW_in_manual_input_o_0,3,C*%
%TO.N,unconnected-(SW_in_manual_input_o_0-Pad3)*%
X206710000Y-80980000D03*
%TD*%
D23*
%TO.P,SW_pwr_0,1,A*%
%TO.N,Net-(F_pwr_0-Pad2)*%
X6350000Y-83820000D03*
D22*
%TO.P,SW_pwr_0,2,B*%
%TO.N,Net-(SW_pwr_0-Pad2)*%
X6350000Y-81280000D03*
%TO.P,SW_pwr_0,3,C*%
%TO.N,unconnected-(SW_pwr_0-Pad3)*%
X6350000Y-78740000D03*
%TO.P,SW_pwr_0,4*%
%TO.N,N/C*%
X11430000Y-83820000D03*
%TO.P,SW_pwr_0,5*%
X11430000Y-81280000D03*
%TO.P,SW_pwr_0,6*%
X11430000Y-78740000D03*
%TD*%
D23*
%TO.P,SW_in_r2_w_0,1*%
%TO.N,N/C*%
X107950000Y-81280000D03*
D22*
%TO.P,SW_in_r2_w_0,2*%
X107950000Y-78740000D03*
%TO.P,SW_in_r2_w_0,3*%
X107950000Y-76200000D03*
%TO.P,SW_in_r2_w_0,4,A*%
%TO.N,GND*%
X113030000Y-81280000D03*
%TO.P,SW_in_r2_w_0,5,B*%
%TO.N,P119*%
X113030000Y-78740000D03*
%TO.P,SW_in_r2_w_0,6,C*%
%TO.N,unconnected-(SW_in_r2_w_0-Pad6)*%
X113030000Y-76200000D03*
%TD*%
D23*
%TO.P,SW_in_r3_w_0,1*%
%TO.N,N/C*%
X107950000Y-91440000D03*
D22*
%TO.P,SW_in_r3_w_0,2*%
X107950000Y-88900000D03*
%TO.P,SW_in_r3_w_0,3*%
X107950000Y-86360000D03*
%TO.P,SW_in_r3_w_0,4,A*%
%TO.N,GND*%
X113030000Y-91440000D03*
%TO.P,SW_in_r3_w_0,5,B*%
%TO.N,P117*%
X113030000Y-88900000D03*
%TO.P,SW_in_r3_w_0,6,C*%
%TO.N,unconnected-(SW_in_r3_w_0-Pad6)*%
X113030000Y-86360000D03*
%TD*%
%TO.P,SW_in_manual_input_o_7,1,A*%
%TO.N,GND*%
X135590000Y-86060000D03*
%TO.P,SW_in_manual_input_o_7,2,B*%
%TO.N,P69*%
X135590000Y-83520000D03*
%TO.P,SW_in_manual_input_o_7,3,C*%
%TO.N,unconnected-(SW_in_manual_input_o_7-Pad3)*%
X135590000Y-80980000D03*
%TD*%
D23*
%TO.P,SW_in_acc_w_0,1*%
%TO.N,N/C*%
X82550000Y-71120000D03*
D22*
%TO.P,SW_in_acc_w_0,2*%
X82550000Y-68580000D03*
%TO.P,SW_in_acc_w_0,3*%
X82550000Y-66040000D03*
%TO.P,SW_in_acc_w_0,4,A*%
%TO.N,GND*%
X87630000Y-71120000D03*
%TO.P,SW_in_acc_w_0,5,B*%
%TO.N,P140*%
X87630000Y-68580000D03*
%TO.P,SW_in_acc_w_0,6,C*%
%TO.N,unconnected-(SW_in_acc_w_0-Pad6)*%
X87630000Y-66040000D03*
%TD*%
%TO.P,SW_in_manual_input_o_6,1,A*%
%TO.N,GND*%
X145750000Y-86060000D03*
%TO.P,SW_in_manual_input_o_6,2,B*%
%TO.N,P66*%
X145750000Y-83520000D03*
%TO.P,SW_in_manual_input_o_6,3,C*%
%TO.N,unconnected-(SW_in_manual_input_o_6-Pad3)*%
X145750000Y-80980000D03*
%TD*%
%TO.P,SW_in_manual_input_o_4,1,A*%
%TO.N,GND*%
X166070000Y-86060000D03*
%TO.P,SW_in_manual_input_o_4,2,B*%
%TO.N,P58*%
X166070000Y-83520000D03*
%TO.P,SW_in_manual_input_o_4,3,C*%
%TO.N,unconnected-(SW_in_manual_input_o_4-Pad3)*%
X166070000Y-80980000D03*
%TD*%
D23*
%TO.P,SW_in_ir_w_0,1*%
%TO.N,N/C*%
X82550000Y-60960000D03*
D22*
%TO.P,SW_in_ir_w_0,2*%
X82550000Y-58420000D03*
%TO.P,SW_in_ir_w_0,3*%
X82550000Y-55880000D03*
%TO.P,SW_in_ir_w_0,4,A*%
%TO.N,GND*%
X87630000Y-60960000D03*
%TO.P,SW_in_ir_w_0,5,B*%
%TO.N,P141*%
X87630000Y-58420000D03*
%TO.P,SW_in_ir_w_0,6,C*%
%TO.N,unconnected-(SW_in_ir_w_0-Pad6)*%
X87630000Y-55880000D03*
%TD*%
D23*
%TO.P,SW_in_ram_a_w_0,1*%
%TO.N,N/C*%
X82550000Y-81280000D03*
D22*
%TO.P,SW_in_ram_a_w_0,2*%
X82550000Y-78740000D03*
%TO.P,SW_in_ram_a_w_0,3*%
X82550000Y-76200000D03*
%TO.P,SW_in_ram_a_w_0,4,A*%
%TO.N,GND*%
X87630000Y-81280000D03*
%TO.P,SW_in_ram_a_w_0,5,B*%
%TO.N,P139*%
X87630000Y-78740000D03*
%TO.P,SW_in_ram_a_w_0,6,C*%
%TO.N,unconnected-(SW_in_ram_a_w_0-Pad6)*%
X87630000Y-76200000D03*
%TD*%
D23*
%TO.P,SW_in_write_reg_en_0,1,A*%
%TO.N,GND*%
X120650000Y-33020000D03*
D22*
%TO.P,SW_in_write_reg_en_0,2,B*%
%TO.N,P2*%
X120650000Y-30480000D03*
%TO.P,SW_in_write_reg_en_0,3,C*%
%TO.N,unconnected-(SW_in_write_reg_en_0-Pad3)*%
X120650000Y-27940000D03*
%TO.P,SW_in_write_reg_en_0,4*%
%TO.N,N/C*%
X125730000Y-33020000D03*
%TO.P,SW_in_write_reg_en_0,5*%
X125730000Y-30480000D03*
%TO.P,SW_in_write_reg_en_0,6*%
X125730000Y-27940000D03*
%TD*%
%TO.P,SW_in_manual_input_o_3,1,A*%
%TO.N,GND*%
X176230000Y-86060000D03*
%TO.P,SW_in_manual_input_o_3,2,B*%
%TO.N,P54*%
X176230000Y-83520000D03*
%TO.P,SW_in_manual_input_o_3,3,C*%
%TO.N,unconnected-(SW_in_manual_input_o_3-Pad3)*%
X176230000Y-80980000D03*
%TD*%
D23*
%TO.P,SW_in_r1_w_0,1*%
%TO.N,N/C*%
X107950000Y-71120000D03*
D22*
%TO.P,SW_in_r1_w_0,2*%
X107950000Y-68580000D03*
%TO.P,SW_in_r1_w_0,3*%
X107950000Y-66040000D03*
%TO.P,SW_in_r1_w_0,4,A*%
%TO.N,GND*%
X113030000Y-71120000D03*
%TO.P,SW_in_r1_w_0,5,B*%
%TO.N,P120*%
X113030000Y-68580000D03*
%TO.P,SW_in_r1_w_0,6,C*%
%TO.N,unconnected-(SW_in_r1_w_0-Pad6)*%
X113030000Y-66040000D03*
%TD*%
D23*
%TO.P,SW_in_r0_w_0,1*%
%TO.N,N/C*%
X107950000Y-60960000D03*
D22*
%TO.P,SW_in_r0_w_0,2*%
X107950000Y-58420000D03*
%TO.P,SW_in_r0_w_0,3*%
X107950000Y-55880000D03*
%TO.P,SW_in_r0_w_0,4,A*%
%TO.N,GND*%
X113030000Y-60960000D03*
%TO.P,SW_in_r0_w_0,5,B*%
%TO.N,P122*%
X113030000Y-58420000D03*
%TO.P,SW_in_r0_w_0,6,C*%
%TO.N,unconnected-(SW_in_r0_w_0-Pad6)*%
X113030000Y-55880000D03*
%TD*%
D23*
%TO.P,SW_in_temp_w_0,1*%
%TO.N,N/C*%
X107950000Y-50800000D03*
D22*
%TO.P,SW_in_temp_w_0,2*%
X107950000Y-48260000D03*
%TO.P,SW_in_temp_w_0,3*%
X107950000Y-45720000D03*
%TO.P,SW_in_temp_w_0,4,A*%
%TO.N,GND*%
X113030000Y-50800000D03*
%TO.P,SW_in_temp_w_0,5,B*%
%TO.N,P123*%
X113030000Y-48260000D03*
%TO.P,SW_in_temp_w_0,6,C*%
%TO.N,unconnected-(SW_in_temp_w_0-Pad6)*%
X113030000Y-45720000D03*
%TD*%
%TO.P,SW_in_manual_input_o_5,1,A*%
%TO.N,GND*%
X155910000Y-86060000D03*
%TO.P,SW_in_manual_input_o_5,2,B*%
%TO.N,P59*%
X155910000Y-83520000D03*
%TO.P,SW_in_manual_input_o_5,3,C*%
%TO.N,unconnected-(SW_in_manual_input_o_5-Pad3)*%
X155910000Y-80980000D03*
%TD*%
D24*
%TO.P,SW_reset_0,1,1*%
%TO.N,P24*%
X5967500Y-95810000D03*
X5967500Y-102310000D03*
%TO.P,SW_reset_0,2,2*%
%TO.N,GND*%
X10467500Y-102310000D03*
X10467500Y-95810000D03*
%TD*%
D25*
%TO.P,SW_in_clk_manual_0,1,1*%
%TO.N,P95*%
X20320000Y-146050000D03*
D26*
%TO.P,SW_in_clk_manual_0,2,2*%
%TO.N,GND*%
X25400000Y-146050000D03*
%TD*%
D23*
%TO.P,SW_in_ram_w_0,1*%
%TO.N,N/C*%
X82550000Y-91440000D03*
D22*
%TO.P,SW_in_ram_w_0,2*%
X82550000Y-88900000D03*
%TO.P,SW_in_ram_w_0,3*%
X82550000Y-86360000D03*
%TO.P,SW_in_ram_w_0,4,A*%
%TO.N,GND*%
X87630000Y-91440000D03*
%TO.P,SW_in_ram_w_0,5,B*%
%TO.N,P136*%
X87630000Y-88900000D03*
%TO.P,SW_in_ram_w_0,6,C*%
%TO.N,unconnected-(SW_in_ram_w_0-Pad6)*%
X87630000Y-86360000D03*
%TD*%
D23*
%TO.P,SW_in_iar_w_0,1*%
%TO.N,N/C*%
X82550000Y-50800000D03*
D22*
%TO.P,SW_in_iar_w_0,2*%
X82550000Y-48260000D03*
%TO.P,SW_in_iar_w_0,3*%
X82550000Y-45720000D03*
%TO.P,SW_in_iar_w_0,4,A*%
%TO.N,GND*%
X87630000Y-50800000D03*
%TO.P,SW_in_iar_w_0,5,B*%
%TO.N,P142*%
X87630000Y-48260000D03*
%TO.P,SW_in_iar_w_0,6,C*%
%TO.N,unconnected-(SW_in_iar_w_0-Pad6)*%
X87630000Y-45720000D03*
%TD*%
%TO.P,U1_clk_select_0,1,Common*%
%TO.N,GND*%
X50800000Y-136010000D03*
%TO.P,U1_clk_select_0,2,P1*%
%TO.N,P92*%
X50800000Y-138510000D03*
%TO.P,U1_clk_select_0,3,P2*%
%TO.N,P91*%
X50800000Y-141010000D03*
%TO.P,U1_clk_select_0,4,P3*%
%TO.N,P89*%
X50800000Y-143510000D03*
%TO.P,U1_clk_select_0,5,P4*%
%TO.N,P88*%
X50800000Y-146010000D03*
%TO.P,U1_clk_select_0,6,P5*%
%TO.N,P87*%
X50800000Y-148510000D03*
%TO.P,U1_clk_select_0,7,Common*%
%TO.N,GND*%
X50800000Y-151010000D03*
%TD*%
D23*
%TO.P,SW_in_read_reg_en_0,1,A*%
%TO.N,GND*%
X69850000Y-33020000D03*
D22*
%TO.P,SW_in_read_reg_en_0,2,B*%
%TO.N,P20*%
X69850000Y-30480000D03*
%TO.P,SW_in_read_reg_en_0,3,C*%
%TO.N,unconnected-(SW_in_read_reg_en_0-Pad3)*%
X69850000Y-27940000D03*
%TO.P,SW_in_read_reg_en_0,4*%
%TO.N,N/C*%
X74930000Y-33020000D03*
%TO.P,SW_in_read_reg_en_0,5*%
X74930000Y-30480000D03*
%TO.P,SW_in_read_reg_en_0,6*%
X74930000Y-27940000D03*
%TD*%
D27*
%TO.P,U_eeprom_0,1,S#*%
%TO.N,P39*%
X147190000Y-62865000D03*
%TO.P,U_eeprom_0,2,DQ1*%
%TO.N,Net-(R__eeprom_dq1_0-Pad2)*%
X147190000Y-64135000D03*
%TO.P,U_eeprom_0,3,W#*%
%TO.N,Net-(R_eeprom_w_0-Pad2)*%
X147190000Y-65405000D03*
%TO.P,U_eeprom_0,4,Vss*%
%TO.N,GND*%
X147190000Y-66675000D03*
%TO.P,U_eeprom_0,5,DQ0*%
%TO.N,P44*%
X142240000Y-66675000D03*
%TO.P,U_eeprom_0,6,C*%
%TO.N,CCLK*%
X142240000Y-65405000D03*
%TO.P,U_eeprom_0,7,HOLD#*%
%TO.N,Net-(R_eeprom_hold_0-Pad1)*%
X142240000Y-64135000D03*
%TO.P,U_eeprom_0,8,Vcc*%
%TO.N,VCC*%
X142240000Y-62865000D03*
D28*
%TO.P,U_eeprom_0,9*%
%TO.N,N/C*%
X144715000Y-64770000D03*
%TD*%
D29*
%TO.P,C_clk_0,1*%
%TO.N,VCC*%
X206205000Y-55880000D03*
%TO.P,C_clk_0,2*%
%TO.N,GND*%
X208280000Y-55880000D03*
%TD*%
D30*
%TO.P,U_pwr_vcc_0,1,GND*%
%TO.N,GND*%
X203860000Y-32780000D03*
%TO.P,U_pwr_vcc_0,2,VO*%
%TO.N,VCC*%
X203860000Y-30480000D03*
D31*
X210160000Y-30480000D03*
D30*
%TO.P,U_pwr_vcc_0,3,VI*%
%TO.N,Net-(SW_pwr_0-Pad2)*%
X203860000Y-28180000D03*
%TD*%
D32*
%TO.P,J_P128_0,1,Pin_1*%
%TO.N,P128*%
X167005000Y-30480000D03*
%TD*%
D33*
%TO.P,R__eeprom_dq1_0,1*%
%TO.N,D0_DIN*%
X153335000Y-64770000D03*
%TO.P,R__eeprom_dq1_0,2*%
%TO.N,Net-(R__eeprom_dq1_0-Pad2)*%
X151335000Y-64770000D03*
%TD*%
D34*
%TO.P,U2,1,PROG_B*%
%TO.N,P1*%
X177032500Y-39510000D03*
%TO.P,U2,2,IO_L01P_3*%
%TO.N,P2*%
X177032500Y-40010000D03*
%TO.P,U2,3,IO_L01N_3*%
%TO.N,P3*%
X177032500Y-40510000D03*
%TO.P,U2,4,IO_L02P_3*%
%TO.N,P4*%
X177032500Y-41010000D03*
%TO.P,U2,5,IO_L02N_3_VREF*%
%TO.N,P5*%
X177032500Y-41510000D03*
%TO.P,U2,6,IP_2_3*%
%TO.N,P6*%
X177032500Y-42010000D03*
%TO.P,U2,7,IO_L03P_3*%
%TO.N,P7*%
X177032500Y-42510000D03*
%TO.P,U2,8,IO_L03N_3*%
%TO.N,P8*%
X177032500Y-43010000D03*
%TO.P,U2,9,VCCINT1*%
%TO.N,VCC_core*%
X177032500Y-43510000D03*
%TO.P,U2,10,IO_11_3*%
%TO.N,P10*%
X177032500Y-44010000D03*
%TO.P,U2,11,GND1*%
%TO.N,GND*%
X177032500Y-44510000D03*
%TO.P,U2,12,IP_6_3_VREF*%
%TO.N,P12*%
X177032500Y-45010000D03*
%TO.P,U2,13,VCCO3_1*%
%TO.N,VCC*%
X177032500Y-45510000D03*
%TO.P,U2,14,IO_L04P_3_LHCLK0*%
%TO.N,P14*%
X177032500Y-46010000D03*
%TO.P,U2,15,IO_L04N_3_LHCLK1*%
%TO.N,P15*%
X177032500Y-46510000D03*
%TO.P,U2,16,IO_L05P_3_LHCLK2*%
%TO.N,P16*%
X177032500Y-47010000D03*
%TO.P,U2,17,IO_L05N_3_LHCLK3*%
%TO.N,P17*%
X177032500Y-47510000D03*
%TO.P,U2,18,IP_3_3*%
%TO.N,P18*%
X177032500Y-48010000D03*
%TO.P,U2,19,GND2*%
%TO.N,GND*%
X177032500Y-48510000D03*
%TO.P,U2,20,IO_L06P_3_LHCLK4*%
%TO.N,P20*%
X177032500Y-49010000D03*
%TO.P,U2,21,IO_L06N_3_LHCLK5*%
%TO.N,P21*%
X177032500Y-49510000D03*
%TO.P,U2,22,IO_L07P_3_LHCLK6*%
%TO.N,P22*%
X177032500Y-50010000D03*
%TO.P,U2,23,IO_L07N_3_LHCLK7*%
%TO.N,P23*%
X177032500Y-50510000D03*
%TO.P,U2,24,IP_4_3*%
%TO.N,P24*%
X177032500Y-51010000D03*
%TO.P,U2,25,IO_L08P_3*%
%TO.N,P25*%
X177032500Y-51510000D03*
%TO.P,U2,26,IO_L08N_3*%
%TO.N,P26*%
X177032500Y-52010000D03*
%TO.P,U2,27,GND3*%
%TO.N,GND*%
X177032500Y-52510000D03*
%TO.P,U2,28,VCCO3_2*%
%TO.N,VCC*%
X177032500Y-53010000D03*
%TO.P,U2,29,IO_12_3*%
%TO.N,P29*%
X177032500Y-53510000D03*
%TO.P,U2,30,VCCAUX1*%
%TO.N,VCC_aux*%
X177032500Y-54010000D03*
%TO.P,U2,31,IP_1_3_VREF*%
%TO.N,P31*%
X177032500Y-54510000D03*
%TO.P,U2,32,IO_L09P_3*%
%TO.N,P32*%
X177032500Y-55010000D03*
%TO.P,U2,33,IO_L09N_3*%
%TO.N,P33*%
X177032500Y-55510000D03*
%TO.P,U2,34,IO_L10P_3*%
%TO.N,P34*%
X177032500Y-56010000D03*
%TO.P,U2,35,IO_L10N_3*%
%TO.N,P35*%
X177032500Y-56510000D03*
%TO.P,U2,36,IP_5_3*%
%TO.N,P36*%
X177032500Y-57010000D03*
D35*
%TO.P,U2,37,GND4*%
%TO.N,GND*%
X175120000Y-58922500D03*
%TO.P,U2,38,IP_2_2*%
%TO.N,P38*%
X174620000Y-58922500D03*
%TO.P,U2,39,IO_L01P_2_CSOB*%
%TO.N,P39*%
X174120000Y-58922500D03*
%TO.P,U2,40,INIT_B*%
%TO.N,INIT_B*%
X173620000Y-58922500D03*
%TO.P,U2,41,IP_3_2*%
%TO.N,P41*%
X173120000Y-58922500D03*
%TO.P,U2,42,VCCO2_1*%
%TO.N,VCC*%
X172620000Y-58922500D03*
%TO.P,U2,43,DOUT_BUSY*%
%TO.N,DOUT_BUSY*%
X172120000Y-58922500D03*
%TO.P,U2,44,IO_L02N_2_MOSI*%
%TO.N,P44*%
X171620000Y-58922500D03*
%TO.P,U2,45,VCCINT2*%
%TO.N,VCC_core*%
X171120000Y-58922500D03*
%TO.P,U2,46,GND5*%
%TO.N,GND*%
X170620000Y-58922500D03*
%TO.P,U2,47,IP_L03P_2*%
%TO.N,P47*%
X170120000Y-58922500D03*
%TO.P,U2,48,IP_L03N_2_VREF_2*%
%TO.N,P48*%
X169620000Y-58922500D03*
%TO.P,U2,49,VCCO2_2*%
%TO.N,VCC*%
X169120000Y-58922500D03*
%TO.P,U2,50,IO_L04P_2_GCLK12*%
%TO.N,P50*%
X168620000Y-58922500D03*
%TO.P,U2,51,IO_L04N_2_GCLK13*%
%TO.N,P51*%
X168120000Y-58922500D03*
%TO.P,U2,52,IO_1_2*%
%TO.N,P52*%
X167620000Y-58922500D03*
%TO.P,U2,53,IO_L05P_2_GCLK14*%
%TO.N,P53*%
X167120000Y-58922500D03*
%TO.P,U2,54,IO_L05N_2_GCLK15*%
%TO.N,P54*%
X166620000Y-58922500D03*
%TO.P,U2,55,GND6*%
%TO.N,GND*%
X166120000Y-58922500D03*
%TO.P,U2,56,IP_L06P_2_GCLK0*%
%TO.N,P56*%
X165620000Y-58922500D03*
%TO.P,U2,57,M2*%
%TO.N,GND*%
X165120000Y-58922500D03*
%TO.P,U2,58,IO_L07P_2_GCLK2*%
%TO.N,P58*%
X164620000Y-58922500D03*
%TO.P,U2,59,IO_L07N_2_GCLK3*%
%TO.N,P59*%
X164120000Y-58922500D03*
%TO.P,U2,60,M1*%
%TO.N,GND*%
X163620000Y-58922500D03*
%TO.P,U2,61,GND7*%
X163120000Y-58922500D03*
%TO.P,U2,62,M0*%
%TO.N,M0*%
X162620000Y-58922500D03*
%TO.P,U2,63,D0_DIN*%
%TO.N,D0_DIN*%
X162120000Y-58922500D03*
%TO.P,U2,64,VCCO2_3*%
%TO.N,VCC*%
X161620000Y-58922500D03*
%TO.P,U2,65,VCCAUX2*%
%TO.N,VCC_aux*%
X161120000Y-58922500D03*
%TO.P,U2,66,IP_1_2_VREF*%
%TO.N,P66*%
X160620000Y-58922500D03*
%TO.P,U2,67,IO_L09P_2_VS2*%
%TO.N,VS2*%
X160120000Y-58922500D03*
%TO.P,U2,68,IO_L09N_2_VS1*%
%TO.N,P68*%
X159620000Y-58922500D03*
%TO.P,U2,69,IP_4_2*%
%TO.N,P69*%
X159120000Y-58922500D03*
%TO.P,U2,70,IO_L10P_2_VS0*%
%TO.N,VS0*%
X158620000Y-58922500D03*
%TO.P,U2,71,CCLK*%
%TO.N,CCLK*%
X158120000Y-58922500D03*
%TO.P,U2,72,DONE*%
%TO.N,DONE*%
X157620000Y-58922500D03*
D34*
%TO.P,U2,73,GND8*%
%TO.N,GND*%
X155707500Y-57010000D03*
%TO.P,U2,74,IO_L01P_1*%
%TO.N,P74*%
X155707500Y-56510000D03*
%TO.P,U2,75,IO_L01N_1*%
%TO.N,P75*%
X155707500Y-56010000D03*
%TO.P,U2,76,IO_L02P_1*%
%TO.N,P76*%
X155707500Y-55510000D03*
%TO.P,U2,77,IO_L02N_1*%
%TO.N,P77*%
X155707500Y-55010000D03*
%TO.P,U2,78,IP_1_1*%
%TO.N,P78*%
X155707500Y-54510000D03*
%TO.P,U2,79,VCCO1_1*%
%TO.N,VCC*%
X155707500Y-54010000D03*
%TO.P,U2,80,VCCINT3*%
%TO.N,VCC_core*%
X155707500Y-53510000D03*
%TO.P,U2,81,IO_L03P_1*%
%TO.N,P81*%
X155707500Y-53010000D03*
%TO.P,U2,82,IO_L03N_1*%
%TO.N,P82*%
X155707500Y-52510000D03*
%TO.P,U2,83,IO_2_1_VREF*%
%TO.N,P83*%
X155707500Y-52010000D03*
%TO.P,U2,84,IP_2_1*%
%TO.N,P84*%
X155707500Y-51510000D03*
%TO.P,U2,85,IO_L04P_1_RHCLK0*%
%TO.N,P85*%
X155707500Y-51010000D03*
%TO.P,U2,86,IO_L04N_1_RHCLK1*%
%TO.N,P86*%
X155707500Y-50510000D03*
%TO.P,U2,87,IO_L05P_1_RHCLK2*%
%TO.N,P87*%
X155707500Y-50010000D03*
%TO.P,U2,88,IO_L05N_1_RHCLK3*%
%TO.N,P88*%
X155707500Y-49510000D03*
%TO.P,U2,89,IP_3_1*%
%TO.N,P89*%
X155707500Y-49010000D03*
%TO.P,U2,90,GND9*%
%TO.N,GND*%
X155707500Y-48510000D03*
%TO.P,U2,91,IO_L06P_1_RHCLK4*%
%TO.N,P91*%
X155707500Y-48010000D03*
%TO.P,U2,92,IO_L06N_1_RHCLK5*%
%TO.N,P92*%
X155707500Y-47510000D03*
%TO.P,U2,93,IO_L07P_1_RHCLK6*%
%TO.N,P93*%
X155707500Y-47010000D03*
%TO.P,U2,94,IO_L07N_1_RHCLK7*%
%TO.N,P94*%
X155707500Y-46510000D03*
%TO.P,U2,95,IP_6_1_VREF*%
%TO.N,P95*%
X155707500Y-46010000D03*
%TO.P,U2,96,IO_L08P_1*%
%TO.N,P96*%
X155707500Y-45510000D03*
%TO.P,U2,97,IO_L08N_1*%
%TO.N,P97*%
X155707500Y-45010000D03*
%TO.P,U2,98,IO_1_1*%
%TO.N,P98*%
X155707500Y-44510000D03*
%TO.P,U2,99,GND10*%
%TO.N,GND*%
X155707500Y-44010000D03*
%TO.P,U2,100,VCCO1_2*%
%TO.N,VCC*%
X155707500Y-43510000D03*
%TO.P,U2,101,IP_4_1*%
%TO.N,P101*%
X155707500Y-43010000D03*
%TO.P,U2,102,VCCAUX3*%
%TO.N,VCC_aux*%
X155707500Y-42510000D03*
%TO.P,U2,103,IO_L09P_1*%
%TO.N,P103*%
X155707500Y-42010000D03*
%TO.P,U2,104,IO_L09N_1*%
%TO.N,P104*%
X155707500Y-41510000D03*
%TO.P,U2,105,IO_L10P_1*%
%TO.N,P105*%
X155707500Y-41010000D03*
%TO.P,U2,106,IO_L10N_1*%
%TO.N,P106*%
X155707500Y-40510000D03*
%TO.P,U2,107,IP_5_1*%
%TO.N,P107*%
X155707500Y-40010000D03*
%TO.P,U2,108,TMS*%
%TO.N,P108*%
X155707500Y-39510000D03*
D35*
%TO.P,U2,109,TDO*%
%TO.N,P109*%
X157620000Y-37597500D03*
%TO.P,U2,110,TCK*%
%TO.N,P110*%
X158120000Y-37597500D03*
%TO.P,U2,111,IP_1_0*%
%TO.N,P111*%
X158620000Y-37597500D03*
%TO.P,U2,112,IO_L01P_0*%
%TO.N,P112*%
X159120000Y-37597500D03*
%TO.P,U2,113,IO_L01N_0*%
%TO.N,P113*%
X159620000Y-37597500D03*
%TO.P,U2,114,IP_2_0*%
%TO.N,P114*%
X160120000Y-37597500D03*
%TO.P,U2,115,VCCINT4*%
%TO.N,VCC_core*%
X160620000Y-37597500D03*
%TO.P,U2,116,IO_L02P_0*%
%TO.N,P116*%
X161120000Y-37597500D03*
%TO.P,U2,117,IO_L02N_0*%
%TO.N,P117*%
X161620000Y-37597500D03*
%TO.P,U2,118,GND11*%
%TO.N,GND*%
X162120000Y-37597500D03*
%TO.P,U2,119,IP_L03P_0*%
%TO.N,P119*%
X162620000Y-37597500D03*
%TO.P,U2,120,IP_L03N_0*%
%TO.N,P120*%
X163120000Y-37597500D03*
%TO.P,U2,121,VCCO0_1*%
%TO.N,VCC*%
X163620000Y-37597500D03*
%TO.P,U2,122,IO_L04P_0_GCLK4*%
%TO.N,P122*%
X164120000Y-37597500D03*
%TO.P,U2,123,IO_L04N_0_GCLK5*%
%TO.N,P123*%
X164620000Y-37597500D03*
%TO.P,U2,124,IO_2_0_VREF*%
%TO.N,P124*%
X165120000Y-37597500D03*
%TO.P,U2,125,IO_L05P_0_GCLK6*%
%TO.N,P125*%
X165620000Y-37597500D03*
%TO.P,U2,126,IO_L05N_0_GCLK7*%
%TO.N,P126*%
X166120000Y-37597500D03*
%TO.P,U2,127,GND12*%
%TO.N,GND*%
X166620000Y-37597500D03*
%TO.P,U2,128,IP_L06P_0_GCLK8*%
%TO.N,P128*%
X167120000Y-37597500D03*
%TO.P,U2,129,IP_L06N_0_GCLK9*%
%TO.N,P129*%
X167620000Y-37597500D03*
%TO.P,U2,130,IO_L07P_0_GCLK10*%
%TO.N,P130*%
X168120000Y-37597500D03*
%TO.P,U2,131,IO_L07N_0_GCLK11*%
%TO.N,P131*%
X168620000Y-37597500D03*
%TO.P,U2,132,IO_1_0*%
%TO.N,P132*%
X169120000Y-37597500D03*
%TO.P,U2,133,GND13*%
%TO.N,GND*%
X169620000Y-37597500D03*
%TO.P,U2,134,IO_L08P_0*%
%TO.N,P134*%
X170120000Y-37597500D03*
%TO.P,U2,135,IO_L08N_0_VREF_0*%
%TO.N,P135*%
X170620000Y-37597500D03*
%TO.P,U2,136,IP_3_0*%
%TO.N,P136*%
X171120000Y-37597500D03*
%TO.P,U2,137,VCCAUX4*%
%TO.N,VCC_aux*%
X171620000Y-37597500D03*
%TO.P,U2,138,VCCO0_2*%
%TO.N,VCC*%
X172120000Y-37597500D03*
%TO.P,U2,139,IO_L09P_0*%
%TO.N,P139*%
X172620000Y-37597500D03*
%TO.P,U2,140,IO_L09N_0*%
%TO.N,P140*%
X173120000Y-37597500D03*
%TO.P,U2,141,IP_4_0*%
%TO.N,P141*%
X173620000Y-37597500D03*
%TO.P,U2,142,IO_L10P_0*%
%TO.N,P142*%
X174120000Y-37597500D03*
%TO.P,U2,143,HSWAP_EN*%
%TO.N,HSWAP_EN*%
X174620000Y-37597500D03*
%TO.P,U2,144,TDI*%
%TO.N,P144*%
X175120000Y-37597500D03*
%TD*%
D36*
%TO.P,R_M_0,1*%
%TO.N,M0*%
X163195000Y-63770000D03*
%TO.P,R_M_0,2*%
%TO.N,VCC*%
X163195000Y-65770000D03*
%TD*%
D29*
%TO.P,C_clk_out_0,1*%
%TO.N,Net-(R_clk_out_0-Pad1)*%
X193653500Y-53340000D03*
%TO.P,C_clk_out_0,2*%
%TO.N,GND*%
X195728500Y-53340000D03*
%TD*%
D33*
%TO.P,R_JTAG_TMS_0,1*%
%TO.N,Net-(P_JTAG_0-Pad4)*%
X155940000Y-13970000D03*
%TO.P,R_JTAG_TMS_0,2*%
%TO.N,P108*%
X153940000Y-13970000D03*
%TD*%
D32*
%TO.P,J_TDO_0,1,Pin_1*%
%TO.N,P109*%
X150114000Y-34798000D03*
%TD*%
D37*
%TO.P,J_P101_0,1,Pin_1*%
%TO.N,P101*%
X152146000Y-43180000D03*
%TD*%
D38*
%TO.P,J_OUT_USART1_TX_0,1,Pin_1*%
%TO.N,P52*%
X177800000Y-72390000D03*
%TD*%
D36*
%TO.P,R_VS_0,1*%
%TO.N,VS0*%
X156845000Y-66310000D03*
%TO.P,R_VS_0,2*%
%TO.N,VCC*%
X156845000Y-68310000D03*
%TD*%
D33*
%TO.P,R_JTAG_TDI_0,1*%
%TO.N,Net-(P_JTAG_0-Pad10)*%
X185150000Y-13970000D03*
%TO.P,R_JTAG_TDI_0,2*%
%TO.N,P144*%
X183150000Y-13970000D03*
%TD*%
D39*
%TO.P,J_P114_0,1,Pin_1*%
%TO.N,P114*%
X158242000Y-33147000D03*
%TD*%
D30*
%TO.P,U_pwr_aux_0,1,GND*%
%TO.N,GND*%
X203860000Y-53100000D03*
%TO.P,U_pwr_aux_0,2,VO*%
%TO.N,VCC_aux*%
X203860000Y-50800000D03*
D31*
X210160000Y-50800000D03*
D30*
%TO.P,U_pwr_aux_0,3,VI*%
%TO.N,Net-(SW_pwr_0-Pad2)*%
X203860000Y-48500000D03*
%TD*%
D36*
%TO.P,R_VS_2,1*%
%TO.N,VS2*%
X160020000Y-63770000D03*
%TO.P,R_VS_2,2*%
%TO.N,VCC*%
X160020000Y-65770000D03*
%TD*%
D33*
%TO.P,R_JTAG_TDO_0,1*%
%TO.N,Net-(P_JTAG_0-Pad8)*%
X176260000Y-13970000D03*
%TO.P,R_JTAG_TDO_0,2*%
%TO.N,P109*%
X174260000Y-13970000D03*
%TD*%
D37*
%TO.P,J_P78_0,1,Pin_1*%
%TO.N,P78*%
X152400000Y-54102000D03*
%TD*%
D40*
%TO.P,C_eeprom_vcc_0,1*%
%TO.N,GND*%
X147255000Y-58652500D03*
%TO.P,C_eeprom_vcc_0,2*%
%TO.N,VCC*%
X147255000Y-60727500D03*
%TD*%
D41*
%TO.P,C_clk_1,1*%
%TO.N,VCC*%
X208280000Y-58420000D03*
%TO.P,C_clk_1,2*%
%TO.N,GND*%
X206205000Y-58420000D03*
%TD*%
D32*
%TO.P,J_VCC_aux_0,1,Pin_1*%
%TO.N,VCC_aux*%
X213360000Y-50800000D03*
%TD*%
D37*
%TO.P,J_VCC_0,1,Pin_1*%
%TO.N,VCC*%
X213360000Y-29210000D03*
%TD*%
D33*
%TO.P,R_eeprom_w_0,1*%
%TO.N,VCC*%
X153335000Y-67310000D03*
%TO.P,R_eeprom_w_0,2*%
%TO.N,Net-(R_eeprom_w_0-Pad2)*%
X151335000Y-67310000D03*
%TD*%
D42*
%TO.P,F_pwr_0,1*%
%TO.N,Net-(F_pwr_0-Pad1)*%
X200415000Y-10160000D03*
%TO.P,F_pwr_0,2*%
%TO.N,Net-(F_pwr_0-Pad2)*%
X198365000Y-10160000D03*
%TD*%
D38*
%TO.P,J_GND_0,1,Pin_1*%
%TO.N,GND*%
X212725000Y-24130000D03*
%TD*%
D37*
%TO.P,J_eeprom_spi_cs_n_0,1,Pin_1*%
%TO.N,P39*%
X180086000Y-61468000D03*
%TD*%
%TO.P,J_P111_0,1,Pin_1*%
%TO.N,P111*%
X154813000Y-34290000D03*
%TD*%
%TO.P,J_INIT_B_0,1,Pin_1*%
%TO.N,INIT_B*%
X167386000Y-110998000D03*
%TD*%
D33*
%TO.P,R_JTAG_TCK_0,1*%
%TO.N,Net-(P_JTAG_0-Pad6)*%
X166100000Y-13970000D03*
%TO.P,R_JTAG_TCK_0,2*%
%TO.N,P110*%
X164100000Y-13970000D03*
%TD*%
D43*
%TO.P,R_HSWAP_EN_0,1*%
%TO.N,HSWAP_EN*%
X175260000Y-28940000D03*
%TO.P,R_HSWAP_EN_0,2*%
%TO.N,VCC*%
X175260000Y-26940000D03*
%TD*%
D33*
%TO.P,R_eeprom_spi_clk_pullup_0,1*%
%TO.N,CCLK*%
X136255000Y-66040000D03*
%TO.P,R_eeprom_spi_clk_pullup_0,2*%
%TO.N,VCC*%
X134255000Y-66040000D03*
%TD*%
D38*
%TO.P,J_clk_0,1,Pin_1*%
%TO.N,P56*%
X188214000Y-57150000D03*
%TD*%
D37*
%TO.P,J_eeprom_spi_clk_0,1,Pin_1*%
%TO.N,CCLK*%
X156210000Y-61595000D03*
%TD*%
D32*
%TO.P,J_eeprom_spi_din_0,1,Pin_1*%
%TO.N,P44*%
X173990000Y-64770000D03*
%TD*%
D36*
%TO.P,R_eeprom_hold_0,1*%
%TO.N,Net-(R_eeprom_hold_0-Pad1)*%
X142175000Y-58690000D03*
%TO.P,R_eeprom_hold_0,2*%
%TO.N,VCC*%
X142175000Y-60690000D03*
%TD*%
D33*
%TO.P,R_clk_oe_0,1*%
%TO.N,VCC*%
X208010000Y-63500000D03*
%TO.P,R_clk_oe_0,2*%
%TO.N,Net-(X_clk_0-Pad1)*%
X206010000Y-63500000D03*
%TD*%
D37*
%TO.P,J_VCC_core_0,1,Pin_1*%
%TO.N,VCC_core*%
X212725000Y-45085000D03*
%TD*%
D44*
%TO.P,X_clk_0,1,EN*%
%TO.N,Net-(X_clk_0-Pad1)*%
X198830000Y-61790000D03*
%TO.P,X_clk_0,2,GND*%
%TO.N,GND*%
X192330000Y-61790000D03*
%TO.P,X_clk_0,3,OUT*%
%TO.N,Net-(R_clk_out_0-Pad1)*%
X192330000Y-57590000D03*
%TO.P,X_clk_0,4,V+*%
%TO.N,VCC*%
X198830000Y-57590000D03*
%TD*%
D32*
%TO.P,J_TCK_0,1,Pin_1*%
%TO.N,P110*%
X146558000Y-36322000D03*
%TD*%
D45*
%TO.P,P_JTAG_0,1,GND*%
%TO.N,GND*%
X161290000Y-6350000D03*
D46*
%TO.P,P_JTAG_0,2,VCC_ref*%
%TO.N,VCC_aux*%
X161290000Y-8890000D03*
%TO.P,P_JTAG_0,3,GND*%
%TO.N,GND*%
X163830000Y-6350000D03*
%TO.P,P_JTAG_0,4,TMS*%
%TO.N,Net-(P_JTAG_0-Pad4)*%
X163830000Y-8890000D03*
%TO.P,P_JTAG_0,5,GND*%
%TO.N,GND*%
X166370000Y-6350000D03*
%TO.P,P_JTAG_0,6,TCK*%
%TO.N,Net-(P_JTAG_0-Pad6)*%
X166370000Y-8890000D03*
%TO.P,P_JTAG_0,7,GND*%
%TO.N,GND*%
X168910000Y-6350000D03*
%TO.P,P_JTAG_0,8,TDO*%
%TO.N,Net-(P_JTAG_0-Pad8)*%
X168910000Y-8890000D03*
%TO.P,P_JTAG_0,9,GND*%
%TO.N,GND*%
X171450000Y-6350000D03*
%TO.P,P_JTAG_0,10,TDI*%
%TO.N,Net-(P_JTAG_0-Pad10)*%
X171450000Y-8890000D03*
%TO.P,P_JTAG_0,11,GND*%
%TO.N,GND*%
X173990000Y-6350000D03*
%TO.P,P_JTAG_0,12*%
%TO.N,unconnected-(P_JTAG_0-Pad12)*%
X173990000Y-8890000D03*
%TO.P,P_JTAG_0,13,GND*%
%TO.N,GND*%
X176530000Y-6350000D03*
%TO.P,P_JTAG_0,14*%
%TO.N,unconnected-(P_JTAG_0-Pad14)*%
X176530000Y-8890000D03*
D47*
%TO.P,P_JTAG_0,MP*%
%TO.N,N/C*%
X152350000Y-7370000D03*
X185470000Y-7370000D03*
%TD*%
D33*
%TO.P,R_eeprom_s_0,1*%
%TO.N,VCC*%
X153335000Y-62230000D03*
%TO.P,R_eeprom_s_0,2*%
%TO.N,P39*%
X151335000Y-62230000D03*
%TD*%
D30*
%TO.P,U_pwr_vcc_core_0,1,GND*%
%TO.N,GND*%
X203860000Y-42940000D03*
%TO.P,U_pwr_vcc_core_0,2,VO*%
%TO.N,VCC_core*%
X203860000Y-40640000D03*
D31*
X210160000Y-40640000D03*
D30*
%TO.P,U_pwr_vcc_core_0,3,VI*%
%TO.N,Net-(SW_pwr_0-Pad2)*%
X203860000Y-38340000D03*
%TD*%
D37*
%TO.P,J_P84_0,1,Pin_1*%
%TO.N,P84*%
X147828000Y-54102000D03*
%TD*%
D36*
%TO.P,R_VS_1,1*%
%TO.N,P68*%
X159512000Y-69231000D03*
%TO.P,R_VS_1,2*%
%TO.N,VCC*%
X159512000Y-71231000D03*
%TD*%
D32*
%TO.P,J_D0_DIN_0,1,Pin_1*%
%TO.N,D0_DIN*%
X161671000Y-70866000D03*
%TD*%
D48*
%TO.P,J_P29_0,1,Pin_1*%
%TO.N,P29*%
X181610000Y-53340000D03*
%TD*%
D49*
%TO.P,J_pwr_0,1,VBUS*%
%TO.N,Net-(F_pwr_0-Pad1)*%
X202875000Y-15395000D03*
D50*
%TO.P,J_pwr_0,2,D-*%
%TO.N,unconnected-(J_pwr_0-Pad2)*%
X205375000Y-15395000D03*
%TO.P,J_pwr_0,3,D+*%
%TO.N,unconnected-(J_pwr_0-Pad3)*%
X207375000Y-15395000D03*
%TO.P,J_pwr_0,4,GND*%
%TO.N,GND*%
X209875000Y-15395000D03*
D51*
%TO.P,J_pwr_0,5,Shield*%
%TO.N,unconnected-(J_pwr_0-Pad5)*%
X206375000Y-20175000D03*
D52*
X199805000Y-15995000D03*
X212945000Y-15995000D03*
%TD*%
D37*
%TO.P,J_P107_0,1,Pin_1*%
%TO.N,P107*%
X147320000Y-39370000D03*
%TD*%
%TO.P,J_DONE_0,1,Pin_1*%
%TO.N,DONE*%
X152146000Y-58420000D03*
%TD*%
D33*
%TO.P,R_clk_out_0,1*%
%TO.N,Net-(R_clk_out_0-Pad1)*%
X190230000Y-53340000D03*
%TO.P,R_clk_out_0,2*%
%TO.N,P56*%
X188230000Y-53340000D03*
%TD*%
D37*
%TO.P,J_PROG_B_0,1,Pin_1*%
%TO.N,P1*%
X179832000Y-37084000D03*
%TD*%
D32*
%TO.P,J_P48_0,1,Pin_1*%
%TO.N,P48*%
X169672000Y-61976000D03*
%TD*%
%TO.P,J_P129_0,1,Pin_1*%
%TO.N,P129*%
X167640000Y-33655000D03*
%TD*%
D37*
%TO.P,J_P36_0,1,Pin_1*%
%TO.N,P36*%
X179832000Y-57404000D03*
%TD*%
D33*
%TO.P,R_eeprom_spi_clk_pulldown_0,1*%
%TO.N,CCLK*%
X136255000Y-68580000D03*
%TO.P,R_eeprom_spi_clk_pulldown_0,2*%
%TO.N,GND*%
X134255000Y-68580000D03*
%TD*%
D32*
%TO.P,J_DOUT_BUSY_0,1,Pin_1*%
%TO.N,DOUT_BUSY*%
X157226000Y-100330000D03*
%TD*%
%TO.P,J_TMS_0,1,Pin_1*%
%TO.N,P108*%
X144780000Y-40132000D03*
%TD*%
D37*
%TO.P,J_TDI_0,1,Pin_1*%
%TO.N,P144*%
X178816000Y-34036000D03*
%TD*%
D39*
%TO.P,J_P31_0,1,Pin_1*%
%TO.N,P31*%
X179578000Y-54102000D03*
%TD*%
D53*
%TO.N,VCC_aux*%
X175260000Y-54610000D03*
X170180000Y-39370000D03*
X201612500Y-51117500D03*
X160020000Y-55880000D03*
X157480000Y-40640000D03*
X209550000Y-44450000D03*
%TO.N,VCC*%
X168910000Y-53340000D03*
X154940000Y-68580000D03*
X180340000Y-31750000D03*
X203200000Y-24130000D03*
X158750000Y-53340000D03*
X214630000Y-73660000D03*
X160020000Y-67310000D03*
X154940000Y-71120000D03*
X212090000Y-59690000D03*
X163830000Y-68580000D03*
X171450000Y-53340000D03*
X174439520Y-45510000D03*
X158750000Y-74930000D03*
X188195680Y-31514320D03*
X161290000Y-53340000D03*
X163620000Y-40214282D03*
X174439520Y-53340000D03*
X194310000Y-30480000D03*
X191770000Y-12700000D03*
X171450000Y-40640000D03*
X158750000Y-43180000D03*
%TO.N,P34*%
X191770000Y-116840000D03*
%TO.N,P35*%
X181610000Y-116840000D03*
%TO.N,P33*%
X201930000Y-116840000D03*
%TO.N,P38*%
X177800000Y-59690000D03*
X204470000Y-76200000D03*
X204470000Y-72390000D03*
%TO.N,INIT_B*%
X171450000Y-116840000D03*
%TO.N,P41*%
X194310000Y-72390000D03*
X194310000Y-76200000D03*
X180340000Y-63500000D03*
%TO.N,DOUT_BUSY*%
X161290000Y-116840000D03*
%TO.N,DONE*%
X152781000Y-59563000D03*
X156591000Y-59563000D03*
%TO.N,P50*%
X151130000Y-116840000D03*
%TO.N,P51*%
X140970000Y-116840000D03*
%TO.N,P54*%
X173990000Y-76200000D03*
%TO.N,P58*%
X163830000Y-76200000D03*
%TO.N,P59*%
X151130000Y-76200000D03*
%TO.N,P66*%
X140970000Y-76200000D03*
%TO.N,P109*%
X152400000Y-35560000D03*
X171450000Y-13970000D03*
%TO.N,P110*%
X148590000Y-36830000D03*
X161290000Y-13970000D03*
%TO.N,P112*%
X95250000Y-119380000D03*
%TO.N,P113*%
X102870000Y-119380000D03*
%TO.N,Net-(SW_pwr_0-Pad2)*%
X207010000Y-33020000D03*
X206770000Y-28180000D03*
X207010000Y-43180000D03*
X207010000Y-38100000D03*
%TO.N,VCC_core*%
X171450000Y-55880000D03*
X173990000Y-43180000D03*
X185420000Y-43180000D03*
X163830000Y-48260000D03*
X168910000Y-48260000D03*
X198120000Y-40640000D03*
X158750000Y-40640000D03*
%TO.N,P74*%
X128270000Y-144780000D03*
%TO.N,P75*%
X118110000Y-144780000D03*
%TO.N,P76*%
X110490000Y-144780000D03*
%TO.N,P77*%
X102870000Y-144780000D03*
%TO.N,P81*%
X95250000Y-144780000D03*
%TO.N,P82*%
X87630000Y-144780000D03*
%TO.N,P83*%
X80010000Y-154940000D03*
%TO.N,P84*%
X150368000Y-54102000D03*
X157532000Y-51510000D03*
%TO.N,P85*%
X80010000Y-149860000D03*
%TO.N,P39*%
X149860000Y-62230000D03*
X177800000Y-61468000D03*
%TO.N,P44*%
X172720000Y-62230000D03*
X139700000Y-67310000D03*
%TO.N,P47*%
X184150000Y-72390000D03*
X179070000Y-68580000D03*
X184150000Y-76200000D03*
%TO.N,P2*%
X97790000Y-30480000D03*
%TO.N,P3*%
X85090000Y-30480000D03*
%TO.N,P5*%
X22860000Y-86360000D03*
%TO.N,P144*%
X176530000Y-33020000D03*
X180340000Y-13970000D03*
%TO.N,P108*%
X151130000Y-13970000D03*
X144780000Y-38100000D03*
%TO.N,P21*%
X21590000Y-30480000D03*
%TO.N,P22*%
X196850000Y-144780000D03*
%TO.N,P23*%
X181610000Y-144780000D03*
%TO.N,P24*%
X184150000Y-52070000D03*
X186690000Y-50800000D03*
%TO.N,P25*%
X166370000Y-144780000D03*
%TO.N,P26*%
X151130000Y-144780000D03*
%TO.N,P32*%
X209550000Y-114300000D03*
%TO.N,P69*%
X133350000Y-73660000D03*
%TO.N,P86*%
X80010000Y-144780000D03*
%TO.N,P93*%
X39370000Y-146050000D03*
%TO.N,P94*%
X29210000Y-119380000D03*
%TO.N,P95*%
X30480000Y-130810000D03*
X21590000Y-130810000D03*
%TO.N,P96*%
X36830000Y-119380000D03*
%TO.N,P97*%
X44450000Y-119380000D03*
%TO.N,P98*%
X52070000Y-119380000D03*
%TO.N,P103*%
X59690000Y-119380000D03*
%TO.N,P104*%
X67310000Y-119380000D03*
%TO.N,P105*%
X77470000Y-119380000D03*
%TO.N,P106*%
X87630000Y-119380000D03*
%TO.N,P116*%
X110490000Y-119380000D03*
%TO.N,P124*%
X110490000Y-111760000D03*
%TO.N,P125*%
X102870000Y-111760000D03*
%TO.N,P126*%
X95250000Y-111760000D03*
%TO.N,P130*%
X87630000Y-111760000D03*
%TO.N,P131*%
X52070000Y-111760000D03*
%TO.N,P132*%
X44450000Y-111760000D03*
%TO.N,P134*%
X36830000Y-111760000D03*
%TO.N,P135*%
X29210000Y-111760000D03*
%TO.N,P56*%
X167640000Y-67310000D03*
X186690000Y-53340000D03*
%TO.N,GND*%
X199390000Y-33020000D03*
X144715000Y-59690000D03*
X199390000Y-43180000D03*
X180340000Y-59690000D03*
X144145000Y-71120000D03*
X165120000Y-57170000D03*
X199390000Y-53340000D03*
X186690000Y-59690000D03*
X144715000Y-67310000D03*
X166370000Y-57150000D03*
X191770000Y-50800000D03*
%TO.N,D0_DIN*%
X154875000Y-64770000D03*
X161671000Y-68199000D03*
%TD*%
D54*
%TO.N,Net-(X_clk_0-Pad1)*%
X198830000Y-61790000D02*
X198830000Y-62940000D01*
X206000000Y-63490000D02*
X206010000Y-63500000D01*
X198830000Y-62940000D02*
X199380000Y-63490000D01*
X199380000Y-63490000D02*
X206000000Y-63490000D01*
%TO.N,VCC_aux*%
X157480000Y-41540006D02*
X157480000Y-40640000D01*
X177032500Y-54010000D02*
X177032500Y-53984520D01*
X175860000Y-54010000D02*
X175260000Y-54610000D01*
X213360000Y-50800000D02*
X210160000Y-50800000D01*
X170650006Y-39370000D02*
X170180000Y-39370000D01*
X160150006Y-57150000D02*
X160020000Y-57150000D01*
X203200000Y-50800000D02*
X204470000Y-50800000D01*
X177032500Y-54010000D02*
X175860000Y-54010000D01*
X203542500Y-51117500D02*
X203860000Y-50800000D01*
X203860000Y-50800000D02*
X210160000Y-50800000D01*
X201612500Y-51117500D02*
X203542500Y-51117500D01*
X210160000Y-45060000D02*
X209550000Y-44450000D01*
X210160000Y-50800000D02*
X210160000Y-45060000D01*
X160020000Y-57150000D02*
X160020000Y-55880000D01*
X156510006Y-42510000D02*
X157480000Y-41540006D01*
X171620000Y-37597500D02*
X171620000Y-38400006D01*
X161120000Y-58922500D02*
X161120000Y-58119994D01*
X161120000Y-58119994D02*
X160150006Y-57150000D01*
X155707500Y-42510000D02*
X156510006Y-42510000D01*
X171620000Y-38400006D02*
X170650006Y-39370000D01*
%TO.N,VCC*%
X159512000Y-71231000D02*
X155051000Y-71231000D01*
X213360000Y-29210000D02*
X213360000Y-30480000D01*
X194231440Y-30401440D02*
X194310000Y-30480000D01*
X174769520Y-53010000D02*
X174439520Y-53340000D01*
X155707500Y-54010000D02*
X158080000Y-54010000D01*
X153335000Y-67310000D02*
X153670000Y-67310000D01*
X212729880Y-55249880D02*
X214625120Y-55249880D01*
X156798520Y-57484520D02*
X157725040Y-56558000D01*
X210820000Y-58420000D02*
X212090000Y-59690000D01*
X193410960Y-29951920D02*
X193410960Y-45349040D01*
X154205000Y-62900000D02*
X154005000Y-62900000D01*
X161104520Y-55059520D02*
X161290000Y-55245000D01*
X153335000Y-67310000D02*
X154875000Y-67310000D01*
X161290000Y-55245000D02*
X161290000Y-53340000D01*
X156575000Y-68580000D02*
X156845000Y-68310000D01*
X201910000Y-60940000D02*
X201930000Y-60960000D01*
X210160000Y-25425000D02*
X210160000Y-30480000D01*
X168910000Y-55880000D02*
X168910000Y-53340000D01*
X172120000Y-37597500D02*
X172120000Y-39970000D01*
X177032500Y-45510000D02*
X174439520Y-45510000D01*
X213360000Y-30480000D02*
X214630000Y-30480000D01*
X158420000Y-43510000D02*
X158750000Y-43180000D01*
X191770000Y-12700000D02*
X194231440Y-12700000D01*
X201930000Y-60960000D02*
X208280000Y-60960000D01*
X212729880Y-55249880D02*
X212729880Y-57150000D01*
X143510000Y-60325000D02*
X143510000Y-58412507D01*
X142175000Y-60690000D02*
X140635000Y-62230000D01*
X206195000Y-55870000D02*
X206205000Y-55880000D01*
X153670000Y-67310000D02*
X154940000Y-68580000D01*
X201910000Y-55870000D02*
X201910000Y-57130000D01*
X172120000Y-39970000D02*
X171450000Y-40640000D01*
X212090000Y-59690000D02*
X212090000Y-57789880D01*
X214625120Y-55249880D02*
X214630000Y-55245000D01*
X208010000Y-63500000D02*
X208280000Y-63230000D01*
X139700000Y-57150000D02*
X134255000Y-62595000D01*
X153670000Y-60960000D02*
X153670000Y-58525520D01*
X158750000Y-76200000D02*
X158750000Y-74930000D01*
X163620000Y-37597500D02*
X163620000Y-40214282D01*
X134255000Y-62595000D02*
X134255000Y-66040000D01*
X209550000Y-24130000D02*
X203200000Y-24130000D01*
X163195000Y-65770000D02*
X163195000Y-67945000D01*
X177032500Y-45510000D02*
X186166677Y-45510000D01*
X208280000Y-58420000D02*
X210820000Y-58420000D01*
X193410960Y-45349040D02*
X190500000Y-48260000D01*
X158300480Y-55059520D02*
X161104520Y-55059520D01*
X214630000Y-30480000D02*
X214630000Y-35560000D01*
X139635000Y-62230000D02*
X140635000Y-62230000D01*
X153335000Y-61295000D02*
X153670000Y-60960000D01*
X210185000Y-25400000D02*
X210160000Y-25425000D01*
X140270000Y-62865000D02*
X139635000Y-62230000D01*
X210160000Y-30480000D02*
X210160000Y-24740000D01*
X201910000Y-55870000D02*
X206195000Y-55870000D01*
X194231440Y-29288560D02*
X194152880Y-29210000D01*
X155707500Y-43510000D02*
X158420000Y-43510000D01*
X160020000Y-65770000D02*
X160020000Y-67310000D01*
X147217500Y-60690000D02*
X147255000Y-60727500D01*
X163195000Y-67945000D02*
X163830000Y-68580000D01*
X210160000Y-24740000D02*
X209550000Y-24130000D01*
X153335000Y-67310000D02*
X153035000Y-67610000D01*
X161290000Y-77470000D02*
X160020000Y-77470000D01*
X158080000Y-54010000D02*
X158750000Y-53340000D01*
X172620000Y-58922500D02*
X172620000Y-54510000D01*
X175530000Y-26940000D02*
X180340000Y-31750000D01*
X154005000Y-62900000D02*
X153335000Y-62230000D01*
X142175000Y-60690000D02*
X143875000Y-60690000D01*
X194152880Y-29210000D02*
X193410960Y-29951920D01*
X160020000Y-77470000D02*
X158750000Y-76200000D01*
X199390000Y-35560000D02*
X214630000Y-35560000D01*
X151832500Y-60727500D02*
X153335000Y-62230000D01*
X153335000Y-62230000D02*
X153335000Y-61295000D01*
X161620000Y-58922500D02*
X161620000Y-55575000D01*
X208280000Y-60960000D02*
X208280000Y-58420000D01*
X143875000Y-60690000D02*
X147217500Y-60690000D01*
X157725040Y-55634960D02*
X158300480Y-55059520D01*
X154940000Y-68580000D02*
X156575000Y-68580000D01*
X214630000Y-35560000D02*
X214630000Y-55245000D01*
X157725040Y-56558000D02*
X157725040Y-55634960D01*
X155051000Y-71231000D02*
X154940000Y-71120000D01*
X194231440Y-12700000D02*
X194231440Y-29288560D01*
X169120000Y-58922500D02*
X169120000Y-56090000D01*
X212090000Y-57789880D02*
X212729880Y-57150000D01*
X161620000Y-55575000D02*
X161290000Y-55245000D01*
X188195680Y-43480997D02*
X188195680Y-31514320D01*
X143510000Y-58412507D02*
X142247493Y-57150000D01*
X143875000Y-60690000D02*
X143510000Y-60325000D01*
X154711000Y-57484520D02*
X156798520Y-57484520D01*
X214630000Y-55245000D02*
X214630000Y-73660000D01*
X140270000Y-62865000D02*
X142240000Y-62865000D01*
X169120000Y-56090000D02*
X168910000Y-55880000D01*
X155599511Y-66585489D02*
X155599511Y-64294511D01*
X172620000Y-54510000D02*
X171450000Y-53340000D01*
X210160000Y-30480000D02*
X203860000Y-30480000D01*
X154875000Y-67310000D02*
X155599511Y-66585489D01*
X186166677Y-45510000D02*
X188195680Y-43480997D01*
X210160000Y-30480000D02*
X213360000Y-30480000D01*
X194310000Y-30480000D02*
X199390000Y-35560000D01*
X153670000Y-58525520D02*
X154711000Y-57484520D01*
X198830000Y-57590000D02*
X201450000Y-57590000D01*
X208280000Y-63230000D02*
X208280000Y-60960000D01*
X201450000Y-57590000D02*
X201910000Y-57130000D01*
X209159880Y-58420000D02*
X208280000Y-58420000D01*
X177032500Y-53010000D02*
X174769520Y-53010000D01*
X142247493Y-57150000D02*
X139700000Y-57150000D01*
X201910000Y-57130000D02*
X201910000Y-60940000D01*
X175260000Y-26940000D02*
X175530000Y-26940000D01*
X147255000Y-60727500D02*
X151832500Y-60727500D01*
X194231440Y-29288560D02*
X194231440Y-30401440D01*
X155599511Y-64294511D02*
X154205000Y-62900000D01*
%TO.N,P36*%
X178562000Y-57404000D02*
X179832000Y-57404000D01*
X177032500Y-57010000D02*
X178168000Y-57010000D01*
X178168000Y-57010000D02*
X178562000Y-57404000D01*
%TO.N,P34*%
X181740000Y-56010000D02*
X182351920Y-56621920D01*
X182351920Y-56621920D02*
X182351920Y-68051920D01*
X191770000Y-99509520D02*
X191770000Y-116840000D01*
X207196197Y-99509520D02*
X191770000Y-99509520D01*
X182351920Y-68051920D02*
X182722880Y-68422880D01*
X177032500Y-56010000D02*
X181740000Y-56010000D01*
X210291920Y-72494769D02*
X210291920Y-96413798D01*
X206220031Y-68422880D02*
X210291920Y-72494769D01*
X182722880Y-68422880D02*
X206220031Y-68422880D01*
X210291920Y-96413798D02*
X207196197Y-99509520D01*
%TO.N,P35*%
X182587600Y-68872400D02*
X206033834Y-68872400D01*
X177032500Y-56510000D02*
X181604282Y-56510000D01*
X181902400Y-68238118D02*
X182536682Y-68872400D01*
X181610000Y-99060000D02*
X181610000Y-116840000D01*
X206033834Y-68872400D02*
X209842400Y-72680966D01*
X207010000Y-99060000D02*
X181610000Y-99060000D01*
X209842400Y-72680966D02*
X209842400Y-96227600D01*
X181902400Y-56808118D02*
X181902400Y-68238118D01*
X182536682Y-68872400D02*
X182587600Y-68872400D01*
X209842400Y-96227600D02*
X207010000Y-99060000D01*
X181604282Y-56510000D02*
X181902400Y-56808118D01*
%TO.N,CCLK*%
X136255000Y-66040000D02*
X137795000Y-66040000D01*
X142240000Y-65405000D02*
X139065000Y-65405000D01*
X156210000Y-61595000D02*
X158115000Y-61595000D01*
X137795000Y-66040000D02*
X138430000Y-66675000D01*
X136255000Y-68580000D02*
X137795000Y-68580000D01*
X139065000Y-65405000D02*
X138430000Y-66040000D01*
X137795000Y-68580000D02*
X138430000Y-67945000D01*
X157929520Y-62414762D02*
X158120000Y-62224282D01*
X138430000Y-69850000D02*
X157929520Y-69850000D01*
X138430000Y-67945000D02*
X138430000Y-69850000D01*
X158120000Y-61600000D02*
X158120000Y-61346000D01*
X158120000Y-62224282D02*
X158120000Y-61600000D01*
X158115000Y-61595000D02*
X158120000Y-61600000D01*
X158120000Y-61346000D02*
X158120000Y-58922500D01*
X157929520Y-69850000D02*
X157929520Y-62414762D01*
X138430000Y-66675000D02*
X138430000Y-67945000D01*
X138430000Y-66040000D02*
X138430000Y-66675000D01*
%TO.N,P33*%
X184756640Y-67973360D02*
X206406228Y-67973360D01*
X201930000Y-99959040D02*
X201930000Y-116840000D01*
X182801440Y-67232876D02*
X183541924Y-67973360D01*
X177032500Y-55510000D02*
X182510000Y-55510000D01*
X210741440Y-96599994D02*
X207382394Y-99959040D01*
X182510000Y-55510000D02*
X182801440Y-55801440D01*
X210741440Y-72308572D02*
X210741440Y-96599994D01*
X182801440Y-55801440D02*
X182801440Y-67232876D01*
X207382394Y-99959040D02*
X201930000Y-99959040D01*
X206406228Y-67973360D02*
X210741440Y-72308572D01*
X183541924Y-67973360D02*
X184756640Y-67973360D01*
%TO.N,P38*%
X174620000Y-59812000D02*
X175260000Y-60452000D01*
X204470000Y-72390000D02*
X204470000Y-76200000D01*
X175260000Y-60452000D02*
X177038000Y-60452000D01*
X177038000Y-60452000D02*
X177800000Y-59690000D01*
X174620000Y-58922500D02*
X174620000Y-59812000D01*
%TO.N,INIT_B*%
X171323000Y-110998000D02*
X171450000Y-111125000D01*
X205028591Y-97868560D02*
X209100480Y-93796673D01*
X209392880Y-93770466D02*
X209392880Y-75211778D01*
X173620000Y-60336000D02*
X173620000Y-58922500D01*
X205847637Y-69321920D02*
X182350484Y-69321920D01*
X181390360Y-62292520D02*
X175576520Y-62292520D01*
X181452880Y-68424316D02*
X181452880Y-62355040D01*
X181452880Y-62355040D02*
X181390360Y-62292520D01*
X209392880Y-75211778D02*
X207459520Y-73278418D01*
X182350484Y-69321920D02*
X181452880Y-68424316D01*
X171450000Y-116840000D02*
X171450000Y-111125000D01*
X171450000Y-97868560D02*
X205028591Y-97868560D01*
X175576520Y-62292520D02*
X173620000Y-60336000D01*
X207459520Y-70933803D02*
X205847637Y-69321920D01*
X207459520Y-73278418D02*
X207459520Y-70933803D01*
X209100480Y-93796673D02*
X209366673Y-93796673D01*
X167386000Y-110998000D02*
X171323000Y-110998000D01*
X209366673Y-93796673D02*
X209392880Y-93770466D01*
X171450000Y-111125000D02*
X171450000Y-97868560D01*
%TO.N,P41*%
X175762718Y-62742040D02*
X176520678Y-63500000D01*
X175137758Y-62742040D02*
X175762718Y-62742040D01*
X173120000Y-60724282D02*
X175137758Y-62742040D01*
X173120000Y-58922500D02*
X173120000Y-60724282D01*
X176520678Y-63500000D02*
X180340000Y-63500000D01*
X194310000Y-76200000D02*
X194310000Y-72390000D01*
%TO.N,DOUT_BUSY*%
X172120000Y-60360000D02*
X175260000Y-63500000D01*
X181003360Y-68610513D02*
X182164287Y-69771440D01*
X207010000Y-71120000D02*
X207010000Y-73660000D01*
X175260000Y-63500000D02*
X175260000Y-64770000D01*
X208943360Y-93318075D02*
X204842394Y-97419040D01*
X175260000Y-64770000D02*
X175866640Y-65376640D01*
X181003360Y-65376640D02*
X181003360Y-68610513D01*
X208943360Y-75593360D02*
X208943360Y-93318075D01*
X205661440Y-69771440D02*
X207010000Y-71120000D01*
X175866640Y-65376640D02*
X181003360Y-65376640D01*
X157226000Y-100330000D02*
X161290000Y-100330000D01*
X161290000Y-100330000D02*
X161290000Y-116840000D01*
X161290000Y-97419040D02*
X161290000Y-100330000D01*
X172120000Y-58922500D02*
X172120000Y-60360000D01*
X182164287Y-69771440D02*
X205661440Y-69771440D01*
X204842394Y-97419040D02*
X161290000Y-97419040D01*
X207010000Y-73660000D02*
X208943360Y-75593360D01*
%TO.N,P48*%
X169620000Y-58922500D02*
X169620000Y-61924000D01*
X169620000Y-61924000D02*
X169672000Y-61976000D01*
%TO.N,DONE*%
X156591000Y-59563000D02*
X156464000Y-59690000D01*
X152781000Y-59055000D02*
X152146000Y-58420000D01*
X157231500Y-58922500D02*
X156591000Y-59563000D01*
X157620000Y-58922500D02*
X157231500Y-58922500D01*
X152781000Y-59563000D02*
X152781000Y-59055000D01*
%TO.N,HSWAP_EN*%
X174620000Y-32390000D02*
X175260000Y-31750000D01*
X174620000Y-37597500D02*
X174620000Y-32390000D01*
X175260000Y-31750000D02*
X175260000Y-28940000D01*
%TO.N,P50*%
X151130000Y-116840000D02*
X151130000Y-96969520D01*
X205369040Y-70220960D02*
X176266678Y-70220960D01*
X171186678Y-65140960D02*
X169096198Y-65140960D01*
X168620000Y-64664762D02*
X168620000Y-58922500D01*
X204656197Y-96969520D02*
X208493840Y-93131877D01*
X208493840Y-93131877D02*
X208493840Y-76080830D01*
X208493840Y-76080830D02*
X206073009Y-73660000D01*
X176266678Y-70220960D02*
X171186678Y-65140960D01*
X206073009Y-73660000D02*
X206073009Y-70924929D01*
X169096198Y-65140960D02*
X168620000Y-64664762D01*
X206073009Y-70924929D02*
X205369040Y-70220960D01*
X151130000Y-96969520D02*
X204656197Y-96969520D01*
%TO.N,P51*%
X205623489Y-71607471D02*
X205623489Y-77586511D01*
X171000480Y-65590480D02*
X176080480Y-70670480D01*
X168910000Y-65590480D02*
X171000480Y-65590480D01*
X204957471Y-71607471D02*
X205623489Y-71607471D01*
X138430000Y-111760000D02*
X140970000Y-114300000D01*
X168120000Y-64800480D02*
X168910000Y-65590480D01*
X205623489Y-77586511D02*
X201930000Y-81280000D01*
X176080480Y-70670480D02*
X204020480Y-70670480D01*
X201930000Y-81280000D02*
X201930000Y-96520000D01*
X168120000Y-58922500D02*
X168120000Y-64800480D01*
X138430000Y-96520000D02*
X138430000Y-111760000D01*
X140970000Y-114300000D02*
X140970000Y-116840000D01*
X204020480Y-70670480D02*
X204957471Y-71607471D01*
X201930000Y-96520000D02*
X138430000Y-96520000D01*
%TO.N,VS0*%
X156845000Y-64135000D02*
X156845000Y-66310000D01*
X154654520Y-60264238D02*
X154654520Y-61944520D01*
X158620000Y-58922500D02*
X158620000Y-58119994D01*
X158620000Y-58119994D02*
X158360486Y-57860480D01*
X157058278Y-57860480D02*
X154654520Y-60264238D01*
X158360486Y-57860480D02*
X157058278Y-57860480D01*
X154654520Y-61944520D02*
X156845000Y-64135000D01*
%TO.N,Net-(F_pwr_0-Pad1)*%
X202085000Y-15395000D02*
X202875000Y-15395000D01*
X200660000Y-13970000D02*
X202085000Y-15395000D01*
X200415000Y-10160000D02*
X200660000Y-10405000D01*
X200660000Y-10405000D02*
X200660000Y-13970000D01*
%TO.N,Net-(F_pwr_0-Pad2)*%
X1270000Y-83820000D02*
X6350000Y-83820000D01*
X1270000Y-2540000D02*
X1270000Y-83820000D01*
X195580000Y-2540000D02*
X1270000Y-2540000D01*
X195580000Y-2540000D02*
X195580000Y-10160000D01*
X198365000Y-10160000D02*
X195580000Y-10160000D01*
%TO.N,Net-(P_JTAG_0-Pad4)*%
X155940000Y-11700000D02*
X156210000Y-11430000D01*
X155940000Y-13970000D02*
X155940000Y-11700000D01*
X162560000Y-7620000D02*
X160898990Y-7620000D01*
X163830000Y-8890000D02*
X162560000Y-7620000D01*
X157088990Y-11430000D02*
X156210000Y-11430000D01*
X160898990Y-7620000D02*
X157088990Y-11430000D01*
%TO.N,Net-(P_JTAG_0-Pad6)*%
X166100000Y-13970000D02*
X166370000Y-13700000D01*
X166370000Y-13700000D02*
X166370000Y-8890000D01*
%TO.N,Net-(P_JTAG_0-Pad8)*%
X176260000Y-13970000D02*
X176260000Y-12430000D01*
X176260000Y-12430000D02*
X175709520Y-11879520D01*
X171899520Y-11879520D02*
X168910000Y-8890000D01*
X175709520Y-11879520D02*
X171899520Y-11879520D01*
%TO.N,Net-(P_JTAG_0-Pad10)*%
X185150000Y-13970000D02*
X182610000Y-11430000D01*
X182610000Y-11430000D02*
X173990000Y-11430000D01*
X173990000Y-11430000D02*
X171450000Y-8890000D01*
%TO.N,VS2*%
X160120000Y-58922500D02*
X160120000Y-63670000D01*
X160120000Y-63670000D02*
X160020000Y-63770000D01*
%TO.N,Net-(R_clk_out_0-Pad1)*%
X192330000Y-53900000D02*
X191770000Y-53340000D01*
X193653500Y-53340000D02*
X190230000Y-53340000D01*
X192330000Y-57590000D02*
X192330000Y-53900000D01*
X191770000Y-53340000D02*
X190230000Y-53340000D01*
X190490000Y-53600000D02*
X190230000Y-53340000D01*
%TO.N,Net-(R_eeprom_hold_0-Pad1)*%
X142240000Y-64135000D02*
X137730000Y-64135000D01*
X140635000Y-58690000D02*
X142175000Y-58690000D01*
X137730000Y-64135000D02*
X137730000Y-61595000D01*
X137730000Y-61595000D02*
X140635000Y-58690000D01*
%TO.N,Net-(R_eeprom_w_0-Pad2)*%
X149430000Y-65405000D02*
X151335000Y-67310000D01*
X149430000Y-65405000D02*
X147190000Y-65405000D01*
%TO.N,M0*%
X162620000Y-63195000D02*
X163195000Y-63770000D01*
X162620000Y-58922500D02*
X162620000Y-63195000D01*
%TO.N,P54*%
X166370000Y-66040000D02*
X166370000Y-59975006D01*
X167640000Y-66040000D02*
X172720000Y-71120000D01*
X166370000Y-66040000D02*
X167640000Y-66040000D01*
X172720000Y-71120000D02*
X173990000Y-71120000D01*
X166370000Y-59975006D02*
X166620000Y-59725006D01*
X173990000Y-76200000D02*
X173990000Y-71120000D01*
X166620000Y-59725006D02*
X166620000Y-58922500D01*
%TO.N,P58*%
X163830000Y-73660000D02*
X163830000Y-76200000D01*
X164620000Y-58922500D02*
X164620000Y-61440000D01*
X164620000Y-61440000D02*
X165100000Y-61920000D01*
X165100000Y-72390000D02*
X163830000Y-73660000D01*
X163620000Y-75990000D02*
X163830000Y-76200000D01*
X165100000Y-66675718D02*
X165100000Y-72390000D01*
X165100000Y-61920000D02*
X165100000Y-66675718D01*
%TO.N,P59*%
X164650480Y-62571440D02*
X164650480Y-66861916D01*
X151130000Y-73660000D02*
X151130000Y-76200000D01*
X164069520Y-59775486D02*
X164069520Y-61990480D01*
X162560000Y-73660000D02*
X151130000Y-73660000D01*
X164120000Y-58922500D02*
X164120000Y-59725006D01*
X164069520Y-61990480D02*
X164650480Y-62571440D01*
X164120000Y-59725006D02*
X164069520Y-59775486D01*
X164650480Y-71569520D02*
X162560000Y-73660000D01*
X164650480Y-66861916D02*
X164650480Y-71569520D01*
%TO.N,P66*%
X160469520Y-73210480D02*
X141790480Y-73210480D01*
X140970000Y-74030960D02*
X140970000Y-76200000D01*
X160719480Y-67786973D02*
X160719480Y-69150520D01*
X161670480Y-60290000D02*
X161670480Y-66835973D01*
X160719480Y-72960520D02*
X160469520Y-73210480D01*
X160719480Y-69150520D02*
X160719480Y-72960520D01*
X160620000Y-60290000D02*
X161670480Y-60290000D01*
X161670480Y-66835973D02*
X160719480Y-67786973D01*
X141790480Y-73210480D02*
X140970000Y-74030960D01*
X160620000Y-58922500D02*
X160620000Y-60290000D01*
X160719480Y-68551973D02*
X160719480Y-69150520D01*
%TO.N,P109*%
X174260000Y-13970000D02*
X171450000Y-13970000D01*
X152400000Y-35560000D02*
X155582500Y-35560000D01*
X155582500Y-35560000D02*
X157620000Y-37597500D01*
X152400000Y-35560000D02*
X150876000Y-35560000D01*
X150876000Y-35560000D02*
X150114000Y-34798000D01*
%TO.N,P110*%
X157484526Y-39035480D02*
X150795480Y-39035480D01*
X158120000Y-37597500D02*
X158120000Y-38400006D01*
X150795480Y-39035480D02*
X148590000Y-36830000D01*
X164100000Y-13970000D02*
X161290000Y-13970000D01*
X148590000Y-36830000D02*
X147066000Y-36830000D01*
X147066000Y-36830000D02*
X146558000Y-36322000D01*
X158120000Y-38400006D02*
X157484526Y-39035480D01*
%TO.N,P111*%
X156115006Y-34290000D02*
X154813000Y-34290000D01*
X158620000Y-37597500D02*
X158620000Y-36794994D01*
X158620000Y-36794994D02*
X156115006Y-34290000D01*
%TO.N,P112*%
X159120000Y-36659277D02*
X155480723Y-33020000D01*
X135386981Y-45570080D02*
X121684320Y-59272744D01*
X121684320Y-59272744D02*
X121684320Y-125510416D01*
X155480723Y-33020000D02*
X143510000Y-33020000D01*
X143510000Y-33020000D02*
X143510000Y-43149515D01*
X95250000Y-127584800D02*
X95250000Y-119380000D01*
X141089435Y-45570080D02*
X135386981Y-45570080D01*
X159120000Y-37597500D02*
X159120000Y-36659277D01*
X143510000Y-43149515D02*
X141089435Y-45570080D01*
X119609936Y-127584800D02*
X95250000Y-127584800D01*
X121684320Y-125510416D02*
X119609936Y-127584800D01*
%TO.N,P113*%
X119423738Y-127135280D02*
X103005280Y-127135280D01*
X121234800Y-59086544D02*
X121234800Y-125324218D01*
X143060480Y-42963317D02*
X140903237Y-45120560D01*
X102870000Y-127000000D02*
X102870000Y-119380000D01*
X155666920Y-32570480D02*
X143323803Y-32570480D01*
X121234800Y-125324218D02*
X119423738Y-127135280D01*
X103005280Y-127135280D02*
X102870000Y-127000000D01*
X159620000Y-37597500D02*
X159620000Y-36523560D01*
X140903237Y-45120560D02*
X135200784Y-45120560D01*
X143060480Y-32833803D02*
X143060480Y-42963317D01*
X135200784Y-45120560D02*
X121234800Y-59086544D01*
X159620000Y-36523560D02*
X155666920Y-32570480D01*
X143323803Y-32570480D02*
X143060480Y-32833803D01*
%TO.N,Net-(R__eeprom_dq1_0-Pad2)*%
X150700000Y-64135000D02*
X151335000Y-64770000D01*
X147190000Y-64135000D02*
X150700000Y-64135000D01*
%TO.N,Net-(SW_pwr_0-Pad2)*%
X206770000Y-48500000D02*
X207010000Y-48260000D01*
X1797020Y-4552980D02*
X3360480Y-2989520D01*
X207010000Y-38100000D02*
X206770000Y-38340000D01*
X206770000Y-38340000D02*
X203860000Y-38340000D01*
X206770000Y-28180000D02*
X207010000Y-28420000D01*
X198360000Y-28180000D02*
X203860000Y-28180000D01*
X3360480Y-2989520D02*
X194759520Y-2989520D01*
X194759520Y-2989520D02*
X195130480Y-3360480D01*
X207010000Y-48260000D02*
X207010000Y-43180000D01*
X203860000Y-48500000D02*
X206770000Y-48500000D01*
X195130480Y-24950480D02*
X198360000Y-28180000D01*
X195130480Y-3360480D02*
X195130480Y-24950480D01*
X203860000Y-28180000D02*
X206770000Y-28180000D01*
X1797020Y-81202500D02*
X1874520Y-81280000D01*
X1797020Y-81202500D02*
X1797020Y-4552980D01*
X1874520Y-81280000D02*
X6350000Y-81280000D01*
%TO.N,P114*%
X160120000Y-37597500D02*
X160120000Y-35025000D01*
X160120000Y-35025000D02*
X158242000Y-33147000D01*
%TO.N,VCC_core*%
X160620000Y-38770000D02*
X158750000Y-40640000D01*
X155732980Y-53484520D02*
X157880969Y-53484520D01*
X212725000Y-45085000D02*
X212725000Y-43180000D01*
X210160000Y-40640000D02*
X212725000Y-40640000D01*
X171120000Y-58922500D02*
X171120000Y-56210000D01*
X162805386Y-48260000D02*
X168910000Y-48260000D01*
X212725000Y-40640000D02*
X212725000Y-43180000D01*
X171120000Y-56210000D02*
X171450000Y-55880000D01*
X158025489Y-53039897D02*
X162805386Y-48260000D01*
X212725000Y-43180000D02*
X212725000Y-43307000D01*
X210160000Y-40640000D02*
X203860000Y-40640000D01*
X160620000Y-37597500D02*
X160620000Y-38770000D01*
X177032500Y-43510000D02*
X174320000Y-43510000D01*
X185090000Y-43510000D02*
X185420000Y-43180000D01*
X158025489Y-53340000D02*
X158025489Y-53039897D01*
X203860000Y-40640000D02*
X198120000Y-40640000D01*
X155707500Y-53510000D02*
X155732980Y-53484520D01*
X174320000Y-43510000D02*
X173990000Y-43180000D01*
X177032500Y-43510000D02*
X185090000Y-43510000D01*
X157880969Y-53484520D02*
X158025489Y-53340000D01*
%TO.N,P117*%
X159308591Y-31671440D02*
X142951407Y-31671441D01*
X120335760Y-58714150D02*
X120335760Y-88585760D01*
X134828389Y-44221520D02*
X120335760Y-58714150D01*
X140530841Y-44221520D02*
X134828389Y-44221520D01*
X142951407Y-31671441D02*
X142161440Y-32461409D01*
X113030000Y-88900000D02*
X120021520Y-88900000D01*
X120021520Y-88900000D02*
X120335760Y-88585760D01*
X142161440Y-32461409D02*
X142161440Y-42590921D01*
X142161440Y-42590921D02*
X140530841Y-44221520D01*
X161620000Y-33982849D02*
X159308591Y-31671440D01*
X161620000Y-37597500D02*
X161620000Y-33982849D01*
%TO.N,P119*%
X119886240Y-58527953D02*
X119886240Y-78740000D01*
X159494788Y-31221920D02*
X142765209Y-31221922D01*
X142765209Y-31221922D02*
X141711920Y-32275212D01*
X140344643Y-43772000D02*
X134642192Y-43772000D01*
X134642192Y-43772000D02*
X119886240Y-58527953D01*
X141711920Y-32275212D02*
X141711920Y-42404723D01*
X162620000Y-37597500D02*
X162620000Y-34347132D01*
X162620000Y-34347132D02*
X159494788Y-31221920D01*
X113030000Y-78740000D02*
X119886240Y-78740000D01*
X141711920Y-42404723D02*
X140344643Y-43772000D01*
%TO.N,P120*%
X134455995Y-43322480D02*
X140158445Y-43322480D01*
X119436720Y-58341756D02*
X134455995Y-43322480D01*
X163120000Y-34211415D02*
X163120000Y-37597500D01*
X141262400Y-32089015D02*
X142579011Y-30772403D01*
X140158445Y-43322480D02*
X141262400Y-42218525D01*
X119436720Y-68425000D02*
X119436720Y-58341756D01*
X113030000Y-68580000D02*
X119281720Y-68580000D01*
X141262400Y-42218525D02*
X141262400Y-32089015D01*
X119281720Y-68580000D02*
X119436720Y-68425000D01*
X159680985Y-30772400D02*
X163120000Y-34211415D01*
X142579011Y-30772403D02*
X159680985Y-30772400D01*
%TO.N,P74*%
X155707500Y-56510000D02*
X139704283Y-56510000D01*
X132625489Y-140424511D02*
X128270000Y-144780000D01*
X139704283Y-56510000D02*
X132625489Y-63588794D01*
X132625489Y-63588794D02*
X132625489Y-140424511D01*
%TO.N,P75*%
X125730000Y-142240000D02*
X120650000Y-142240000D01*
X139568566Y-56010000D02*
X132175969Y-63402597D01*
X132175969Y-135794031D02*
X125730000Y-142240000D01*
X132175969Y-63402597D02*
X132175969Y-135794031D01*
X155707500Y-56010000D02*
X139568566Y-56010000D01*
X120650000Y-142240000D02*
X118110000Y-144780000D01*
%TO.N,P76*%
X155707500Y-55510000D02*
X139432849Y-55510000D01*
X131726449Y-63216400D02*
X131726449Y-135607833D01*
X139432849Y-55510000D02*
X131726449Y-63216400D01*
X125543802Y-141790480D02*
X113479520Y-141790480D01*
X113479520Y-141790480D02*
X110490000Y-144780000D01*
X131726449Y-135607833D02*
X125543802Y-141790480D01*
%TO.N,P77*%
X131276929Y-135421635D02*
X125357604Y-141340960D01*
X155707500Y-55010000D02*
X139297131Y-55010000D01*
X125357604Y-141340960D02*
X106309040Y-141340960D01*
X106309040Y-141340960D02*
X102870000Y-144780000D01*
X139297131Y-55010000D02*
X131276929Y-63030203D01*
X131276929Y-63030203D02*
X131276929Y-135421635D01*
%TO.N,P78*%
X152808000Y-54510000D02*
X152400000Y-54102000D01*
X155707500Y-54510000D02*
X152808000Y-54510000D01*
%TO.N,P81*%
X130810000Y-62861414D02*
X130810000Y-135252846D01*
X146050000Y-54560480D02*
X139110933Y-54560480D01*
X125171406Y-140891440D02*
X99138560Y-140891440D01*
X146380000Y-53010000D02*
X146050000Y-53340000D01*
X139110933Y-54560480D02*
X130810000Y-62861414D01*
X99138560Y-140891440D02*
X95250000Y-144780000D01*
X130810000Y-135252846D02*
X125171406Y-140891440D01*
X155707500Y-53010000D02*
X146380000Y-53010000D01*
X146050000Y-53340000D02*
X146050000Y-54560480D01*
%TO.N,P82*%
X145600480Y-53153803D02*
X145600480Y-54110960D01*
X145600480Y-54110960D02*
X138924737Y-54110960D01*
X130360480Y-62675217D02*
X130360480Y-135066648D01*
X155707500Y-52510000D02*
X146244283Y-52510000D01*
X130360480Y-135066648D02*
X124985208Y-140441920D01*
X146244283Y-52510000D02*
X145600480Y-53153803D01*
X91968080Y-140441920D02*
X87630000Y-144780000D01*
X124985208Y-140441920D02*
X91968080Y-140441920D01*
X138924737Y-54110960D02*
X130360480Y-62675217D01*
%TO.N,P83*%
X82550000Y-142240000D02*
X82550000Y-154940000D01*
X145150960Y-53661440D02*
X145150960Y-52967606D01*
X146108565Y-52010000D02*
X155707500Y-52010000D01*
X129910960Y-134880450D02*
X124799010Y-139992400D01*
X124799010Y-139992400D02*
X125410705Y-139380705D01*
X84797600Y-139992400D02*
X82550000Y-142240000D01*
X138738540Y-53661440D02*
X145150960Y-53661440D01*
X129910960Y-81280000D02*
X129910960Y-62489020D01*
X82550000Y-154940000D02*
X80010000Y-154940000D01*
X129910960Y-62489020D02*
X138738540Y-53661440D01*
X145150960Y-52967606D02*
X146108565Y-52010000D01*
X129910960Y-81280000D02*
X129910960Y-134880450D01*
X124799010Y-139992400D02*
X84797600Y-139992400D01*
%TO.N,P84*%
X157532000Y-51510000D02*
X157682000Y-51510000D01*
X150368000Y-54102000D02*
X147828000Y-54102000D01*
X155707500Y-51510000D02*
X157532000Y-51510000D01*
%TO.N,P85*%
X84611403Y-139542880D02*
X82100480Y-142053803D01*
X155707500Y-51010000D02*
X146472848Y-51010000D01*
X146472848Y-51010000D02*
X144270929Y-53211920D01*
X129461440Y-134694252D02*
X124612812Y-139542880D01*
X124612812Y-139542880D02*
X84611403Y-139542880D01*
X82100480Y-142053803D02*
X82100480Y-149860000D01*
X144270929Y-53211920D02*
X138552342Y-53211920D01*
X129461440Y-62302822D02*
X129461440Y-134694252D01*
X138552342Y-53211920D02*
X129461440Y-62302822D01*
X82100480Y-149860000D02*
X80010000Y-149860000D01*
%TO.N,P39*%
X149860000Y-62230000D02*
X151335000Y-62230000D01*
X150700000Y-62865000D02*
X151335000Y-62230000D01*
X180086000Y-61468000D02*
X177800000Y-61468000D01*
X174120000Y-60074000D02*
X175514000Y-61468000D01*
X174120000Y-58922500D02*
X174120000Y-60074000D01*
X147190000Y-62865000D02*
X150700000Y-62865000D01*
X175514000Y-61468000D02*
X177800000Y-61468000D01*
%TO.N,P44*%
X141605000Y-67310000D02*
X142240000Y-66675000D01*
X172720000Y-64770000D02*
X173990000Y-64770000D01*
X171620000Y-58922500D02*
X171620000Y-61130000D01*
X139700000Y-67310000D02*
X141605000Y-67310000D01*
X172720000Y-62230000D02*
X172720000Y-64770000D01*
X171620000Y-61130000D02*
X172720000Y-62230000D01*
%TO.N,P47*%
X171450000Y-61976000D02*
X171450000Y-64768564D01*
X184150000Y-72390000D02*
X184150000Y-76200000D01*
X171450000Y-64768564D02*
X175261436Y-68580000D01*
X170120000Y-60138000D02*
X170815000Y-60833000D01*
X170815000Y-60833000D02*
X170815000Y-61341000D01*
X170120000Y-58922500D02*
X170120000Y-60138000D01*
X175261436Y-68580000D02*
X179070000Y-68580000D01*
X170815000Y-61341000D02*
X171450000Y-61976000D01*
%TO.N,P1*%
X179832000Y-39243000D02*
X179832000Y-37084000D01*
X179565000Y-39510000D02*
X179832000Y-39243000D01*
X177032500Y-39510000D02*
X179565000Y-39510000D01*
%TO.N,P2*%
X182880000Y-26670000D02*
X182880000Y-39370000D01*
X182880000Y-39370000D02*
X182240000Y-40010000D01*
X97599809Y-22669809D02*
X97599809Y-30289809D01*
X97599809Y-30289809D02*
X97790000Y-30480000D01*
X178879809Y-22669809D02*
X97599809Y-22669809D01*
X182880000Y-26670000D02*
X178879809Y-22669809D01*
X177032500Y-40010000D02*
X182240000Y-40010000D01*
%TO.N,P3*%
X183329520Y-26483803D02*
X183329520Y-39556197D01*
X179066006Y-22220289D02*
X183329520Y-26483803D01*
X183329520Y-39556197D02*
X182375717Y-40510000D01*
X88269711Y-22220289D02*
X179066006Y-22220289D01*
X85090000Y-30480000D02*
X85090000Y-25400000D01*
X182375717Y-40510000D02*
X177032500Y-40510000D01*
X85090000Y-25400000D02*
X88269711Y-22220289D01*
%TO.N,P4*%
X54610000Y-91440000D02*
X57150000Y-91440000D01*
X82550000Y-40640000D02*
X82550000Y-27304283D01*
X82550000Y-27304283D02*
X88083514Y-21770769D01*
X57150000Y-91440000D02*
X57150000Y-101600000D01*
X182511434Y-41010000D02*
X177032500Y-41010000D01*
X80010000Y-40640000D02*
X82550000Y-40640000D01*
X88083514Y-21770769D02*
X179252203Y-21770769D01*
X80010000Y-101600000D02*
X80010000Y-40640000D01*
X57150000Y-101600000D02*
X80010000Y-101600000D01*
X183779040Y-39742394D02*
X182511434Y-41010000D01*
X183779040Y-26297606D02*
X183779040Y-39742394D01*
X179252203Y-21770769D02*
X183779040Y-26297606D01*
%TO.N,P5*%
X87897317Y-21321249D02*
X179438400Y-21321249D01*
X184228560Y-39928591D02*
X182647151Y-41510000D01*
X179438400Y-21321249D02*
X184228560Y-26111409D01*
X82100480Y-27118086D02*
X87897317Y-21321249D01*
X79560480Y-40453803D02*
X81914283Y-38100000D01*
X79560480Y-86360000D02*
X79560480Y-40453803D01*
X82100480Y-38100000D02*
X82100480Y-27118086D01*
X182647151Y-41510000D02*
X177032500Y-41510000D01*
X79560480Y-86360000D02*
X22860000Y-86360000D01*
X184228560Y-26111409D02*
X184228560Y-39928591D01*
X81914283Y-38100000D02*
X82100480Y-38100000D01*
%TO.N,P6*%
X79110960Y-85910480D02*
X79110960Y-40267606D01*
X179624597Y-20871729D02*
X184678080Y-25925212D01*
X69850000Y-81280000D02*
X72390000Y-81280000D01*
X87711120Y-20871729D02*
X179624597Y-20871729D01*
X72390000Y-81280000D02*
X72390000Y-85910480D01*
X184678080Y-40114788D02*
X182782868Y-42010000D01*
X182782868Y-42010000D02*
X177032500Y-42010000D01*
X72390000Y-85910480D02*
X79110960Y-85910480D01*
X79110960Y-40267606D02*
X81650960Y-37727605D01*
X81650960Y-26931889D02*
X87711120Y-20871729D01*
X81650960Y-37727605D02*
X81650960Y-26931889D01*
X184678080Y-25925212D02*
X184678080Y-40114788D01*
%TO.N,P7*%
X78661440Y-40081409D02*
X81201440Y-37541407D01*
X81201440Y-26745692D02*
X87627132Y-20320000D01*
X13970000Y-78740000D02*
X24130000Y-78740000D01*
X78661440Y-76200000D02*
X78661440Y-40081409D01*
X182918585Y-42510000D02*
X177032500Y-42510000D01*
X185127600Y-25739015D02*
X185127600Y-40300985D01*
X64770000Y-76200000D02*
X78661440Y-76200000D01*
X179708585Y-20320000D02*
X185127600Y-25739015D01*
X81201440Y-37541407D02*
X81201440Y-26745692D01*
X33824816Y-50812991D02*
X13982991Y-50812991D01*
X64770000Y-83820000D02*
X64770000Y-76200000D01*
X24130000Y-83820000D02*
X64770000Y-83820000D01*
X87627132Y-20320000D02*
X179708585Y-20320000D01*
X13982991Y-50812991D02*
X13970000Y-50800000D01*
X24130000Y-78740000D02*
X24130000Y-83820000D01*
X185127600Y-40300985D02*
X182918585Y-42510000D01*
X13970000Y-50800000D02*
X13970000Y-78740000D01*
%TO.N,P8*%
X78211920Y-75750480D02*
X78211920Y-39895212D01*
X64320480Y-76013803D02*
X64583803Y-75750480D01*
X64583803Y-75750480D02*
X78211920Y-75750480D01*
X24579520Y-65752306D02*
X24579520Y-83370480D01*
X87440934Y-19870480D02*
X179894782Y-19870480D01*
X78211920Y-39895212D02*
X80751920Y-37355209D01*
X183054302Y-43010000D02*
X177032500Y-43010000D01*
X33824816Y-56507010D02*
X24579520Y-65752306D01*
X24579520Y-83370480D02*
X64320480Y-83370480D01*
X179894782Y-19870480D02*
X185577120Y-25552818D01*
X185577120Y-25552818D02*
X185577120Y-40487182D01*
X185577120Y-40487182D02*
X183054302Y-43010000D01*
X80751920Y-26559495D02*
X87440934Y-19870480D01*
X80751920Y-37355209D02*
X80751920Y-26559495D01*
X64320480Y-83370480D02*
X64320480Y-76013803D01*
%TO.N,P10*%
X77762400Y-75300960D02*
X77762400Y-39709015D01*
X64397605Y-75300960D02*
X77762400Y-75300960D01*
X63870960Y-75827606D02*
X64397605Y-75300960D01*
X80302400Y-26373298D02*
X87254738Y-19420960D01*
X77762400Y-39709015D02*
X80302400Y-37169012D01*
X185860000Y-44010000D02*
X177032500Y-44010000D01*
X186026640Y-42516640D02*
X186690000Y-43180000D01*
X186026640Y-25366621D02*
X186026640Y-42516640D01*
X36830000Y-82920960D02*
X63870960Y-82920960D01*
X80302400Y-37169012D02*
X80302400Y-26373298D01*
X63870960Y-82920960D02*
X63870960Y-75827606D01*
X180080979Y-19420960D02*
X186026640Y-25366621D01*
X186690000Y-43180000D02*
X185860000Y-44010000D01*
X36671826Y-61438174D02*
X36671826Y-82762786D01*
X36671826Y-82762786D02*
X36830000Y-82920960D01*
X87254738Y-19420960D02*
X180080979Y-19420960D01*
%TO.N,P12*%
X79852880Y-36982815D02*
X79852880Y-26187101D01*
X43101440Y-82471440D02*
X63421440Y-82471440D01*
X77312880Y-39522818D02*
X79852880Y-36982815D01*
X63421440Y-75641408D02*
X64211407Y-74851441D01*
X187139520Y-43366198D02*
X185470238Y-45035480D01*
X177057980Y-45035480D02*
X177032500Y-45010000D01*
X41602991Y-80972991D02*
X43101440Y-82471440D01*
X180267176Y-18971440D02*
X187139520Y-25843784D01*
X77312880Y-74851440D02*
X77312880Y-39522818D01*
X185470238Y-45035480D02*
X177057980Y-45035480D01*
X64211407Y-74851441D02*
X77312880Y-74851440D01*
X79852880Y-26187101D02*
X87068541Y-18971440D01*
X187139520Y-25843784D02*
X187139520Y-43366198D01*
X87068541Y-18971440D02*
X180267176Y-18971440D01*
X41602991Y-80972991D02*
X41602991Y-64285184D01*
X63421440Y-82471440D02*
X63421440Y-75641408D01*
%TO.N,P144*%
X183150000Y-13970000D02*
X180340000Y-13970000D01*
X176530000Y-34290000D02*
X176530000Y-33020000D01*
X178816000Y-34036000D02*
X177800000Y-33020000D01*
X175120000Y-37597500D02*
X175260000Y-37457500D01*
X175260000Y-35560000D02*
X176530000Y-34290000D01*
X175260000Y-37457500D02*
X175260000Y-35560000D01*
X177800000Y-33020000D02*
X176530000Y-33020000D01*
%TO.N,P108*%
X148590000Y-38100000D02*
X150000000Y-39510000D01*
X148590000Y-38100000D02*
X144780000Y-38100000D01*
X153940000Y-13970000D02*
X151130000Y-13970000D01*
X144780000Y-38100000D02*
X144780000Y-40132000D01*
X150000000Y-39510000D02*
X155707500Y-39510000D01*
%TO.N,P14*%
X189814800Y-27883347D02*
X189814800Y-42592331D01*
X86882344Y-18521920D02*
X180453373Y-18521920D01*
X62971920Y-75455211D02*
X64025211Y-74401920D01*
X180453373Y-18521920D02*
X189814800Y-27883347D01*
X189814800Y-42592331D02*
X186397131Y-46010000D01*
X79403360Y-36796618D02*
X79403360Y-26000904D01*
X76863360Y-74401920D02*
X76863361Y-39336617D01*
X47297010Y-81587010D02*
X47731920Y-82021920D01*
X47731920Y-82021920D02*
X62971920Y-82021920D01*
X47297010Y-64285184D02*
X47297010Y-81587010D01*
X64025211Y-74401920D02*
X76863360Y-74401920D01*
X62971920Y-82021920D02*
X62971920Y-75455211D01*
X186397131Y-46010000D02*
X177032500Y-46010000D01*
X79403360Y-26000904D02*
X86882344Y-18521920D01*
X76863361Y-39336617D02*
X79403360Y-36796618D01*
%TO.N,P15*%
X86696146Y-18072400D02*
X180639571Y-18072400D01*
X76413841Y-39150419D02*
X78953840Y-36610420D01*
X78953840Y-25814706D02*
X86696146Y-18072400D01*
X76413840Y-73952400D02*
X76413841Y-39150419D01*
X180639571Y-18072400D02*
X190264320Y-27697149D01*
X78953840Y-36610420D02*
X78953840Y-25814706D01*
X63839013Y-73049013D02*
X63839013Y-73952400D01*
X190264320Y-27697149D02*
X190264320Y-42778528D01*
X63839013Y-73952400D02*
X76413840Y-73952400D01*
X186535718Y-46510000D02*
X177032500Y-46510000D01*
X190264320Y-42778528D02*
X189893360Y-43149489D01*
X52228174Y-61438174D02*
X63839013Y-73049013D01*
X189893360Y-43152358D02*
X186535718Y-46510000D01*
X189893360Y-43149489D02*
X189893360Y-43152358D01*
%TO.N,P16*%
X186671434Y-47010000D02*
X177032500Y-47010000D01*
X78419270Y-25713559D02*
X86509949Y-17622880D01*
X190342880Y-43338554D02*
X186671434Y-47010000D01*
X190342880Y-43335686D02*
X190342880Y-43338554D01*
X190713840Y-27510952D02*
X190713840Y-42964725D01*
X190713840Y-42964725D02*
X190342880Y-43335686D01*
X75964321Y-38964222D02*
X78419270Y-36509272D01*
X180825768Y-17622880D02*
X190713840Y-27510952D01*
X86509949Y-17622880D02*
X180825768Y-17622880D01*
X55075184Y-56507009D02*
X59528175Y-60960000D01*
X75964320Y-60960000D02*
X75964321Y-38964222D01*
X78419270Y-36509272D02*
X78419270Y-25713559D01*
X59528175Y-60960000D02*
X75964320Y-60960000D01*
%TO.N,P17*%
X86323752Y-17173360D02*
X181011965Y-17173360D01*
X191163360Y-43150922D02*
X190792400Y-43521883D01*
X57602194Y-53340000D02*
X75514800Y-53340000D01*
X55075184Y-50812990D02*
X57602194Y-53340000D01*
X190792400Y-43524752D02*
X186807152Y-47510000D01*
X75514801Y-38778025D02*
X77969750Y-36323074D01*
X186807152Y-47510000D02*
X177032500Y-47510000D01*
X191163360Y-27324754D02*
X191163360Y-43150922D01*
X77969750Y-25527362D02*
X86323752Y-17173360D01*
X75514800Y-53340000D02*
X75514801Y-38778025D01*
X190792400Y-43521883D02*
X190792400Y-43524752D01*
X181011965Y-17173360D02*
X191163360Y-27324754D01*
X77969750Y-36323074D02*
X77969750Y-25527362D01*
%TO.N,P18*%
X181198162Y-16723840D02*
X191612880Y-27138558D01*
X191241920Y-43710950D02*
X186942869Y-48010000D01*
X191241920Y-43708080D02*
X191241920Y-43710950D01*
X191612880Y-43337120D02*
X191241920Y-43708080D01*
X186942869Y-48010000D02*
X177032500Y-48010000D01*
X191612880Y-27138558D02*
X191612880Y-43337120D01*
X86137555Y-16723840D02*
X181198162Y-16723840D01*
X77520230Y-36136876D02*
X77520230Y-25341165D01*
X52228174Y-45881826D02*
X52070000Y-45723652D01*
X52070000Y-45723652D02*
X52070000Y-45720000D01*
X75065281Y-38591828D02*
X77520230Y-36136876D01*
X77520230Y-25341165D02*
X86137555Y-16723840D01*
X52070000Y-45720000D02*
X75065281Y-45720000D01*
X75065281Y-45720000D02*
X75065281Y-38591828D01*
%TO.N,P20*%
X192062400Y-26952361D02*
X192062400Y-43526186D01*
X181384359Y-16274320D02*
X192062400Y-26952361D01*
X186578586Y-49010000D02*
X177032500Y-49010000D01*
X72390000Y-25400000D02*
X76825678Y-25400000D01*
X72390000Y-30480000D02*
X72390000Y-25400000D01*
X76825678Y-25400000D02*
X85951357Y-16274320D01*
X69850000Y-30480000D02*
X72390000Y-30480000D01*
X85951357Y-16274320D02*
X181384359Y-16274320D01*
X192062400Y-43526186D02*
X186578586Y-49010000D01*
%TO.N,P21*%
X189552878Y-23807122D02*
X189649042Y-23807122D01*
X85765160Y-15824800D02*
X181570556Y-15824800D01*
X186714303Y-49510000D02*
X177032500Y-49510000D01*
X76639480Y-24950480D02*
X85765160Y-15824800D01*
X192511920Y-26670000D02*
X192511920Y-43712384D01*
X21590000Y-30480000D02*
X21590000Y-27940000D01*
X192511920Y-43712384D02*
X186714303Y-49510000D01*
X24579520Y-24950480D02*
X76639480Y-24950480D01*
X181570556Y-15824800D02*
X189552878Y-23807122D01*
X189649042Y-23807122D02*
X192511920Y-26670000D01*
X21590000Y-27940000D02*
X24579520Y-24950480D01*
%TO.N,P22*%
X177032500Y-50010000D02*
X183360000Y-50010000D01*
X212989040Y-71274252D02*
X212989040Y-122928111D01*
X183360000Y-50010000D02*
X183410480Y-49959520D01*
X185734240Y-50273760D02*
X185734240Y-65725760D01*
X183410480Y-49959520D02*
X185420000Y-49959520D01*
X196850000Y-133428560D02*
X196850000Y-144780000D01*
X202488591Y-133428560D02*
X196850000Y-133428560D01*
X185734240Y-65725760D02*
X207440548Y-65725760D01*
X207440548Y-65725760D02*
X212989040Y-71274252D01*
X212989040Y-122928111D02*
X202488591Y-133428560D01*
X185420000Y-49959520D02*
X185734240Y-50273760D01*
%TO.N,P23*%
X207254351Y-66175280D02*
X212539520Y-71460449D01*
X185130000Y-50510000D02*
X185284720Y-50664720D01*
X185284720Y-50664720D02*
X185284720Y-66175280D01*
X202302394Y-132979040D02*
X181610000Y-132979040D01*
X185284720Y-66175280D02*
X207254351Y-66175280D01*
X177032500Y-50510000D02*
X185130000Y-50510000D01*
X212539520Y-122741914D02*
X202302394Y-132979040D01*
X212539520Y-71460449D02*
X212539520Y-122741914D01*
X181610000Y-132979040D02*
X181610000Y-144780000D01*
%TO.N,P24*%
X5967500Y-95810000D02*
X8978750Y-92798750D01*
X186850022Y-50639978D02*
X186690000Y-50800000D01*
X181717638Y-15240000D02*
X192961440Y-26483802D01*
X183090000Y-51010000D02*
X184150000Y-52070000D01*
X8978750Y-25311250D02*
X9789040Y-24500960D01*
X85714243Y-15240000D02*
X181717638Y-15240000D01*
X192961440Y-26483802D02*
X192961440Y-43898582D01*
X76453282Y-24500960D02*
X85714243Y-15240000D01*
X192961440Y-43898582D02*
X186850022Y-50010000D01*
X186850022Y-50010000D02*
X186850022Y-50639978D01*
X177032500Y-51010000D02*
X183090000Y-51010000D01*
X9789040Y-24500960D02*
X76453282Y-24500960D01*
X8978750Y-92798750D02*
X8978750Y-25311250D01*
%TO.N,P25*%
X212090000Y-71646646D02*
X212090000Y-122555718D01*
X182915969Y-52105969D02*
X184150000Y-53340000D01*
X184835200Y-66624800D02*
X207068154Y-66624800D01*
X181100480Y-51560480D02*
X182915969Y-51560480D01*
X184150000Y-53340000D02*
X184835200Y-53340000D01*
X181050000Y-51510000D02*
X181100480Y-51560480D01*
X166370000Y-132529520D02*
X166370000Y-144780000D01*
X182915969Y-51560480D02*
X182915969Y-52105969D01*
X212090000Y-122555718D02*
X202116197Y-132529520D01*
X177032500Y-51510000D02*
X181050000Y-51510000D01*
X207068154Y-66624800D02*
X212090000Y-71646646D01*
X184835200Y-53340000D02*
X184835200Y-66624800D01*
X202116197Y-132529520D02*
X166370000Y-132529520D01*
%TO.N,P26*%
X211640480Y-122369520D02*
X211640480Y-71832843D01*
X211640480Y-71832843D02*
X206881957Y-67074320D01*
X151130000Y-132080000D02*
X201930000Y-132080000D01*
X182092493Y-52010000D02*
X180914282Y-52010000D01*
X206881957Y-67074320D02*
X184385680Y-67074320D01*
X201930000Y-132080000D02*
X211640480Y-122369520D01*
X183872013Y-53789520D02*
X182092493Y-52010000D01*
X151130000Y-144780000D02*
X151130000Y-132080000D01*
X180914282Y-52010000D02*
X180919762Y-52015480D01*
X177032500Y-52010000D02*
X180914282Y-52010000D01*
X184385680Y-67074320D02*
X184385680Y-53789520D01*
X184385680Y-53789520D02*
X183872013Y-53789520D01*
%TO.N,P29*%
X178357507Y-53510000D02*
X178357507Y-52782493D01*
X178680480Y-52459520D02*
X180729520Y-52459520D01*
X180729520Y-52459520D02*
X181610000Y-53340000D01*
X177032500Y-53510000D02*
X178357507Y-53510000D01*
X178357507Y-52782493D02*
X178680480Y-52459520D01*
%TO.N,P31*%
X179170000Y-54510000D02*
X179578000Y-54102000D01*
X177032500Y-54510000D02*
X179170000Y-54510000D01*
%TO.N,P32*%
X211190960Y-112659040D02*
X209550000Y-114300000D01*
X206695760Y-67523840D02*
X211190960Y-72019040D01*
X177032500Y-55010000D02*
X183250960Y-55010000D01*
X184363840Y-67523840D02*
X206695760Y-67523840D01*
X183728122Y-67523840D02*
X184363840Y-67523840D01*
X211190960Y-72019040D02*
X211190960Y-112659040D01*
X183250960Y-55010000D02*
X183250960Y-67046678D01*
X183250960Y-67046678D02*
X183728122Y-67523840D01*
%TO.N,P52*%
X173354282Y-70670480D02*
X174810480Y-70670480D01*
X176530000Y-72390000D02*
X177800000Y-72390000D01*
X167620000Y-64936198D02*
X173354282Y-70670480D01*
X167620000Y-58922500D02*
X167620000Y-64936198D01*
X174810480Y-70670480D02*
X176530000Y-72390000D01*
%TO.N,P68*%
X159620000Y-58922500D02*
X159620000Y-61995718D01*
X158828560Y-68547560D02*
X159512000Y-69231000D01*
X159620000Y-61995718D02*
X158828560Y-62787158D01*
X158828560Y-62787158D02*
X158828560Y-68547560D01*
%TO.N,P69*%
X151950480Y-70299520D02*
X151130000Y-71120000D01*
X159120000Y-58922500D02*
X159120000Y-61860000D01*
X159120000Y-61860000D02*
X158379040Y-62600960D01*
X158379040Y-70036197D02*
X158115717Y-70299520D01*
X151130000Y-72390000D02*
X150759040Y-72760960D01*
X158115717Y-70299520D02*
X151950480Y-70299520D01*
X151130000Y-71120000D02*
X151130000Y-72390000D01*
X134249040Y-72760960D02*
X133350000Y-73660000D01*
X158379040Y-62600960D02*
X158379040Y-70036197D01*
X150759040Y-72760960D02*
X134249040Y-72760960D01*
%TO.N,P86*%
X124426614Y-139093360D02*
X84425206Y-139093360D01*
X144084731Y-52762400D02*
X138366144Y-52762400D01*
X84425206Y-139093360D02*
X81650960Y-141867606D01*
X138366144Y-52762400D02*
X129011920Y-62116625D01*
X81650960Y-141867606D02*
X81650960Y-144780000D01*
X129011920Y-62116625D02*
X129011920Y-134508054D01*
X155707500Y-50510000D02*
X146337131Y-50510000D01*
X146337131Y-50510000D02*
X144084731Y-52762400D01*
X129011920Y-134508054D02*
X124426614Y-139093360D01*
X81650960Y-144780000D02*
X80010000Y-144780000D01*
%TO.N,P87*%
X57150000Y-152400000D02*
X69850000Y-152400000D01*
X128562400Y-61930428D02*
X138179946Y-52312880D01*
X124240416Y-138643840D02*
X128562400Y-134321856D01*
X50800000Y-148510000D02*
X53260000Y-148510000D01*
X69850000Y-142240000D02*
X80642848Y-142240000D01*
X69850000Y-152400000D02*
X69850000Y-142240000D01*
X53260000Y-148510000D02*
X57150000Y-152400000D01*
X138179946Y-52312880D02*
X143898534Y-52312880D01*
X143898534Y-52312880D02*
X146201414Y-50010000D01*
X84239008Y-138643840D02*
X124240416Y-138643840D01*
X146201414Y-50010000D02*
X155707500Y-50010000D01*
X128562400Y-134321856D02*
X128562400Y-61930428D01*
X80642848Y-142240000D02*
X84239008Y-138643840D01*
%TO.N,P88*%
X57336198Y-151950480D02*
X52850480Y-147464762D01*
X124054218Y-138194320D02*
X73259963Y-138194320D01*
X69400480Y-151950480D02*
X57336198Y-151950480D01*
X155707500Y-49510000D02*
X146065696Y-49510000D01*
X146065696Y-49510000D02*
X143712336Y-51863360D01*
X52850480Y-147464762D02*
X52850480Y-146010000D01*
X69400480Y-142053803D02*
X69400480Y-151950480D01*
X143712336Y-51863360D02*
X137993748Y-51863360D01*
X128112880Y-134135658D02*
X124054218Y-138194320D01*
X52850480Y-146010000D02*
X50800000Y-146010000D01*
X137993748Y-51863360D02*
X128112880Y-61744230D01*
X73259963Y-138194320D02*
X69400480Y-142053803D01*
X128112880Y-61744230D02*
X128112880Y-134135658D01*
X51395718Y-146010000D02*
X50800000Y-146010000D01*
%TO.N,P89*%
X137155695Y-52065695D02*
X127663360Y-61558033D01*
X127663360Y-61558033D02*
X127663360Y-133949460D01*
X53340000Y-143510000D02*
X50800000Y-143510000D01*
X145913840Y-49010000D02*
X143510000Y-51413840D01*
X123868020Y-137744800D02*
X73073766Y-137744800D01*
X137807550Y-51413840D02*
X137155695Y-52065695D01*
X73073766Y-137744800D02*
X68950960Y-141867606D01*
X54610000Y-148588564D02*
X54610000Y-144780000D01*
X54610000Y-144780000D02*
X53340000Y-143510000D01*
X127663360Y-133949460D02*
X123868020Y-137744800D01*
X68950960Y-151500960D02*
X57522396Y-151500960D01*
X155707500Y-49010000D02*
X145913840Y-49010000D01*
X68950960Y-141867606D02*
X68950960Y-151500960D01*
X57522396Y-151500960D02*
X54610000Y-148588564D01*
X143510000Y-51413840D02*
X137807550Y-51413840D01*
%TO.N,P91*%
X146278122Y-48010000D02*
X143323802Y-50964320D01*
X55059520Y-144593803D02*
X51475717Y-141010000D01*
X127213840Y-133763262D02*
X123681822Y-137295280D01*
X155707500Y-48010000D02*
X146278122Y-48010000D01*
X127213840Y-61371832D02*
X127213840Y-133763262D01*
X57708594Y-151051440D02*
X55059520Y-148402366D01*
X68501440Y-141681409D02*
X68501440Y-151051440D01*
X51475717Y-141010000D02*
X50800000Y-141010000D01*
X68501440Y-151051440D02*
X57708594Y-151051440D01*
X55059520Y-148402366D02*
X55059520Y-144593803D01*
X143323802Y-50964320D02*
X137621353Y-50964320D01*
X136837837Y-51747835D02*
X127213840Y-61371832D01*
X72887569Y-137295280D02*
X68501440Y-141681409D01*
X137621353Y-50964320D02*
X136837837Y-51747835D01*
X123681822Y-137295280D02*
X72887569Y-137295280D01*
%TO.N,P92*%
X57894792Y-150601920D02*
X55509040Y-148216168D01*
X55509040Y-143219040D02*
X50800000Y-138510000D01*
X143137604Y-50514800D02*
X137435156Y-50514800D01*
X135249977Y-52699978D02*
X126764320Y-61185635D01*
X72701371Y-136845760D02*
X68051920Y-141495212D01*
X68051920Y-150601920D02*
X57894792Y-150601920D01*
X68051920Y-141495212D02*
X68051920Y-150601920D01*
X155707500Y-47510000D02*
X146142404Y-47510000D01*
X146142404Y-47510000D02*
X143137604Y-50514800D01*
X126764320Y-133577064D02*
X123495624Y-136845760D01*
X126764320Y-61185635D02*
X126764320Y-133577064D01*
X123495624Y-136845760D02*
X72701371Y-136845760D01*
X137435156Y-50514800D02*
X135249977Y-52699978D01*
X55509040Y-148216168D02*
X55509040Y-143219040D01*
%TO.N,P93*%
X39370000Y-134620000D02*
X39370000Y-146050000D01*
X52070000Y-132080000D02*
X41910000Y-132080000D01*
X126314800Y-60999438D02*
X126314800Y-133390866D01*
X146006686Y-47010000D02*
X142951406Y-50065280D01*
X123309426Y-136396240D02*
X56386240Y-136396240D01*
X56386240Y-136396240D02*
X52070000Y-132080000D01*
X137248959Y-50065280D02*
X126314800Y-60999438D01*
X41910000Y-132080000D02*
X39370000Y-134620000D01*
X155707500Y-47010000D02*
X146006686Y-47010000D01*
X126314800Y-133390866D02*
X123309426Y-136396240D01*
X142951406Y-50065280D02*
X137248959Y-50065280D01*
%TO.N,P94*%
X29210000Y-120650000D02*
X29210000Y-119380000D01*
X123123228Y-135946720D02*
X125730000Y-133339948D01*
X118806988Y-131630480D02*
X123123228Y-135946720D01*
X24950480Y-131630480D02*
X118806988Y-131630480D01*
X125730000Y-60948521D02*
X137062761Y-49615760D01*
X137062761Y-49615760D02*
X142765209Y-49615760D01*
X24950480Y-131630480D02*
X24130000Y-130810000D01*
X24130000Y-130810000D02*
X24130000Y-120650000D01*
X142765209Y-49615760D02*
X145870969Y-46510000D01*
X125730000Y-133339948D02*
X125730000Y-60948521D01*
X24130000Y-120650000D02*
X29210000Y-120650000D01*
X145870969Y-46510000D02*
X155707500Y-46510000D01*
%TO.N,P95*%
X20320000Y-146050000D02*
X20320000Y-132080000D01*
X125280480Y-60762323D02*
X125280480Y-127000000D01*
X125280480Y-127000000D02*
X121099520Y-131180960D01*
X145735252Y-46010000D02*
X142579012Y-49166240D01*
X30850960Y-131180960D02*
X30480000Y-130810000D01*
X142579012Y-49166240D02*
X136876563Y-49166240D01*
X121099520Y-131180960D02*
X30850960Y-131180960D01*
X136876563Y-49166240D02*
X125280480Y-60762323D01*
X20320000Y-132080000D02*
X21590000Y-130810000D01*
X155707500Y-46010000D02*
X145735252Y-46010000D01*
%TO.N,P96*%
X136690365Y-48716720D02*
X124830960Y-60576126D01*
X39370000Y-130731440D02*
X36830000Y-128191440D01*
X36830000Y-128191440D02*
X36830000Y-119380000D01*
X120913322Y-130731440D02*
X39370000Y-130731440D01*
X124830960Y-60576126D02*
X124830960Y-126813802D01*
X145599535Y-45510000D02*
X142392814Y-48716720D01*
X155707500Y-45510000D02*
X145599535Y-45510000D01*
X142392814Y-48716720D02*
X136690365Y-48716720D01*
X124830960Y-126813802D02*
X120913322Y-130731440D01*
%TO.N,P97*%
X47731920Y-130281920D02*
X44450000Y-127000000D01*
X124381440Y-60389929D02*
X124381440Y-126627604D01*
X142206616Y-48267200D02*
X136504167Y-48267200D01*
X120727124Y-130281920D02*
X47731920Y-130281920D01*
X44450000Y-127000000D02*
X44450000Y-119380000D01*
X155707500Y-45010000D02*
X145463818Y-45010000D01*
X145463818Y-45010000D02*
X142206616Y-48267200D01*
X136504167Y-48267200D02*
X124381440Y-60389929D01*
X124381440Y-126627604D02*
X120727124Y-130281920D01*
%TO.N,P98*%
X54902400Y-129832400D02*
X52070000Y-127000000D01*
X142020418Y-47817680D02*
X136317969Y-47817680D01*
X155707500Y-44510000D02*
X145328101Y-44510000D01*
X145277620Y-44560480D02*
X142020418Y-47817680D01*
X120540926Y-129832400D02*
X54902400Y-129832400D01*
X123931920Y-126441406D02*
X120540926Y-129832400D01*
X123931920Y-60203732D02*
X123931920Y-126441406D01*
X145328101Y-44510000D02*
X145277620Y-44560480D01*
X134612825Y-49522825D02*
X123931920Y-60203732D01*
X136317969Y-47817680D02*
X134612825Y-49522825D01*
X52070000Y-127000000D02*
X52070000Y-119380000D01*
%TO.N,P101*%
X153840000Y-43010000D02*
X155707500Y-43010000D01*
X152146000Y-43180000D02*
X153670000Y-43180000D01*
X153670000Y-43180000D02*
X153840000Y-43010000D01*
%TO.N,P103*%
X135564966Y-47934966D02*
X124134966Y-59364966D01*
X123482400Y-126255208D02*
X120354728Y-129382880D01*
X59690000Y-129382880D02*
X59690000Y-119380000D01*
X123482400Y-60017532D02*
X123482400Y-126255208D01*
X136131771Y-47368160D02*
X135564966Y-47934966D01*
X155707500Y-42010000D02*
X147192384Y-42010000D01*
X123190000Y-126547608D02*
X120354728Y-129382880D01*
X120354728Y-129382880D02*
X59690000Y-129382880D01*
X141834224Y-47368160D02*
X136131771Y-47368160D01*
X147192384Y-42010000D02*
X141834224Y-47368160D01*
X124134966Y-59364966D02*
X123482400Y-60017532D01*
%TO.N,P104*%
X67310000Y-128933360D02*
X67310000Y-119380000D01*
X147056667Y-41510000D02*
X141648027Y-46918640D01*
X123032880Y-126069010D02*
X120168530Y-128933360D01*
X120168530Y-128933360D02*
X67310000Y-128933360D01*
X141648027Y-46918640D02*
X135945573Y-46918641D01*
X133977107Y-48887108D02*
X123032880Y-59831335D01*
X135945573Y-46918641D02*
X133977107Y-48887108D01*
X123032880Y-59831335D02*
X123032880Y-126069010D01*
X155707500Y-41510000D02*
X147056667Y-41510000D01*
%TO.N,P105*%
X122583360Y-59645138D02*
X122583360Y-125882812D01*
X141461830Y-46469120D02*
X135759377Y-46469120D01*
X146920950Y-41010000D02*
X141461830Y-46469120D01*
X122583360Y-125882812D02*
X119982332Y-128483840D01*
X155707500Y-41010000D02*
X146920950Y-41010000D01*
X77470000Y-128483840D02*
X77470000Y-119380000D01*
X135759377Y-46469120D02*
X122583360Y-59645138D01*
X119982332Y-128483840D02*
X77470000Y-128483840D01*
%TO.N,P106*%
X119796134Y-128034320D02*
X87630000Y-128034320D01*
X122133840Y-59458941D02*
X122133840Y-125696614D01*
X135573179Y-46019600D02*
X122133840Y-59458941D01*
X146785233Y-40510000D02*
X141275633Y-46019600D01*
X141275633Y-46019600D02*
X135573179Y-46019600D01*
X155707500Y-40510000D02*
X146785233Y-40510000D01*
X87630000Y-128034320D02*
X87630000Y-119380000D01*
X122133840Y-125696614D02*
X119796134Y-128034320D01*
%TO.N,P107*%
X155707500Y-40010000D02*
X147960000Y-40010000D01*
X147960000Y-40010000D02*
X147320000Y-39370000D01*
%TO.N,P116*%
X140717039Y-44671040D02*
X135014587Y-44671040D01*
X142610960Y-32647606D02*
X142610960Y-42777119D01*
X142610960Y-42777119D02*
X140717039Y-44671040D01*
X120785280Y-58900347D02*
X120785280Y-125138020D01*
X110490000Y-126685760D02*
X110490000Y-119380000D01*
X120785280Y-125138020D02*
X119237540Y-126685760D01*
X143137605Y-32120960D02*
X142610960Y-32647606D01*
X161120000Y-37597500D02*
X161120000Y-34118566D01*
X161120000Y-34118566D02*
X159122394Y-32120960D01*
X135014587Y-44671040D02*
X120785280Y-58900347D01*
X119237540Y-126685760D02*
X110490000Y-126685760D01*
X159122394Y-32120960D02*
X143137605Y-32120960D01*
%TO.N,P122*%
X142392816Y-30322881D02*
X140812880Y-31902817D01*
X164120000Y-37597500D02*
X164120000Y-33310000D01*
X161132880Y-30322880D02*
X142392816Y-30322881D01*
X118642758Y-58420000D02*
X113030000Y-58420000D01*
X139972247Y-42872960D02*
X134269797Y-42872960D01*
X134269797Y-42872960D02*
X118682758Y-58460000D01*
X164120000Y-33310000D02*
X161132880Y-30322880D01*
X140812880Y-31902817D02*
X140812880Y-42032327D01*
X140812880Y-42032327D02*
X139972247Y-42872960D01*
%TO.N,P123*%
X139786049Y-42423440D02*
X134083599Y-42423440D01*
X128247040Y-48260000D02*
X113030000Y-48260000D01*
X161319077Y-29873360D02*
X142206620Y-29873360D01*
X140363360Y-31716620D02*
X140363360Y-41846129D01*
X164620000Y-33174283D02*
X161319077Y-29873360D01*
X134083599Y-42423440D02*
X128247040Y-48260000D01*
X140363360Y-41846129D02*
X139786049Y-42423440D01*
X142206620Y-29873360D02*
X140363360Y-31716620D01*
X164620000Y-37597500D02*
X164620000Y-33174283D01*
%TO.N,P124*%
X165120000Y-37597500D02*
X165120000Y-31770000D01*
X110490000Y-99060000D02*
X110490000Y-111760000D01*
X142020423Y-29423840D02*
X139913840Y-31530423D01*
X102870000Y-99060000D02*
X110490000Y-99060000D01*
X102870000Y-43180000D02*
X102870000Y-99060000D01*
X139599851Y-41973920D02*
X104076080Y-41973920D01*
X139913840Y-41659931D02*
X139599851Y-41973920D01*
X162773840Y-29423840D02*
X142020423Y-29423840D01*
X104076080Y-41973920D02*
X102870000Y-43180000D01*
X139913840Y-31530423D02*
X139913840Y-41659931D01*
X165120000Y-31770000D02*
X165100000Y-31750000D01*
X165100000Y-31750000D02*
X162773840Y-29423840D01*
%TO.N,P125*%
X103940550Y-41473733D02*
X102420480Y-42993803D01*
X165620000Y-31634283D02*
X165417859Y-31432141D01*
X141834226Y-28974320D02*
X139464320Y-31344226D01*
X102420480Y-42993803D02*
X102420480Y-108770480D01*
X102420480Y-108770480D02*
X102870000Y-109220000D01*
X165417859Y-31432141D02*
X162960037Y-28974320D01*
X165620000Y-37597500D02*
X165620000Y-31634283D01*
X139464320Y-41473733D02*
X103940550Y-41473733D01*
X162960037Y-28974320D02*
X141834226Y-28974320D01*
X139464320Y-31344226D02*
X139464320Y-41473733D01*
X102870000Y-109220000D02*
X102870000Y-111760000D01*
%TO.N,P126*%
X141648029Y-28524800D02*
X139014800Y-31158029D01*
X139014800Y-41024213D02*
X103754353Y-41024213D01*
X95250000Y-106680000D02*
X95250000Y-111760000D01*
X103754353Y-41024213D02*
X101970960Y-42807606D01*
X166120000Y-30230000D02*
X165100000Y-29210000D01*
X101970960Y-42807606D02*
X101970960Y-105039040D01*
X100330000Y-106680000D02*
X95250000Y-106680000D01*
X164414800Y-28524800D02*
X141648029Y-28524800D01*
X165100000Y-29210000D02*
X164414800Y-28524800D01*
X101970960Y-105039040D02*
X100330000Y-106680000D01*
X166120000Y-37597500D02*
X166120000Y-30230000D01*
X139014800Y-31158029D02*
X139014800Y-41024213D01*
%TO.N,P128*%
X167120000Y-37597500D02*
X167120000Y-36745480D01*
X166569520Y-30915480D02*
X167005000Y-30480000D01*
X167120000Y-36745480D02*
X166569520Y-36195000D01*
X167120000Y-37597500D02*
X167145480Y-37572020D01*
X166569520Y-36195000D02*
X166569520Y-30915480D01*
%TO.N,P129*%
X167620000Y-33675000D02*
X167640000Y-33655000D01*
X167620000Y-37597500D02*
X167620000Y-33675000D01*
%TO.N,P130*%
X168120000Y-35405000D02*
X168430000Y-35405000D01*
X100143802Y-106230480D02*
X101521440Y-104852842D01*
X138565280Y-30971832D02*
X141461832Y-28075280D01*
X87630000Y-111760000D02*
X87630000Y-106680000D01*
X168771440Y-35063560D02*
X168771440Y-30344312D01*
X138565280Y-40574693D02*
X138565280Y-30971832D01*
X103568156Y-40574693D02*
X138565280Y-40574693D01*
X168120000Y-37597500D02*
X168120000Y-35405000D01*
X101521440Y-104852842D02*
X101521440Y-42621409D01*
X165592137Y-27165009D02*
X142372104Y-27165009D01*
X142372104Y-27165009D02*
X140712056Y-28825056D01*
X168430000Y-35405000D02*
X168771440Y-35063560D01*
X87630000Y-106680000D02*
X88079520Y-106230480D01*
X101521440Y-42621409D02*
X103568156Y-40574693D01*
X88079520Y-106230480D02*
X100143802Y-106230480D01*
X168771440Y-30344312D02*
X165592137Y-27165009D01*
%TO.N,P131*%
X169220960Y-35850000D02*
X169220960Y-30158114D01*
X138115760Y-40125173D02*
X103381959Y-40125173D01*
X101071920Y-104666644D02*
X99957604Y-105780960D01*
X168620000Y-35850000D02*
X169220960Y-35850000D01*
X99957604Y-105780960D02*
X52969040Y-105780960D01*
X142185906Y-26715489D02*
X138115760Y-30785635D01*
X52969040Y-105780960D02*
X52070000Y-106680000D01*
X138115760Y-30785635D02*
X138115760Y-40125173D01*
X168620000Y-37597500D02*
X168620000Y-35850000D01*
X101071920Y-42435212D02*
X101071920Y-104666644D01*
X165778335Y-26715489D02*
X142185906Y-26715489D01*
X169220960Y-30158114D02*
X165778335Y-26715489D01*
X52070000Y-106680000D02*
X52070000Y-111760000D01*
X103381959Y-40125173D02*
X101071920Y-42435212D01*
%TO.N,P132*%
X103195762Y-39675653D02*
X100622400Y-42249015D01*
X137666240Y-39675653D02*
X103195762Y-39675653D01*
X137666240Y-30599438D02*
X137666240Y-39675653D01*
X45798560Y-105331440D02*
X44450000Y-106680000D01*
X169670480Y-29971916D02*
X165964533Y-26265969D01*
X100622400Y-42249015D02*
X100622400Y-104480446D01*
X99771406Y-105331440D02*
X45798560Y-105331440D01*
X169670480Y-36405000D02*
X169670480Y-29971916D01*
X141999709Y-26265969D02*
X137666240Y-30599438D01*
X169120000Y-37597500D02*
X169120000Y-36405000D01*
X100622400Y-104480446D02*
X99771406Y-105331440D01*
X44450000Y-106680000D02*
X44450000Y-111760000D01*
X165964533Y-26265969D02*
X141999709Y-26265969D01*
X169120000Y-36405000D02*
X169670480Y-36405000D01*
%TO.N,P134*%
X99585208Y-104881920D02*
X38628080Y-104881920D01*
X170120000Y-31687130D02*
X170120000Y-29785718D01*
X166150731Y-25816449D02*
X163230449Y-25816449D01*
X103009565Y-39226133D02*
X100172880Y-42062818D01*
X38628080Y-104881920D02*
X36830000Y-106680000D01*
X141813512Y-25816449D02*
X137216720Y-30413241D01*
X137216720Y-39226133D02*
X103009565Y-39226133D01*
X164249318Y-25816449D02*
X163230449Y-25816449D01*
X170120000Y-37597500D02*
X170120000Y-31687130D01*
X170120000Y-29785718D02*
X166150731Y-25816449D01*
X36830000Y-106680000D02*
X36830000Y-111760000D01*
X137216720Y-30413241D02*
X137216720Y-39226133D01*
X100172880Y-42062818D02*
X100172880Y-104294248D01*
X100172880Y-104294248D02*
X99585208Y-104881920D01*
X163230449Y-25816449D02*
X141813512Y-25816449D01*
%TO.N,P135*%
X170620000Y-37597500D02*
X170620000Y-29650000D01*
X29210000Y-106680000D02*
X29210000Y-111760000D01*
X136767200Y-38776613D02*
X102823368Y-38776613D01*
X170620000Y-29650000D02*
X166336929Y-25366929D01*
X99723360Y-104108050D02*
X99399010Y-104432400D01*
X31457600Y-104432400D02*
X29210000Y-106680000D01*
X102823368Y-38776613D02*
X99723360Y-41876621D01*
X99723360Y-41876621D02*
X99723360Y-104108050D01*
X136767200Y-30227044D02*
X136767200Y-38776613D01*
X99399010Y-104432400D02*
X31457600Y-104432400D01*
X166336929Y-25366929D02*
X141627315Y-25366929D01*
X141627315Y-25366929D02*
X136767200Y-30227044D01*
%TO.N,P136*%
X141441117Y-24917409D02*
X136317680Y-30040847D01*
X170497859Y-28892141D02*
X166523126Y-24917409D01*
X97790000Y-88900000D02*
X87630000Y-88900000D01*
X171120000Y-37597500D02*
X171120000Y-29514282D01*
X102637171Y-38327093D02*
X99273840Y-41690424D01*
X136317680Y-30040847D02*
X136317680Y-38327093D01*
X166523126Y-24917409D02*
X141441117Y-24917409D01*
X99273840Y-41690424D02*
X99273840Y-87416160D01*
X171120000Y-29514283D02*
X170497859Y-28892141D01*
X171120000Y-29514282D02*
X170497859Y-28892141D01*
X99273840Y-87416160D02*
X97790000Y-88900000D01*
X136317680Y-38327093D02*
X102637171Y-38327093D01*
%TO.N,P139*%
X172620000Y-37597500D02*
X172620000Y-30378566D01*
X102450974Y-37877573D02*
X98824320Y-41504227D01*
X135868160Y-29854650D02*
X135868160Y-37877573D01*
X141254919Y-24467889D02*
X135868160Y-29854650D01*
X166709323Y-24467889D02*
X141254919Y-24467889D01*
X172620000Y-30378566D02*
X166709323Y-24467889D01*
X98824320Y-77234320D02*
X97318640Y-78740000D01*
X98824320Y-41504227D02*
X98824320Y-77234320D01*
X97318640Y-78740000D02*
X87630000Y-78740000D01*
X135868160Y-37877573D02*
X102450974Y-37877573D01*
%TO.N,P140*%
X135418640Y-29668453D02*
X135418640Y-37428053D01*
X98374800Y-41318030D02*
X98374800Y-66624800D01*
X98374800Y-66624800D02*
X96419600Y-68580000D01*
X102264777Y-37428053D02*
X98374800Y-41318030D01*
X166895520Y-24018369D02*
X141068722Y-24018369D01*
X135418640Y-37428053D02*
X102264777Y-37428053D01*
X141068722Y-24018369D02*
X135418640Y-29668453D01*
X173120000Y-30242849D02*
X166895520Y-24018369D01*
X96419600Y-68580000D02*
X87630000Y-68580000D01*
X173120000Y-37597500D02*
X173120000Y-30242849D01*
%TO.N,P141*%
X102078579Y-36978533D02*
X97925280Y-41131832D01*
X167081717Y-23568849D02*
X140882525Y-23568849D01*
X140882525Y-23568849D02*
X134969120Y-29482256D01*
X173620000Y-37597500D02*
X173620000Y-30107132D01*
X134969120Y-36978533D02*
X102078579Y-36978533D01*
X97925280Y-41131832D02*
X97925280Y-56015280D01*
X134969120Y-29482256D02*
X134969120Y-36978533D01*
X173620000Y-30107132D02*
X167081717Y-23568849D01*
X97925280Y-56015280D02*
X95520560Y-58420000D01*
X95520560Y-58420000D02*
X87630000Y-58420000D01*
%TO.N,P142*%
X95250000Y-48260000D02*
X87630000Y-48260000D01*
X134519600Y-36529013D02*
X101892382Y-36529013D01*
X101892382Y-36529013D02*
X97475760Y-40945635D01*
X134519600Y-29296059D02*
X134519600Y-36529013D01*
X174120000Y-37597500D02*
X174120000Y-29971415D01*
X174120000Y-29971415D02*
X167267914Y-23119329D01*
X97475760Y-40945635D02*
X97475760Y-46034240D01*
X140696330Y-23119329D02*
X134519600Y-29296059D01*
X167267914Y-23119329D02*
X140696330Y-23119329D01*
X97475760Y-46034240D02*
X95250000Y-48260000D01*
%TO.N,P56*%
X188214000Y-53356000D02*
X188214000Y-57150000D01*
X165620000Y-66560000D02*
X166370000Y-67310000D01*
X188230000Y-53340000D02*
X186690000Y-53340000D01*
X166370000Y-67310000D02*
X167640000Y-67310000D01*
X165620000Y-58922500D02*
X165620000Y-66560000D01*
X188230000Y-53340000D02*
X188214000Y-53356000D01*
%TO.N,GND*%
X175120000Y-57010000D02*
X173990000Y-55880000D01*
X155707500Y-57010000D02*
X148897500Y-57010000D01*
X147190000Y-66675000D02*
X146555000Y-67310000D01*
X176530000Y-6350000D02*
X178165718Y-6350000D01*
X203860000Y-32780000D02*
X199630000Y-32780000D01*
X199630000Y-32780000D02*
X199390000Y-33020000D01*
X177032500Y-44510000D02*
X174200000Y-44510000D01*
X162120000Y-37597500D02*
X162120000Y-38930000D01*
X191770000Y-50800000D02*
X191770000Y-48260000D01*
X154904994Y-48510000D02*
X155707500Y-48510000D01*
X186670000Y-60980000D02*
X186670000Y-59710000D01*
X163830000Y-55880000D02*
X163830000Y-50800000D01*
X170620000Y-58922500D02*
X170620000Y-57590000D01*
X166620000Y-38400006D02*
X166370000Y-38650006D01*
X173990000Y-51680000D02*
X173990000Y-50800000D01*
X163830000Y-6350000D02*
X166370000Y-6350000D01*
X135255000Y-71120000D02*
X144145000Y-71120000D01*
X195580000Y-55880000D02*
X198120000Y-53340000D01*
X171450000Y-45720000D02*
X171450000Y-48260000D01*
X159580000Y-44010000D02*
X160460000Y-44010000D01*
X212725000Y-24130000D02*
X212725000Y-23495000D01*
X192330000Y-60400000D02*
X193040000Y-59690000D01*
X204470000Y-53100000D02*
X208040000Y-53100000D01*
X155707500Y-44010000D02*
X159580000Y-44010000D01*
X166620000Y-38400006D02*
X166620000Y-37597500D01*
X166370000Y-55329040D02*
X166370000Y-50800000D01*
X173990000Y-55880000D02*
X173990000Y-55244282D01*
X163120000Y-56590000D02*
X163830000Y-55880000D01*
X204470000Y-53100000D02*
X199630000Y-53100000D01*
X175979994Y-48260000D02*
X171450000Y-48260000D01*
X177032500Y-44510000D02*
X176229994Y-44510000D01*
X208040000Y-53100000D02*
X208280000Y-53340000D01*
X177032500Y-48510000D02*
X176229994Y-48510000D01*
X156972000Y-56642000D02*
X156972000Y-54838000D01*
X157200000Y-54610000D02*
X160020000Y-54610000D01*
X160020000Y-54610000D02*
X160180006Y-54449994D01*
X174200000Y-44510000D02*
X172990000Y-45720000D01*
X146555000Y-67310000D02*
X144715000Y-67310000D01*
X158500000Y-48510000D02*
X155707500Y-48510000D01*
X194680960Y-28310960D02*
X199390000Y-33020000D01*
X170330000Y-40640000D02*
X171525000Y-41835000D01*
X170620000Y-51630000D02*
X171450000Y-50800000D01*
X162120000Y-38930000D02*
X162120000Y-42350000D01*
X166094520Y-56874520D02*
X166370000Y-57150000D01*
X168910000Y-39370000D02*
X168910000Y-40640000D01*
X194680960Y-11694511D02*
X194680960Y-28310960D01*
X162120000Y-42350000D02*
X161290000Y-43180000D01*
X163120000Y-58922500D02*
X163120000Y-56590000D01*
X173990000Y-6350000D02*
X176530000Y-6350000D01*
X199390000Y-43180000D02*
X199150000Y-42940000D01*
X192330000Y-61790000D02*
X192330000Y-60400000D01*
X199390000Y-53340000D02*
X195728500Y-53340000D01*
X172990000Y-45720000D02*
X171450000Y-45720000D01*
X160180006Y-51909994D02*
X161290000Y-50800000D01*
X199390000Y-43180000D02*
X199630000Y-42940000D01*
X166094520Y-56155480D02*
X166094520Y-56874520D01*
X195580000Y-59690000D02*
X195580000Y-55880000D01*
X208280000Y-53340000D02*
X208280000Y-55880000D01*
X171450000Y-48260000D02*
X171450000Y-50800000D01*
X161290000Y-50800000D02*
X163830000Y-50800000D01*
X134255000Y-70120000D02*
X135255000Y-71120000D01*
X156972000Y-54838000D02*
X157200000Y-54610000D01*
X168910000Y-6350000D02*
X171450000Y-6350000D01*
X166094520Y-56155480D02*
X165819040Y-55880000D01*
X175120000Y-58922500D02*
X175120000Y-57010000D01*
X163120000Y-58922500D02*
X163120000Y-62179520D01*
X178165718Y-6350000D02*
X183510229Y-11694511D01*
X162120000Y-42350000D02*
X164660000Y-42350000D01*
X199630000Y-53100000D02*
X199390000Y-53340000D01*
X209875000Y-15395000D02*
X209875000Y-20645000D01*
X175120000Y-58922500D02*
X179572500Y-58922500D01*
X197090000Y-42940000D02*
X199150000Y-42940000D01*
X165819040Y-55880000D02*
X166370000Y-55329040D01*
X134255000Y-68580000D02*
X134255000Y-70120000D01*
X171450000Y-6350000D02*
X173990000Y-6350000D01*
X171450000Y-50800000D02*
X166370000Y-50800000D01*
X160460000Y-44010000D02*
X161290000Y-43180000D01*
X163120000Y-62179520D02*
X163170480Y-62230000D01*
X146217500Y-59690000D02*
X147255000Y-58652500D01*
X212725000Y-23495000D02*
X209875000Y-20645000D01*
X166120000Y-58922500D02*
X166120000Y-57400000D01*
X206205000Y-58420000D02*
X206205000Y-57955000D01*
X176229994Y-48510000D02*
X175979994Y-48260000D01*
X170620000Y-58922500D02*
X170620000Y-51630000D01*
X166370000Y-40640000D02*
X166370000Y-38650006D01*
X171450000Y-50800000D02*
X173990000Y-50800000D01*
X199630000Y-42940000D02*
X203860000Y-42940000D01*
X198120000Y-53340000D02*
X199390000Y-53340000D01*
X156604000Y-57010000D02*
X156972000Y-56642000D01*
X206205000Y-57955000D02*
X208280000Y-55880000D01*
X166370000Y-6350000D02*
X168910000Y-6350000D01*
X155707500Y-57010000D02*
X156604000Y-57010000D01*
X172160000Y-42470000D02*
X171450000Y-43180000D01*
X172174511Y-53428794D02*
X172174511Y-52615489D01*
X177032500Y-52510000D02*
X174820000Y-52510000D01*
X199150000Y-42940000D02*
X199630000Y-42940000D01*
X168910000Y-40640000D02*
X170330000Y-40640000D01*
X163620000Y-62230000D02*
X163620000Y-58922500D01*
X193040000Y-59690000D02*
X195580000Y-59690000D01*
X192330000Y-61790000D02*
X187480000Y-61790000D01*
X165120000Y-58922500D02*
X165120000Y-57170000D01*
X172174511Y-52615489D02*
X173990000Y-50800000D01*
X183510229Y-11694511D02*
X194680960Y-11694511D01*
X186670000Y-59710000D02*
X186690000Y-59690000D01*
X166370000Y-40640000D02*
X168910000Y-40640000D01*
X159580000Y-44010000D02*
X159580000Y-47430000D01*
X171450000Y-43180000D02*
X171450000Y-45720000D01*
X164660000Y-42350000D02*
X166370000Y-40640000D01*
X160180006Y-54449994D02*
X160180006Y-51909994D01*
X169620000Y-37597500D02*
X169620000Y-38660000D01*
X191770000Y-48260000D02*
X197090000Y-42940000D01*
X163830000Y-50800000D02*
X166370000Y-50800000D01*
X166120000Y-57400000D02*
X166370000Y-57150000D01*
X174820000Y-52510000D02*
X173990000Y-51680000D01*
X161290000Y-6350000D02*
X163830000Y-6350000D01*
X148897500Y-57010000D02*
X147255000Y-58652500D01*
X169620000Y-38660000D02*
X168910000Y-39370000D01*
X187480000Y-61790000D02*
X186670000Y-60980000D01*
X163170480Y-62230000D02*
X163620000Y-62230000D01*
X166120000Y-59589288D02*
X166094520Y-59614768D01*
X144715000Y-59690000D02*
X146217500Y-59690000D01*
X171525000Y-41835000D02*
X172160000Y-42470000D01*
X173990000Y-55244282D02*
X172174511Y-53428794D01*
X159580000Y-47430000D02*
X158500000Y-48510000D01*
X179572500Y-58922500D02*
X180340000Y-59690000D01*
%TO.N,D0_DIN*%
X161671000Y-70866000D02*
X161671000Y-68199000D01*
X161544000Y-70739000D02*
X161671000Y-70866000D01*
X161671000Y-68072000D02*
X161544000Y-67945000D01*
X161671000Y-68199000D02*
X161671000Y-68072000D01*
X162120000Y-67750000D02*
X161671000Y-68199000D01*
X162120000Y-58922500D02*
X162120000Y-67750000D01*
X154875000Y-64770000D02*
X153335000Y-64770000D01*
%TD*%
M02*
