%TF.GenerationSoftware,KiCad,Pcbnew,6.0.5-2.fc34*%
%TF.CreationDate,2022-08-16T14:02:57+03:00*%
%TF.ProjectId,spartan3,73706172-7461-46e3-932e-6b696361645f,rev?*%
%TF.SameCoordinates,Original*%
%TF.FileFunction,Paste,Bot*%
%TF.FilePolarity,Positive*%
%FSLAX46Y46*%
G04 Gerber Fmt 4.6, Leading zero omitted, Abs format (unit mm)*
G04 Created by KiCad (PCBNEW 6.0.5-2.fc34) date 2022-08-16 14:02:57*
%MOMM*%
%LPD*%
G01*
G04 APERTURE LIST*
G04 Aperture macros list*
%AMRoundRect*
0 Rectangle with rounded corners*
0 $1 Rounding radius*
0 $2 $3 $4 $5 $6 $7 $8 $9 X,Y pos of 4 corners*
0 Add a 4 corners polygon primitive as box body*
4,1,4,$2,$3,$4,$5,$6,$7,$8,$9,$2,$3,0*
0 Add four circle primitives for the rounded corners*
1,1,$1+$1,$2,$3*
1,1,$1+$1,$4,$5*
1,1,$1+$1,$6,$7*
1,1,$1+$1,$8,$9*
0 Add four rect primitives between the rounded corners*
20,1,$1+$1,$2,$3,$4,$5,0*
20,1,$1+$1,$4,$5,$6,$7,0*
20,1,$1+$1,$6,$7,$8,$9,0*
20,1,$1+$1,$8,$9,$2,$3,0*%
G04 Aperture macros list end*
%ADD10RoundRect,0.230000X0.230000X0.375000X-0.230000X0.375000X-0.230000X-0.375000X0.230000X-0.375000X0*%
%ADD11RoundRect,0.150000X0.825000X0.150000X-0.825000X0.150000X-0.825000X-0.150000X0.825000X-0.150000X0*%
%ADD12RoundRect,0.250000X-0.337500X-0.475000X0.337500X-0.475000X0.337500X0.475000X-0.337500X0.475000X0*%
%ADD13R,2.000000X1.500000*%
%ADD14R,2.000000X3.800000*%
%ADD15RoundRect,0.250000X0.250000X0.750000X-0.250000X0.750000X-0.250000X-0.750000X0.250000X-0.750000X0*%
%ADD16RoundRect,0.250000X0.350000X0.450000X-0.350000X0.450000X-0.350000X-0.450000X0.350000X-0.450000X0*%
%ADD17RoundRect,0.075000X0.662500X0.075000X-0.662500X0.075000X-0.662500X-0.075000X0.662500X-0.075000X0*%
%ADD18RoundRect,0.075000X0.075000X0.662500X-0.075000X0.662500X-0.075000X-0.662500X0.075000X-0.662500X0*%
%ADD19RoundRect,0.250000X-0.450000X0.350000X-0.450000X-0.350000X0.450000X-0.350000X0.450000X0.350000X0*%
%ADD20RoundRect,0.250000X-0.750000X0.250000X-0.750000X-0.250000X0.750000X-0.250000X0.750000X0.250000X0*%
%ADD21RoundRect,0.250000X0.750000X-0.250000X0.750000X0.250000X-0.750000X0.250000X-0.750000X-0.250000X0*%
%ADD22RoundRect,0.250000X-0.475000X0.337500X-0.475000X-0.337500X0.475000X-0.337500X0.475000X0.337500X0*%
%ADD23RoundRect,0.250000X0.337500X0.475000X-0.337500X0.475000X-0.337500X-0.475000X0.337500X-0.475000X0*%
%ADD24RoundRect,0.250000X0.325000X0.450000X-0.325000X0.450000X-0.325000X-0.450000X0.325000X-0.450000X0*%
%ADD25RoundRect,0.250000X0.450000X-0.350000X0.450000X0.350000X-0.450000X0.350000X-0.450000X-0.350000X0*%
%ADD26R,3.500000X2.000000*%
%ADD27RoundRect,0.250000X-0.250000X-0.750000X0.250000X-0.750000X0.250000X0.750000X-0.250000X0.750000X0*%
%ADD28RoundRect,0.250000X-0.350000X-0.450000X0.350000X-0.450000X0.350000X0.450000X-0.350000X0.450000X0*%
G04 APERTURE END LIST*
D10*
%TO.C,U_eeprom_0*%
X144145000Y-65520000D03*
X145285000Y-65520000D03*
X145285000Y-64020000D03*
X144145000Y-64020000D03*
D11*
X147190000Y-62865000D03*
X147190000Y-64135000D03*
X147190000Y-65405000D03*
X147190000Y-66675000D03*
X142240000Y-66675000D03*
X142240000Y-65405000D03*
X142240000Y-64135000D03*
X142240000Y-62865000D03*
%TD*%
D12*
%TO.C,C_clk_0*%
X206205000Y-55880000D03*
X208280000Y-55880000D03*
%TD*%
D13*
%TO.C,U_pwr_vcc_0*%
X203860000Y-32780000D03*
X203860000Y-30480000D03*
D14*
X210160000Y-30480000D03*
D13*
X203860000Y-28180000D03*
%TD*%
D15*
%TO.C,J_P128_0*%
X167005000Y-30480000D03*
%TD*%
D16*
%TO.C,R__eeprom_dq1_0*%
X153335000Y-64770000D03*
X151335000Y-64770000D03*
%TD*%
D17*
%TO.C,U_FPGA_0*%
X177032500Y-39510000D03*
X177032500Y-40010000D03*
X177032500Y-40510000D03*
X177032500Y-41010000D03*
X177032500Y-41510000D03*
X177032500Y-42010000D03*
X177032500Y-42510000D03*
X177032500Y-43010000D03*
X177032500Y-43510000D03*
X177032500Y-44010000D03*
X177032500Y-44510000D03*
X177032500Y-45010000D03*
X177032500Y-45510000D03*
X177032500Y-46010000D03*
X177032500Y-46510000D03*
X177032500Y-47010000D03*
X177032500Y-47510000D03*
X177032500Y-48010000D03*
X177032500Y-48510000D03*
X177032500Y-49010000D03*
X177032500Y-49510000D03*
X177032500Y-50010000D03*
X177032500Y-50510000D03*
X177032500Y-51010000D03*
X177032500Y-51510000D03*
X177032500Y-52010000D03*
X177032500Y-52510000D03*
X177032500Y-53010000D03*
X177032500Y-53510000D03*
X177032500Y-54010000D03*
X177032500Y-54510000D03*
X177032500Y-55010000D03*
X177032500Y-55510000D03*
X177032500Y-56010000D03*
X177032500Y-56510000D03*
X177032500Y-57010000D03*
D18*
X175120000Y-58922500D03*
X174620000Y-58922500D03*
X174120000Y-58922500D03*
X173620000Y-58922500D03*
X173120000Y-58922500D03*
X172620000Y-58922500D03*
X172120000Y-58922500D03*
X171620000Y-58922500D03*
X171120000Y-58922500D03*
X170620000Y-58922500D03*
X170120000Y-58922500D03*
X169620000Y-58922500D03*
X169120000Y-58922500D03*
X168620000Y-58922500D03*
X168120000Y-58922500D03*
X167620000Y-58922500D03*
X167120000Y-58922500D03*
X166620000Y-58922500D03*
X166120000Y-58922500D03*
X165620000Y-58922500D03*
X165120000Y-58922500D03*
X164620000Y-58922500D03*
X164120000Y-58922500D03*
X163620000Y-58922500D03*
X163120000Y-58922500D03*
X162620000Y-58922500D03*
X162120000Y-58922500D03*
X161620000Y-58922500D03*
X161120000Y-58922500D03*
X160620000Y-58922500D03*
X160120000Y-58922500D03*
X159620000Y-58922500D03*
X159120000Y-58922500D03*
X158620000Y-58922500D03*
X158120000Y-58922500D03*
X157620000Y-58922500D03*
D17*
X155707500Y-57010000D03*
X155707500Y-56510000D03*
X155707500Y-56010000D03*
X155707500Y-55510000D03*
X155707500Y-55010000D03*
X155707500Y-54510000D03*
X155707500Y-54010000D03*
X155707500Y-53510000D03*
X155707500Y-53010000D03*
X155707500Y-52510000D03*
X155707500Y-52010000D03*
X155707500Y-51510000D03*
X155707500Y-51010000D03*
X155707500Y-50510000D03*
X155707500Y-50010000D03*
X155707500Y-49510000D03*
X155707500Y-49010000D03*
X155707500Y-48510000D03*
X155707500Y-48010000D03*
X155707500Y-47510000D03*
X155707500Y-47010000D03*
X155707500Y-46510000D03*
X155707500Y-46010000D03*
X155707500Y-45510000D03*
X155707500Y-45010000D03*
X155707500Y-44510000D03*
X155707500Y-44010000D03*
X155707500Y-43510000D03*
X155707500Y-43010000D03*
X155707500Y-42510000D03*
X155707500Y-42010000D03*
X155707500Y-41510000D03*
X155707500Y-41010000D03*
X155707500Y-40510000D03*
X155707500Y-40010000D03*
X155707500Y-39510000D03*
D18*
X157620000Y-37597500D03*
X158120000Y-37597500D03*
X158620000Y-37597500D03*
X159120000Y-37597500D03*
X159620000Y-37597500D03*
X160120000Y-37597500D03*
X160620000Y-37597500D03*
X161120000Y-37597500D03*
X161620000Y-37597500D03*
X162120000Y-37597500D03*
X162620000Y-37597500D03*
X163120000Y-37597500D03*
X163620000Y-37597500D03*
X164120000Y-37597500D03*
X164620000Y-37597500D03*
X165120000Y-37597500D03*
X165620000Y-37597500D03*
X166120000Y-37597500D03*
X166620000Y-37597500D03*
X167120000Y-37597500D03*
X167620000Y-37597500D03*
X168120000Y-37597500D03*
X168620000Y-37597500D03*
X169120000Y-37597500D03*
X169620000Y-37597500D03*
X170120000Y-37597500D03*
X170620000Y-37597500D03*
X171120000Y-37597500D03*
X171620000Y-37597500D03*
X172120000Y-37597500D03*
X172620000Y-37597500D03*
X173120000Y-37597500D03*
X173620000Y-37597500D03*
X174120000Y-37597500D03*
X174620000Y-37597500D03*
X175120000Y-37597500D03*
%TD*%
D19*
%TO.C,R_M_0*%
X163195000Y-63770000D03*
X163195000Y-65770000D03*
%TD*%
D12*
%TO.C,C_clk_out_0*%
X193653500Y-53340000D03*
X195728500Y-53340000D03*
%TD*%
D16*
%TO.C,R_JTAG_TMS_0*%
X155940000Y-13970000D03*
X153940000Y-13970000D03*
%TD*%
D15*
%TO.C,J_TDO_0*%
X150114000Y-34798000D03*
%TD*%
D20*
%TO.C,J_P101_0*%
X152146000Y-43180000D03*
%TD*%
D19*
%TO.C,R_VS_0*%
X156845000Y-66310000D03*
X156845000Y-68310000D03*
%TD*%
D16*
%TO.C,R_JTAG_TDI_0*%
X185150000Y-13970000D03*
X183150000Y-13970000D03*
%TD*%
D21*
%TO.C,J_P114_0*%
X158242000Y-33147000D03*
%TD*%
D13*
%TO.C,U_pwr_aux_0*%
X203860000Y-53100000D03*
X203860000Y-50800000D03*
D14*
X210160000Y-50800000D03*
D13*
X203860000Y-48500000D03*
%TD*%
D19*
%TO.C,R_VS_2*%
X160020000Y-63770000D03*
X160020000Y-65770000D03*
%TD*%
D16*
%TO.C,R_JTAG_TDO_0*%
X176260000Y-13970000D03*
X174260000Y-13970000D03*
%TD*%
D20*
%TO.C,J_P78_0*%
X152400000Y-54102000D03*
%TD*%
D22*
%TO.C,C_eeprom_vcc_0*%
X147255000Y-58652500D03*
X147255000Y-60727500D03*
%TD*%
D23*
%TO.C,C_clk_1*%
X208280000Y-58420000D03*
X206205000Y-58420000D03*
%TD*%
D15*
%TO.C,J_VCC_aux_0*%
X213360000Y-50800000D03*
%TD*%
D20*
%TO.C,J_VCC_0*%
X213360000Y-29210000D03*
%TD*%
D16*
%TO.C,R_eeprom_w_0*%
X153335000Y-67310000D03*
X151335000Y-67310000D03*
%TD*%
D24*
%TO.C,F_pwr_0*%
X200415000Y-10160000D03*
X198365000Y-10160000D03*
%TD*%
D20*
%TO.C,J_P111_0*%
X154813000Y-34290000D03*
%TD*%
%TO.C,J_INIT_B_0*%
X167386000Y-113030000D03*
%TD*%
D16*
%TO.C,R_JTAG_TCK_0*%
X166100000Y-13970000D03*
X164100000Y-13970000D03*
%TD*%
D25*
%TO.C,R_HSWAP_EN_0*%
X175260000Y-28940000D03*
X175260000Y-26940000D03*
%TD*%
D16*
%TO.C,R_eeprom_spi_clk_pullup_0*%
X136255000Y-66040000D03*
X134255000Y-66040000D03*
%TD*%
D19*
%TO.C,R_eeprom_hold_0*%
X142175000Y-58690000D03*
X142175000Y-60690000D03*
%TD*%
D16*
%TO.C,R_clk_oe_0*%
X208010000Y-63500000D03*
X206010000Y-63500000D03*
%TD*%
D20*
%TO.C,J_VCC_core_0*%
X212725000Y-45085000D03*
%TD*%
D26*
%TO.C,X_clk_0*%
X198830000Y-61790000D03*
X192330000Y-61790000D03*
X192330000Y-57590000D03*
X198830000Y-57590000D03*
%TD*%
D15*
%TO.C,J_TCK_0*%
X146558000Y-36322000D03*
%TD*%
D16*
%TO.C,R_eeprom_s_0*%
X153335000Y-62230000D03*
X151335000Y-62230000D03*
%TD*%
D13*
%TO.C,U_pwr_vcc_core_0*%
X203860000Y-42940000D03*
X203860000Y-40640000D03*
D14*
X210160000Y-40640000D03*
D13*
X203860000Y-38340000D03*
%TD*%
D20*
%TO.C,J_P84_0*%
X147828000Y-54102000D03*
%TD*%
D19*
%TO.C,R_VS_1*%
X159512000Y-69231000D03*
X159512000Y-71231000D03*
%TD*%
D27*
%TO.C,J_P29_0*%
X181610000Y-53340000D03*
%TD*%
D20*
%TO.C,J_P107_0*%
X147320000Y-39370000D03*
%TD*%
%TO.C,J_DONE_0*%
X152146000Y-58420000D03*
%TD*%
D16*
%TO.C,R_clk_out_0*%
X190230000Y-53340000D03*
X188230000Y-53340000D03*
%TD*%
D20*
%TO.C,J_PROG_B_0*%
X179832000Y-37084000D03*
%TD*%
D28*
%TO.C,R_PROG_B_0*%
X175530000Y-24130000D03*
X177530000Y-24130000D03*
%TD*%
D15*
%TO.C,J_P48_0*%
X169672000Y-61976000D03*
%TD*%
%TO.C,J_P129_0*%
X167640000Y-33655000D03*
%TD*%
D20*
%TO.C,J_P36_0*%
X179832000Y-57404000D03*
%TD*%
D16*
%TO.C,R_eeprom_spi_clk_pulldown_0*%
X136255000Y-68580000D03*
X134255000Y-68580000D03*
%TD*%
D15*
%TO.C,J_DOUT_BUSY_0*%
X156900000Y-99100000D03*
%TD*%
%TO.C,J_TMS_0*%
X144780000Y-40132000D03*
%TD*%
D20*
%TO.C,J_TDI_0*%
X178816000Y-34036000D03*
%TD*%
D21*
%TO.C,J_P31_0*%
X179578000Y-54102000D03*
%TD*%
M02*
