%TF.GenerationSoftware,KiCad,Pcbnew,6.0.5-2.fc34*%
%TF.CreationDate,2022-08-16T14:02:58+03:00*%
%TF.ProjectId,spartan3,73706172-7461-46e3-932e-6b696361645f,rev?*%
%TF.SameCoordinates,Original*%
%TF.FileFunction,Profile,NP*%
%FSLAX46Y46*%
G04 Gerber Fmt 4.6, Leading zero omitted, Abs format (unit mm)*
G04 Created by KiCad (PCBNEW 6.0.5-2.fc34) date 2022-08-16 14:02:58*
%MOMM*%
%LPD*%
G01*
G04 APERTURE LIST*
%TA.AperFunction,Profile*%
%ADD10C,0.200000*%
%TD*%
%TA.AperFunction,Profile*%
%ADD11C,0.100000*%
%TD*%
G04 APERTURE END LIST*
D10*
X0Y0D02*
X215900000Y0D01*
X215900000Y0D02*
X215900000Y-160020000D01*
X215900000Y-160020000D02*
X0Y-160020000D01*
X0Y-160020000D02*
X0Y0D01*
D11*
X209536666Y-152000000D02*
G75*
G03*
X209536666Y-152000000I-1666666J0D01*
G01*
X205370000Y-152000000D02*
X210370000Y-152000000D01*
X207870000Y-149500000D02*
X207870000Y-154500000D01*
X117236666Y-8000000D02*
G75*
G03*
X117236666Y-8000000I-1666666J0D01*
G01*
X113070000Y-8000000D02*
X118070000Y-8000000D01*
X115570000Y-5500000D02*
X115570000Y-10500000D01*
X208736666Y-8000000D02*
G75*
G03*
X208736666Y-8000000I-1666666J0D01*
G01*
X204570000Y-8000000D02*
X209570000Y-8000000D01*
X207070000Y-5500000D02*
X207070000Y-10500000D01*
X9736666Y-8100000D02*
G75*
G03*
X9736666Y-8100000I-1666666J0D01*
G01*
X5570000Y-8100000D02*
X10570000Y-8100000D01*
X8070000Y-5600000D02*
X8070000Y-10600000D01*
X117166666Y-102500000D02*
G75*
G03*
X117166666Y-102500000I-1666666J0D01*
G01*
X113000000Y-102500000D02*
X118000000Y-102500000D01*
X115500000Y-100000000D02*
X115500000Y-105000000D01*
X9636666Y-152000000D02*
G75*
G03*
X9636666Y-152000000I-1666666J0D01*
G01*
X5470000Y-152000000D02*
X10470000Y-152000000D01*
X7970000Y-149500000D02*
X7970000Y-154500000D01*
M02*
