M48
; DRILL file {KiCad 6.0.5-2.fc34} date Tue 16 Aug 2022 02:03:12 PM EEST
; FORMAT={-:-/ absolute / metric / decimal}
; #@! TF.CreationDate,2022-08-16T14:03:12+03:00
; #@! TF.GenerationSoftware,Kicad,Pcbnew,6.0.5-2.fc34
; #@! TF.FileFunction,Plated,1,2,PTH
FMAT,2
METRIC
; #@! TA.AperFunction,Plated,PTH,ViaDrill
T1C0.400
; #@! TA.AperFunction,Plated,PTH,ComponentDrill
T2C0.600
; #@! TA.AperFunction,Plated,PTH,ComponentDrill
T3C0.762
; #@! TA.AperFunction,Plated,PTH,ComponentDrill
T4C0.900
; #@! TA.AperFunction,Plated,PTH,ComponentDrill
T5C1.000
; #@! TA.AperFunction,Plated,PTH,ComponentDrill
T6C1.100
; #@! TA.AperFunction,Plated,PTH,ComponentDrill
T7C1.300
%
G90
G05
T1
X21.59Y-30.48
X21.59Y-130.81
X22.86Y-86.36
X29.21Y-111.76
X29.21Y-119.38
X30.48Y-130.81
X36.83Y-111.76
X36.83Y-119.38
X39.37Y-146.05
X44.45Y-111.76
X44.45Y-119.38
X52.07Y-111.76
X52.07Y-119.38
X59.69Y-119.38
X67.31Y-119.38
X77.47Y-119.38
X80.01Y-144.78
X80.01Y-149.86
X80.01Y-154.94
X85.09Y-30.48
X87.63Y-111.76
X87.63Y-119.38
X87.63Y-144.78
X95.25Y-111.76
X95.25Y-119.38
X95.25Y-144.78
X97.79Y-30.48
X102.87Y-111.76
X102.87Y-119.38
X102.87Y-144.78
X110.49Y-111.76
X110.49Y-119.38
X110.49Y-144.78
X118.11Y-144.78
X128.27Y-144.78
X133.35Y-73.66
X134.62Y-111.76
X135.89Y-113.03
X137.16Y-72.39
X138.43Y-72.39
X139.7Y-67.31
X140.97Y-71.12
X140.97Y-76.2
X140.97Y-116.84
X144.145Y-71.12
X144.715Y-59.69
X144.715Y-67.31
X144.78Y-38.1
X148.59Y-36.83
X149.86Y-62.23
X150.368Y-54.102
X151.13Y-13.97
X151.13Y-76.2
X151.13Y-116.84
X151.13Y-144.78
X152.4Y-35.56
X152.4Y-93.98
X152.781Y-59.563
X154.875Y-64.77
X154.94Y-68.58
X154.94Y-71.12
X156.591Y-59.563
X157.48Y-40.64
X157.532Y-51.51
X158.75Y-40.64
X158.75Y-43.18
X158.75Y-53.34
X158.75Y-74.93
X160.02Y-55.88
X160.02Y-67.31
X161.29Y-13.97
X161.29Y-53.34
X161.29Y-116.84
X161.671Y-68.199
X161.671Y-70.866
X163.62Y-40.214
X163.83Y-48.26
X163.83Y-68.58
X163.83Y-76.2
X163.83Y-124.46
X165.12Y-57.17
X166.37Y-57.15
X166.37Y-144.78
X167.386Y-70.866
X167.64Y-67.31
X168.91Y-48.26
X168.91Y-53.34
X168.91Y-95.25
X170.18Y-39.37
X170.18Y-93.98
X171.45Y-13.97
X171.45Y-40.64
X171.45Y-53.34
X171.45Y-55.88
X171.45Y-116.84
X172.72Y-62.23
X172.72Y-64.77
X173.99Y-43.18
X173.99Y-76.2
X174.44Y-45.51
X174.44Y-53.34
X175.26Y-54.61
X176.53Y-25.4
X176.53Y-33.02
X177.8Y-59.69
X177.8Y-61.468
X177.8Y-67.31
X179.07Y-68.58
X180.34Y-13.97
X180.34Y-31.75
X180.34Y-59.69
X180.34Y-63.5
X181.61Y-72.39
X181.61Y-116.84
X181.61Y-144.78
X184.15Y-52.07
X184.15Y-72.39
X184.15Y-76.2
X185.42Y-43.18
X186.69Y-50.8
X186.69Y-53.34
X186.69Y-59.69
X188.196Y-31.514
X191.77Y-12.7
X191.77Y-50.8
X191.77Y-116.84
X194.31Y-30.48
X194.31Y-72.39
X194.31Y-76.2
X196.85Y-144.78
X198.12Y-40.64
X199.39Y-33.02
X199.39Y-43.18
X199.39Y-53.34
X201.612Y-51.117
X201.93Y-116.84
X203.2Y-24.13
X204.47Y-72.39
X204.47Y-76.2
X206.77Y-28.18
X207.01Y-33.02
X207.01Y-38.1
X207.01Y-43.18
X209.55Y-44.45
X209.55Y-114.3
X212.09Y-59.69
X214.63Y-73.66
T3
X6.35Y-78.74
X6.35Y-81.28
X6.35Y-83.82
X11.43Y-78.74
X11.43Y-81.28
X11.43Y-83.82
X50.8Y-136.01
X50.8Y-138.51
X50.8Y-141.01
X50.8Y-143.51
X50.8Y-146.01
X50.8Y-148.51
X50.8Y-151.01
X54.61Y-88.9
X54.61Y-91.44
X54.61Y-93.98
X59.69Y-88.9
X59.69Y-91.44
X59.69Y-93.98
X69.85Y-27.94
X69.85Y-30.48
X69.85Y-33.02
X69.85Y-78.74
X69.85Y-81.28
X69.85Y-83.82
X74.93Y-27.94
X74.93Y-30.48
X74.93Y-33.02
X74.93Y-78.74
X74.93Y-81.28
X74.93Y-83.82
X82.55Y-45.72
X82.55Y-48.26
X82.55Y-50.8
X82.55Y-55.88
X82.55Y-58.42
X82.55Y-60.96
X82.55Y-66.04
X82.55Y-68.58
X82.55Y-71.12
X82.55Y-76.2
X82.55Y-78.74
X82.55Y-81.28
X82.55Y-86.36
X82.55Y-88.9
X82.55Y-91.44
X87.63Y-45.72
X87.63Y-48.26
X87.63Y-50.8
X87.63Y-55.88
X87.63Y-58.42
X87.63Y-60.96
X87.63Y-66.04
X87.63Y-68.58
X87.63Y-71.12
X87.63Y-76.2
X87.63Y-78.74
X87.63Y-81.28
X87.63Y-86.36
X87.63Y-88.9
X87.63Y-91.44
X107.95Y-45.72
X107.95Y-48.26
X107.95Y-50.8
X107.95Y-55.88
X107.95Y-58.42
X107.95Y-60.96
X107.95Y-66.04
X107.95Y-68.58
X107.95Y-71.12
X107.95Y-76.2
X107.95Y-78.74
X107.95Y-81.28
X107.95Y-86.36
X107.95Y-88.9
X107.95Y-91.44
X113.03Y-45.72
X113.03Y-48.26
X113.03Y-50.8
X113.03Y-55.88
X113.03Y-58.42
X113.03Y-60.96
X113.03Y-66.04
X113.03Y-68.58
X113.03Y-71.12
X113.03Y-76.2
X113.03Y-78.74
X113.03Y-81.28
X113.03Y-86.36
X113.03Y-88.9
X113.03Y-91.44
X120.65Y-27.94
X120.65Y-30.48
X120.65Y-33.02
X125.73Y-27.94
X125.73Y-30.48
X125.73Y-33.02
T4
X202.875Y-15.395
X205.375Y-15.395
X207.375Y-15.395
X209.875Y-15.395
T5
X152.35Y-104.5
X152.35Y-107.04
X154.89Y-104.5
X154.89Y-107.04
X157.43Y-104.5
X157.43Y-107.04
X159.97Y-104.5
X159.97Y-107.04
X161.29Y-6.35
X161.29Y-8.89
X162.51Y-104.5
X162.51Y-107.04
X163.83Y-6.35
X163.83Y-8.89
X165.05Y-104.5
X165.05Y-107.04
X166.37Y-6.35
X166.37Y-8.89
X167.59Y-104.5
X167.59Y-107.04
X168.91Y-6.35
X168.91Y-8.89
X171.45Y-6.35
X171.45Y-8.89
X173.99Y-6.35
X173.99Y-8.89
X176.53Y-6.35
X176.53Y-8.89
X177.8Y-72.39
X179.07Y-27.94
X181.61Y-27.94
X188.214Y-57.15
X212.725Y-24.13
T6
X5.967Y-95.81
X5.967Y-102.31
X10.467Y-95.81
X10.467Y-102.31
T2
G00X33.734Y-51.151
M15
G01X33.915Y-50.475
M16
G05
G00X33.915Y-56.845
M15
G01X33.734Y-56.169
M16
G05
G00X36.424Y-46.129
M15
G01X36.919Y-45.634
M16
G05
G00X36.919Y-61.686
M15
G01X36.424Y-61.191
M16
G05
G00X41.265Y-43.125
M15
G01X41.941Y-42.944
M16
G05
G00X41.941Y-64.376
M15
G01X41.265Y-64.195
M16
G05
G00X41.867Y-50.583
M15
G01X41.373Y-51.077
M16
G05
G00X46.959Y-42.944
M15
G01X47.635Y-43.125
M16
G05
G00X47.635Y-64.195
M15
G01X46.959Y-64.376
M16
G05
G00X51.981Y-45.634
M15
G01X52.476Y-46.129
M16
G05
G00X52.476Y-61.191
M15
G01X51.981Y-61.686
M16
G05
G00X54.985Y-50.475
M15
G01X55.166Y-51.151
M16
G05
G00X55.166Y-56.169
M15
G01X54.985Y-56.845
M16
G05
T3
G00X20.32Y-144.681
M15
G01X20.32Y-147.419
M16
G05
G00X25.4Y-144.681
M15
G01X25.4Y-147.419
M16
G05
G00X135.221Y-80.98
M15
G01X135.959Y-80.98
M16
G05
G00X135.221Y-83.52
M15
G01X135.959Y-83.52
M16
G05
G00X135.221Y-86.06
M15
G01X135.959Y-86.06
M16
G05
G00X145.381Y-80.98
M15
G01X146.119Y-80.98
M16
G05
G00X145.381Y-83.52
M15
G01X146.119Y-83.52
M16
G05
G00X145.381Y-86.06
M15
G01X146.119Y-86.06
M16
G05
G00X155.541Y-80.98
M15
G01X156.279Y-80.98
M16
G05
G00X155.541Y-83.52
M15
G01X156.279Y-83.52
M16
G05
G00X155.541Y-86.06
M15
G01X156.279Y-86.06
M16
G05
G00X165.701Y-80.98
M15
G01X166.439Y-80.98
M16
G05
G00X165.701Y-83.52
M15
G01X166.439Y-83.52
M16
G05
G00X165.701Y-86.06
M15
G01X166.439Y-86.06
M16
G05
G00X175.861Y-80.98
M15
G01X176.599Y-80.98
M16
G05
G00X175.861Y-83.52
M15
G01X176.599Y-83.52
M16
G05
G00X175.861Y-86.06
M15
G01X176.599Y-86.06
M16
G05
G00X186.021Y-80.98
M15
G01X186.759Y-80.98
M16
G05
G00X186.021Y-83.52
M15
G01X186.759Y-83.52
M16
G05
G00X186.021Y-86.06
M15
G01X186.759Y-86.06
M16
G05
G00X196.181Y-80.98
M15
G01X196.919Y-80.98
M16
G05
G00X196.181Y-83.52
M15
G01X196.919Y-83.52
M16
G05
G00X196.181Y-86.06
M15
G01X196.919Y-86.06
M16
G05
G00X206.341Y-80.98
M15
G01X207.079Y-80.98
M16
G05
G00X206.341Y-83.52
M15
G01X207.079Y-83.52
M16
G05
G00X206.341Y-86.06
M15
G01X207.079Y-86.06
M16
G05
T7
G00X199.805Y-16.495
M15
G01X199.805Y-15.495
M16
G05
G00X206.875Y-20.175
M15
G01X205.875Y-20.175
M16
G05
G00X212.945Y-15.495
M15
G01X212.945Y-16.495
M16
G05
T0
M30
